%TF.GenerationSoftware,KiCad,Pcbnew,10.0.1*%
%TF.CreationDate,2026-09-21T16:44:53-03:00*%
%TF.ProjectId,Inv_Spot_Pot,496e765f-5370-46f7-945f-506f742e6b69,rev?*%
%TF.SameCoordinates,Original*%
%TF.FileFunction,Paste,Bot*%
%TF.FilePolarity,Positive*%
%FSLAX46Y46*%
G04 Gerber Fmt 4.6, Leading zero omitted, Abs format (unit mm)*
G04 Created by KiCad (PCBNEW 10.0.1) date 2026-09-21 16:44:53*
%MOMM*%
%LPD*%
G01*
G04 APERTURE LIST*
G04 Aperture macros list*
%AMRoundRect*
0 Rectangle with rounded corners*
0 $1 Rounding radius*
0 $2 $3 $4 $5 $6 $7 $8 $9 X,Y pos of 4 corners*
0 Add a 4 corners polygon primitive as box body*
4,1,4,$2,$3,$4,$5,$6,$7,$8,$9,$2,$3,0*
0 Add four circle primitives for the rounded corners*
1,1,$1+$1,$2,$3*
1,1,$1+$1,$4,$5*
1,1,$1+$1,$6,$7*
1,1,$1+$1,$8,$9*
0 Add four rect primitives between the rounded corners*
20,1,$1+$1,$2,$3,$4,$5,0*
20,1,$1+$1,$4,$5,$6,$7,0*
20,1,$1+$1,$6,$7,$8,$9,0*
20,1,$1+$1,$8,$9,$2,$3,0*%
G04 Aperture macros list end*
%ADD10RoundRect,0.250000X0.362500X1.425000X-0.362500X1.425000X-0.362500X-1.425000X0.362500X-1.425000X0*%
%ADD11RoundRect,0.250000X-0.625000X0.400000X-0.625000X-0.400000X0.625000X-0.400000X0.625000X0.400000X0*%
%ADD12RoundRect,0.250000X-0.650000X0.412500X-0.650000X-0.412500X0.650000X-0.412500X0.650000X0.412500X0*%
%ADD13RoundRect,0.250000X0.450000X0.800000X-0.450000X0.800000X-0.450000X-0.800000X0.450000X-0.800000X0*%
%ADD14RoundRect,0.250000X0.400000X0.625000X-0.400000X0.625000X-0.400000X-0.625000X0.400000X-0.625000X0*%
%ADD15RoundRect,0.250000X-0.362500X-1.425000X0.362500X-1.425000X0.362500X1.425000X-0.362500X1.425000X0*%
%ADD16RoundRect,0.250000X-0.450000X-0.800000X0.450000X-0.800000X0.450000X0.800000X-0.450000X0.800000X0*%
%ADD17RoundRect,0.250000X-1.500000X-0.650000X1.500000X-0.650000X1.500000X0.650000X-1.500000X0.650000X0*%
%ADD18RoundRect,0.250000X-0.412500X-0.650000X0.412500X-0.650000X0.412500X0.650000X-0.412500X0.650000X0*%
%ADD19RoundRect,0.250000X0.625000X-0.400000X0.625000X0.400000X-0.625000X0.400000X-0.625000X-0.400000X0*%
%ADD20RoundRect,0.250000X0.650000X-0.412500X0.650000X0.412500X-0.650000X0.412500X-0.650000X-0.412500X0*%
%ADD21RoundRect,0.250000X0.400000X0.600000X-0.400000X0.600000X-0.400000X-0.600000X0.400000X-0.600000X0*%
%ADD22RoundRect,0.250000X-0.650000X1.000000X-0.650000X-1.000000X0.650000X-1.000000X0.650000X1.000000X0*%
%ADD23RoundRect,0.250000X0.412500X0.650000X-0.412500X0.650000X-0.412500X-0.650000X0.412500X-0.650000X0*%
%ADD24RoundRect,0.250000X1.000000X0.900000X-1.000000X0.900000X-1.000000X-0.900000X1.000000X-0.900000X0*%
%ADD25RoundRect,0.249999X0.750001X0.640001X-0.750001X0.640001X-0.750001X-0.640001X0.750001X-0.640001X0*%
%ADD26RoundRect,0.250000X0.650000X-1.000000X0.650000X1.000000X-0.650000X1.000000X-0.650000X-1.000000X0*%
G04 APERTURE END LIST*
D10*
%TO.C,R27*%
X184862500Y-93400000D03*
X178937500Y-93400000D03*
%TD*%
D11*
%TO.C,R13*%
X131710000Y-84455000D03*
X131710000Y-87555000D03*
%TD*%
D12*
%TO.C,C12*%
X163407500Y-45977500D03*
X163407500Y-49102500D03*
%TD*%
D13*
%TO.C,D6*%
X211942500Y-45670000D03*
X207542500Y-45670000D03*
%TD*%
D14*
%TO.C,R2*%
X125550000Y-162000000D03*
X122450000Y-162000000D03*
%TD*%
D15*
%TO.C,R25*%
X153537500Y-98400000D03*
X159462500Y-98400000D03*
%TD*%
D16*
%TO.C,D7*%
X131300000Y-91000000D03*
X135700000Y-91000000D03*
%TD*%
D11*
%TO.C,R14*%
X213142500Y-48420000D03*
X213142500Y-51520000D03*
%TD*%
%TO.C,R17*%
X128450000Y-90450000D03*
X128450000Y-93550000D03*
%TD*%
D17*
%TO.C,D2*%
X169107500Y-40040000D03*
X174107500Y-40040000D03*
%TD*%
D18*
%TO.C,C21*%
X171937500Y-153000000D03*
X175062500Y-153000000D03*
%TD*%
D11*
%TO.C,R12*%
X165107500Y-34990000D03*
X165107500Y-38090000D03*
%TD*%
D17*
%TO.C,D3*%
X123000000Y-158500000D03*
X128000000Y-158500000D03*
%TD*%
D11*
%TO.C,R9*%
X38500000Y-38950000D03*
X38500000Y-42050000D03*
%TD*%
D10*
%TO.C,R29*%
X193362500Y-163800000D03*
X187437500Y-163800000D03*
%TD*%
D19*
%TO.C,R5*%
X152500000Y-81550000D03*
X152500000Y-78450000D03*
%TD*%
D10*
%TO.C,R26*%
X184862500Y-89190000D03*
X178937500Y-89190000D03*
%TD*%
D18*
%TO.C,C9*%
X220680000Y-38670000D03*
X223805000Y-38670000D03*
%TD*%
D20*
%TO.C,C22*%
X134450000Y-87562500D03*
X134450000Y-84437500D03*
%TD*%
D17*
%TO.C,D8*%
X159500000Y-159500000D03*
X164500000Y-159500000D03*
%TD*%
D18*
%TO.C,C8*%
X226180000Y-38670000D03*
X229305000Y-38670000D03*
%TD*%
D20*
%TO.C,C24*%
X47225000Y-56057500D03*
X47225000Y-52932500D03*
%TD*%
D14*
%TO.C,R20*%
X164550000Y-164500000D03*
X161450000Y-164500000D03*
%TD*%
D15*
%TO.C,R24*%
X153537500Y-94900000D03*
X159462500Y-94900000D03*
%TD*%
D21*
%TO.C,D9*%
X207357500Y-59740000D03*
X203857500Y-59740000D03*
%TD*%
D14*
%TO.C,R7*%
X213157500Y-59740000D03*
X210057500Y-59740000D03*
%TD*%
D11*
%TO.C,R8*%
X200807500Y-59990000D03*
X200807500Y-63090000D03*
%TD*%
D22*
%TO.C,D19*%
X44000000Y-52850000D03*
X44000000Y-56850000D03*
%TD*%
D11*
%TO.C,R1*%
X119500000Y-158450000D03*
X119500000Y-161550000D03*
%TD*%
D23*
%TO.C,C20*%
X167535665Y-83330808D03*
X164410665Y-83330808D03*
%TD*%
D19*
%TO.C,R15*%
X213242500Y-41220000D03*
X213242500Y-38120000D03*
%TD*%
D10*
%TO.C,R30*%
X153762500Y-151190000D03*
X147837500Y-151190000D03*
%TD*%
D14*
%TO.C,R16*%
X175050000Y-150000000D03*
X171950000Y-150000000D03*
%TD*%
D17*
%TO.C,D5*%
X156000000Y-82500000D03*
X161000000Y-82500000D03*
%TD*%
D24*
%TO.C,D4*%
X212392500Y-55670000D03*
X208092500Y-55670000D03*
%TD*%
D10*
%TO.C,R28*%
X193362500Y-159590000D03*
X187437500Y-159590000D03*
%TD*%
D14*
%TO.C,R6*%
X158050000Y-79500000D03*
X154950000Y-79500000D03*
%TD*%
D25*
%TO.C,U2*%
X197772500Y-60670000D03*
X197772500Y-63210000D03*
X188242500Y-63210000D03*
X188242500Y-60670000D03*
%TD*%
D26*
%TO.C,D20*%
X48500000Y-45200000D03*
X48500000Y-41200000D03*
%TD*%
D14*
%TO.C,R3*%
X167550000Y-81000000D03*
X164450000Y-81000000D03*
%TD*%
%TO.C,R19*%
X159050000Y-162500000D03*
X155950000Y-162500000D03*
%TD*%
D10*
%TO.C,R31*%
X153762500Y-155400000D03*
X147837500Y-155400000D03*
%TD*%
D14*
%TO.C,R18*%
X134050000Y-94000000D03*
X130950000Y-94000000D03*
%TD*%
M02*
