M48
; DRILL file KiCad 10.0.1 date 2026-09-21T16:44:49
; FORMAT={-:-/ absolute / metric / decimal}
; #@! TF.CreationDate,2026-09-21T16:44:49-03:00
; #@! TF.GenerationSoftware,Kicad,Pcbnew,10.0.1
; #@! TF.FileFunction,Plated,1,2,PTH
FMAT,2
METRIC
; #@! TA.AperFunction,Plated,PTH,ViaDrill
T1C0.300
; #@! TA.AperFunction,Plated,PTH,ComponentDrill
T2C0.650
; #@! TA.AperFunction,Plated,PTH,ViaDrill
T3C0.800
; #@! TA.AperFunction,Plated,PTH,ComponentDrill
T4C0.800
; #@! TA.AperFunction,Plated,PTH,ViaDrill
T5C0.820
; #@! TA.AperFunction,Plated,PTH,ComponentDrill
T6C0.820
; #@! TA.AperFunction,Plated,PTH,ComponentDrill
T7C0.900
; #@! TA.AperFunction,Plated,PTH,ComponentDrill
T8C0.950
; #@! TA.AperFunction,Plated,PTH,ComponentDrill
T9C1.000
; #@! TA.AperFunction,Plated,PTH,ComponentDrill
T10C1.100
; #@! TA.AperFunction,Plated,PTH,ComponentDrill
T11C1.500
; #@! TA.AperFunction,Plated,PTH,ViaDrill
T12C1.600
; #@! TA.AperFunction,Plated,PTH,ComponentDrill
T13C1.600
; #@! TA.AperFunction,Plated,PTH,ComponentDrill
T14C2.000
; #@! TA.AperFunction,Plated,PTH,ComponentDrill
T15C6.000
; #@! TA.AperFunction,Plated,PTH,ComponentDrill
T16C9.000
%
G90
G05
T1
X103.75Y-169.25
X103.75Y-170.0
X103.75Y-170.75
X103.75Y-171.5
X103.75Y-172.25
X104.5Y-169.25
X104.5Y-170.0
X104.5Y-170.75
X104.5Y-171.5
X104.5Y-172.25
X105.25Y-169.25
X105.25Y-170.0
X105.25Y-170.75
X105.25Y-171.5
X105.25Y-172.25
X106.0Y-169.25
X106.0Y-170.0
X106.0Y-170.75
X106.0Y-171.5
X106.0Y-172.25
X106.75Y-169.25
X106.75Y-170.0
X106.75Y-170.75
X106.75Y-171.5
X106.75Y-172.25
X107.5Y-169.25
X107.5Y-170.0
X107.5Y-170.75
X107.5Y-171.5
X107.5Y-172.25
X108.25Y-169.25
X108.25Y-170.0
X108.25Y-170.75
X108.25Y-171.5
X108.25Y-172.25
X141.5Y-169.5
X141.5Y-170.25
X141.5Y-171.0
X141.5Y-171.75
X141.5Y-172.5
X142.25Y-169.5
X142.25Y-170.25
X142.25Y-171.0
X142.25Y-171.75
X142.25Y-172.5
X143.0Y-169.5
X143.0Y-170.25
X143.0Y-171.0
X143.0Y-171.75
X143.0Y-172.5
X143.75Y-169.5
X143.75Y-170.25
X143.75Y-171.0
X143.75Y-171.75
X143.75Y-172.5
X144.5Y-169.5
X144.5Y-170.25
X144.5Y-171.0
X144.5Y-171.75
X144.5Y-172.5
X145.25Y-169.5
X145.25Y-170.25
X145.25Y-171.0
X145.25Y-171.75
X145.25Y-172.5
X146.0Y-169.5
X146.0Y-170.25
X146.0Y-171.0
X146.0Y-171.75
X146.0Y-172.5
X150.5Y-62.5
X171.25Y-169.25
X171.25Y-170.0
X171.25Y-170.75
X171.25Y-171.5
X171.25Y-172.25
X172.0Y-169.25
X172.0Y-170.0
X172.0Y-170.75
X172.0Y-171.5
X172.0Y-172.25
X172.75Y-169.25
X172.75Y-170.0
X172.75Y-170.75
X172.75Y-171.5
X172.75Y-172.25
X173.5Y-169.25
X173.5Y-170.0
X173.5Y-170.75
X173.5Y-171.5
X173.5Y-172.25
X174.25Y-169.25
X174.25Y-170.0
X174.25Y-170.75
X174.25Y-171.5
X174.25Y-172.25
X175.0Y-169.25
X175.0Y-170.0
X175.0Y-170.75
X175.0Y-171.5
X175.0Y-172.25
X175.75Y-169.25
X175.75Y-170.0
X175.75Y-170.75
X175.75Y-171.5
X175.75Y-172.25
X177.5Y-163.0
X177.5Y-163.75
X177.5Y-164.5
X177.5Y-165.25
X177.5Y-166.0
X177.5Y-166.75
X177.5Y-167.5
X178.25Y-163.0
X178.25Y-163.75
X178.25Y-164.5
X178.25Y-165.25
X178.25Y-166.0
X178.25Y-166.75
X178.25Y-167.5
X179.0Y-163.0
X179.0Y-163.75
X179.0Y-164.5
X179.0Y-165.25
X179.0Y-166.0
X179.0Y-166.75
X179.0Y-167.5
X179.75Y-163.0
X179.75Y-163.75
X179.75Y-164.5
X179.75Y-165.25
X179.75Y-166.0
X179.75Y-166.75
X179.75Y-167.5
X180.5Y-163.0
X180.5Y-163.75
X180.5Y-164.5
X180.5Y-165.25
X180.5Y-166.0
X180.5Y-166.75
X180.5Y-167.5
T2
X12.387Y-102.299
X12.387Y-107.389
X12.387Y-112.449
X12.387Y-117.529
X27.627Y-107.369
X27.637Y-94.649
X27.637Y-97.199
X27.637Y-102.299
X27.637Y-112.439
X27.637Y-117.539
T3
X63.5Y-38.7
T4
X156.0Y-147.0
X156.0Y-152.0
X156.5Y-87.0
X156.5Y-92.0
X157.243Y-58.823
X157.243Y-62.323
X157.535Y-37.919
X157.535Y-43.419
X158.607Y-51.54
X163.107Y-51.54
X166.797Y-44.73
X166.797Y-47.27
X166.797Y-49.81
X166.797Y-52.35
X174.417Y-44.73
X174.417Y-47.27
X174.417Y-49.81
X174.417Y-52.35
X181.25Y-80.25
X181.25Y-85.25
X185.2Y-157.95
X185.2Y-162.95
X210.242Y-37.67
X210.242Y-41.17
X215.742Y-48.323
X215.742Y-51.823
X222.7Y-73.0
X222.7Y-78.0
X231.0Y-161.0
X231.0Y-166.0
T5
X115.75Y-124.75
X118.25Y-124.75
X170.742Y-55.17
X207.082Y-67.59
X219.242Y-45.17
X221.742Y-56.17
X222.742Y-48.67
X223.242Y-41.67
X224.242Y-60.17
X226.242Y-44.67
X229.242Y-48.17
X232.242Y-52.17
T6
X80.9Y-41.09
X80.9Y-62.91
X88.9Y-44.8
X88.9Y-58.8
X99.9Y-44.8
X99.9Y-58.8
X107.8Y-40.89
X107.8Y-62.71
T7
X41.4Y-70.25
X42.125Y-40.5
X44.665Y-40.5
X48.9Y-71.55
X106.15Y-97.9
X106.15Y-102.9
X106.15Y-107.9
X106.15Y-112.9
X119.1Y-97.9
X119.1Y-102.9
X119.1Y-107.9
X119.1Y-112.9
X180.242Y-35.67
X180.242Y-40.67
X180.242Y-50.67
X180.242Y-55.67
X197.742Y-35.67
X197.742Y-40.67
X197.742Y-45.67
X197.742Y-50.67
X197.742Y-55.67
T8
X222.202Y-30.17
X222.202Y-32.67
X222.202Y-35.17
T9
X72.4Y-56.5
X73.9Y-46.5
X115.735Y-151.5
X116.4Y-40.525
X116.4Y-50.525
X116.4Y-53.5
X116.4Y-63.5
X118.275Y-151.5
X124.442Y-40.457
X124.442Y-50.457
X124.442Y-57.957
X124.442Y-65.457
X150.0Y-34.0
X152.54Y-34.0
X165.107Y-32.79
X165.107Y-40.29
X187.742Y-68.14
X197.742Y-68.14
X215.468Y-35.17
X218.007Y-35.17
T10
X44.0Y-49.65
X44.0Y-59.85
T11
X133.0Y-159.0
X138.45Y-159.0
X139.5Y-88.5
X143.9Y-159.0
X144.95Y-88.5
X150.4Y-88.5
X164.55Y-88.465
X168.013Y-159.315
X170.0Y-88.465
X173.463Y-159.315
X175.45Y-88.465
X178.913Y-159.315
X213.36Y-131.45
X213.36Y-136.9
X213.36Y-142.35
X213.485Y-114.45
X213.485Y-119.9
X213.485Y-125.35
X213.525Y-78.65
X213.525Y-84.1
X213.525Y-89.55
X213.525Y-95.65
X213.525Y-101.1
X213.525Y-106.55
X231.4Y-114.45
X231.4Y-119.9
X231.4Y-125.35
X231.4Y-131.45
X231.4Y-136.9
X231.4Y-142.35
X231.44Y-78.65
X231.44Y-84.1
X231.44Y-89.55
X231.44Y-95.65
X231.44Y-101.1
X231.44Y-106.55
T12
X56.9Y-38.68
X70.4Y-38.93
T13
X56.66Y-45.85
X59.2Y-63.65
T14
X47.5Y-119.0
X50.0Y-156.0
X57.5Y-119.0
X60.0Y-156.0
X75.57Y-94.0
X81.57Y-135.5
X85.57Y-94.0
X91.57Y-135.5
T15
X139.0Y-137.5
X172.2Y-137.45
T16
X199.3Y-99.1
X199.3Y-121.0
X211.0Y-161.0
M30
