%TF.GenerationSoftware,KiCad,Pcbnew,10.0.1*%
%TF.CreationDate,2026-09-21T16:44:53-03:00*%
%TF.ProjectId,Inv_Spot_Pot,496e765f-5370-46f7-945f-506f742e6b69,rev?*%
%TF.SameCoordinates,Original*%
%TF.FileFunction,Soldermask,Bot*%
%TF.FilePolarity,Negative*%
%FSLAX46Y46*%
G04 Gerber Fmt 4.6, Leading zero omitted, Abs format (unit mm)*
G04 Created by KiCad (PCBNEW 10.0.1) date 2026-09-21 16:44:53*
%MOMM*%
%LPD*%
G01*
G04 APERTURE LIST*
G04 Aperture macros list*
%AMRoundRect*
0 Rectangle with rounded corners*
0 $1 Rounding radius*
0 $2 $3 $4 $5 $6 $7 $8 $9 X,Y pos of 4 corners*
0 Add a 4 corners polygon primitive as box body*
4,1,4,$2,$3,$4,$5,$6,$7,$8,$9,$2,$3,0*
0 Add four circle primitives for the rounded corners*
1,1,$1+$1,$2,$3*
1,1,$1+$1,$4,$5*
1,1,$1+$1,$6,$7*
1,1,$1+$1,$8,$9*
0 Add four rect primitives between the rounded corners*
20,1,$1+$1,$2,$3,$4,$5,0*
20,1,$1+$1,$4,$5,$6,$7,0*
20,1,$1+$1,$6,$7,$8,$9,0*
20,1,$1+$1,$8,$9,$2,$3,0*%
G04 Aperture macros list end*
%ADD10RoundRect,0.250000X-0.950000X-0.550000X0.950000X-0.550000X0.950000X0.550000X-0.950000X0.550000X0*%
%ADD11O,2.400000X1.600000*%
%ADD12C,2.000000*%
%ADD13RoundRect,0.250000X-1.750000X-1.750000X1.750000X-1.750000X1.750000X1.750000X-1.750000X1.750000X0*%
%ADD14C,4.000000*%
%ADD15C,1.600000*%
%ADD16R,4.500000X2.500000*%
%ADD17O,4.500000X2.500000*%
%ADD18C,2.400000*%
%ADD19R,2.500000X2.500000*%
%ADD20C,2.500000*%
%ADD21RoundRect,0.190500X-0.444500X0.559500X-0.444500X-0.559500X0.444500X-0.559500X0.444500X0.559500X0*%
%ADD22C,1.500000*%
%ADD23RoundRect,1.800000X4.200000X-4.200000X4.200000X4.200000X-4.200000X4.200000X-4.200000X-4.200000X0*%
%ADD24RoundRect,2.700000X6.300000X-6.300000X6.300000X6.300000X-6.300000X6.300000X-6.300000X-6.300000X0*%
%ADD25RoundRect,0.250000X1.750000X1.750000X-1.750000X1.750000X-1.750000X-1.750000X1.750000X-1.750000X0*%
%ADD26R,2.000000X2.000000*%
%ADD27RoundRect,0.250000X0.725000X-0.600000X0.725000X0.600000X-0.725000X0.600000X-0.725000X-0.600000X0*%
%ADD28O,1.950000X1.700000*%
%ADD29R,2.500000X4.500000*%
%ADD30O,2.500000X4.500000*%
%ADD31RoundRect,0.250000X0.550000X-0.550000X0.550000X0.550000X-0.550000X0.550000X-0.550000X-0.550000X0*%
%ADD32R,1.800000X1.800000*%
%ADD33C,1.800000*%
%ADD34RoundRect,0.250000X-0.550000X0.550000X-0.550000X-0.550000X0.550000X-0.550000X0.550000X0.550000X0*%
%ADD35RoundRect,0.312500X0.687500X-0.687500X0.687500X0.687500X-0.687500X0.687500X-0.687500X-0.687500X0*%
%ADD36C,3.000000*%
%ADD37RoundRect,0.625000X0.625000X0.625000X-0.625000X0.625000X-0.625000X-0.625000X0.625000X-0.625000X0*%
%ADD38R,1.700000X1.700000*%
%ADD39C,1.700000*%
%ADD40RoundRect,0.250000X-0.702500X0.702500X-0.702500X-0.702500X0.702500X-0.702500X0.702500X0.702500X0*%
%ADD41C,1.900000*%
%ADD42C,1.905000*%
%ADD43RoundRect,0.250000X0.550000X0.550000X-0.550000X0.550000X-0.550000X-0.550000X0.550000X-0.550000X0*%
%ADD44RoundRect,0.250000X0.362500X1.425000X-0.362500X1.425000X-0.362500X-1.425000X0.362500X-1.425000X0*%
%ADD45RoundRect,0.250000X-0.625000X0.400000X-0.625000X-0.400000X0.625000X-0.400000X0.625000X0.400000X0*%
%ADD46RoundRect,0.250000X-0.650000X0.412500X-0.650000X-0.412500X0.650000X-0.412500X0.650000X0.412500X0*%
%ADD47RoundRect,0.250000X0.450000X0.800000X-0.450000X0.800000X-0.450000X-0.800000X0.450000X-0.800000X0*%
%ADD48RoundRect,0.250000X0.400000X0.625000X-0.400000X0.625000X-0.400000X-0.625000X0.400000X-0.625000X0*%
%ADD49RoundRect,0.250000X-0.362500X-1.425000X0.362500X-1.425000X0.362500X1.425000X-0.362500X1.425000X0*%
%ADD50RoundRect,0.250000X-0.450000X-0.800000X0.450000X-0.800000X0.450000X0.800000X-0.450000X0.800000X0*%
%ADD51RoundRect,0.250000X-1.500000X-0.650000X1.500000X-0.650000X1.500000X0.650000X-1.500000X0.650000X0*%
%ADD52RoundRect,0.250000X-0.412500X-0.650000X0.412500X-0.650000X0.412500X0.650000X-0.412500X0.650000X0*%
%ADD53RoundRect,0.250000X0.625000X-0.400000X0.625000X0.400000X-0.625000X0.400000X-0.625000X-0.400000X0*%
%ADD54RoundRect,0.250000X0.650000X-0.412500X0.650000X0.412500X-0.650000X0.412500X-0.650000X-0.412500X0*%
%ADD55RoundRect,0.250000X0.400000X0.600000X-0.400000X0.600000X-0.400000X-0.600000X0.400000X-0.600000X0*%
%ADD56RoundRect,0.250000X-0.650000X1.000000X-0.650000X-1.000000X0.650000X-1.000000X0.650000X1.000000X0*%
%ADD57RoundRect,0.250000X0.412500X0.650000X-0.412500X0.650000X-0.412500X-0.650000X0.412500X-0.650000X0*%
%ADD58RoundRect,0.250000X1.000000X0.900000X-1.000000X0.900000X-1.000000X-0.900000X1.000000X-0.900000X0*%
%ADD59RoundRect,0.249999X0.750001X0.640001X-0.750001X0.640001X-0.750001X-0.640001X0.750001X-0.640001X0*%
%ADD60RoundRect,0.250000X0.650000X-1.000000X0.650000X1.000000X-0.650000X1.000000X-0.650000X-1.000000X0*%
G04 APERTURE END LIST*
D10*
%TO.C,U1*%
X166797500Y-44730000D03*
D11*
X166797500Y-47270000D03*
X166797500Y-49810000D03*
X166797500Y-52350000D03*
X174417500Y-52350000D03*
X174417500Y-49810000D03*
X174417500Y-47270000D03*
X174417500Y-44730000D03*
%TD*%
D12*
%TO.C,RV1*%
X73900000Y-46500000D03*
X72400000Y-56500000D03*
%TD*%
D13*
%TO.C,C3*%
X75569501Y-94000000D03*
D14*
X85569501Y-94000000D03*
%TD*%
D12*
%TO.C,C13*%
X165107500Y-40290000D03*
X165107500Y-32790000D03*
%TD*%
D15*
%TO.C,C18*%
X185200000Y-157950000D03*
X185200000Y-162950000D03*
%TD*%
D16*
%TO.C,D10*%
X231400000Y-125350000D03*
D17*
X231400000Y-119900000D03*
X231400000Y-114450000D03*
%TD*%
D16*
%TO.C,D14*%
X231439721Y-89550000D03*
D17*
X231439721Y-84100000D03*
X231439721Y-78650000D03*
%TD*%
D15*
%TO.C,CY5*%
X231000000Y-161000000D03*
X231000000Y-166000000D03*
%TD*%
D16*
%TO.C,D11*%
X213485279Y-114450000D03*
D17*
X213485279Y-119900000D03*
X213485279Y-125350000D03*
%TD*%
D18*
%TO.C,Cx2*%
X107800000Y-40890000D03*
X107800000Y-62710000D03*
%TD*%
D16*
%TO.C,D12*%
X213360279Y-131450000D03*
D17*
X213360279Y-136900000D03*
X213360279Y-142350000D03*
%TD*%
D19*
%TO.C,T2*%
X106150000Y-97900000D03*
D20*
X106150000Y-102900000D03*
X106150000Y-107900000D03*
X106150000Y-112900000D03*
X119100000Y-112900000D03*
X119100000Y-107900000D03*
X119100000Y-102900000D03*
X119100000Y-97900000D03*
%TD*%
D21*
%TO.C,U3*%
X27636577Y-94649071D03*
D22*
X27636577Y-97199071D03*
X27636577Y-102299071D03*
X27626577Y-107369071D03*
X27636577Y-112439071D03*
X27636577Y-117539071D03*
X12386577Y-117529071D03*
X12386577Y-112449071D03*
X12386577Y-107389071D03*
X12386577Y-102299071D03*
%TD*%
D23*
%TO.C,T1*%
X172200000Y-137450000D03*
X139000000Y-137500000D03*
D24*
X199300000Y-121000000D03*
X211000000Y-161000000D03*
X199300000Y-99100000D03*
%TD*%
D25*
%TO.C,C2*%
X60000000Y-156000000D03*
D14*
X50000000Y-156000000D03*
%TD*%
D12*
%TO.C,CY3*%
X197742500Y-68140000D03*
X187742500Y-68140000D03*
%TD*%
D26*
%TO.C,D1*%
X124442500Y-65457500D03*
D12*
X124442500Y-57957500D03*
X124442500Y-50457500D03*
X124442500Y-40457500D03*
%TD*%
D26*
%TO.C,J4*%
X150000000Y-34000000D03*
D12*
X152540000Y-34000000D03*
%TD*%
D26*
%TO.C,T3*%
X180242500Y-35670000D03*
D12*
X180242500Y-40670000D03*
X180242500Y-50670000D03*
X180242500Y-55670000D03*
X197742500Y-55670000D03*
X197742500Y-50670000D03*
X197742500Y-45670000D03*
X197742500Y-40670000D03*
X197742500Y-35670000D03*
%TD*%
D15*
%TO.C,C16*%
X156000000Y-147000000D03*
X156000000Y-152000000D03*
%TD*%
D12*
%TO.C,CY1*%
X116400000Y-40525000D03*
X116400000Y-50525000D03*
%TD*%
D27*
%TO.C,J3*%
X222202500Y-35170000D03*
D28*
X222202500Y-32670000D03*
X222202500Y-30170000D03*
%TD*%
D29*
%TO.C,Q4*%
X168012607Y-159315000D03*
D30*
X173462607Y-159315000D03*
X178912607Y-159315000D03*
%TD*%
D31*
%TO.C,C6*%
X157242500Y-62322651D03*
D15*
X157242500Y-58822651D03*
%TD*%
D32*
%TO.C,D21*%
X42125000Y-40500000D03*
D33*
X44665000Y-40500000D03*
%TD*%
D34*
%TO.C,C10*%
X157535179Y-37918892D03*
D15*
X157535179Y-43418892D03*
%TD*%
D35*
%TO.C,C7*%
X210242500Y-41170000D03*
D12*
X210242500Y-37670000D03*
%TD*%
D33*
%TO.C,TH1*%
X41400000Y-70250000D03*
X48900000Y-71550000D03*
%TD*%
D16*
%TO.C,D17*%
X213525000Y-78650000D03*
D17*
X213525000Y-84100000D03*
X213525000Y-89550000D03*
%TD*%
D25*
%TO.C,C1*%
X57500000Y-119000000D03*
D14*
X47500000Y-119000000D03*
%TD*%
D36*
%TO.C,K1*%
X59200000Y-63650000D03*
D20*
X44000000Y-59850000D03*
D37*
X44000000Y-49650000D03*
D36*
X56660000Y-45850000D03*
%TD*%
D13*
%TO.C,C4*%
X81569501Y-135500000D03*
D14*
X91569501Y-135500000D03*
%TD*%
D15*
%TO.C,CY4*%
X222700000Y-78000000D03*
X222700000Y-73000000D03*
%TD*%
%TO.C,C15*%
X181250000Y-80250000D03*
X181250000Y-85250000D03*
%TD*%
D26*
%TO.C,J2*%
X118275000Y-151500000D03*
D12*
X115735000Y-151500000D03*
%TD*%
D38*
%TO.C,F2*%
X215467500Y-35170000D03*
D39*
X218007500Y-35170000D03*
%TD*%
D29*
%TO.C,Q3*%
X139500000Y-88500000D03*
D30*
X144950000Y-88500000D03*
X150400000Y-88500000D03*
%TD*%
D40*
%TO.C,FL1*%
X88900000Y-44800000D03*
D41*
X99900000Y-44800000D03*
D42*
X88900000Y-58800000D03*
X99900000Y-58800000D03*
%TD*%
D29*
%TO.C,Q1*%
X164550000Y-88465000D03*
D30*
X170000000Y-88465000D03*
X175450000Y-88465000D03*
%TD*%
D35*
%TO.C,C5*%
X215742500Y-51822651D03*
D12*
X215742500Y-48322651D03*
%TD*%
D43*
%TO.C,C11*%
X163107500Y-51540000D03*
D15*
X158607500Y-51540000D03*
%TD*%
D16*
%TO.C,D16*%
X213525000Y-95650000D03*
D17*
X213525000Y-101100000D03*
X213525000Y-106550000D03*
%TD*%
D16*
%TO.C,D13*%
X231400000Y-142350000D03*
D17*
X231400000Y-136900000D03*
X231400000Y-131450000D03*
%TD*%
D18*
%TO.C,Cx1*%
X80900000Y-41090000D03*
X80900000Y-62910000D03*
%TD*%
D16*
%TO.C,D15*%
X231439721Y-106550000D03*
D17*
X231439721Y-101100000D03*
X231439721Y-95650000D03*
%TD*%
D15*
%TO.C,C17*%
X156500000Y-87000000D03*
X156500000Y-92000000D03*
%TD*%
D12*
%TO.C,CY2*%
X116400000Y-53500000D03*
X116400000Y-63500000D03*
%TD*%
D29*
%TO.C,Q2*%
X133000000Y-159000000D03*
D30*
X138450000Y-159000000D03*
X143900000Y-159000000D03*
%TD*%
D44*
%TO.C,R27*%
X184862500Y-93400000D03*
X178937500Y-93400000D03*
%TD*%
D45*
%TO.C,R13*%
X131710000Y-84455000D03*
X131710000Y-87555000D03*
%TD*%
D46*
%TO.C,C12*%
X163407500Y-45977500D03*
X163407500Y-49102500D03*
%TD*%
D47*
%TO.C,D6*%
X211942500Y-45670000D03*
X207542500Y-45670000D03*
%TD*%
D48*
%TO.C,R2*%
X125550000Y-162000000D03*
X122450000Y-162000000D03*
%TD*%
D49*
%TO.C,R25*%
X153537500Y-98400000D03*
X159462500Y-98400000D03*
%TD*%
D50*
%TO.C,D7*%
X131300000Y-91000000D03*
X135700000Y-91000000D03*
%TD*%
D45*
%TO.C,R14*%
X213142500Y-48420000D03*
X213142500Y-51520000D03*
%TD*%
%TO.C,R17*%
X128450000Y-90450000D03*
X128450000Y-93550000D03*
%TD*%
D51*
%TO.C,D2*%
X169107500Y-40040000D03*
X174107500Y-40040000D03*
%TD*%
D52*
%TO.C,C21*%
X171937500Y-153000000D03*
X175062500Y-153000000D03*
%TD*%
D45*
%TO.C,R12*%
X165107500Y-34990000D03*
X165107500Y-38090000D03*
%TD*%
D51*
%TO.C,D3*%
X123000000Y-158500000D03*
X128000000Y-158500000D03*
%TD*%
D45*
%TO.C,R9*%
X38500000Y-38950000D03*
X38500000Y-42050000D03*
%TD*%
D44*
%TO.C,R29*%
X193362500Y-163800000D03*
X187437500Y-163800000D03*
%TD*%
D53*
%TO.C,R5*%
X152500000Y-81550000D03*
X152500000Y-78450000D03*
%TD*%
D44*
%TO.C,R26*%
X184862500Y-89190000D03*
X178937500Y-89190000D03*
%TD*%
D52*
%TO.C,C9*%
X220680000Y-38670000D03*
X223805000Y-38670000D03*
%TD*%
D54*
%TO.C,C22*%
X134450000Y-87562500D03*
X134450000Y-84437500D03*
%TD*%
D51*
%TO.C,D8*%
X159500000Y-159500000D03*
X164500000Y-159500000D03*
%TD*%
D52*
%TO.C,C8*%
X226180000Y-38670000D03*
X229305000Y-38670000D03*
%TD*%
D54*
%TO.C,C24*%
X47225000Y-56057500D03*
X47225000Y-52932500D03*
%TD*%
D48*
%TO.C,R20*%
X164550000Y-164500000D03*
X161450000Y-164500000D03*
%TD*%
D49*
%TO.C,R24*%
X153537500Y-94900000D03*
X159462500Y-94900000D03*
%TD*%
D55*
%TO.C,D9*%
X207357500Y-59740000D03*
X203857500Y-59740000D03*
%TD*%
D48*
%TO.C,R7*%
X213157500Y-59740000D03*
X210057500Y-59740000D03*
%TD*%
D45*
%TO.C,R8*%
X200807500Y-59990000D03*
X200807500Y-63090000D03*
%TD*%
D56*
%TO.C,D19*%
X44000000Y-52850000D03*
X44000000Y-56850000D03*
%TD*%
D45*
%TO.C,R1*%
X119500000Y-158450000D03*
X119500000Y-161550000D03*
%TD*%
D57*
%TO.C,C20*%
X167535665Y-83330808D03*
X164410665Y-83330808D03*
%TD*%
D53*
%TO.C,R15*%
X213242500Y-41220000D03*
X213242500Y-38120000D03*
%TD*%
D44*
%TO.C,R30*%
X153762500Y-151190000D03*
X147837500Y-151190000D03*
%TD*%
D48*
%TO.C,R16*%
X175050000Y-150000000D03*
X171950000Y-150000000D03*
%TD*%
D51*
%TO.C,D5*%
X156000000Y-82500000D03*
X161000000Y-82500000D03*
%TD*%
D58*
%TO.C,D4*%
X212392500Y-55670000D03*
X208092500Y-55670000D03*
%TD*%
D44*
%TO.C,R28*%
X193362500Y-159590000D03*
X187437500Y-159590000D03*
%TD*%
D48*
%TO.C,R6*%
X158050000Y-79500000D03*
X154950000Y-79500000D03*
%TD*%
D59*
%TO.C,U2*%
X197772500Y-60670000D03*
X197772500Y-63210000D03*
X188242500Y-63210000D03*
X188242500Y-60670000D03*
%TD*%
D60*
%TO.C,D20*%
X48500000Y-45200000D03*
X48500000Y-41200000D03*
%TD*%
D48*
%TO.C,R3*%
X167550000Y-81000000D03*
X164450000Y-81000000D03*
%TD*%
%TO.C,R19*%
X159050000Y-162500000D03*
X155950000Y-162500000D03*
%TD*%
D44*
%TO.C,R31*%
X153762500Y-155400000D03*
X147837500Y-155400000D03*
%TD*%
D48*
%TO.C,R18*%
X134050000Y-94000000D03*
X130950000Y-94000000D03*
%TD*%
M02*
