%TF.GenerationSoftware,KiCad,Pcbnew,10.0.1*%
%TF.CreationDate,2026-09-21T16:44:53-03:00*%
%TF.ProjectId,Inv_Spot_Pot,496e765f-5370-46f7-945f-506f742e6b69,rev?*%
%TF.SameCoordinates,Original*%
%TF.FileFunction,Legend,Bot*%
%TF.FilePolarity,Positive*%
%FSLAX46Y46*%
G04 Gerber Fmt 4.6, Leading zero omitted, Abs format (unit mm)*
G04 Created by KiCad (PCBNEW 10.0.1) date 2026-09-21 16:44:53*
%MOMM*%
%LPD*%
G01*
G04 APERTURE LIST*
%ADD10C,0.150000*%
%ADD11C,0.120000*%
G04 APERTURE END LIST*
D10*
X182542857Y-91224819D02*
X182876190Y-90748628D01*
X183114285Y-91224819D02*
X183114285Y-90224819D01*
X183114285Y-90224819D02*
X182733333Y-90224819D01*
X182733333Y-90224819D02*
X182638095Y-90272438D01*
X182638095Y-90272438D02*
X182590476Y-90320057D01*
X182590476Y-90320057D02*
X182542857Y-90415295D01*
X182542857Y-90415295D02*
X182542857Y-90558152D01*
X182542857Y-90558152D02*
X182590476Y-90653390D01*
X182590476Y-90653390D02*
X182638095Y-90701009D01*
X182638095Y-90701009D02*
X182733333Y-90748628D01*
X182733333Y-90748628D02*
X183114285Y-90748628D01*
X182161904Y-90320057D02*
X182114285Y-90272438D01*
X182114285Y-90272438D02*
X182019047Y-90224819D01*
X182019047Y-90224819D02*
X181780952Y-90224819D01*
X181780952Y-90224819D02*
X181685714Y-90272438D01*
X181685714Y-90272438D02*
X181638095Y-90320057D01*
X181638095Y-90320057D02*
X181590476Y-90415295D01*
X181590476Y-90415295D02*
X181590476Y-90510533D01*
X181590476Y-90510533D02*
X181638095Y-90653390D01*
X181638095Y-90653390D02*
X182209523Y-91224819D01*
X182209523Y-91224819D02*
X181590476Y-91224819D01*
X181257142Y-90224819D02*
X180590476Y-90224819D01*
X180590476Y-90224819D02*
X181019047Y-91224819D01*
X130334819Y-85362142D02*
X129858628Y-85028809D01*
X130334819Y-84790714D02*
X129334819Y-84790714D01*
X129334819Y-84790714D02*
X129334819Y-85171666D01*
X129334819Y-85171666D02*
X129382438Y-85266904D01*
X129382438Y-85266904D02*
X129430057Y-85314523D01*
X129430057Y-85314523D02*
X129525295Y-85362142D01*
X129525295Y-85362142D02*
X129668152Y-85362142D01*
X129668152Y-85362142D02*
X129763390Y-85314523D01*
X129763390Y-85314523D02*
X129811009Y-85266904D01*
X129811009Y-85266904D02*
X129858628Y-85171666D01*
X129858628Y-85171666D02*
X129858628Y-84790714D01*
X130334819Y-86314523D02*
X130334819Y-85743095D01*
X130334819Y-86028809D02*
X129334819Y-86028809D01*
X129334819Y-86028809D02*
X129477676Y-85933571D01*
X129477676Y-85933571D02*
X129572914Y-85838333D01*
X129572914Y-85838333D02*
X129620533Y-85743095D01*
X129334819Y-86647857D02*
X129334819Y-87266904D01*
X129334819Y-87266904D02*
X129715771Y-86933571D01*
X129715771Y-86933571D02*
X129715771Y-87076428D01*
X129715771Y-87076428D02*
X129763390Y-87171666D01*
X129763390Y-87171666D02*
X129811009Y-87219285D01*
X129811009Y-87219285D02*
X129906247Y-87266904D01*
X129906247Y-87266904D02*
X130144342Y-87266904D01*
X130144342Y-87266904D02*
X130239580Y-87219285D01*
X130239580Y-87219285D02*
X130287200Y-87171666D01*
X130287200Y-87171666D02*
X130334819Y-87076428D01*
X130334819Y-87076428D02*
X130334819Y-86790714D01*
X130334819Y-86790714D02*
X130287200Y-86695476D01*
X130287200Y-86695476D02*
X130239580Y-86647857D01*
X161917080Y-46897142D02*
X161964700Y-46849523D01*
X161964700Y-46849523D02*
X162012319Y-46706666D01*
X162012319Y-46706666D02*
X162012319Y-46611428D01*
X162012319Y-46611428D02*
X161964700Y-46468571D01*
X161964700Y-46468571D02*
X161869461Y-46373333D01*
X161869461Y-46373333D02*
X161774223Y-46325714D01*
X161774223Y-46325714D02*
X161583747Y-46278095D01*
X161583747Y-46278095D02*
X161440890Y-46278095D01*
X161440890Y-46278095D02*
X161250414Y-46325714D01*
X161250414Y-46325714D02*
X161155176Y-46373333D01*
X161155176Y-46373333D02*
X161059938Y-46468571D01*
X161059938Y-46468571D02*
X161012319Y-46611428D01*
X161012319Y-46611428D02*
X161012319Y-46706666D01*
X161012319Y-46706666D02*
X161059938Y-46849523D01*
X161059938Y-46849523D02*
X161107557Y-46897142D01*
X162012319Y-47849523D02*
X162012319Y-47278095D01*
X162012319Y-47563809D02*
X161012319Y-47563809D01*
X161012319Y-47563809D02*
X161155176Y-47468571D01*
X161155176Y-47468571D02*
X161250414Y-47373333D01*
X161250414Y-47373333D02*
X161298033Y-47278095D01*
X161107557Y-48230476D02*
X161059938Y-48278095D01*
X161059938Y-48278095D02*
X161012319Y-48373333D01*
X161012319Y-48373333D02*
X161012319Y-48611428D01*
X161012319Y-48611428D02*
X161059938Y-48706666D01*
X161059938Y-48706666D02*
X161107557Y-48754285D01*
X161107557Y-48754285D02*
X161202795Y-48801904D01*
X161202795Y-48801904D02*
X161298033Y-48801904D01*
X161298033Y-48801904D02*
X161440890Y-48754285D01*
X161440890Y-48754285D02*
X162012319Y-48182857D01*
X162012319Y-48182857D02*
X162012319Y-48801904D01*
X210480594Y-43874819D02*
X210480594Y-42874819D01*
X210480594Y-42874819D02*
X210242499Y-42874819D01*
X210242499Y-42874819D02*
X210099642Y-42922438D01*
X210099642Y-42922438D02*
X210004404Y-43017676D01*
X210004404Y-43017676D02*
X209956785Y-43112914D01*
X209956785Y-43112914D02*
X209909166Y-43303390D01*
X209909166Y-43303390D02*
X209909166Y-43446247D01*
X209909166Y-43446247D02*
X209956785Y-43636723D01*
X209956785Y-43636723D02*
X210004404Y-43731961D01*
X210004404Y-43731961D02*
X210099642Y-43827200D01*
X210099642Y-43827200D02*
X210242499Y-43874819D01*
X210242499Y-43874819D02*
X210480594Y-43874819D01*
X209052023Y-42874819D02*
X209242499Y-42874819D01*
X209242499Y-42874819D02*
X209337737Y-42922438D01*
X209337737Y-42922438D02*
X209385356Y-42970057D01*
X209385356Y-42970057D02*
X209480594Y-43112914D01*
X209480594Y-43112914D02*
X209528213Y-43303390D01*
X209528213Y-43303390D02*
X209528213Y-43684342D01*
X209528213Y-43684342D02*
X209480594Y-43779580D01*
X209480594Y-43779580D02*
X209432975Y-43827200D01*
X209432975Y-43827200D02*
X209337737Y-43874819D01*
X209337737Y-43874819D02*
X209147261Y-43874819D01*
X209147261Y-43874819D02*
X209052023Y-43827200D01*
X209052023Y-43827200D02*
X209004404Y-43779580D01*
X209004404Y-43779580D02*
X208956785Y-43684342D01*
X208956785Y-43684342D02*
X208956785Y-43446247D01*
X208956785Y-43446247D02*
X209004404Y-43351009D01*
X209004404Y-43351009D02*
X209052023Y-43303390D01*
X209052023Y-43303390D02*
X209147261Y-43255771D01*
X209147261Y-43255771D02*
X209337737Y-43255771D01*
X209337737Y-43255771D02*
X209432975Y-43303390D01*
X209432975Y-43303390D02*
X209480594Y-43351009D01*
X209480594Y-43351009D02*
X209528213Y-43446247D01*
X124166666Y-164704819D02*
X124499999Y-164228628D01*
X124738094Y-164704819D02*
X124738094Y-163704819D01*
X124738094Y-163704819D02*
X124357142Y-163704819D01*
X124357142Y-163704819D02*
X124261904Y-163752438D01*
X124261904Y-163752438D02*
X124214285Y-163800057D01*
X124214285Y-163800057D02*
X124166666Y-163895295D01*
X124166666Y-163895295D02*
X124166666Y-164038152D01*
X124166666Y-164038152D02*
X124214285Y-164133390D01*
X124214285Y-164133390D02*
X124261904Y-164181009D01*
X124261904Y-164181009D02*
X124357142Y-164228628D01*
X124357142Y-164228628D02*
X124738094Y-164228628D01*
X123785713Y-163800057D02*
X123738094Y-163752438D01*
X123738094Y-163752438D02*
X123642856Y-163704819D01*
X123642856Y-163704819D02*
X123404761Y-163704819D01*
X123404761Y-163704819D02*
X123309523Y-163752438D01*
X123309523Y-163752438D02*
X123261904Y-163800057D01*
X123261904Y-163800057D02*
X123214285Y-163895295D01*
X123214285Y-163895295D02*
X123214285Y-163990533D01*
X123214285Y-163990533D02*
X123261904Y-164133390D01*
X123261904Y-164133390D02*
X123833332Y-164704819D01*
X123833332Y-164704819D02*
X123214285Y-164704819D01*
X157142857Y-101484819D02*
X157476190Y-101008628D01*
X157714285Y-101484819D02*
X157714285Y-100484819D01*
X157714285Y-100484819D02*
X157333333Y-100484819D01*
X157333333Y-100484819D02*
X157238095Y-100532438D01*
X157238095Y-100532438D02*
X157190476Y-100580057D01*
X157190476Y-100580057D02*
X157142857Y-100675295D01*
X157142857Y-100675295D02*
X157142857Y-100818152D01*
X157142857Y-100818152D02*
X157190476Y-100913390D01*
X157190476Y-100913390D02*
X157238095Y-100961009D01*
X157238095Y-100961009D02*
X157333333Y-101008628D01*
X157333333Y-101008628D02*
X157714285Y-101008628D01*
X156761904Y-100580057D02*
X156714285Y-100532438D01*
X156714285Y-100532438D02*
X156619047Y-100484819D01*
X156619047Y-100484819D02*
X156380952Y-100484819D01*
X156380952Y-100484819D02*
X156285714Y-100532438D01*
X156285714Y-100532438D02*
X156238095Y-100580057D01*
X156238095Y-100580057D02*
X156190476Y-100675295D01*
X156190476Y-100675295D02*
X156190476Y-100770533D01*
X156190476Y-100770533D02*
X156238095Y-100913390D01*
X156238095Y-100913390D02*
X156809523Y-101484819D01*
X156809523Y-101484819D02*
X156190476Y-101484819D01*
X155285714Y-100484819D02*
X155761904Y-100484819D01*
X155761904Y-100484819D02*
X155809523Y-100961009D01*
X155809523Y-100961009D02*
X155761904Y-100913390D01*
X155761904Y-100913390D02*
X155666666Y-100865771D01*
X155666666Y-100865771D02*
X155428571Y-100865771D01*
X155428571Y-100865771D02*
X155333333Y-100913390D01*
X155333333Y-100913390D02*
X155285714Y-100961009D01*
X155285714Y-100961009D02*
X155238095Y-101056247D01*
X155238095Y-101056247D02*
X155238095Y-101294342D01*
X155238095Y-101294342D02*
X155285714Y-101389580D01*
X155285714Y-101389580D02*
X155333333Y-101437200D01*
X155333333Y-101437200D02*
X155428571Y-101484819D01*
X155428571Y-101484819D02*
X155666666Y-101484819D01*
X155666666Y-101484819D02*
X155761904Y-101437200D01*
X155761904Y-101437200D02*
X155809523Y-101389580D01*
X133888094Y-89354819D02*
X133888094Y-88354819D01*
X133888094Y-88354819D02*
X133649999Y-88354819D01*
X133649999Y-88354819D02*
X133507142Y-88402438D01*
X133507142Y-88402438D02*
X133411904Y-88497676D01*
X133411904Y-88497676D02*
X133364285Y-88592914D01*
X133364285Y-88592914D02*
X133316666Y-88783390D01*
X133316666Y-88783390D02*
X133316666Y-88926247D01*
X133316666Y-88926247D02*
X133364285Y-89116723D01*
X133364285Y-89116723D02*
X133411904Y-89211961D01*
X133411904Y-89211961D02*
X133507142Y-89307200D01*
X133507142Y-89307200D02*
X133649999Y-89354819D01*
X133649999Y-89354819D02*
X133888094Y-89354819D01*
X132983332Y-88354819D02*
X132316666Y-88354819D01*
X132316666Y-88354819D02*
X132745237Y-89354819D01*
X211767319Y-49327142D02*
X211291128Y-48993809D01*
X211767319Y-48755714D02*
X210767319Y-48755714D01*
X210767319Y-48755714D02*
X210767319Y-49136666D01*
X210767319Y-49136666D02*
X210814938Y-49231904D01*
X210814938Y-49231904D02*
X210862557Y-49279523D01*
X210862557Y-49279523D02*
X210957795Y-49327142D01*
X210957795Y-49327142D02*
X211100652Y-49327142D01*
X211100652Y-49327142D02*
X211195890Y-49279523D01*
X211195890Y-49279523D02*
X211243509Y-49231904D01*
X211243509Y-49231904D02*
X211291128Y-49136666D01*
X211291128Y-49136666D02*
X211291128Y-48755714D01*
X211767319Y-50279523D02*
X211767319Y-49708095D01*
X211767319Y-49993809D02*
X210767319Y-49993809D01*
X210767319Y-49993809D02*
X210910176Y-49898571D01*
X210910176Y-49898571D02*
X211005414Y-49803333D01*
X211005414Y-49803333D02*
X211053033Y-49708095D01*
X211100652Y-51136666D02*
X211767319Y-51136666D01*
X210719700Y-50898571D02*
X211433985Y-50660476D01*
X211433985Y-50660476D02*
X211433985Y-51279523D01*
X127074819Y-91357142D02*
X126598628Y-91023809D01*
X127074819Y-90785714D02*
X126074819Y-90785714D01*
X126074819Y-90785714D02*
X126074819Y-91166666D01*
X126074819Y-91166666D02*
X126122438Y-91261904D01*
X126122438Y-91261904D02*
X126170057Y-91309523D01*
X126170057Y-91309523D02*
X126265295Y-91357142D01*
X126265295Y-91357142D02*
X126408152Y-91357142D01*
X126408152Y-91357142D02*
X126503390Y-91309523D01*
X126503390Y-91309523D02*
X126551009Y-91261904D01*
X126551009Y-91261904D02*
X126598628Y-91166666D01*
X126598628Y-91166666D02*
X126598628Y-90785714D01*
X127074819Y-92309523D02*
X127074819Y-91738095D01*
X127074819Y-92023809D02*
X126074819Y-92023809D01*
X126074819Y-92023809D02*
X126217676Y-91928571D01*
X126217676Y-91928571D02*
X126312914Y-91833333D01*
X126312914Y-91833333D02*
X126360533Y-91738095D01*
X126074819Y-92642857D02*
X126074819Y-93309523D01*
X126074819Y-93309523D02*
X127074819Y-92880952D01*
X172345594Y-42994819D02*
X172345594Y-41994819D01*
X172345594Y-41994819D02*
X172107499Y-41994819D01*
X172107499Y-41994819D02*
X171964642Y-42042438D01*
X171964642Y-42042438D02*
X171869404Y-42137676D01*
X171869404Y-42137676D02*
X171821785Y-42232914D01*
X171821785Y-42232914D02*
X171774166Y-42423390D01*
X171774166Y-42423390D02*
X171774166Y-42566247D01*
X171774166Y-42566247D02*
X171821785Y-42756723D01*
X171821785Y-42756723D02*
X171869404Y-42851961D01*
X171869404Y-42851961D02*
X171964642Y-42947200D01*
X171964642Y-42947200D02*
X172107499Y-42994819D01*
X172107499Y-42994819D02*
X172345594Y-42994819D01*
X171393213Y-42090057D02*
X171345594Y-42042438D01*
X171345594Y-42042438D02*
X171250356Y-41994819D01*
X171250356Y-41994819D02*
X171012261Y-41994819D01*
X171012261Y-41994819D02*
X170917023Y-42042438D01*
X170917023Y-42042438D02*
X170869404Y-42090057D01*
X170869404Y-42090057D02*
X170821785Y-42185295D01*
X170821785Y-42185295D02*
X170821785Y-42280533D01*
X170821785Y-42280533D02*
X170869404Y-42423390D01*
X170869404Y-42423390D02*
X171440832Y-42994819D01*
X171440832Y-42994819D02*
X170821785Y-42994819D01*
X174142857Y-155209580D02*
X174190476Y-155257200D01*
X174190476Y-155257200D02*
X174333333Y-155304819D01*
X174333333Y-155304819D02*
X174428571Y-155304819D01*
X174428571Y-155304819D02*
X174571428Y-155257200D01*
X174571428Y-155257200D02*
X174666666Y-155161961D01*
X174666666Y-155161961D02*
X174714285Y-155066723D01*
X174714285Y-155066723D02*
X174761904Y-154876247D01*
X174761904Y-154876247D02*
X174761904Y-154733390D01*
X174761904Y-154733390D02*
X174714285Y-154542914D01*
X174714285Y-154542914D02*
X174666666Y-154447676D01*
X174666666Y-154447676D02*
X174571428Y-154352438D01*
X174571428Y-154352438D02*
X174428571Y-154304819D01*
X174428571Y-154304819D02*
X174333333Y-154304819D01*
X174333333Y-154304819D02*
X174190476Y-154352438D01*
X174190476Y-154352438D02*
X174142857Y-154400057D01*
X173761904Y-154400057D02*
X173714285Y-154352438D01*
X173714285Y-154352438D02*
X173619047Y-154304819D01*
X173619047Y-154304819D02*
X173380952Y-154304819D01*
X173380952Y-154304819D02*
X173285714Y-154352438D01*
X173285714Y-154352438D02*
X173238095Y-154400057D01*
X173238095Y-154400057D02*
X173190476Y-154495295D01*
X173190476Y-154495295D02*
X173190476Y-154590533D01*
X173190476Y-154590533D02*
X173238095Y-154733390D01*
X173238095Y-154733390D02*
X173809523Y-155304819D01*
X173809523Y-155304819D02*
X173190476Y-155304819D01*
X172238095Y-155304819D02*
X172809523Y-155304819D01*
X172523809Y-155304819D02*
X172523809Y-154304819D01*
X172523809Y-154304819D02*
X172619047Y-154447676D01*
X172619047Y-154447676D02*
X172714285Y-154542914D01*
X172714285Y-154542914D02*
X172809523Y-154590533D01*
X163732319Y-35897142D02*
X163256128Y-35563809D01*
X163732319Y-35325714D02*
X162732319Y-35325714D01*
X162732319Y-35325714D02*
X162732319Y-35706666D01*
X162732319Y-35706666D02*
X162779938Y-35801904D01*
X162779938Y-35801904D02*
X162827557Y-35849523D01*
X162827557Y-35849523D02*
X162922795Y-35897142D01*
X162922795Y-35897142D02*
X163065652Y-35897142D01*
X163065652Y-35897142D02*
X163160890Y-35849523D01*
X163160890Y-35849523D02*
X163208509Y-35801904D01*
X163208509Y-35801904D02*
X163256128Y-35706666D01*
X163256128Y-35706666D02*
X163256128Y-35325714D01*
X163732319Y-36849523D02*
X163732319Y-36278095D01*
X163732319Y-36563809D02*
X162732319Y-36563809D01*
X162732319Y-36563809D02*
X162875176Y-36468571D01*
X162875176Y-36468571D02*
X162970414Y-36373333D01*
X162970414Y-36373333D02*
X163018033Y-36278095D01*
X162827557Y-37230476D02*
X162779938Y-37278095D01*
X162779938Y-37278095D02*
X162732319Y-37373333D01*
X162732319Y-37373333D02*
X162732319Y-37611428D01*
X162732319Y-37611428D02*
X162779938Y-37706666D01*
X162779938Y-37706666D02*
X162827557Y-37754285D01*
X162827557Y-37754285D02*
X162922795Y-37801904D01*
X162922795Y-37801904D02*
X163018033Y-37801904D01*
X163018033Y-37801904D02*
X163160890Y-37754285D01*
X163160890Y-37754285D02*
X163732319Y-37182857D01*
X163732319Y-37182857D02*
X163732319Y-37801904D01*
X126138094Y-156354819D02*
X126138094Y-155354819D01*
X126138094Y-155354819D02*
X125899999Y-155354819D01*
X125899999Y-155354819D02*
X125757142Y-155402438D01*
X125757142Y-155402438D02*
X125661904Y-155497676D01*
X125661904Y-155497676D02*
X125614285Y-155592914D01*
X125614285Y-155592914D02*
X125566666Y-155783390D01*
X125566666Y-155783390D02*
X125566666Y-155926247D01*
X125566666Y-155926247D02*
X125614285Y-156116723D01*
X125614285Y-156116723D02*
X125661904Y-156211961D01*
X125661904Y-156211961D02*
X125757142Y-156307200D01*
X125757142Y-156307200D02*
X125899999Y-156354819D01*
X125899999Y-156354819D02*
X126138094Y-156354819D01*
X125233332Y-155354819D02*
X124614285Y-155354819D01*
X124614285Y-155354819D02*
X124947618Y-155735771D01*
X124947618Y-155735771D02*
X124804761Y-155735771D01*
X124804761Y-155735771D02*
X124709523Y-155783390D01*
X124709523Y-155783390D02*
X124661904Y-155831009D01*
X124661904Y-155831009D02*
X124614285Y-155926247D01*
X124614285Y-155926247D02*
X124614285Y-156164342D01*
X124614285Y-156164342D02*
X124661904Y-156259580D01*
X124661904Y-156259580D02*
X124709523Y-156307200D01*
X124709523Y-156307200D02*
X124804761Y-156354819D01*
X124804761Y-156354819D02*
X125090475Y-156354819D01*
X125090475Y-156354819D02*
X125185713Y-156307200D01*
X125185713Y-156307200D02*
X125233332Y-156259580D01*
X37124819Y-40333333D02*
X36648628Y-40000000D01*
X37124819Y-39761905D02*
X36124819Y-39761905D01*
X36124819Y-39761905D02*
X36124819Y-40142857D01*
X36124819Y-40142857D02*
X36172438Y-40238095D01*
X36172438Y-40238095D02*
X36220057Y-40285714D01*
X36220057Y-40285714D02*
X36315295Y-40333333D01*
X36315295Y-40333333D02*
X36458152Y-40333333D01*
X36458152Y-40333333D02*
X36553390Y-40285714D01*
X36553390Y-40285714D02*
X36601009Y-40238095D01*
X36601009Y-40238095D02*
X36648628Y-40142857D01*
X36648628Y-40142857D02*
X36648628Y-39761905D01*
X37124819Y-40809524D02*
X37124819Y-41000000D01*
X37124819Y-41000000D02*
X37077200Y-41095238D01*
X37077200Y-41095238D02*
X37029580Y-41142857D01*
X37029580Y-41142857D02*
X36886723Y-41238095D01*
X36886723Y-41238095D02*
X36696247Y-41285714D01*
X36696247Y-41285714D02*
X36315295Y-41285714D01*
X36315295Y-41285714D02*
X36220057Y-41238095D01*
X36220057Y-41238095D02*
X36172438Y-41190476D01*
X36172438Y-41190476D02*
X36124819Y-41095238D01*
X36124819Y-41095238D02*
X36124819Y-40904762D01*
X36124819Y-40904762D02*
X36172438Y-40809524D01*
X36172438Y-40809524D02*
X36220057Y-40761905D01*
X36220057Y-40761905D02*
X36315295Y-40714286D01*
X36315295Y-40714286D02*
X36553390Y-40714286D01*
X36553390Y-40714286D02*
X36648628Y-40761905D01*
X36648628Y-40761905D02*
X36696247Y-40809524D01*
X36696247Y-40809524D02*
X36743866Y-40904762D01*
X36743866Y-40904762D02*
X36743866Y-41095238D01*
X36743866Y-41095238D02*
X36696247Y-41190476D01*
X36696247Y-41190476D02*
X36648628Y-41238095D01*
X36648628Y-41238095D02*
X36553390Y-41285714D01*
X191042857Y-161624819D02*
X191376190Y-161148628D01*
X191614285Y-161624819D02*
X191614285Y-160624819D01*
X191614285Y-160624819D02*
X191233333Y-160624819D01*
X191233333Y-160624819D02*
X191138095Y-160672438D01*
X191138095Y-160672438D02*
X191090476Y-160720057D01*
X191090476Y-160720057D02*
X191042857Y-160815295D01*
X191042857Y-160815295D02*
X191042857Y-160958152D01*
X191042857Y-160958152D02*
X191090476Y-161053390D01*
X191090476Y-161053390D02*
X191138095Y-161101009D01*
X191138095Y-161101009D02*
X191233333Y-161148628D01*
X191233333Y-161148628D02*
X191614285Y-161148628D01*
X190661904Y-160720057D02*
X190614285Y-160672438D01*
X190614285Y-160672438D02*
X190519047Y-160624819D01*
X190519047Y-160624819D02*
X190280952Y-160624819D01*
X190280952Y-160624819D02*
X190185714Y-160672438D01*
X190185714Y-160672438D02*
X190138095Y-160720057D01*
X190138095Y-160720057D02*
X190090476Y-160815295D01*
X190090476Y-160815295D02*
X190090476Y-160910533D01*
X190090476Y-160910533D02*
X190138095Y-161053390D01*
X190138095Y-161053390D02*
X190709523Y-161624819D01*
X190709523Y-161624819D02*
X190090476Y-161624819D01*
X189614285Y-161624819D02*
X189423809Y-161624819D01*
X189423809Y-161624819D02*
X189328571Y-161577200D01*
X189328571Y-161577200D02*
X189280952Y-161529580D01*
X189280952Y-161529580D02*
X189185714Y-161386723D01*
X189185714Y-161386723D02*
X189138095Y-161196247D01*
X189138095Y-161196247D02*
X189138095Y-160815295D01*
X189138095Y-160815295D02*
X189185714Y-160720057D01*
X189185714Y-160720057D02*
X189233333Y-160672438D01*
X189233333Y-160672438D02*
X189328571Y-160624819D01*
X189328571Y-160624819D02*
X189519047Y-160624819D01*
X189519047Y-160624819D02*
X189614285Y-160672438D01*
X189614285Y-160672438D02*
X189661904Y-160720057D01*
X189661904Y-160720057D02*
X189709523Y-160815295D01*
X189709523Y-160815295D02*
X189709523Y-161053390D01*
X189709523Y-161053390D02*
X189661904Y-161148628D01*
X189661904Y-161148628D02*
X189614285Y-161196247D01*
X189614285Y-161196247D02*
X189519047Y-161243866D01*
X189519047Y-161243866D02*
X189328571Y-161243866D01*
X189328571Y-161243866D02*
X189233333Y-161196247D01*
X189233333Y-161196247D02*
X189185714Y-161148628D01*
X189185714Y-161148628D02*
X189138095Y-161053390D01*
X151004819Y-79933333D02*
X150528628Y-79600000D01*
X151004819Y-79361905D02*
X150004819Y-79361905D01*
X150004819Y-79361905D02*
X150004819Y-79742857D01*
X150004819Y-79742857D02*
X150052438Y-79838095D01*
X150052438Y-79838095D02*
X150100057Y-79885714D01*
X150100057Y-79885714D02*
X150195295Y-79933333D01*
X150195295Y-79933333D02*
X150338152Y-79933333D01*
X150338152Y-79933333D02*
X150433390Y-79885714D01*
X150433390Y-79885714D02*
X150481009Y-79838095D01*
X150481009Y-79838095D02*
X150528628Y-79742857D01*
X150528628Y-79742857D02*
X150528628Y-79361905D01*
X150004819Y-80838095D02*
X150004819Y-80361905D01*
X150004819Y-80361905D02*
X150481009Y-80314286D01*
X150481009Y-80314286D02*
X150433390Y-80361905D01*
X150433390Y-80361905D02*
X150385771Y-80457143D01*
X150385771Y-80457143D02*
X150385771Y-80695238D01*
X150385771Y-80695238D02*
X150433390Y-80790476D01*
X150433390Y-80790476D02*
X150481009Y-80838095D01*
X150481009Y-80838095D02*
X150576247Y-80885714D01*
X150576247Y-80885714D02*
X150814342Y-80885714D01*
X150814342Y-80885714D02*
X150909580Y-80838095D01*
X150909580Y-80838095D02*
X150957200Y-80790476D01*
X150957200Y-80790476D02*
X151004819Y-80695238D01*
X151004819Y-80695238D02*
X151004819Y-80457143D01*
X151004819Y-80457143D02*
X150957200Y-80361905D01*
X150957200Y-80361905D02*
X150909580Y-80314286D01*
X182542857Y-87014819D02*
X182876190Y-86538628D01*
X183114285Y-87014819D02*
X183114285Y-86014819D01*
X183114285Y-86014819D02*
X182733333Y-86014819D01*
X182733333Y-86014819D02*
X182638095Y-86062438D01*
X182638095Y-86062438D02*
X182590476Y-86110057D01*
X182590476Y-86110057D02*
X182542857Y-86205295D01*
X182542857Y-86205295D02*
X182542857Y-86348152D01*
X182542857Y-86348152D02*
X182590476Y-86443390D01*
X182590476Y-86443390D02*
X182638095Y-86491009D01*
X182638095Y-86491009D02*
X182733333Y-86538628D01*
X182733333Y-86538628D02*
X183114285Y-86538628D01*
X182161904Y-86110057D02*
X182114285Y-86062438D01*
X182114285Y-86062438D02*
X182019047Y-86014819D01*
X182019047Y-86014819D02*
X181780952Y-86014819D01*
X181780952Y-86014819D02*
X181685714Y-86062438D01*
X181685714Y-86062438D02*
X181638095Y-86110057D01*
X181638095Y-86110057D02*
X181590476Y-86205295D01*
X181590476Y-86205295D02*
X181590476Y-86300533D01*
X181590476Y-86300533D02*
X181638095Y-86443390D01*
X181638095Y-86443390D02*
X182209523Y-87014819D01*
X182209523Y-87014819D02*
X181590476Y-87014819D01*
X180733333Y-86014819D02*
X180923809Y-86014819D01*
X180923809Y-86014819D02*
X181019047Y-86062438D01*
X181019047Y-86062438D02*
X181066666Y-86110057D01*
X181066666Y-86110057D02*
X181161904Y-86252914D01*
X181161904Y-86252914D02*
X181209523Y-86443390D01*
X181209523Y-86443390D02*
X181209523Y-86824342D01*
X181209523Y-86824342D02*
X181161904Y-86919580D01*
X181161904Y-86919580D02*
X181114285Y-86967200D01*
X181114285Y-86967200D02*
X181019047Y-87014819D01*
X181019047Y-87014819D02*
X180828571Y-87014819D01*
X180828571Y-87014819D02*
X180733333Y-86967200D01*
X180733333Y-86967200D02*
X180685714Y-86919580D01*
X180685714Y-86919580D02*
X180638095Y-86824342D01*
X180638095Y-86824342D02*
X180638095Y-86586247D01*
X180638095Y-86586247D02*
X180685714Y-86491009D01*
X180685714Y-86491009D02*
X180733333Y-86443390D01*
X180733333Y-86443390D02*
X180828571Y-86395771D01*
X180828571Y-86395771D02*
X181019047Y-86395771D01*
X181019047Y-86395771D02*
X181114285Y-86443390D01*
X181114285Y-86443390D02*
X181161904Y-86491009D01*
X181161904Y-86491009D02*
X181209523Y-86586247D01*
X222409166Y-40879580D02*
X222456785Y-40927200D01*
X222456785Y-40927200D02*
X222599642Y-40974819D01*
X222599642Y-40974819D02*
X222694880Y-40974819D01*
X222694880Y-40974819D02*
X222837737Y-40927200D01*
X222837737Y-40927200D02*
X222932975Y-40831961D01*
X222932975Y-40831961D02*
X222980594Y-40736723D01*
X222980594Y-40736723D02*
X223028213Y-40546247D01*
X223028213Y-40546247D02*
X223028213Y-40403390D01*
X223028213Y-40403390D02*
X222980594Y-40212914D01*
X222980594Y-40212914D02*
X222932975Y-40117676D01*
X222932975Y-40117676D02*
X222837737Y-40022438D01*
X222837737Y-40022438D02*
X222694880Y-39974819D01*
X222694880Y-39974819D02*
X222599642Y-39974819D01*
X222599642Y-39974819D02*
X222456785Y-40022438D01*
X222456785Y-40022438D02*
X222409166Y-40070057D01*
X221932975Y-40974819D02*
X221742499Y-40974819D01*
X221742499Y-40974819D02*
X221647261Y-40927200D01*
X221647261Y-40927200D02*
X221599642Y-40879580D01*
X221599642Y-40879580D02*
X221504404Y-40736723D01*
X221504404Y-40736723D02*
X221456785Y-40546247D01*
X221456785Y-40546247D02*
X221456785Y-40165295D01*
X221456785Y-40165295D02*
X221504404Y-40070057D01*
X221504404Y-40070057D02*
X221552023Y-40022438D01*
X221552023Y-40022438D02*
X221647261Y-39974819D01*
X221647261Y-39974819D02*
X221837737Y-39974819D01*
X221837737Y-39974819D02*
X221932975Y-40022438D01*
X221932975Y-40022438D02*
X221980594Y-40070057D01*
X221980594Y-40070057D02*
X222028213Y-40165295D01*
X222028213Y-40165295D02*
X222028213Y-40403390D01*
X222028213Y-40403390D02*
X221980594Y-40498628D01*
X221980594Y-40498628D02*
X221932975Y-40546247D01*
X221932975Y-40546247D02*
X221837737Y-40593866D01*
X221837737Y-40593866D02*
X221647261Y-40593866D01*
X221647261Y-40593866D02*
X221552023Y-40546247D01*
X221552023Y-40546247D02*
X221504404Y-40498628D01*
X221504404Y-40498628D02*
X221456785Y-40403390D01*
X136659580Y-85357142D02*
X136707200Y-85309523D01*
X136707200Y-85309523D02*
X136754819Y-85166666D01*
X136754819Y-85166666D02*
X136754819Y-85071428D01*
X136754819Y-85071428D02*
X136707200Y-84928571D01*
X136707200Y-84928571D02*
X136611961Y-84833333D01*
X136611961Y-84833333D02*
X136516723Y-84785714D01*
X136516723Y-84785714D02*
X136326247Y-84738095D01*
X136326247Y-84738095D02*
X136183390Y-84738095D01*
X136183390Y-84738095D02*
X135992914Y-84785714D01*
X135992914Y-84785714D02*
X135897676Y-84833333D01*
X135897676Y-84833333D02*
X135802438Y-84928571D01*
X135802438Y-84928571D02*
X135754819Y-85071428D01*
X135754819Y-85071428D02*
X135754819Y-85166666D01*
X135754819Y-85166666D02*
X135802438Y-85309523D01*
X135802438Y-85309523D02*
X135850057Y-85357142D01*
X135850057Y-85738095D02*
X135802438Y-85785714D01*
X135802438Y-85785714D02*
X135754819Y-85880952D01*
X135754819Y-85880952D02*
X135754819Y-86119047D01*
X135754819Y-86119047D02*
X135802438Y-86214285D01*
X135802438Y-86214285D02*
X135850057Y-86261904D01*
X135850057Y-86261904D02*
X135945295Y-86309523D01*
X135945295Y-86309523D02*
X136040533Y-86309523D01*
X136040533Y-86309523D02*
X136183390Y-86261904D01*
X136183390Y-86261904D02*
X136754819Y-85690476D01*
X136754819Y-85690476D02*
X136754819Y-86309523D01*
X135850057Y-86690476D02*
X135802438Y-86738095D01*
X135802438Y-86738095D02*
X135754819Y-86833333D01*
X135754819Y-86833333D02*
X135754819Y-87071428D01*
X135754819Y-87071428D02*
X135802438Y-87166666D01*
X135802438Y-87166666D02*
X135850057Y-87214285D01*
X135850057Y-87214285D02*
X135945295Y-87261904D01*
X135945295Y-87261904D02*
X136040533Y-87261904D01*
X136040533Y-87261904D02*
X136183390Y-87214285D01*
X136183390Y-87214285D02*
X136754819Y-86642857D01*
X136754819Y-86642857D02*
X136754819Y-87261904D01*
X162738094Y-162454819D02*
X162738094Y-161454819D01*
X162738094Y-161454819D02*
X162499999Y-161454819D01*
X162499999Y-161454819D02*
X162357142Y-161502438D01*
X162357142Y-161502438D02*
X162261904Y-161597676D01*
X162261904Y-161597676D02*
X162214285Y-161692914D01*
X162214285Y-161692914D02*
X162166666Y-161883390D01*
X162166666Y-161883390D02*
X162166666Y-162026247D01*
X162166666Y-162026247D02*
X162214285Y-162216723D01*
X162214285Y-162216723D02*
X162261904Y-162311961D01*
X162261904Y-162311961D02*
X162357142Y-162407200D01*
X162357142Y-162407200D02*
X162499999Y-162454819D01*
X162499999Y-162454819D02*
X162738094Y-162454819D01*
X161595237Y-161883390D02*
X161690475Y-161835771D01*
X161690475Y-161835771D02*
X161738094Y-161788152D01*
X161738094Y-161788152D02*
X161785713Y-161692914D01*
X161785713Y-161692914D02*
X161785713Y-161645295D01*
X161785713Y-161645295D02*
X161738094Y-161550057D01*
X161738094Y-161550057D02*
X161690475Y-161502438D01*
X161690475Y-161502438D02*
X161595237Y-161454819D01*
X161595237Y-161454819D02*
X161404761Y-161454819D01*
X161404761Y-161454819D02*
X161309523Y-161502438D01*
X161309523Y-161502438D02*
X161261904Y-161550057D01*
X161261904Y-161550057D02*
X161214285Y-161645295D01*
X161214285Y-161645295D02*
X161214285Y-161692914D01*
X161214285Y-161692914D02*
X161261904Y-161788152D01*
X161261904Y-161788152D02*
X161309523Y-161835771D01*
X161309523Y-161835771D02*
X161404761Y-161883390D01*
X161404761Y-161883390D02*
X161595237Y-161883390D01*
X161595237Y-161883390D02*
X161690475Y-161931009D01*
X161690475Y-161931009D02*
X161738094Y-161978628D01*
X161738094Y-161978628D02*
X161785713Y-162073866D01*
X161785713Y-162073866D02*
X161785713Y-162264342D01*
X161785713Y-162264342D02*
X161738094Y-162359580D01*
X161738094Y-162359580D02*
X161690475Y-162407200D01*
X161690475Y-162407200D02*
X161595237Y-162454819D01*
X161595237Y-162454819D02*
X161404761Y-162454819D01*
X161404761Y-162454819D02*
X161309523Y-162407200D01*
X161309523Y-162407200D02*
X161261904Y-162359580D01*
X161261904Y-162359580D02*
X161214285Y-162264342D01*
X161214285Y-162264342D02*
X161214285Y-162073866D01*
X161214285Y-162073866D02*
X161261904Y-161978628D01*
X161261904Y-161978628D02*
X161309523Y-161931009D01*
X161309523Y-161931009D02*
X161404761Y-161883390D01*
X227909166Y-40879580D02*
X227956785Y-40927200D01*
X227956785Y-40927200D02*
X228099642Y-40974819D01*
X228099642Y-40974819D02*
X228194880Y-40974819D01*
X228194880Y-40974819D02*
X228337737Y-40927200D01*
X228337737Y-40927200D02*
X228432975Y-40831961D01*
X228432975Y-40831961D02*
X228480594Y-40736723D01*
X228480594Y-40736723D02*
X228528213Y-40546247D01*
X228528213Y-40546247D02*
X228528213Y-40403390D01*
X228528213Y-40403390D02*
X228480594Y-40212914D01*
X228480594Y-40212914D02*
X228432975Y-40117676D01*
X228432975Y-40117676D02*
X228337737Y-40022438D01*
X228337737Y-40022438D02*
X228194880Y-39974819D01*
X228194880Y-39974819D02*
X228099642Y-39974819D01*
X228099642Y-39974819D02*
X227956785Y-40022438D01*
X227956785Y-40022438D02*
X227909166Y-40070057D01*
X227337737Y-40403390D02*
X227432975Y-40355771D01*
X227432975Y-40355771D02*
X227480594Y-40308152D01*
X227480594Y-40308152D02*
X227528213Y-40212914D01*
X227528213Y-40212914D02*
X227528213Y-40165295D01*
X227528213Y-40165295D02*
X227480594Y-40070057D01*
X227480594Y-40070057D02*
X227432975Y-40022438D01*
X227432975Y-40022438D02*
X227337737Y-39974819D01*
X227337737Y-39974819D02*
X227147261Y-39974819D01*
X227147261Y-39974819D02*
X227052023Y-40022438D01*
X227052023Y-40022438D02*
X227004404Y-40070057D01*
X227004404Y-40070057D02*
X226956785Y-40165295D01*
X226956785Y-40165295D02*
X226956785Y-40212914D01*
X226956785Y-40212914D02*
X227004404Y-40308152D01*
X227004404Y-40308152D02*
X227052023Y-40355771D01*
X227052023Y-40355771D02*
X227147261Y-40403390D01*
X227147261Y-40403390D02*
X227337737Y-40403390D01*
X227337737Y-40403390D02*
X227432975Y-40451009D01*
X227432975Y-40451009D02*
X227480594Y-40498628D01*
X227480594Y-40498628D02*
X227528213Y-40593866D01*
X227528213Y-40593866D02*
X227528213Y-40784342D01*
X227528213Y-40784342D02*
X227480594Y-40879580D01*
X227480594Y-40879580D02*
X227432975Y-40927200D01*
X227432975Y-40927200D02*
X227337737Y-40974819D01*
X227337737Y-40974819D02*
X227147261Y-40974819D01*
X227147261Y-40974819D02*
X227052023Y-40927200D01*
X227052023Y-40927200D02*
X227004404Y-40879580D01*
X227004404Y-40879580D02*
X226956785Y-40784342D01*
X226956785Y-40784342D02*
X226956785Y-40593866D01*
X226956785Y-40593866D02*
X227004404Y-40498628D01*
X227004404Y-40498628D02*
X227052023Y-40451009D01*
X227052023Y-40451009D02*
X227147261Y-40403390D01*
X49434580Y-53852142D02*
X49482200Y-53804523D01*
X49482200Y-53804523D02*
X49529819Y-53661666D01*
X49529819Y-53661666D02*
X49529819Y-53566428D01*
X49529819Y-53566428D02*
X49482200Y-53423571D01*
X49482200Y-53423571D02*
X49386961Y-53328333D01*
X49386961Y-53328333D02*
X49291723Y-53280714D01*
X49291723Y-53280714D02*
X49101247Y-53233095D01*
X49101247Y-53233095D02*
X48958390Y-53233095D01*
X48958390Y-53233095D02*
X48767914Y-53280714D01*
X48767914Y-53280714D02*
X48672676Y-53328333D01*
X48672676Y-53328333D02*
X48577438Y-53423571D01*
X48577438Y-53423571D02*
X48529819Y-53566428D01*
X48529819Y-53566428D02*
X48529819Y-53661666D01*
X48529819Y-53661666D02*
X48577438Y-53804523D01*
X48577438Y-53804523D02*
X48625057Y-53852142D01*
X48625057Y-54233095D02*
X48577438Y-54280714D01*
X48577438Y-54280714D02*
X48529819Y-54375952D01*
X48529819Y-54375952D02*
X48529819Y-54614047D01*
X48529819Y-54614047D02*
X48577438Y-54709285D01*
X48577438Y-54709285D02*
X48625057Y-54756904D01*
X48625057Y-54756904D02*
X48720295Y-54804523D01*
X48720295Y-54804523D02*
X48815533Y-54804523D01*
X48815533Y-54804523D02*
X48958390Y-54756904D01*
X48958390Y-54756904D02*
X49529819Y-54185476D01*
X49529819Y-54185476D02*
X49529819Y-54804523D01*
X48863152Y-55661666D02*
X49529819Y-55661666D01*
X48482200Y-55423571D02*
X49196485Y-55185476D01*
X49196485Y-55185476D02*
X49196485Y-55804523D01*
X163792857Y-166804819D02*
X164126190Y-166328628D01*
X164364285Y-166804819D02*
X164364285Y-165804819D01*
X164364285Y-165804819D02*
X163983333Y-165804819D01*
X163983333Y-165804819D02*
X163888095Y-165852438D01*
X163888095Y-165852438D02*
X163840476Y-165900057D01*
X163840476Y-165900057D02*
X163792857Y-165995295D01*
X163792857Y-165995295D02*
X163792857Y-166138152D01*
X163792857Y-166138152D02*
X163840476Y-166233390D01*
X163840476Y-166233390D02*
X163888095Y-166281009D01*
X163888095Y-166281009D02*
X163983333Y-166328628D01*
X163983333Y-166328628D02*
X164364285Y-166328628D01*
X163411904Y-165900057D02*
X163364285Y-165852438D01*
X163364285Y-165852438D02*
X163269047Y-165804819D01*
X163269047Y-165804819D02*
X163030952Y-165804819D01*
X163030952Y-165804819D02*
X162935714Y-165852438D01*
X162935714Y-165852438D02*
X162888095Y-165900057D01*
X162888095Y-165900057D02*
X162840476Y-165995295D01*
X162840476Y-165995295D02*
X162840476Y-166090533D01*
X162840476Y-166090533D02*
X162888095Y-166233390D01*
X162888095Y-166233390D02*
X163459523Y-166804819D01*
X163459523Y-166804819D02*
X162840476Y-166804819D01*
X162221428Y-165804819D02*
X162126190Y-165804819D01*
X162126190Y-165804819D02*
X162030952Y-165852438D01*
X162030952Y-165852438D02*
X161983333Y-165900057D01*
X161983333Y-165900057D02*
X161935714Y-165995295D01*
X161935714Y-165995295D02*
X161888095Y-166185771D01*
X161888095Y-166185771D02*
X161888095Y-166423866D01*
X161888095Y-166423866D02*
X161935714Y-166614342D01*
X161935714Y-166614342D02*
X161983333Y-166709580D01*
X161983333Y-166709580D02*
X162030952Y-166757200D01*
X162030952Y-166757200D02*
X162126190Y-166804819D01*
X162126190Y-166804819D02*
X162221428Y-166804819D01*
X162221428Y-166804819D02*
X162316666Y-166757200D01*
X162316666Y-166757200D02*
X162364285Y-166709580D01*
X162364285Y-166709580D02*
X162411904Y-166614342D01*
X162411904Y-166614342D02*
X162459523Y-166423866D01*
X162459523Y-166423866D02*
X162459523Y-166185771D01*
X162459523Y-166185771D02*
X162411904Y-165995295D01*
X162411904Y-165995295D02*
X162364285Y-165900057D01*
X162364285Y-165900057D02*
X162316666Y-165852438D01*
X162316666Y-165852438D02*
X162221428Y-165804819D01*
X157142857Y-97984819D02*
X157476190Y-97508628D01*
X157714285Y-97984819D02*
X157714285Y-96984819D01*
X157714285Y-96984819D02*
X157333333Y-96984819D01*
X157333333Y-96984819D02*
X157238095Y-97032438D01*
X157238095Y-97032438D02*
X157190476Y-97080057D01*
X157190476Y-97080057D02*
X157142857Y-97175295D01*
X157142857Y-97175295D02*
X157142857Y-97318152D01*
X157142857Y-97318152D02*
X157190476Y-97413390D01*
X157190476Y-97413390D02*
X157238095Y-97461009D01*
X157238095Y-97461009D02*
X157333333Y-97508628D01*
X157333333Y-97508628D02*
X157714285Y-97508628D01*
X156761904Y-97080057D02*
X156714285Y-97032438D01*
X156714285Y-97032438D02*
X156619047Y-96984819D01*
X156619047Y-96984819D02*
X156380952Y-96984819D01*
X156380952Y-96984819D02*
X156285714Y-97032438D01*
X156285714Y-97032438D02*
X156238095Y-97080057D01*
X156238095Y-97080057D02*
X156190476Y-97175295D01*
X156190476Y-97175295D02*
X156190476Y-97270533D01*
X156190476Y-97270533D02*
X156238095Y-97413390D01*
X156238095Y-97413390D02*
X156809523Y-97984819D01*
X156809523Y-97984819D02*
X156190476Y-97984819D01*
X155333333Y-97318152D02*
X155333333Y-97984819D01*
X155571428Y-96937200D02*
X155809523Y-97651485D01*
X155809523Y-97651485D02*
X155190476Y-97651485D01*
X206345594Y-58194819D02*
X206345594Y-57194819D01*
X206345594Y-57194819D02*
X206107499Y-57194819D01*
X206107499Y-57194819D02*
X205964642Y-57242438D01*
X205964642Y-57242438D02*
X205869404Y-57337676D01*
X205869404Y-57337676D02*
X205821785Y-57432914D01*
X205821785Y-57432914D02*
X205774166Y-57623390D01*
X205774166Y-57623390D02*
X205774166Y-57766247D01*
X205774166Y-57766247D02*
X205821785Y-57956723D01*
X205821785Y-57956723D02*
X205869404Y-58051961D01*
X205869404Y-58051961D02*
X205964642Y-58147200D01*
X205964642Y-58147200D02*
X206107499Y-58194819D01*
X206107499Y-58194819D02*
X206345594Y-58194819D01*
X205297975Y-58194819D02*
X205107499Y-58194819D01*
X205107499Y-58194819D02*
X205012261Y-58147200D01*
X205012261Y-58147200D02*
X204964642Y-58099580D01*
X204964642Y-58099580D02*
X204869404Y-57956723D01*
X204869404Y-57956723D02*
X204821785Y-57766247D01*
X204821785Y-57766247D02*
X204821785Y-57385295D01*
X204821785Y-57385295D02*
X204869404Y-57290057D01*
X204869404Y-57290057D02*
X204917023Y-57242438D01*
X204917023Y-57242438D02*
X205012261Y-57194819D01*
X205012261Y-57194819D02*
X205202737Y-57194819D01*
X205202737Y-57194819D02*
X205297975Y-57242438D01*
X205297975Y-57242438D02*
X205345594Y-57290057D01*
X205345594Y-57290057D02*
X205393213Y-57385295D01*
X205393213Y-57385295D02*
X205393213Y-57623390D01*
X205393213Y-57623390D02*
X205345594Y-57718628D01*
X205345594Y-57718628D02*
X205297975Y-57766247D01*
X205297975Y-57766247D02*
X205202737Y-57813866D01*
X205202737Y-57813866D02*
X205012261Y-57813866D01*
X205012261Y-57813866D02*
X204917023Y-57766247D01*
X204917023Y-57766247D02*
X204869404Y-57718628D01*
X204869404Y-57718628D02*
X204821785Y-57623390D01*
X211774166Y-58364819D02*
X212107499Y-57888628D01*
X212345594Y-58364819D02*
X212345594Y-57364819D01*
X212345594Y-57364819D02*
X211964642Y-57364819D01*
X211964642Y-57364819D02*
X211869404Y-57412438D01*
X211869404Y-57412438D02*
X211821785Y-57460057D01*
X211821785Y-57460057D02*
X211774166Y-57555295D01*
X211774166Y-57555295D02*
X211774166Y-57698152D01*
X211774166Y-57698152D02*
X211821785Y-57793390D01*
X211821785Y-57793390D02*
X211869404Y-57841009D01*
X211869404Y-57841009D02*
X211964642Y-57888628D01*
X211964642Y-57888628D02*
X212345594Y-57888628D01*
X211440832Y-57364819D02*
X210774166Y-57364819D01*
X210774166Y-57364819D02*
X211202737Y-58364819D01*
X203154819Y-61533333D02*
X202678628Y-61200000D01*
X203154819Y-60961905D02*
X202154819Y-60961905D01*
X202154819Y-60961905D02*
X202154819Y-61342857D01*
X202154819Y-61342857D02*
X202202438Y-61438095D01*
X202202438Y-61438095D02*
X202250057Y-61485714D01*
X202250057Y-61485714D02*
X202345295Y-61533333D01*
X202345295Y-61533333D02*
X202488152Y-61533333D01*
X202488152Y-61533333D02*
X202583390Y-61485714D01*
X202583390Y-61485714D02*
X202631009Y-61438095D01*
X202631009Y-61438095D02*
X202678628Y-61342857D01*
X202678628Y-61342857D02*
X202678628Y-60961905D01*
X202583390Y-62104762D02*
X202535771Y-62009524D01*
X202535771Y-62009524D02*
X202488152Y-61961905D01*
X202488152Y-61961905D02*
X202392914Y-61914286D01*
X202392914Y-61914286D02*
X202345295Y-61914286D01*
X202345295Y-61914286D02*
X202250057Y-61961905D01*
X202250057Y-61961905D02*
X202202438Y-62009524D01*
X202202438Y-62009524D02*
X202154819Y-62104762D01*
X202154819Y-62104762D02*
X202154819Y-62295238D01*
X202154819Y-62295238D02*
X202202438Y-62390476D01*
X202202438Y-62390476D02*
X202250057Y-62438095D01*
X202250057Y-62438095D02*
X202345295Y-62485714D01*
X202345295Y-62485714D02*
X202392914Y-62485714D01*
X202392914Y-62485714D02*
X202488152Y-62438095D01*
X202488152Y-62438095D02*
X202535771Y-62390476D01*
X202535771Y-62390476D02*
X202583390Y-62295238D01*
X202583390Y-62295238D02*
X202583390Y-62104762D01*
X202583390Y-62104762D02*
X202631009Y-62009524D01*
X202631009Y-62009524D02*
X202678628Y-61961905D01*
X202678628Y-61961905D02*
X202773866Y-61914286D01*
X202773866Y-61914286D02*
X202964342Y-61914286D01*
X202964342Y-61914286D02*
X203059580Y-61961905D01*
X203059580Y-61961905D02*
X203107200Y-62009524D01*
X203107200Y-62009524D02*
X203154819Y-62104762D01*
X203154819Y-62104762D02*
X203154819Y-62295238D01*
X203154819Y-62295238D02*
X203107200Y-62390476D01*
X203107200Y-62390476D02*
X203059580Y-62438095D01*
X203059580Y-62438095D02*
X202964342Y-62485714D01*
X202964342Y-62485714D02*
X202773866Y-62485714D01*
X202773866Y-62485714D02*
X202678628Y-62438095D01*
X202678628Y-62438095D02*
X202631009Y-62390476D01*
X202631009Y-62390476D02*
X202583390Y-62295238D01*
X41954819Y-53635714D02*
X40954819Y-53635714D01*
X40954819Y-53635714D02*
X40954819Y-53873809D01*
X40954819Y-53873809D02*
X41002438Y-54016666D01*
X41002438Y-54016666D02*
X41097676Y-54111904D01*
X41097676Y-54111904D02*
X41192914Y-54159523D01*
X41192914Y-54159523D02*
X41383390Y-54207142D01*
X41383390Y-54207142D02*
X41526247Y-54207142D01*
X41526247Y-54207142D02*
X41716723Y-54159523D01*
X41716723Y-54159523D02*
X41811961Y-54111904D01*
X41811961Y-54111904D02*
X41907200Y-54016666D01*
X41907200Y-54016666D02*
X41954819Y-53873809D01*
X41954819Y-53873809D02*
X41954819Y-53635714D01*
X41954819Y-55159523D02*
X41954819Y-54588095D01*
X41954819Y-54873809D02*
X40954819Y-54873809D01*
X40954819Y-54873809D02*
X41097676Y-54778571D01*
X41097676Y-54778571D02*
X41192914Y-54683333D01*
X41192914Y-54683333D02*
X41240533Y-54588095D01*
X41954819Y-55635714D02*
X41954819Y-55826190D01*
X41954819Y-55826190D02*
X41907200Y-55921428D01*
X41907200Y-55921428D02*
X41859580Y-55969047D01*
X41859580Y-55969047D02*
X41716723Y-56064285D01*
X41716723Y-56064285D02*
X41526247Y-56111904D01*
X41526247Y-56111904D02*
X41145295Y-56111904D01*
X41145295Y-56111904D02*
X41050057Y-56064285D01*
X41050057Y-56064285D02*
X41002438Y-56016666D01*
X41002438Y-56016666D02*
X40954819Y-55921428D01*
X40954819Y-55921428D02*
X40954819Y-55730952D01*
X40954819Y-55730952D02*
X41002438Y-55635714D01*
X41002438Y-55635714D02*
X41050057Y-55588095D01*
X41050057Y-55588095D02*
X41145295Y-55540476D01*
X41145295Y-55540476D02*
X41383390Y-55540476D01*
X41383390Y-55540476D02*
X41478628Y-55588095D01*
X41478628Y-55588095D02*
X41526247Y-55635714D01*
X41526247Y-55635714D02*
X41573866Y-55730952D01*
X41573866Y-55730952D02*
X41573866Y-55921428D01*
X41573866Y-55921428D02*
X41526247Y-56016666D01*
X41526247Y-56016666D02*
X41478628Y-56064285D01*
X41478628Y-56064285D02*
X41383390Y-56111904D01*
X118124819Y-159833333D02*
X117648628Y-159500000D01*
X118124819Y-159261905D02*
X117124819Y-159261905D01*
X117124819Y-159261905D02*
X117124819Y-159642857D01*
X117124819Y-159642857D02*
X117172438Y-159738095D01*
X117172438Y-159738095D02*
X117220057Y-159785714D01*
X117220057Y-159785714D02*
X117315295Y-159833333D01*
X117315295Y-159833333D02*
X117458152Y-159833333D01*
X117458152Y-159833333D02*
X117553390Y-159785714D01*
X117553390Y-159785714D02*
X117601009Y-159738095D01*
X117601009Y-159738095D02*
X117648628Y-159642857D01*
X117648628Y-159642857D02*
X117648628Y-159261905D01*
X118124819Y-160785714D02*
X118124819Y-160214286D01*
X118124819Y-160500000D02*
X117124819Y-160500000D01*
X117124819Y-160500000D02*
X117267676Y-160404762D01*
X117267676Y-160404762D02*
X117362914Y-160309524D01*
X117362914Y-160309524D02*
X117410533Y-160214286D01*
X170992857Y-83759580D02*
X171040476Y-83807200D01*
X171040476Y-83807200D02*
X171183333Y-83854819D01*
X171183333Y-83854819D02*
X171278571Y-83854819D01*
X171278571Y-83854819D02*
X171421428Y-83807200D01*
X171421428Y-83807200D02*
X171516666Y-83711961D01*
X171516666Y-83711961D02*
X171564285Y-83616723D01*
X171564285Y-83616723D02*
X171611904Y-83426247D01*
X171611904Y-83426247D02*
X171611904Y-83283390D01*
X171611904Y-83283390D02*
X171564285Y-83092914D01*
X171564285Y-83092914D02*
X171516666Y-82997676D01*
X171516666Y-82997676D02*
X171421428Y-82902438D01*
X171421428Y-82902438D02*
X171278571Y-82854819D01*
X171278571Y-82854819D02*
X171183333Y-82854819D01*
X171183333Y-82854819D02*
X171040476Y-82902438D01*
X171040476Y-82902438D02*
X170992857Y-82950057D01*
X170611904Y-82950057D02*
X170564285Y-82902438D01*
X170564285Y-82902438D02*
X170469047Y-82854819D01*
X170469047Y-82854819D02*
X170230952Y-82854819D01*
X170230952Y-82854819D02*
X170135714Y-82902438D01*
X170135714Y-82902438D02*
X170088095Y-82950057D01*
X170088095Y-82950057D02*
X170040476Y-83045295D01*
X170040476Y-83045295D02*
X170040476Y-83140533D01*
X170040476Y-83140533D02*
X170088095Y-83283390D01*
X170088095Y-83283390D02*
X170659523Y-83854819D01*
X170659523Y-83854819D02*
X170040476Y-83854819D01*
X169421428Y-82854819D02*
X169326190Y-82854819D01*
X169326190Y-82854819D02*
X169230952Y-82902438D01*
X169230952Y-82902438D02*
X169183333Y-82950057D01*
X169183333Y-82950057D02*
X169135714Y-83045295D01*
X169135714Y-83045295D02*
X169088095Y-83235771D01*
X169088095Y-83235771D02*
X169088095Y-83473866D01*
X169088095Y-83473866D02*
X169135714Y-83664342D01*
X169135714Y-83664342D02*
X169183333Y-83759580D01*
X169183333Y-83759580D02*
X169230952Y-83807200D01*
X169230952Y-83807200D02*
X169326190Y-83854819D01*
X169326190Y-83854819D02*
X169421428Y-83854819D01*
X169421428Y-83854819D02*
X169516666Y-83807200D01*
X169516666Y-83807200D02*
X169564285Y-83759580D01*
X169564285Y-83759580D02*
X169611904Y-83664342D01*
X169611904Y-83664342D02*
X169659523Y-83473866D01*
X169659523Y-83473866D02*
X169659523Y-83235771D01*
X169659523Y-83235771D02*
X169611904Y-83045295D01*
X169611904Y-83045295D02*
X169564285Y-82950057D01*
X169564285Y-82950057D02*
X169516666Y-82902438D01*
X169516666Y-82902438D02*
X169421428Y-82854819D01*
X215527319Y-39027142D02*
X215051128Y-38693809D01*
X215527319Y-38455714D02*
X214527319Y-38455714D01*
X214527319Y-38455714D02*
X214527319Y-38836666D01*
X214527319Y-38836666D02*
X214574938Y-38931904D01*
X214574938Y-38931904D02*
X214622557Y-38979523D01*
X214622557Y-38979523D02*
X214717795Y-39027142D01*
X214717795Y-39027142D02*
X214860652Y-39027142D01*
X214860652Y-39027142D02*
X214955890Y-38979523D01*
X214955890Y-38979523D02*
X215003509Y-38931904D01*
X215003509Y-38931904D02*
X215051128Y-38836666D01*
X215051128Y-38836666D02*
X215051128Y-38455714D01*
X215527319Y-39979523D02*
X215527319Y-39408095D01*
X215527319Y-39693809D02*
X214527319Y-39693809D01*
X214527319Y-39693809D02*
X214670176Y-39598571D01*
X214670176Y-39598571D02*
X214765414Y-39503333D01*
X214765414Y-39503333D02*
X214813033Y-39408095D01*
X214527319Y-40884285D02*
X214527319Y-40408095D01*
X214527319Y-40408095D02*
X215003509Y-40360476D01*
X215003509Y-40360476D02*
X214955890Y-40408095D01*
X214955890Y-40408095D02*
X214908271Y-40503333D01*
X214908271Y-40503333D02*
X214908271Y-40741428D01*
X214908271Y-40741428D02*
X214955890Y-40836666D01*
X214955890Y-40836666D02*
X215003509Y-40884285D01*
X215003509Y-40884285D02*
X215098747Y-40931904D01*
X215098747Y-40931904D02*
X215336842Y-40931904D01*
X215336842Y-40931904D02*
X215432080Y-40884285D01*
X215432080Y-40884285D02*
X215479700Y-40836666D01*
X215479700Y-40836666D02*
X215527319Y-40741428D01*
X215527319Y-40741428D02*
X215527319Y-40503333D01*
X215527319Y-40503333D02*
X215479700Y-40408095D01*
X215479700Y-40408095D02*
X215432080Y-40360476D01*
X151442857Y-149014819D02*
X151776190Y-148538628D01*
X152014285Y-149014819D02*
X152014285Y-148014819D01*
X152014285Y-148014819D02*
X151633333Y-148014819D01*
X151633333Y-148014819D02*
X151538095Y-148062438D01*
X151538095Y-148062438D02*
X151490476Y-148110057D01*
X151490476Y-148110057D02*
X151442857Y-148205295D01*
X151442857Y-148205295D02*
X151442857Y-148348152D01*
X151442857Y-148348152D02*
X151490476Y-148443390D01*
X151490476Y-148443390D02*
X151538095Y-148491009D01*
X151538095Y-148491009D02*
X151633333Y-148538628D01*
X151633333Y-148538628D02*
X152014285Y-148538628D01*
X151109523Y-148014819D02*
X150490476Y-148014819D01*
X150490476Y-148014819D02*
X150823809Y-148395771D01*
X150823809Y-148395771D02*
X150680952Y-148395771D01*
X150680952Y-148395771D02*
X150585714Y-148443390D01*
X150585714Y-148443390D02*
X150538095Y-148491009D01*
X150538095Y-148491009D02*
X150490476Y-148586247D01*
X150490476Y-148586247D02*
X150490476Y-148824342D01*
X150490476Y-148824342D02*
X150538095Y-148919580D01*
X150538095Y-148919580D02*
X150585714Y-148967200D01*
X150585714Y-148967200D02*
X150680952Y-149014819D01*
X150680952Y-149014819D02*
X150966666Y-149014819D01*
X150966666Y-149014819D02*
X151061904Y-148967200D01*
X151061904Y-148967200D02*
X151109523Y-148919580D01*
X149871428Y-148014819D02*
X149776190Y-148014819D01*
X149776190Y-148014819D02*
X149680952Y-148062438D01*
X149680952Y-148062438D02*
X149633333Y-148110057D01*
X149633333Y-148110057D02*
X149585714Y-148205295D01*
X149585714Y-148205295D02*
X149538095Y-148395771D01*
X149538095Y-148395771D02*
X149538095Y-148633866D01*
X149538095Y-148633866D02*
X149585714Y-148824342D01*
X149585714Y-148824342D02*
X149633333Y-148919580D01*
X149633333Y-148919580D02*
X149680952Y-148967200D01*
X149680952Y-148967200D02*
X149776190Y-149014819D01*
X149776190Y-149014819D02*
X149871428Y-149014819D01*
X149871428Y-149014819D02*
X149966666Y-148967200D01*
X149966666Y-148967200D02*
X150014285Y-148919580D01*
X150014285Y-148919580D02*
X150061904Y-148824342D01*
X150061904Y-148824342D02*
X150109523Y-148633866D01*
X150109523Y-148633866D02*
X150109523Y-148395771D01*
X150109523Y-148395771D02*
X150061904Y-148205295D01*
X150061904Y-148205295D02*
X150014285Y-148110057D01*
X150014285Y-148110057D02*
X149966666Y-148062438D01*
X149966666Y-148062438D02*
X149871428Y-148014819D01*
X174142857Y-148624819D02*
X174476190Y-148148628D01*
X174714285Y-148624819D02*
X174714285Y-147624819D01*
X174714285Y-147624819D02*
X174333333Y-147624819D01*
X174333333Y-147624819D02*
X174238095Y-147672438D01*
X174238095Y-147672438D02*
X174190476Y-147720057D01*
X174190476Y-147720057D02*
X174142857Y-147815295D01*
X174142857Y-147815295D02*
X174142857Y-147958152D01*
X174142857Y-147958152D02*
X174190476Y-148053390D01*
X174190476Y-148053390D02*
X174238095Y-148101009D01*
X174238095Y-148101009D02*
X174333333Y-148148628D01*
X174333333Y-148148628D02*
X174714285Y-148148628D01*
X173190476Y-148624819D02*
X173761904Y-148624819D01*
X173476190Y-148624819D02*
X173476190Y-147624819D01*
X173476190Y-147624819D02*
X173571428Y-147767676D01*
X173571428Y-147767676D02*
X173666666Y-147862914D01*
X173666666Y-147862914D02*
X173761904Y-147910533D01*
X172333333Y-147624819D02*
X172523809Y-147624819D01*
X172523809Y-147624819D02*
X172619047Y-147672438D01*
X172619047Y-147672438D02*
X172666666Y-147720057D01*
X172666666Y-147720057D02*
X172761904Y-147862914D01*
X172761904Y-147862914D02*
X172809523Y-148053390D01*
X172809523Y-148053390D02*
X172809523Y-148434342D01*
X172809523Y-148434342D02*
X172761904Y-148529580D01*
X172761904Y-148529580D02*
X172714285Y-148577200D01*
X172714285Y-148577200D02*
X172619047Y-148624819D01*
X172619047Y-148624819D02*
X172428571Y-148624819D01*
X172428571Y-148624819D02*
X172333333Y-148577200D01*
X172333333Y-148577200D02*
X172285714Y-148529580D01*
X172285714Y-148529580D02*
X172238095Y-148434342D01*
X172238095Y-148434342D02*
X172238095Y-148196247D01*
X172238095Y-148196247D02*
X172285714Y-148101009D01*
X172285714Y-148101009D02*
X172333333Y-148053390D01*
X172333333Y-148053390D02*
X172428571Y-148005771D01*
X172428571Y-148005771D02*
X172619047Y-148005771D01*
X172619047Y-148005771D02*
X172714285Y-148053390D01*
X172714285Y-148053390D02*
X172761904Y-148101009D01*
X172761904Y-148101009D02*
X172809523Y-148196247D01*
X159238094Y-85454819D02*
X159238094Y-84454819D01*
X159238094Y-84454819D02*
X158999999Y-84454819D01*
X158999999Y-84454819D02*
X158857142Y-84502438D01*
X158857142Y-84502438D02*
X158761904Y-84597676D01*
X158761904Y-84597676D02*
X158714285Y-84692914D01*
X158714285Y-84692914D02*
X158666666Y-84883390D01*
X158666666Y-84883390D02*
X158666666Y-85026247D01*
X158666666Y-85026247D02*
X158714285Y-85216723D01*
X158714285Y-85216723D02*
X158761904Y-85311961D01*
X158761904Y-85311961D02*
X158857142Y-85407200D01*
X158857142Y-85407200D02*
X158999999Y-85454819D01*
X158999999Y-85454819D02*
X159238094Y-85454819D01*
X157761904Y-84454819D02*
X158238094Y-84454819D01*
X158238094Y-84454819D02*
X158285713Y-84931009D01*
X158285713Y-84931009D02*
X158238094Y-84883390D01*
X158238094Y-84883390D02*
X158142856Y-84835771D01*
X158142856Y-84835771D02*
X157904761Y-84835771D01*
X157904761Y-84835771D02*
X157809523Y-84883390D01*
X157809523Y-84883390D02*
X157761904Y-84931009D01*
X157761904Y-84931009D02*
X157714285Y-85026247D01*
X157714285Y-85026247D02*
X157714285Y-85264342D01*
X157714285Y-85264342D02*
X157761904Y-85359580D01*
X157761904Y-85359580D02*
X157809523Y-85407200D01*
X157809523Y-85407200D02*
X157904761Y-85454819D01*
X157904761Y-85454819D02*
X158142856Y-85454819D01*
X158142856Y-85454819D02*
X158238094Y-85407200D01*
X158238094Y-85407200D02*
X158285713Y-85359580D01*
X210980594Y-53124819D02*
X210980594Y-52124819D01*
X210980594Y-52124819D02*
X210742499Y-52124819D01*
X210742499Y-52124819D02*
X210599642Y-52172438D01*
X210599642Y-52172438D02*
X210504404Y-52267676D01*
X210504404Y-52267676D02*
X210456785Y-52362914D01*
X210456785Y-52362914D02*
X210409166Y-52553390D01*
X210409166Y-52553390D02*
X210409166Y-52696247D01*
X210409166Y-52696247D02*
X210456785Y-52886723D01*
X210456785Y-52886723D02*
X210504404Y-52981961D01*
X210504404Y-52981961D02*
X210599642Y-53077200D01*
X210599642Y-53077200D02*
X210742499Y-53124819D01*
X210742499Y-53124819D02*
X210980594Y-53124819D01*
X209552023Y-52458152D02*
X209552023Y-53124819D01*
X209790118Y-52077200D02*
X210028213Y-52791485D01*
X210028213Y-52791485D02*
X209409166Y-52791485D01*
X191042857Y-157414819D02*
X191376190Y-156938628D01*
X191614285Y-157414819D02*
X191614285Y-156414819D01*
X191614285Y-156414819D02*
X191233333Y-156414819D01*
X191233333Y-156414819D02*
X191138095Y-156462438D01*
X191138095Y-156462438D02*
X191090476Y-156510057D01*
X191090476Y-156510057D02*
X191042857Y-156605295D01*
X191042857Y-156605295D02*
X191042857Y-156748152D01*
X191042857Y-156748152D02*
X191090476Y-156843390D01*
X191090476Y-156843390D02*
X191138095Y-156891009D01*
X191138095Y-156891009D02*
X191233333Y-156938628D01*
X191233333Y-156938628D02*
X191614285Y-156938628D01*
X190661904Y-156510057D02*
X190614285Y-156462438D01*
X190614285Y-156462438D02*
X190519047Y-156414819D01*
X190519047Y-156414819D02*
X190280952Y-156414819D01*
X190280952Y-156414819D02*
X190185714Y-156462438D01*
X190185714Y-156462438D02*
X190138095Y-156510057D01*
X190138095Y-156510057D02*
X190090476Y-156605295D01*
X190090476Y-156605295D02*
X190090476Y-156700533D01*
X190090476Y-156700533D02*
X190138095Y-156843390D01*
X190138095Y-156843390D02*
X190709523Y-157414819D01*
X190709523Y-157414819D02*
X190090476Y-157414819D01*
X189519047Y-156843390D02*
X189614285Y-156795771D01*
X189614285Y-156795771D02*
X189661904Y-156748152D01*
X189661904Y-156748152D02*
X189709523Y-156652914D01*
X189709523Y-156652914D02*
X189709523Y-156605295D01*
X189709523Y-156605295D02*
X189661904Y-156510057D01*
X189661904Y-156510057D02*
X189614285Y-156462438D01*
X189614285Y-156462438D02*
X189519047Y-156414819D01*
X189519047Y-156414819D02*
X189328571Y-156414819D01*
X189328571Y-156414819D02*
X189233333Y-156462438D01*
X189233333Y-156462438D02*
X189185714Y-156510057D01*
X189185714Y-156510057D02*
X189138095Y-156605295D01*
X189138095Y-156605295D02*
X189138095Y-156652914D01*
X189138095Y-156652914D02*
X189185714Y-156748152D01*
X189185714Y-156748152D02*
X189233333Y-156795771D01*
X189233333Y-156795771D02*
X189328571Y-156843390D01*
X189328571Y-156843390D02*
X189519047Y-156843390D01*
X189519047Y-156843390D02*
X189614285Y-156891009D01*
X189614285Y-156891009D02*
X189661904Y-156938628D01*
X189661904Y-156938628D02*
X189709523Y-157033866D01*
X189709523Y-157033866D02*
X189709523Y-157224342D01*
X189709523Y-157224342D02*
X189661904Y-157319580D01*
X189661904Y-157319580D02*
X189614285Y-157367200D01*
X189614285Y-157367200D02*
X189519047Y-157414819D01*
X189519047Y-157414819D02*
X189328571Y-157414819D01*
X189328571Y-157414819D02*
X189233333Y-157367200D01*
X189233333Y-157367200D02*
X189185714Y-157319580D01*
X189185714Y-157319580D02*
X189138095Y-157224342D01*
X189138095Y-157224342D02*
X189138095Y-157033866D01*
X189138095Y-157033866D02*
X189185714Y-156938628D01*
X189185714Y-156938628D02*
X189233333Y-156891009D01*
X189233333Y-156891009D02*
X189328571Y-156843390D01*
X156666666Y-78124819D02*
X156999999Y-77648628D01*
X157238094Y-78124819D02*
X157238094Y-77124819D01*
X157238094Y-77124819D02*
X156857142Y-77124819D01*
X156857142Y-77124819D02*
X156761904Y-77172438D01*
X156761904Y-77172438D02*
X156714285Y-77220057D01*
X156714285Y-77220057D02*
X156666666Y-77315295D01*
X156666666Y-77315295D02*
X156666666Y-77458152D01*
X156666666Y-77458152D02*
X156714285Y-77553390D01*
X156714285Y-77553390D02*
X156761904Y-77601009D01*
X156761904Y-77601009D02*
X156857142Y-77648628D01*
X156857142Y-77648628D02*
X157238094Y-77648628D01*
X155809523Y-77124819D02*
X155999999Y-77124819D01*
X155999999Y-77124819D02*
X156095237Y-77172438D01*
X156095237Y-77172438D02*
X156142856Y-77220057D01*
X156142856Y-77220057D02*
X156238094Y-77362914D01*
X156238094Y-77362914D02*
X156285713Y-77553390D01*
X156285713Y-77553390D02*
X156285713Y-77934342D01*
X156285713Y-77934342D02*
X156238094Y-78029580D01*
X156238094Y-78029580D02*
X156190475Y-78077200D01*
X156190475Y-78077200D02*
X156095237Y-78124819D01*
X156095237Y-78124819D02*
X155904761Y-78124819D01*
X155904761Y-78124819D02*
X155809523Y-78077200D01*
X155809523Y-78077200D02*
X155761904Y-78029580D01*
X155761904Y-78029580D02*
X155714285Y-77934342D01*
X155714285Y-77934342D02*
X155714285Y-77696247D01*
X155714285Y-77696247D02*
X155761904Y-77601009D01*
X155761904Y-77601009D02*
X155809523Y-77553390D01*
X155809523Y-77553390D02*
X155904761Y-77505771D01*
X155904761Y-77505771D02*
X156095237Y-77505771D01*
X156095237Y-77505771D02*
X156190475Y-77553390D01*
X156190475Y-77553390D02*
X156238094Y-77601009D01*
X156238094Y-77601009D02*
X156285713Y-77696247D01*
X193769404Y-57794819D02*
X193769404Y-58604342D01*
X193769404Y-58604342D02*
X193721785Y-58699580D01*
X193721785Y-58699580D02*
X193674166Y-58747200D01*
X193674166Y-58747200D02*
X193578928Y-58794819D01*
X193578928Y-58794819D02*
X193388452Y-58794819D01*
X193388452Y-58794819D02*
X193293214Y-58747200D01*
X193293214Y-58747200D02*
X193245595Y-58699580D01*
X193245595Y-58699580D02*
X193197976Y-58604342D01*
X193197976Y-58604342D02*
X193197976Y-57794819D01*
X192769404Y-57890057D02*
X192721785Y-57842438D01*
X192721785Y-57842438D02*
X192626547Y-57794819D01*
X192626547Y-57794819D02*
X192388452Y-57794819D01*
X192388452Y-57794819D02*
X192293214Y-57842438D01*
X192293214Y-57842438D02*
X192245595Y-57890057D01*
X192245595Y-57890057D02*
X192197976Y-57985295D01*
X192197976Y-57985295D02*
X192197976Y-58080533D01*
X192197976Y-58080533D02*
X192245595Y-58223390D01*
X192245595Y-58223390D02*
X192817023Y-58794819D01*
X192817023Y-58794819D02*
X192197976Y-58794819D01*
X51454819Y-41985714D02*
X50454819Y-41985714D01*
X50454819Y-41985714D02*
X50454819Y-42223809D01*
X50454819Y-42223809D02*
X50502438Y-42366666D01*
X50502438Y-42366666D02*
X50597676Y-42461904D01*
X50597676Y-42461904D02*
X50692914Y-42509523D01*
X50692914Y-42509523D02*
X50883390Y-42557142D01*
X50883390Y-42557142D02*
X51026247Y-42557142D01*
X51026247Y-42557142D02*
X51216723Y-42509523D01*
X51216723Y-42509523D02*
X51311961Y-42461904D01*
X51311961Y-42461904D02*
X51407200Y-42366666D01*
X51407200Y-42366666D02*
X51454819Y-42223809D01*
X51454819Y-42223809D02*
X51454819Y-41985714D01*
X50550057Y-42938095D02*
X50502438Y-42985714D01*
X50502438Y-42985714D02*
X50454819Y-43080952D01*
X50454819Y-43080952D02*
X50454819Y-43319047D01*
X50454819Y-43319047D02*
X50502438Y-43414285D01*
X50502438Y-43414285D02*
X50550057Y-43461904D01*
X50550057Y-43461904D02*
X50645295Y-43509523D01*
X50645295Y-43509523D02*
X50740533Y-43509523D01*
X50740533Y-43509523D02*
X50883390Y-43461904D01*
X50883390Y-43461904D02*
X51454819Y-42890476D01*
X51454819Y-42890476D02*
X51454819Y-43509523D01*
X50454819Y-44128571D02*
X50454819Y-44223809D01*
X50454819Y-44223809D02*
X50502438Y-44319047D01*
X50502438Y-44319047D02*
X50550057Y-44366666D01*
X50550057Y-44366666D02*
X50645295Y-44414285D01*
X50645295Y-44414285D02*
X50835771Y-44461904D01*
X50835771Y-44461904D02*
X51073866Y-44461904D01*
X51073866Y-44461904D02*
X51264342Y-44414285D01*
X51264342Y-44414285D02*
X51359580Y-44366666D01*
X51359580Y-44366666D02*
X51407200Y-44319047D01*
X51407200Y-44319047D02*
X51454819Y-44223809D01*
X51454819Y-44223809D02*
X51454819Y-44128571D01*
X51454819Y-44128571D02*
X51407200Y-44033333D01*
X51407200Y-44033333D02*
X51359580Y-43985714D01*
X51359580Y-43985714D02*
X51264342Y-43938095D01*
X51264342Y-43938095D02*
X51073866Y-43890476D01*
X51073866Y-43890476D02*
X50835771Y-43890476D01*
X50835771Y-43890476D02*
X50645295Y-43938095D01*
X50645295Y-43938095D02*
X50550057Y-43985714D01*
X50550057Y-43985714D02*
X50502438Y-44033333D01*
X50502438Y-44033333D02*
X50454819Y-44128571D01*
X170116666Y-81304819D02*
X170449999Y-80828628D01*
X170688094Y-81304819D02*
X170688094Y-80304819D01*
X170688094Y-80304819D02*
X170307142Y-80304819D01*
X170307142Y-80304819D02*
X170211904Y-80352438D01*
X170211904Y-80352438D02*
X170164285Y-80400057D01*
X170164285Y-80400057D02*
X170116666Y-80495295D01*
X170116666Y-80495295D02*
X170116666Y-80638152D01*
X170116666Y-80638152D02*
X170164285Y-80733390D01*
X170164285Y-80733390D02*
X170211904Y-80781009D01*
X170211904Y-80781009D02*
X170307142Y-80828628D01*
X170307142Y-80828628D02*
X170688094Y-80828628D01*
X169783332Y-80304819D02*
X169164285Y-80304819D01*
X169164285Y-80304819D02*
X169497618Y-80685771D01*
X169497618Y-80685771D02*
X169354761Y-80685771D01*
X169354761Y-80685771D02*
X169259523Y-80733390D01*
X169259523Y-80733390D02*
X169211904Y-80781009D01*
X169211904Y-80781009D02*
X169164285Y-80876247D01*
X169164285Y-80876247D02*
X169164285Y-81114342D01*
X169164285Y-81114342D02*
X169211904Y-81209580D01*
X169211904Y-81209580D02*
X169259523Y-81257200D01*
X169259523Y-81257200D02*
X169354761Y-81304819D01*
X169354761Y-81304819D02*
X169640475Y-81304819D01*
X169640475Y-81304819D02*
X169735713Y-81257200D01*
X169735713Y-81257200D02*
X169783332Y-81209580D01*
X154142857Y-163004819D02*
X154476190Y-162528628D01*
X154714285Y-163004819D02*
X154714285Y-162004819D01*
X154714285Y-162004819D02*
X154333333Y-162004819D01*
X154333333Y-162004819D02*
X154238095Y-162052438D01*
X154238095Y-162052438D02*
X154190476Y-162100057D01*
X154190476Y-162100057D02*
X154142857Y-162195295D01*
X154142857Y-162195295D02*
X154142857Y-162338152D01*
X154142857Y-162338152D02*
X154190476Y-162433390D01*
X154190476Y-162433390D02*
X154238095Y-162481009D01*
X154238095Y-162481009D02*
X154333333Y-162528628D01*
X154333333Y-162528628D02*
X154714285Y-162528628D01*
X153190476Y-163004819D02*
X153761904Y-163004819D01*
X153476190Y-163004819D02*
X153476190Y-162004819D01*
X153476190Y-162004819D02*
X153571428Y-162147676D01*
X153571428Y-162147676D02*
X153666666Y-162242914D01*
X153666666Y-162242914D02*
X153761904Y-162290533D01*
X152714285Y-163004819D02*
X152523809Y-163004819D01*
X152523809Y-163004819D02*
X152428571Y-162957200D01*
X152428571Y-162957200D02*
X152380952Y-162909580D01*
X152380952Y-162909580D02*
X152285714Y-162766723D01*
X152285714Y-162766723D02*
X152238095Y-162576247D01*
X152238095Y-162576247D02*
X152238095Y-162195295D01*
X152238095Y-162195295D02*
X152285714Y-162100057D01*
X152285714Y-162100057D02*
X152333333Y-162052438D01*
X152333333Y-162052438D02*
X152428571Y-162004819D01*
X152428571Y-162004819D02*
X152619047Y-162004819D01*
X152619047Y-162004819D02*
X152714285Y-162052438D01*
X152714285Y-162052438D02*
X152761904Y-162100057D01*
X152761904Y-162100057D02*
X152809523Y-162195295D01*
X152809523Y-162195295D02*
X152809523Y-162433390D01*
X152809523Y-162433390D02*
X152761904Y-162528628D01*
X152761904Y-162528628D02*
X152714285Y-162576247D01*
X152714285Y-162576247D02*
X152619047Y-162623866D01*
X152619047Y-162623866D02*
X152428571Y-162623866D01*
X152428571Y-162623866D02*
X152333333Y-162576247D01*
X152333333Y-162576247D02*
X152285714Y-162528628D01*
X152285714Y-162528628D02*
X152238095Y-162433390D01*
X151442857Y-153224819D02*
X151776190Y-152748628D01*
X152014285Y-153224819D02*
X152014285Y-152224819D01*
X152014285Y-152224819D02*
X151633333Y-152224819D01*
X151633333Y-152224819D02*
X151538095Y-152272438D01*
X151538095Y-152272438D02*
X151490476Y-152320057D01*
X151490476Y-152320057D02*
X151442857Y-152415295D01*
X151442857Y-152415295D02*
X151442857Y-152558152D01*
X151442857Y-152558152D02*
X151490476Y-152653390D01*
X151490476Y-152653390D02*
X151538095Y-152701009D01*
X151538095Y-152701009D02*
X151633333Y-152748628D01*
X151633333Y-152748628D02*
X152014285Y-152748628D01*
X151109523Y-152224819D02*
X150490476Y-152224819D01*
X150490476Y-152224819D02*
X150823809Y-152605771D01*
X150823809Y-152605771D02*
X150680952Y-152605771D01*
X150680952Y-152605771D02*
X150585714Y-152653390D01*
X150585714Y-152653390D02*
X150538095Y-152701009D01*
X150538095Y-152701009D02*
X150490476Y-152796247D01*
X150490476Y-152796247D02*
X150490476Y-153034342D01*
X150490476Y-153034342D02*
X150538095Y-153129580D01*
X150538095Y-153129580D02*
X150585714Y-153177200D01*
X150585714Y-153177200D02*
X150680952Y-153224819D01*
X150680952Y-153224819D02*
X150966666Y-153224819D01*
X150966666Y-153224819D02*
X151061904Y-153177200D01*
X151061904Y-153177200D02*
X151109523Y-153129580D01*
X149538095Y-153224819D02*
X150109523Y-153224819D01*
X149823809Y-153224819D02*
X149823809Y-152224819D01*
X149823809Y-152224819D02*
X149919047Y-152367676D01*
X149919047Y-152367676D02*
X150014285Y-152462914D01*
X150014285Y-152462914D02*
X150109523Y-152510533D01*
X133142857Y-96254819D02*
X133476190Y-95778628D01*
X133714285Y-96254819D02*
X133714285Y-95254819D01*
X133714285Y-95254819D02*
X133333333Y-95254819D01*
X133333333Y-95254819D02*
X133238095Y-95302438D01*
X133238095Y-95302438D02*
X133190476Y-95350057D01*
X133190476Y-95350057D02*
X133142857Y-95445295D01*
X133142857Y-95445295D02*
X133142857Y-95588152D01*
X133142857Y-95588152D02*
X133190476Y-95683390D01*
X133190476Y-95683390D02*
X133238095Y-95731009D01*
X133238095Y-95731009D02*
X133333333Y-95778628D01*
X133333333Y-95778628D02*
X133714285Y-95778628D01*
X132190476Y-96254819D02*
X132761904Y-96254819D01*
X132476190Y-96254819D02*
X132476190Y-95254819D01*
X132476190Y-95254819D02*
X132571428Y-95397676D01*
X132571428Y-95397676D02*
X132666666Y-95492914D01*
X132666666Y-95492914D02*
X132761904Y-95540533D01*
X131619047Y-95683390D02*
X131714285Y-95635771D01*
X131714285Y-95635771D02*
X131761904Y-95588152D01*
X131761904Y-95588152D02*
X131809523Y-95492914D01*
X131809523Y-95492914D02*
X131809523Y-95445295D01*
X131809523Y-95445295D02*
X131761904Y-95350057D01*
X131761904Y-95350057D02*
X131714285Y-95302438D01*
X131714285Y-95302438D02*
X131619047Y-95254819D01*
X131619047Y-95254819D02*
X131428571Y-95254819D01*
X131428571Y-95254819D02*
X131333333Y-95302438D01*
X131333333Y-95302438D02*
X131285714Y-95350057D01*
X131285714Y-95350057D02*
X131238095Y-95445295D01*
X131238095Y-95445295D02*
X131238095Y-95492914D01*
X131238095Y-95492914D02*
X131285714Y-95588152D01*
X131285714Y-95588152D02*
X131333333Y-95635771D01*
X131333333Y-95635771D02*
X131428571Y-95683390D01*
X131428571Y-95683390D02*
X131619047Y-95683390D01*
X131619047Y-95683390D02*
X131714285Y-95731009D01*
X131714285Y-95731009D02*
X131761904Y-95778628D01*
X131761904Y-95778628D02*
X131809523Y-95873866D01*
X131809523Y-95873866D02*
X131809523Y-96064342D01*
X131809523Y-96064342D02*
X131761904Y-96159580D01*
X131761904Y-96159580D02*
X131714285Y-96207200D01*
X131714285Y-96207200D02*
X131619047Y-96254819D01*
X131619047Y-96254819D02*
X131428571Y-96254819D01*
X131428571Y-96254819D02*
X131333333Y-96207200D01*
X131333333Y-96207200D02*
X131285714Y-96159580D01*
X131285714Y-96159580D02*
X131238095Y-96064342D01*
X131238095Y-96064342D02*
X131238095Y-95873866D01*
X131238095Y-95873866D02*
X131285714Y-95778628D01*
X131285714Y-95778628D02*
X131333333Y-95731009D01*
X131333333Y-95731009D02*
X131428571Y-95683390D01*
%TO.C,R27*%
D11*
X184077064Y-91690000D02*
X179722936Y-91690000D01*
X184077064Y-95110000D02*
X179722936Y-95110000D01*
%TO.C,R13*%
X130800000Y-85277936D02*
X130800000Y-86732064D01*
X132620000Y-85277936D02*
X132620000Y-86732064D01*
%TO.C,C12*%
X162497500Y-46828748D02*
X162497500Y-48251252D01*
X164317500Y-46828748D02*
X164317500Y-48251252D01*
%TO.C,D6*%
X212902500Y-44310000D02*
X207842500Y-44310000D01*
X212902500Y-44310000D02*
X212902500Y-47030000D01*
X212902500Y-47030000D02*
X207842500Y-47030000D01*
%TO.C,R2*%
X124727064Y-161090000D02*
X123272936Y-161090000D01*
X124727064Y-162910000D02*
X123272936Y-162910000D01*
%TO.C,R25*%
X154322936Y-96690000D02*
X158677064Y-96690000D01*
X154322936Y-100110000D02*
X158677064Y-100110000D01*
%TO.C,D7*%
X130340000Y-89640000D02*
X135400000Y-89640000D01*
X130340000Y-92360000D02*
X130340000Y-89640000D01*
X130340000Y-92360000D02*
X135400000Y-92360000D01*
%TO.C,R14*%
X212232500Y-49242936D02*
X212232500Y-50697064D01*
X214052500Y-49242936D02*
X214052500Y-50697064D01*
%TO.C,R17*%
X127540000Y-91272936D02*
X127540000Y-92727064D01*
X129360000Y-91272936D02*
X129360000Y-92727064D01*
%TO.C,D2*%
X167097500Y-38390000D02*
X174107500Y-38390000D01*
X167097500Y-41690000D02*
X167097500Y-38390000D01*
X167097500Y-41690000D02*
X174107500Y-41690000D01*
%TO.C,C21*%
X172788748Y-152090000D02*
X174211252Y-152090000D01*
X172788748Y-153910000D02*
X174211252Y-153910000D01*
%TO.C,R12*%
X164197500Y-35812936D02*
X164197500Y-37267064D01*
X166017500Y-35812936D02*
X166017500Y-37267064D01*
%TO.C,D3*%
X120990000Y-156850000D02*
X128000000Y-156850000D01*
X120990000Y-160150000D02*
X120990000Y-156850000D01*
X120990000Y-160150000D02*
X128000000Y-160150000D01*
%TO.C,R9*%
X37590000Y-39772936D02*
X37590000Y-41227064D01*
X39410000Y-39772936D02*
X39410000Y-41227064D01*
%TO.C,R29*%
X192577064Y-162090000D02*
X188222936Y-162090000D01*
X192577064Y-165510000D02*
X188222936Y-165510000D01*
%TO.C,R5*%
X151590000Y-80727064D02*
X151590000Y-79272936D01*
X153410000Y-80727064D02*
X153410000Y-79272936D01*
%TO.C,R26*%
X184077064Y-87480000D02*
X179722936Y-87480000D01*
X184077064Y-90900000D02*
X179722936Y-90900000D01*
%TO.C,C9*%
X221531248Y-37760000D02*
X222953752Y-37760000D01*
X221531248Y-39580000D02*
X222953752Y-39580000D01*
%TO.C,C22*%
X133540000Y-86711252D02*
X133540000Y-85288748D01*
X135360000Y-86711252D02*
X135360000Y-85288748D01*
%TO.C,D8*%
X157490000Y-157850000D02*
X164500000Y-157850000D01*
X157490000Y-161150000D02*
X157490000Y-157850000D01*
X157490000Y-161150000D02*
X164500000Y-161150000D01*
%TO.C,C8*%
X227031248Y-37760000D02*
X228453752Y-37760000D01*
X227031248Y-39580000D02*
X228453752Y-39580000D01*
%TO.C,C24*%
X46315000Y-55206252D02*
X46315000Y-53783748D01*
X48135000Y-55206252D02*
X48135000Y-53783748D01*
%TO.C,R20*%
X163727064Y-163590000D02*
X162272936Y-163590000D01*
X163727064Y-165410000D02*
X162272936Y-165410000D01*
%TO.C,R24*%
X154322936Y-93190000D02*
X158677064Y-93190000D01*
X154322936Y-96610000D02*
X158677064Y-96610000D01*
%TO.C,D9*%
X203857500Y-58630000D02*
X208267500Y-58630000D01*
X208267500Y-58630000D02*
X208267500Y-60850000D01*
X208267500Y-60850000D02*
X203857500Y-60850000D01*
%TO.C,R7*%
X212334564Y-58830000D02*
X210880436Y-58830000D01*
X212334564Y-60650000D02*
X210880436Y-60650000D01*
%TO.C,R8*%
X199897500Y-60812936D02*
X199897500Y-62267064D01*
X201717500Y-60812936D02*
X201717500Y-62267064D01*
%TO.C,D19*%
X42350000Y-51340000D02*
X42350000Y-56850000D01*
X42350000Y-51340000D02*
X45650000Y-51340000D01*
X45650000Y-51340000D02*
X45650000Y-56850000D01*
%TO.C,R1*%
X118590000Y-159272936D02*
X118590000Y-160727064D01*
X120410000Y-159272936D02*
X120410000Y-160727064D01*
%TO.C,C20*%
X166684417Y-82420808D02*
X165261913Y-82420808D01*
X166684417Y-84240808D02*
X165261913Y-84240808D01*
%TO.C,R15*%
X212332500Y-40397064D02*
X212332500Y-38942936D01*
X214152500Y-40397064D02*
X214152500Y-38942936D01*
%TO.C,R30*%
X152977064Y-149480000D02*
X148622936Y-149480000D01*
X152977064Y-152900000D02*
X148622936Y-152900000D01*
%TO.C,R16*%
X174227064Y-149090000D02*
X172772936Y-149090000D01*
X174227064Y-150910000D02*
X172772936Y-150910000D01*
%TO.C,D5*%
X153990000Y-80850000D02*
X161000000Y-80850000D01*
X153990000Y-84150000D02*
X153990000Y-80850000D01*
X153990000Y-84150000D02*
X161000000Y-84150000D01*
%TO.C,D4*%
X213902500Y-53520000D02*
X208092500Y-53520000D01*
X213902500Y-53520000D02*
X213902500Y-57820000D01*
X213902500Y-57820000D02*
X208092500Y-57820000D01*
%TO.C,R28*%
X192577064Y-157880000D02*
X188222936Y-157880000D01*
X192577064Y-161300000D02*
X188222936Y-161300000D01*
%TO.C,R6*%
X157227064Y-78590000D02*
X155772936Y-78590000D01*
X157227064Y-80410000D02*
X155772936Y-80410000D01*
%TO.C,U2*%
X189772500Y-59340000D02*
X192007500Y-59340000D01*
X189772500Y-64540000D02*
X189772500Y-59340000D01*
X194007500Y-59340000D02*
X196242500Y-59340000D01*
X196242500Y-59340000D02*
X196242500Y-64540000D01*
X196242500Y-64540000D02*
X189772500Y-64540000D01*
X194007500Y-59340000D02*
G75*
G02*
X192007500Y-59340000I-1000000J0D01*
G01*
%TO.C,D20*%
X46850000Y-46710000D02*
X46850000Y-41200000D01*
X50150000Y-46710000D02*
X46850000Y-46710000D01*
X50150000Y-46710000D02*
X50150000Y-41200000D01*
%TO.C,R3*%
X166727064Y-80090000D02*
X165272936Y-80090000D01*
X166727064Y-81910000D02*
X165272936Y-81910000D01*
%TO.C,R19*%
X158227064Y-161590000D02*
X156772936Y-161590000D01*
X158227064Y-163410000D02*
X156772936Y-163410000D01*
%TO.C,R31*%
X152977064Y-153690000D02*
X148622936Y-153690000D01*
X152977064Y-157110000D02*
X148622936Y-157110000D01*
%TO.C,R18*%
X133227064Y-93090000D02*
X131772936Y-93090000D01*
X133227064Y-94910000D02*
X131772936Y-94910000D01*
%TD*%
M02*
