%TF.GenerationSoftware,KiCad,Pcbnew,10.0.1*%
%TF.CreationDate,2026-09-21T16:13:07-03:00*%
%TF.ProjectId,Inv_Spot_Disp,496e765f-5370-46f7-945f-446973702e6b,rev?*%
%TF.SameCoordinates,Original*%
%TF.FileFunction,Legend,Top*%
%TF.FilePolarity,Positive*%
%FSLAX46Y46*%
G04 Gerber Fmt 4.6, Leading zero omitted, Abs format (unit mm)*
G04 Created by KiCad (PCBNEW 10.0.1) date 2026-09-21 16:13:07*
%MOMM*%
%LPD*%
G01*
G04 APERTURE LIST*
%ADD10C,0.150000*%
%ADD11C,0.120000*%
%ADD12C,0.100000*%
G04 APERTURE END LIST*
D10*
X82526010Y-62259580D02*
X82478391Y-62307200D01*
X82478391Y-62307200D02*
X82335534Y-62354819D01*
X82335534Y-62354819D02*
X82240296Y-62354819D01*
X82240296Y-62354819D02*
X82097439Y-62307200D01*
X82097439Y-62307200D02*
X82002201Y-62211961D01*
X82002201Y-62211961D02*
X81954582Y-62116723D01*
X81954582Y-62116723D02*
X81906963Y-61926247D01*
X81906963Y-61926247D02*
X81906963Y-61783390D01*
X81906963Y-61783390D02*
X81954582Y-61592914D01*
X81954582Y-61592914D02*
X82002201Y-61497676D01*
X82002201Y-61497676D02*
X82097439Y-61402438D01*
X82097439Y-61402438D02*
X82240296Y-61354819D01*
X82240296Y-61354819D02*
X82335534Y-61354819D01*
X82335534Y-61354819D02*
X82478391Y-61402438D01*
X82478391Y-61402438D02*
X82526010Y-61450057D01*
X83478391Y-62354819D02*
X82906963Y-62354819D01*
X83192677Y-62354819D02*
X83192677Y-61354819D01*
X83192677Y-61354819D02*
X83097439Y-61497676D01*
X83097439Y-61497676D02*
X83002201Y-61592914D01*
X83002201Y-61592914D02*
X82906963Y-61640533D01*
X41107200Y-106503332D02*
X41154819Y-106360475D01*
X41154819Y-106360475D02*
X41154819Y-106122380D01*
X41154819Y-106122380D02*
X41107200Y-106027142D01*
X41107200Y-106027142D02*
X41059580Y-105979523D01*
X41059580Y-105979523D02*
X40964342Y-105931904D01*
X40964342Y-105931904D02*
X40869104Y-105931904D01*
X40869104Y-105931904D02*
X40773866Y-105979523D01*
X40773866Y-105979523D02*
X40726247Y-106027142D01*
X40726247Y-106027142D02*
X40678628Y-106122380D01*
X40678628Y-106122380D02*
X40631009Y-106312856D01*
X40631009Y-106312856D02*
X40583390Y-106408094D01*
X40583390Y-106408094D02*
X40535771Y-106455713D01*
X40535771Y-106455713D02*
X40440533Y-106503332D01*
X40440533Y-106503332D02*
X40345295Y-106503332D01*
X40345295Y-106503332D02*
X40250057Y-106455713D01*
X40250057Y-106455713D02*
X40202438Y-106408094D01*
X40202438Y-106408094D02*
X40154819Y-106312856D01*
X40154819Y-106312856D02*
X40154819Y-106074761D01*
X40154819Y-106074761D02*
X40202438Y-105931904D01*
X40154819Y-105598570D02*
X41154819Y-105360475D01*
X41154819Y-105360475D02*
X40440533Y-105169999D01*
X40440533Y-105169999D02*
X41154819Y-104979523D01*
X41154819Y-104979523D02*
X40154819Y-104741428D01*
X40154819Y-103884285D02*
X40154819Y-104360475D01*
X40154819Y-104360475D02*
X40631009Y-104408094D01*
X40631009Y-104408094D02*
X40583390Y-104360475D01*
X40583390Y-104360475D02*
X40535771Y-104265237D01*
X40535771Y-104265237D02*
X40535771Y-104027142D01*
X40535771Y-104027142D02*
X40583390Y-103931904D01*
X40583390Y-103931904D02*
X40631009Y-103884285D01*
X40631009Y-103884285D02*
X40726247Y-103836666D01*
X40726247Y-103836666D02*
X40964342Y-103836666D01*
X40964342Y-103836666D02*
X41059580Y-103884285D01*
X41059580Y-103884285D02*
X41107200Y-103931904D01*
X41107200Y-103931904D02*
X41154819Y-104027142D01*
X41154819Y-104027142D02*
X41154819Y-104265237D01*
X41154819Y-104265237D02*
X41107200Y-104360475D01*
X41107200Y-104360475D02*
X41059580Y-104408094D01*
X60404761Y-56754819D02*
X60071428Y-56278628D01*
X59833333Y-56754819D02*
X59833333Y-55754819D01*
X59833333Y-55754819D02*
X60214285Y-55754819D01*
X60214285Y-55754819D02*
X60309523Y-55802438D01*
X60309523Y-55802438D02*
X60357142Y-55850057D01*
X60357142Y-55850057D02*
X60404761Y-55945295D01*
X60404761Y-55945295D02*
X60404761Y-56088152D01*
X60404761Y-56088152D02*
X60357142Y-56183390D01*
X60357142Y-56183390D02*
X60309523Y-56231009D01*
X60309523Y-56231009D02*
X60214285Y-56278628D01*
X60214285Y-56278628D02*
X59833333Y-56278628D01*
X60690476Y-55754819D02*
X61023809Y-56754819D01*
X61023809Y-56754819D02*
X61357142Y-55754819D01*
X62214285Y-56754819D02*
X61642857Y-56754819D01*
X61928571Y-56754819D02*
X61928571Y-55754819D01*
X61928571Y-55754819D02*
X61833333Y-55897676D01*
X61833333Y-55897676D02*
X61738095Y-55992914D01*
X61738095Y-55992914D02*
X61642857Y-56040533D01*
X99908333Y-61809580D02*
X99860714Y-61857200D01*
X99860714Y-61857200D02*
X99717857Y-61904819D01*
X99717857Y-61904819D02*
X99622619Y-61904819D01*
X99622619Y-61904819D02*
X99479762Y-61857200D01*
X99479762Y-61857200D02*
X99384524Y-61761961D01*
X99384524Y-61761961D02*
X99336905Y-61666723D01*
X99336905Y-61666723D02*
X99289286Y-61476247D01*
X99289286Y-61476247D02*
X99289286Y-61333390D01*
X99289286Y-61333390D02*
X99336905Y-61142914D01*
X99336905Y-61142914D02*
X99384524Y-61047676D01*
X99384524Y-61047676D02*
X99479762Y-60952438D01*
X99479762Y-60952438D02*
X99622619Y-60904819D01*
X99622619Y-60904819D02*
X99717857Y-60904819D01*
X99717857Y-60904819D02*
X99860714Y-60952438D01*
X99860714Y-60952438D02*
X99908333Y-61000057D01*
X100289286Y-61000057D02*
X100336905Y-60952438D01*
X100336905Y-60952438D02*
X100432143Y-60904819D01*
X100432143Y-60904819D02*
X100670238Y-60904819D01*
X100670238Y-60904819D02*
X100765476Y-60952438D01*
X100765476Y-60952438D02*
X100813095Y-61000057D01*
X100813095Y-61000057D02*
X100860714Y-61095295D01*
X100860714Y-61095295D02*
X100860714Y-61190533D01*
X100860714Y-61190533D02*
X100813095Y-61333390D01*
X100813095Y-61333390D02*
X100241667Y-61904819D01*
X100241667Y-61904819D02*
X100860714Y-61904819D01*
X95184819Y-59208333D02*
X95899104Y-59208333D01*
X95899104Y-59208333D02*
X96041961Y-59255952D01*
X96041961Y-59255952D02*
X96137200Y-59351190D01*
X96137200Y-59351190D02*
X96184819Y-59494047D01*
X96184819Y-59494047D02*
X96184819Y-59589285D01*
X96184819Y-58208333D02*
X96184819Y-58779761D01*
X96184819Y-58494047D02*
X95184819Y-58494047D01*
X95184819Y-58494047D02*
X95327676Y-58589285D01*
X95327676Y-58589285D02*
X95422914Y-58684523D01*
X95422914Y-58684523D02*
X95470533Y-58779761D01*
X34666666Y-94609819D02*
X34666666Y-95324104D01*
X34666666Y-95324104D02*
X34619047Y-95466961D01*
X34619047Y-95466961D02*
X34523809Y-95562200D01*
X34523809Y-95562200D02*
X34380952Y-95609819D01*
X34380952Y-95609819D02*
X34285714Y-95609819D01*
X35047619Y-94609819D02*
X35666666Y-94609819D01*
X35666666Y-94609819D02*
X35333333Y-94990771D01*
X35333333Y-94990771D02*
X35476190Y-94990771D01*
X35476190Y-94990771D02*
X35571428Y-95038390D01*
X35571428Y-95038390D02*
X35619047Y-95086009D01*
X35619047Y-95086009D02*
X35666666Y-95181247D01*
X35666666Y-95181247D02*
X35666666Y-95419342D01*
X35666666Y-95419342D02*
X35619047Y-95514580D01*
X35619047Y-95514580D02*
X35571428Y-95562200D01*
X35571428Y-95562200D02*
X35476190Y-95609819D01*
X35476190Y-95609819D02*
X35190476Y-95609819D01*
X35190476Y-95609819D02*
X35095238Y-95562200D01*
X35095238Y-95562200D02*
X35047619Y-95514580D01*
X155782200Y-85633332D02*
X155829819Y-85490475D01*
X155829819Y-85490475D02*
X155829819Y-85252380D01*
X155829819Y-85252380D02*
X155782200Y-85157142D01*
X155782200Y-85157142D02*
X155734580Y-85109523D01*
X155734580Y-85109523D02*
X155639342Y-85061904D01*
X155639342Y-85061904D02*
X155544104Y-85061904D01*
X155544104Y-85061904D02*
X155448866Y-85109523D01*
X155448866Y-85109523D02*
X155401247Y-85157142D01*
X155401247Y-85157142D02*
X155353628Y-85252380D01*
X155353628Y-85252380D02*
X155306009Y-85442856D01*
X155306009Y-85442856D02*
X155258390Y-85538094D01*
X155258390Y-85538094D02*
X155210771Y-85585713D01*
X155210771Y-85585713D02*
X155115533Y-85633332D01*
X155115533Y-85633332D02*
X155020295Y-85633332D01*
X155020295Y-85633332D02*
X154925057Y-85585713D01*
X154925057Y-85585713D02*
X154877438Y-85538094D01*
X154877438Y-85538094D02*
X154829819Y-85442856D01*
X154829819Y-85442856D02*
X154829819Y-85204761D01*
X154829819Y-85204761D02*
X154877438Y-85061904D01*
X154829819Y-84728570D02*
X155829819Y-84490475D01*
X155829819Y-84490475D02*
X155115533Y-84299999D01*
X155115533Y-84299999D02*
X155829819Y-84109523D01*
X155829819Y-84109523D02*
X154829819Y-83871428D01*
X154925057Y-83538094D02*
X154877438Y-83490475D01*
X154877438Y-83490475D02*
X154829819Y-83395237D01*
X154829819Y-83395237D02*
X154829819Y-83157142D01*
X154829819Y-83157142D02*
X154877438Y-83061904D01*
X154877438Y-83061904D02*
X154925057Y-83014285D01*
X154925057Y-83014285D02*
X155020295Y-82966666D01*
X155020295Y-82966666D02*
X155115533Y-82966666D01*
X155115533Y-82966666D02*
X155258390Y-83014285D01*
X155258390Y-83014285D02*
X155829819Y-83585713D01*
X155829819Y-83585713D02*
X155829819Y-82966666D01*
X45734580Y-57641666D02*
X45782200Y-57689285D01*
X45782200Y-57689285D02*
X45829819Y-57832142D01*
X45829819Y-57832142D02*
X45829819Y-57927380D01*
X45829819Y-57927380D02*
X45782200Y-58070237D01*
X45782200Y-58070237D02*
X45686961Y-58165475D01*
X45686961Y-58165475D02*
X45591723Y-58213094D01*
X45591723Y-58213094D02*
X45401247Y-58260713D01*
X45401247Y-58260713D02*
X45258390Y-58260713D01*
X45258390Y-58260713D02*
X45067914Y-58213094D01*
X45067914Y-58213094D02*
X44972676Y-58165475D01*
X44972676Y-58165475D02*
X44877438Y-58070237D01*
X44877438Y-58070237D02*
X44829819Y-57927380D01*
X44829819Y-57927380D02*
X44829819Y-57832142D01*
X44829819Y-57832142D02*
X44877438Y-57689285D01*
X44877438Y-57689285D02*
X44925057Y-57641666D01*
X44829819Y-57308332D02*
X44829819Y-56689285D01*
X44829819Y-56689285D02*
X45210771Y-57022618D01*
X45210771Y-57022618D02*
X45210771Y-56879761D01*
X45210771Y-56879761D02*
X45258390Y-56784523D01*
X45258390Y-56784523D02*
X45306009Y-56736904D01*
X45306009Y-56736904D02*
X45401247Y-56689285D01*
X45401247Y-56689285D02*
X45639342Y-56689285D01*
X45639342Y-56689285D02*
X45734580Y-56736904D01*
X45734580Y-56736904D02*
X45782200Y-56784523D01*
X45782200Y-56784523D02*
X45829819Y-56879761D01*
X45829819Y-56879761D02*
X45829819Y-57165475D01*
X45829819Y-57165475D02*
X45782200Y-57260713D01*
X45782200Y-57260713D02*
X45734580Y-57308332D01*
X155782200Y-112808332D02*
X155829819Y-112665475D01*
X155829819Y-112665475D02*
X155829819Y-112427380D01*
X155829819Y-112427380D02*
X155782200Y-112332142D01*
X155782200Y-112332142D02*
X155734580Y-112284523D01*
X155734580Y-112284523D02*
X155639342Y-112236904D01*
X155639342Y-112236904D02*
X155544104Y-112236904D01*
X155544104Y-112236904D02*
X155448866Y-112284523D01*
X155448866Y-112284523D02*
X155401247Y-112332142D01*
X155401247Y-112332142D02*
X155353628Y-112427380D01*
X155353628Y-112427380D02*
X155306009Y-112617856D01*
X155306009Y-112617856D02*
X155258390Y-112713094D01*
X155258390Y-112713094D02*
X155210771Y-112760713D01*
X155210771Y-112760713D02*
X155115533Y-112808332D01*
X155115533Y-112808332D02*
X155020295Y-112808332D01*
X155020295Y-112808332D02*
X154925057Y-112760713D01*
X154925057Y-112760713D02*
X154877438Y-112713094D01*
X154877438Y-112713094D02*
X154829819Y-112617856D01*
X154829819Y-112617856D02*
X154829819Y-112379761D01*
X154829819Y-112379761D02*
X154877438Y-112236904D01*
X154829819Y-111903570D02*
X155829819Y-111665475D01*
X155829819Y-111665475D02*
X155115533Y-111474999D01*
X155115533Y-111474999D02*
X155829819Y-111284523D01*
X155829819Y-111284523D02*
X154829819Y-111046428D01*
X155163152Y-110236904D02*
X155829819Y-110236904D01*
X154782200Y-110474999D02*
X155496485Y-110713094D01*
X155496485Y-110713094D02*
X155496485Y-110094047D01*
X34633333Y-72709580D02*
X34585714Y-72757200D01*
X34585714Y-72757200D02*
X34442857Y-72804819D01*
X34442857Y-72804819D02*
X34347619Y-72804819D01*
X34347619Y-72804819D02*
X34204762Y-72757200D01*
X34204762Y-72757200D02*
X34109524Y-72661961D01*
X34109524Y-72661961D02*
X34061905Y-72566723D01*
X34061905Y-72566723D02*
X34014286Y-72376247D01*
X34014286Y-72376247D02*
X34014286Y-72233390D01*
X34014286Y-72233390D02*
X34061905Y-72042914D01*
X34061905Y-72042914D02*
X34109524Y-71947676D01*
X34109524Y-71947676D02*
X34204762Y-71852438D01*
X34204762Y-71852438D02*
X34347619Y-71804819D01*
X34347619Y-71804819D02*
X34442857Y-71804819D01*
X34442857Y-71804819D02*
X34585714Y-71852438D01*
X34585714Y-71852438D02*
X34633333Y-71900057D01*
X34966667Y-71804819D02*
X35633333Y-71804819D01*
X35633333Y-71804819D02*
X35204762Y-72804819D01*
X70646905Y-51329819D02*
X70646905Y-50329819D01*
X70646905Y-50329819D02*
X70885000Y-50329819D01*
X70885000Y-50329819D02*
X71027857Y-50377438D01*
X71027857Y-50377438D02*
X71123095Y-50472676D01*
X71123095Y-50472676D02*
X71170714Y-50567914D01*
X71170714Y-50567914D02*
X71218333Y-50758390D01*
X71218333Y-50758390D02*
X71218333Y-50901247D01*
X71218333Y-50901247D02*
X71170714Y-51091723D01*
X71170714Y-51091723D02*
X71123095Y-51186961D01*
X71123095Y-51186961D02*
X71027857Y-51282200D01*
X71027857Y-51282200D02*
X70885000Y-51329819D01*
X70885000Y-51329819D02*
X70646905Y-51329819D01*
X71599286Y-50425057D02*
X71646905Y-50377438D01*
X71646905Y-50377438D02*
X71742143Y-50329819D01*
X71742143Y-50329819D02*
X71980238Y-50329819D01*
X71980238Y-50329819D02*
X72075476Y-50377438D01*
X72075476Y-50377438D02*
X72123095Y-50425057D01*
X72123095Y-50425057D02*
X72170714Y-50520295D01*
X72170714Y-50520295D02*
X72170714Y-50615533D01*
X72170714Y-50615533D02*
X72123095Y-50758390D01*
X72123095Y-50758390D02*
X71551667Y-51329819D01*
X71551667Y-51329819D02*
X72170714Y-51329819D01*
X103624819Y-59033333D02*
X104339104Y-59033333D01*
X104339104Y-59033333D02*
X104481961Y-59080952D01*
X104481961Y-59080952D02*
X104577200Y-59176190D01*
X104577200Y-59176190D02*
X104624819Y-59319047D01*
X104624819Y-59319047D02*
X104624819Y-59414285D01*
X103958152Y-58128571D02*
X104624819Y-58128571D01*
X103577200Y-58366666D02*
X104291485Y-58604761D01*
X104291485Y-58604761D02*
X104291485Y-57985714D01*
X155782200Y-98208332D02*
X155829819Y-98065475D01*
X155829819Y-98065475D02*
X155829819Y-97827380D01*
X155829819Y-97827380D02*
X155782200Y-97732142D01*
X155782200Y-97732142D02*
X155734580Y-97684523D01*
X155734580Y-97684523D02*
X155639342Y-97636904D01*
X155639342Y-97636904D02*
X155544104Y-97636904D01*
X155544104Y-97636904D02*
X155448866Y-97684523D01*
X155448866Y-97684523D02*
X155401247Y-97732142D01*
X155401247Y-97732142D02*
X155353628Y-97827380D01*
X155353628Y-97827380D02*
X155306009Y-98017856D01*
X155306009Y-98017856D02*
X155258390Y-98113094D01*
X155258390Y-98113094D02*
X155210771Y-98160713D01*
X155210771Y-98160713D02*
X155115533Y-98208332D01*
X155115533Y-98208332D02*
X155020295Y-98208332D01*
X155020295Y-98208332D02*
X154925057Y-98160713D01*
X154925057Y-98160713D02*
X154877438Y-98113094D01*
X154877438Y-98113094D02*
X154829819Y-98017856D01*
X154829819Y-98017856D02*
X154829819Y-97779761D01*
X154829819Y-97779761D02*
X154877438Y-97636904D01*
X154829819Y-97303570D02*
X155829819Y-97065475D01*
X155829819Y-97065475D02*
X155115533Y-96874999D01*
X155115533Y-96874999D02*
X155829819Y-96684523D01*
X155829819Y-96684523D02*
X154829819Y-96446428D01*
X154829819Y-96160713D02*
X154829819Y-95541666D01*
X154829819Y-95541666D02*
X155210771Y-95874999D01*
X155210771Y-95874999D02*
X155210771Y-95732142D01*
X155210771Y-95732142D02*
X155258390Y-95636904D01*
X155258390Y-95636904D02*
X155306009Y-95589285D01*
X155306009Y-95589285D02*
X155401247Y-95541666D01*
X155401247Y-95541666D02*
X155639342Y-95541666D01*
X155639342Y-95541666D02*
X155734580Y-95589285D01*
X155734580Y-95589285D02*
X155782200Y-95636904D01*
X155782200Y-95636904D02*
X155829819Y-95732142D01*
X155829819Y-95732142D02*
X155829819Y-96017856D01*
X155829819Y-96017856D02*
X155782200Y-96113094D01*
X155782200Y-96113094D02*
X155734580Y-96160713D01*
X155857200Y-72383332D02*
X155904819Y-72240475D01*
X155904819Y-72240475D02*
X155904819Y-72002380D01*
X155904819Y-72002380D02*
X155857200Y-71907142D01*
X155857200Y-71907142D02*
X155809580Y-71859523D01*
X155809580Y-71859523D02*
X155714342Y-71811904D01*
X155714342Y-71811904D02*
X155619104Y-71811904D01*
X155619104Y-71811904D02*
X155523866Y-71859523D01*
X155523866Y-71859523D02*
X155476247Y-71907142D01*
X155476247Y-71907142D02*
X155428628Y-72002380D01*
X155428628Y-72002380D02*
X155381009Y-72192856D01*
X155381009Y-72192856D02*
X155333390Y-72288094D01*
X155333390Y-72288094D02*
X155285771Y-72335713D01*
X155285771Y-72335713D02*
X155190533Y-72383332D01*
X155190533Y-72383332D02*
X155095295Y-72383332D01*
X155095295Y-72383332D02*
X155000057Y-72335713D01*
X155000057Y-72335713D02*
X154952438Y-72288094D01*
X154952438Y-72288094D02*
X154904819Y-72192856D01*
X154904819Y-72192856D02*
X154904819Y-71954761D01*
X154904819Y-71954761D02*
X154952438Y-71811904D01*
X154904819Y-71478570D02*
X155904819Y-71240475D01*
X155904819Y-71240475D02*
X155190533Y-71049999D01*
X155190533Y-71049999D02*
X155904819Y-70859523D01*
X155904819Y-70859523D02*
X154904819Y-70621428D01*
X155904819Y-69716666D02*
X155904819Y-70288094D01*
X155904819Y-70002380D02*
X154904819Y-70002380D01*
X154904819Y-70002380D02*
X155047676Y-70097618D01*
X155047676Y-70097618D02*
X155142914Y-70192856D01*
X155142914Y-70192856D02*
X155190533Y-70288094D01*
X36591666Y-49274819D02*
X36591666Y-49989104D01*
X36591666Y-49989104D02*
X36544047Y-50131961D01*
X36544047Y-50131961D02*
X36448809Y-50227200D01*
X36448809Y-50227200D02*
X36305952Y-50274819D01*
X36305952Y-50274819D02*
X36210714Y-50274819D01*
X37020238Y-49370057D02*
X37067857Y-49322438D01*
X37067857Y-49322438D02*
X37163095Y-49274819D01*
X37163095Y-49274819D02*
X37401190Y-49274819D01*
X37401190Y-49274819D02*
X37496428Y-49322438D01*
X37496428Y-49322438D02*
X37544047Y-49370057D01*
X37544047Y-49370057D02*
X37591666Y-49465295D01*
X37591666Y-49465295D02*
X37591666Y-49560533D01*
X37591666Y-49560533D02*
X37544047Y-49703390D01*
X37544047Y-49703390D02*
X36972619Y-50274819D01*
X36972619Y-50274819D02*
X37591666Y-50274819D01*
%TO.C,C1*%
D11*
X77612677Y-56249000D02*
X77612677Y-55051000D01*
X77652677Y-56512000D02*
X77652677Y-54788000D01*
X77692677Y-56712000D02*
X77692677Y-54588000D01*
X77732677Y-56880000D02*
X77732677Y-54420000D01*
X77772677Y-57027000D02*
X77772677Y-54273000D01*
X77812677Y-57159000D02*
X77812677Y-54141000D01*
X77852677Y-57280000D02*
X77852677Y-54020000D01*
X77892677Y-57392000D02*
X77892677Y-53908000D01*
X77932677Y-57496000D02*
X77932677Y-53804000D01*
X77972677Y-57594000D02*
X77972677Y-53706000D01*
X78012677Y-57687000D02*
X78012677Y-53613000D01*
X78052677Y-57774000D02*
X78052677Y-53526000D01*
X78092677Y-57858000D02*
X78092677Y-53442000D01*
X78132677Y-57938000D02*
X78132677Y-53362000D01*
X78172677Y-58015000D02*
X78172677Y-53285000D01*
X78212677Y-58089000D02*
X78212677Y-53211000D01*
X78252677Y-58160000D02*
X78252677Y-53140000D01*
X78292677Y-58228000D02*
X78292677Y-53072000D01*
X78332677Y-58294000D02*
X78332677Y-53006000D01*
X78372677Y-58358000D02*
X78372677Y-52942000D01*
X78412677Y-58420000D02*
X78412677Y-52880000D01*
X78452677Y-58480000D02*
X78452677Y-52820000D01*
X78492677Y-58538000D02*
X78492677Y-52762000D01*
X78532677Y-58595000D02*
X78532677Y-52705000D01*
X78572677Y-58650000D02*
X78572677Y-52650000D01*
X78612677Y-58703000D02*
X78612677Y-52597000D01*
X78652677Y-58755000D02*
X78652677Y-52545000D01*
X78692677Y-58806000D02*
X78692677Y-52494000D01*
X78732677Y-58855000D02*
X78732677Y-52445000D01*
X78772677Y-58904000D02*
X78772677Y-52396000D01*
X78812677Y-58951000D02*
X78812677Y-52349000D01*
X78852677Y-58997000D02*
X78852677Y-52303000D01*
X78892677Y-59041000D02*
X78892677Y-52259000D01*
X78932677Y-59085000D02*
X78932677Y-52215000D01*
X78972677Y-54410000D02*
X78972677Y-52172000D01*
X78972677Y-59128000D02*
X78972677Y-56890000D01*
X79012677Y-54410000D02*
X79012677Y-52130000D01*
X79012677Y-59170000D02*
X79012677Y-56890000D01*
X79052677Y-54410000D02*
X79052677Y-52089000D01*
X79052677Y-59211000D02*
X79052677Y-56890000D01*
X79092677Y-54410000D02*
X79092677Y-52049000D01*
X79092677Y-59251000D02*
X79092677Y-56890000D01*
X79132677Y-54410000D02*
X79132677Y-52010000D01*
X79132677Y-59290000D02*
X79132677Y-56890000D01*
X79172677Y-54410000D02*
X79172677Y-51972000D01*
X79172677Y-59328000D02*
X79172677Y-56890000D01*
X79212677Y-54410000D02*
X79212677Y-51934000D01*
X79212677Y-59366000D02*
X79212677Y-56890000D01*
X79252677Y-54410000D02*
X79252677Y-51898000D01*
X79252677Y-59402000D02*
X79252677Y-56890000D01*
X79292677Y-54410000D02*
X79292677Y-51862000D01*
X79292677Y-59438000D02*
X79292677Y-56890000D01*
X79332677Y-54410000D02*
X79332677Y-51827000D01*
X79332677Y-59473000D02*
X79332677Y-56890000D01*
X79372677Y-54410000D02*
X79372677Y-51792000D01*
X79372677Y-59508000D02*
X79372677Y-56890000D01*
X79412677Y-54410000D02*
X79412677Y-51759000D01*
X79412677Y-59541000D02*
X79412677Y-56890000D01*
X79452677Y-54410000D02*
X79452677Y-51726000D01*
X79452677Y-59574000D02*
X79452677Y-56890000D01*
X79492677Y-54410000D02*
X79492677Y-51693000D01*
X79492677Y-59607000D02*
X79492677Y-56890000D01*
X79532677Y-54410000D02*
X79532677Y-51662000D01*
X79532677Y-59638000D02*
X79532677Y-56890000D01*
X79572677Y-54410000D02*
X79572677Y-51630000D01*
X79572677Y-59670000D02*
X79572677Y-56890000D01*
X79612677Y-54410000D02*
X79612677Y-51600000D01*
X79612677Y-59700000D02*
X79612677Y-56890000D01*
X79652677Y-54410000D02*
X79652677Y-51570000D01*
X79652677Y-59730000D02*
X79652677Y-56890000D01*
X79692677Y-54410000D02*
X79692677Y-51541000D01*
X79692677Y-59759000D02*
X79692677Y-56890000D01*
X79732677Y-54410000D02*
X79732677Y-51512000D01*
X79732677Y-59788000D02*
X79732677Y-56890000D01*
X79772677Y-54410000D02*
X79772677Y-51484000D01*
X79772677Y-59816000D02*
X79772677Y-56890000D01*
X79812677Y-54410000D02*
X79812677Y-51457000D01*
X79812677Y-59843000D02*
X79812677Y-56890000D01*
X79852677Y-54410000D02*
X79852677Y-51430000D01*
X79852677Y-59870000D02*
X79852677Y-56890000D01*
X79892677Y-54410000D02*
X79892677Y-51403000D01*
X79892677Y-59897000D02*
X79892677Y-56890000D01*
X79932677Y-54410000D02*
X79932677Y-51378000D01*
X79932677Y-59922000D02*
X79932677Y-56890000D01*
X79972677Y-54410000D02*
X79972677Y-51352000D01*
X79972677Y-59948000D02*
X79972677Y-56890000D01*
X80012677Y-54410000D02*
X80012677Y-51327000D01*
X80012677Y-59973000D02*
X80012677Y-56890000D01*
X80052677Y-54410000D02*
X80052677Y-51303000D01*
X80052677Y-59997000D02*
X80052677Y-56890000D01*
X80092677Y-54410000D02*
X80092677Y-51279000D01*
X80092677Y-60021000D02*
X80092677Y-56890000D01*
X80132677Y-54410000D02*
X80132677Y-51256000D01*
X80132677Y-60044000D02*
X80132677Y-56890000D01*
X80172677Y-54410000D02*
X80172677Y-51233000D01*
X80172677Y-60067000D02*
X80172677Y-56890000D01*
X80212677Y-54410000D02*
X80212677Y-51211000D01*
X80212677Y-60089000D02*
X80212677Y-56890000D01*
X80252677Y-54410000D02*
X80252677Y-51189000D01*
X80252677Y-60111000D02*
X80252677Y-56890000D01*
X80292677Y-54410000D02*
X80292677Y-51167000D01*
X80292677Y-60133000D02*
X80292677Y-56890000D01*
X80332677Y-54410000D02*
X80332677Y-51146000D01*
X80332677Y-60154000D02*
X80332677Y-56890000D01*
X80372677Y-54410000D02*
X80372677Y-51126000D01*
X80372677Y-60174000D02*
X80372677Y-56890000D01*
X80412677Y-54410000D02*
X80412677Y-51106000D01*
X80412677Y-60194000D02*
X80412677Y-56890000D01*
X80452677Y-54410000D02*
X80452677Y-51086000D01*
X80452677Y-60214000D02*
X80452677Y-56890000D01*
X80492677Y-54410000D02*
X80492677Y-51067000D01*
X80492677Y-60233000D02*
X80492677Y-56890000D01*
X80532677Y-54410000D02*
X80532677Y-51048000D01*
X80532677Y-60252000D02*
X80532677Y-56890000D01*
X80572677Y-54410000D02*
X80572677Y-51030000D01*
X80572677Y-60270000D02*
X80572677Y-56890000D01*
X80612677Y-54410000D02*
X80612677Y-51012000D01*
X80612677Y-60288000D02*
X80612677Y-56890000D01*
X80652677Y-54410000D02*
X80652677Y-50994000D01*
X80652677Y-60306000D02*
X80652677Y-56890000D01*
X80692677Y-54410000D02*
X80692677Y-50977000D01*
X80692677Y-60323000D02*
X80692677Y-56890000D01*
X80732677Y-54410000D02*
X80732677Y-50960000D01*
X80732677Y-60340000D02*
X80732677Y-56890000D01*
X80772677Y-54410000D02*
X80772677Y-50944000D01*
X80772677Y-60356000D02*
X80772677Y-56890000D01*
X80812677Y-54410000D02*
X80812677Y-50928000D01*
X80812677Y-60372000D02*
X80812677Y-56890000D01*
X80852677Y-54410000D02*
X80852677Y-50912000D01*
X80852677Y-60388000D02*
X80852677Y-56890000D01*
X80892677Y-54410000D02*
X80892677Y-50897000D01*
X80892677Y-60403000D02*
X80892677Y-56890000D01*
X80932677Y-54410000D02*
X80932677Y-50882000D01*
X80932677Y-60418000D02*
X80932677Y-56890000D01*
X80972677Y-54410000D02*
X80972677Y-50868000D01*
X80972677Y-60432000D02*
X80972677Y-56890000D01*
X81012677Y-54410000D02*
X81012677Y-50853000D01*
X81012677Y-60447000D02*
X81012677Y-56890000D01*
X81052677Y-54410000D02*
X81052677Y-50840000D01*
X81052677Y-60460000D02*
X81052677Y-56890000D01*
X81092677Y-54410000D02*
X81092677Y-50826000D01*
X81092677Y-60474000D02*
X81092677Y-56890000D01*
X81132677Y-54410000D02*
X81132677Y-50813000D01*
X81132677Y-60487000D02*
X81132677Y-56890000D01*
X81172677Y-54410000D02*
X81172677Y-50801000D01*
X81172677Y-60499000D02*
X81172677Y-56890000D01*
X81212677Y-54410000D02*
X81212677Y-50789000D01*
X81212677Y-60511000D02*
X81212677Y-56890000D01*
X81252677Y-54410000D02*
X81252677Y-50777000D01*
X81252677Y-60523000D02*
X81252677Y-56890000D01*
X81292677Y-54410000D02*
X81292677Y-50765000D01*
X81292677Y-60535000D02*
X81292677Y-56890000D01*
X81332677Y-54410000D02*
X81332677Y-50754000D01*
X81332677Y-60546000D02*
X81332677Y-56890000D01*
X81372677Y-54410000D02*
X81372677Y-50743000D01*
X81372677Y-60557000D02*
X81372677Y-56890000D01*
X81412677Y-54410000D02*
X81412677Y-50733000D01*
X81412677Y-60567000D02*
X81412677Y-56890000D01*
X81452677Y-60578000D02*
X81452677Y-50722000D01*
X81492677Y-60587000D02*
X81492677Y-50713000D01*
X81532677Y-60597000D02*
X81532677Y-50703000D01*
X81572677Y-60606000D02*
X81572677Y-50694000D01*
X81612677Y-60615000D02*
X81612677Y-50685000D01*
X81652677Y-60623000D02*
X81652677Y-50677000D01*
X81692677Y-60631000D02*
X81692677Y-50669000D01*
X81732677Y-60639000D02*
X81732677Y-50661000D01*
X81772677Y-60647000D02*
X81772677Y-50653000D01*
X81812677Y-60654000D02*
X81812677Y-50646000D01*
X81852677Y-60661000D02*
X81852677Y-50639000D01*
X81892677Y-60667000D02*
X81892677Y-50633000D01*
X81932677Y-60673000D02*
X81932677Y-50627000D01*
X81972677Y-60679000D02*
X81972677Y-50621000D01*
X82012677Y-60685000D02*
X82012677Y-50615000D01*
X82052677Y-60690000D02*
X82052677Y-50610000D01*
X82092677Y-60695000D02*
X82092677Y-50605000D01*
X82132677Y-60699000D02*
X82132677Y-50601000D01*
X82172677Y-60704000D02*
X82172677Y-50596000D01*
X82212677Y-60707000D02*
X82212677Y-50593000D01*
X82252677Y-60711000D02*
X82252677Y-50589000D01*
X82292677Y-60714000D02*
X82292677Y-50586000D01*
X82332677Y-60717000D02*
X82332677Y-50583000D01*
X82372677Y-60720000D02*
X82372677Y-50580000D01*
X82412677Y-60722000D02*
X82412677Y-50578000D01*
X82452677Y-60724000D02*
X82452677Y-50576000D01*
X82492677Y-60726000D02*
X82492677Y-50574000D01*
X82532677Y-60727000D02*
X82532677Y-50573000D01*
X82572677Y-60729000D02*
X82572677Y-50571000D01*
X82612677Y-60729000D02*
X82612677Y-50571000D01*
X82652677Y-60730000D02*
X82652677Y-50570000D01*
X82692677Y-60730000D02*
X82692677Y-50570000D01*
X87672323Y-59025000D02*
X87672323Y-58025000D01*
X88172323Y-58525000D02*
X87172323Y-58525000D01*
X87812677Y-55650000D02*
G75*
G02*
X77572677Y-55650000I-5120000J0D01*
G01*
X77572677Y-55650000D02*
G75*
G02*
X87812677Y-55650000I5120000J0D01*
G01*
%TO.C,SW5*%
X36150000Y-101900000D02*
X36150000Y-108100000D01*
X36610000Y-101900000D02*
X36150000Y-101900000D01*
X36610000Y-108100000D02*
X36150000Y-108100000D01*
X39390000Y-101900000D02*
X39390000Y-100900000D01*
X39850000Y-101900000D02*
X39390000Y-101900000D01*
X39850000Y-108100000D02*
X39390000Y-108100000D01*
X39850000Y-108100000D02*
X39850000Y-101900000D01*
X37500000Y-103500000D02*
X38550000Y-103500000D01*
X38550000Y-106350000D01*
X37500000Y-106350000D01*
X37500000Y-103500000D01*
%TO.C,RV1*%
X57660000Y-57190000D02*
X64590000Y-57190000D01*
X57660000Y-59423000D02*
X57660000Y-57190000D01*
X57660000Y-61910000D02*
X57660000Y-59857000D01*
X64590000Y-57190000D02*
X64590000Y-59423000D01*
X64590000Y-59857000D02*
X64590000Y-61910000D01*
X64590000Y-61910000D02*
X57660000Y-61910000D01*
%TO.C,C2*%
X105195000Y-55200000D02*
G75*
G02*
X94955000Y-55200000I-5120000J0D01*
G01*
X94955000Y-55200000D02*
G75*
G02*
X105195000Y-55200000I5120000J0D01*
G01*
%TO.C,J1*%
X89430000Y-57495000D02*
X89430000Y-60255000D01*
X92080000Y-57495000D02*
X89430000Y-57495000D01*
X92080000Y-57495000D02*
X92080000Y-60255000D01*
X92080000Y-60255000D02*
X89430000Y-60255000D01*
X93350000Y-57495000D02*
X94730000Y-57495000D01*
X94730000Y-57495000D02*
X94730000Y-58875000D01*
%TO.C,J3*%
X33620000Y-91505000D02*
X33620000Y-88855000D01*
X36380000Y-88855000D02*
X33620000Y-88855000D01*
X36380000Y-91505000D02*
X33620000Y-91505000D01*
X36380000Y-91505000D02*
X36380000Y-88855000D01*
X36380000Y-92775000D02*
X36380000Y-94155000D01*
X36380000Y-94155000D02*
X35000000Y-94155000D01*
%TO.C,SW2*%
X147875000Y-82050000D02*
X147875000Y-86550000D01*
X150375000Y-87800000D02*
X151875000Y-87800000D01*
X151875000Y-80800000D02*
X150375000Y-80800000D01*
X154375000Y-86550000D02*
X154375000Y-82050000D01*
%TO.C,C3*%
X56745000Y-57475000D02*
G75*
G02*
X46505000Y-57475000I-5120000J0D01*
G01*
X46505000Y-57475000D02*
G75*
G02*
X56745000Y-57475000I5120000J0D01*
G01*
%TO.C,SW4*%
X147875000Y-109225000D02*
X147875000Y-113725000D01*
X150375000Y-114975000D02*
X151875000Y-114975000D01*
X151875000Y-107975000D02*
X150375000Y-107975000D01*
X154375000Y-113725000D02*
X154375000Y-109225000D01*
%TO.C,C7*%
X39920000Y-66100000D02*
G75*
G02*
X29680000Y-66100000I-5120000J0D01*
G01*
X29680000Y-66100000D02*
G75*
G02*
X39920000Y-66100000I5120000J0D01*
G01*
%TO.C,D2*%
X68825000Y-53290000D02*
X68825000Y-56380000D01*
X68825000Y-53290170D02*
G75*
G02*
X74375000Y-54835000I2560000J-1544830D01*
G01*
X74375000Y-54835000D02*
G75*
G02*
X68825000Y-56379830I-2990000J0D01*
G01*
X73885000Y-54835000D02*
G75*
G02*
X68885000Y-54835000I-2500000J0D01*
G01*
X68885000Y-54835000D02*
G75*
G02*
X73885000Y-54835000I2500000J0D01*
G01*
%TO.C,J4*%
X105170000Y-60080000D02*
X105170000Y-58700000D01*
X106550000Y-60080000D02*
X105170000Y-60080000D01*
X107820000Y-57320000D02*
X115550000Y-57320000D01*
X107820000Y-60080000D02*
X107820000Y-57320000D01*
X107820000Y-60080000D02*
X115550000Y-60080000D01*
X115550000Y-60080000D02*
X115550000Y-57320000D01*
%TO.C,U2*%
D12*
X41274100Y-63325000D02*
X139274100Y-63325000D01*
X139274100Y-123825000D01*
X41274100Y-123825000D01*
X41274100Y-63325000D01*
X41824100Y-74575000D02*
X138575000Y-74575000D01*
X138575000Y-114575000D01*
X41824100Y-114575000D01*
X41824100Y-74575000D01*
X51924100Y-83525000D02*
X127924100Y-83525000D01*
X127924100Y-108525000D01*
X51924100Y-108525000D01*
X51924100Y-83525000D01*
%TO.C,SW3*%
D11*
X147875000Y-94625000D02*
X147875000Y-99125000D01*
X150375000Y-100375000D02*
X151875000Y-100375000D01*
X151875000Y-93375000D02*
X150375000Y-93375000D01*
X154375000Y-99125000D02*
X154375000Y-94625000D01*
%TO.C,SW1*%
X147950000Y-68800000D02*
X147950000Y-73300000D01*
X150450000Y-74550000D02*
X151950000Y-74550000D01*
X151950000Y-67550000D02*
X150450000Y-67550000D01*
X154450000Y-73300000D02*
X154450000Y-68800000D01*
%TO.C,J2*%
X35545000Y-50820000D02*
X36925000Y-50820000D01*
X35545000Y-52200000D02*
X35545000Y-50820000D01*
X35545000Y-53470000D02*
X35545000Y-58660000D01*
X35545000Y-53470000D02*
X38305000Y-53470000D01*
X35545000Y-58660000D02*
X38305000Y-58660000D01*
X38305000Y-53470000D02*
X38305000Y-58660000D01*
%TD*%
M02*
