%TF.GenerationSoftware,KiCad,Pcbnew,10.0.1*%
%TF.CreationDate,2026-09-21T16:13:07-03:00*%
%TF.ProjectId,Inv_Spot_Disp,496e765f-5370-46f7-945f-446973702e6b,rev?*%
%TF.SameCoordinates,Original*%
%TF.FileFunction,Copper,L2,Bot*%
%TF.FilePolarity,Positive*%
%FSLAX46Y46*%
G04 Gerber Fmt 4.6, Leading zero omitted, Abs format (unit mm)*
G04 Created by KiCad (PCBNEW 10.0.1) date 2026-09-21 16:13:07*
%MOMM*%
%LPD*%
G01*
G04 APERTURE LIST*
G04 Aperture macros list*
%AMRoundRect*
0 Rectangle with rounded corners*
0 $1 Rounding radius*
0 $2 $3 $4 $5 $6 $7 $8 $9 X,Y pos of 4 corners*
0 Add a 4 corners polygon primitive as box body*
4,1,4,$2,$3,$4,$5,$6,$7,$8,$9,$2,$3,0*
0 Add four circle primitives for the rounded corners*
1,1,$1+$1,$2,$3*
1,1,$1+$1,$4,$5*
1,1,$1+$1,$6,$7*
1,1,$1+$1,$8,$9*
0 Add four rect primitives between the rounded corners*
20,1,$1+$1,$2,$3,$4,$5,0*
20,1,$1+$1,$4,$5,$6,$7,0*
20,1,$1+$1,$6,$7,$8,$9,0*
20,1,$1+$1,$8,$9,$2,$3,0*%
G04 Aperture macros list end*
%TA.AperFunction,ComponentPad*%
%ADD10RoundRect,0.250000X0.750000X0.750000X-0.750000X0.750000X-0.750000X-0.750000X0.750000X-0.750000X0*%
%TD*%
%TA.AperFunction,ComponentPad*%
%ADD11C,2.000000*%
%TD*%
%TA.AperFunction,ComponentPad*%
%ADD12R,2.250000X2.250000*%
%TD*%
%TA.AperFunction,ComponentPad*%
%ADD13C,2.250000*%
%TD*%
%TA.AperFunction,ComponentPad*%
%ADD14C,1.440000*%
%TD*%
%TA.AperFunction,ComponentPad*%
%ADD15C,1.600000*%
%TD*%
%TA.AperFunction,ComponentPad*%
%ADD16R,1.700000X1.700000*%
%TD*%
%TA.AperFunction,ComponentPad*%
%ADD17C,1.700000*%
%TD*%
%TA.AperFunction,ComponentPad*%
%ADD18R,1.800000X1.800000*%
%TD*%
%TA.AperFunction,ComponentPad*%
%ADD19C,1.800000*%
%TD*%
%TA.AperFunction,ComponentPad*%
%ADD20R,1.800000X2.600000*%
%TD*%
%TA.AperFunction,ComponentPad*%
%ADD21O,1.800000X2.600000*%
%TD*%
%TA.AperFunction,SMDPad,CuDef*%
%ADD22RoundRect,0.250000X-0.400000X-0.625000X0.400000X-0.625000X0.400000X0.625000X-0.400000X0.625000X0*%
%TD*%
%TA.AperFunction,SMDPad,CuDef*%
%ADD23RoundRect,0.250000X0.650000X-0.412500X0.650000X0.412500X-0.650000X0.412500X-0.650000X-0.412500X0*%
%TD*%
%TA.AperFunction,SMDPad,CuDef*%
%ADD24RoundRect,0.250000X0.400000X0.625000X-0.400000X0.625000X-0.400000X-0.625000X0.400000X-0.625000X0*%
%TD*%
%TA.AperFunction,SMDPad,CuDef*%
%ADD25RoundRect,0.250000X-0.625000X0.400000X-0.625000X-0.400000X0.625000X-0.400000X0.625000X0.400000X0*%
%TD*%
%TA.AperFunction,SMDPad,CuDef*%
%ADD26RoundRect,0.150000X0.150000X-0.625000X0.150000X0.625000X-0.150000X0.625000X-0.150000X-0.625000X0*%
%TD*%
%TA.AperFunction,SMDPad,CuDef*%
%ADD27RoundRect,0.250000X-0.350000X0.850000X-0.350000X-0.850000X0.350000X-0.850000X0.350000X0.850000X0*%
%TD*%
%TA.AperFunction,SMDPad,CuDef*%
%ADD28RoundRect,0.249997X-2.650003X2.950003X-2.650003X-2.950003X2.650003X-2.950003X2.650003X2.950003X0*%
%TD*%
%TA.AperFunction,SMDPad,CuDef*%
%ADD29RoundRect,0.250000X0.412500X0.650000X-0.412500X0.650000X-0.412500X-0.650000X0.412500X-0.650000X0*%
%TD*%
%TA.AperFunction,SMDPad,CuDef*%
%ADD30RoundRect,0.100000X0.100000X-0.637500X0.100000X0.637500X-0.100000X0.637500X-0.100000X-0.637500X0*%
%TD*%
%TA.AperFunction,SMDPad,CuDef*%
%ADD31RoundRect,0.250000X0.625000X-0.400000X0.625000X0.400000X-0.625000X0.400000X-0.625000X-0.400000X0*%
%TD*%
%TA.AperFunction,SMDPad,CuDef*%
%ADD32RoundRect,0.375000X-0.375000X0.625000X-0.375000X-0.625000X0.375000X-0.625000X0.375000X0.625000X0*%
%TD*%
%TA.AperFunction,SMDPad,CuDef*%
%ADD33RoundRect,0.500000X-1.400000X0.500000X-1.400000X-0.500000X1.400000X-0.500000X1.400000X0.500000X0*%
%TD*%
%TA.AperFunction,SMDPad,CuDef*%
%ADD34RoundRect,0.249999X-0.750001X-0.640001X0.750001X-0.640001X0.750001X0.640001X-0.750001X0.640001X0*%
%TD*%
%TA.AperFunction,SMDPad,CuDef*%
%ADD35RoundRect,0.250000X-0.412500X-0.650000X0.412500X-0.650000X0.412500X0.650000X-0.412500X0.650000X0*%
%TD*%
%TA.AperFunction,ViaPad*%
%ADD36C,2.000000*%
%TD*%
%TA.AperFunction,Conductor*%
%ADD37C,0.600000*%
%TD*%
%TA.AperFunction,Conductor*%
%ADD38C,1.500000*%
%TD*%
%TA.AperFunction,Conductor*%
%ADD39C,0.400000*%
%TD*%
%TA.AperFunction,Conductor*%
%ADD40C,2.000000*%
%TD*%
G04 APERTURE END LIST*
D10*
%TO.P,C1,1*%
%TO.N,15V*%
X85192677Y-55650000D03*
D11*
%TO.P,C1,2*%
%TO.N,GND*%
X80192677Y-55650000D03*
%TD*%
D12*
%TO.P,SW5,1,1_1*%
%TO.N,Net-(C9-Pad1)*%
X38000000Y-101750000D03*
D13*
%TO.P,SW5,2,2_2*%
%TO.N,Net-(R8-Pad1)*%
X38000000Y-108250000D03*
%TD*%
D14*
%TO.P,RV1,1,1_1*%
%TO.N,5V*%
X58585000Y-59640000D03*
%TO.P,RV1,2,2_2*%
%TO.N,Net-(U2-VO)*%
X61125000Y-59640000D03*
%TO.P,RV1,3,3_3*%
%TO.N,GND*%
X63665000Y-59640000D03*
%TD*%
D15*
%TO.P,C2,1*%
%TO.N,3V3*%
X102575000Y-55200000D03*
%TO.P,C2,2*%
%TO.N,GND*%
X97575000Y-55200000D03*
%TD*%
D16*
%TO.P,J1,1,Pin_1_1*%
%TO.N,Net-(J1-Pin_1)*%
X93350000Y-58875000D03*
D17*
%TO.P,J1,2,Pin_2_2*%
%TO.N,Net-(J1-Pin_2)*%
X90810000Y-58875000D03*
%TD*%
D16*
%TO.P,J3,1,Pin_1_1*%
%TO.N,24V*%
X35000000Y-92775000D03*
D17*
%TO.P,J3,2,Pin_2_2*%
%TO.N,TGND*%
X35000000Y-90235000D03*
%TD*%
D11*
%TO.P,SW2,1,1_1*%
%TO.N,GND*%
X153375000Y-81050000D03*
X153375000Y-87550000D03*
%TO.P,SW2,2,2_2*%
%TO.N,Net-(R3-Pad2)*%
X148875000Y-81050000D03*
X148875000Y-87550000D03*
%TD*%
D15*
%TO.P,C3,1*%
%TO.N,5V*%
X51625000Y-59975000D03*
%TO.P,C3,2*%
%TO.N,GND*%
X51625000Y-54975000D03*
%TD*%
D11*
%TO.P,SW4,1,1_1*%
%TO.N,GND*%
X153375000Y-108225000D03*
X153375000Y-114725000D03*
%TO.P,SW4,2,2_2*%
%TO.N,Net-(R5-Pad2)*%
X148875000Y-108225000D03*
X148875000Y-114725000D03*
%TD*%
D15*
%TO.P,C7,1*%
%TO.N,7V*%
X37300000Y-66100000D03*
%TO.P,C7,2*%
%TO.N,GND*%
X32300000Y-66100000D03*
%TD*%
D18*
%TO.P,D2,1,K_1*%
%TO.N,Net-(D2-K)*%
X70115000Y-54835000D03*
D19*
%TO.P,D2,2,A_2*%
%TO.N,GND*%
X72655000Y-54835000D03*
%TD*%
D16*
%TO.P,J4,1,Pin_1_1*%
%TO.N,3V3*%
X106550000Y-58700000D03*
D17*
%TO.P,J4,2,Pin_2_2*%
%TO.N,Net-(J4-Pin_2)*%
X109090000Y-58700000D03*
%TO.P,J4,3,Pin_3_3*%
%TO.N,Net-(J4-Pin_3)*%
X111630000Y-58700000D03*
%TO.P,J4,4,Pin_4_4*%
%TO.N,GND*%
X114170000Y-58700000D03*
%TD*%
D20*
%TO.P,U2,1,VSS_1*%
%TO.N,GND*%
X51275000Y-64675000D03*
D21*
%TO.P,U2,2,VDD_2*%
%TO.N,5V*%
X53815000Y-64675000D03*
%TO.P,U2,3,VO_3*%
%TO.N,Net-(U2-VO)*%
X56355000Y-64675000D03*
%TO.P,U2,4,RS_4*%
%TO.N,RS*%
X58895000Y-64675000D03*
%TO.P,U2,5,R/W_5*%
%TO.N,GND*%
X61435000Y-64675000D03*
%TO.P,U2,6,E_6*%
%TO.N,Enable*%
X63975000Y-64675000D03*
%TO.P,U2,11,DB4_11*%
%TO.N,D4*%
X76675000Y-64675000D03*
%TO.P,U2,12,DB5_12*%
%TO.N,D5*%
X79215000Y-64675000D03*
%TO.P,U2,13,DB6_13*%
%TO.N,D6*%
X81755000Y-64675000D03*
%TO.P,U2,14,DB7_14*%
%TO.N,D7*%
X84295000Y-64675000D03*
%TO.P,U2,15,A_15*%
%TO.N,5V*%
X86835000Y-64675000D03*
%TO.P,U2,16,K_16*%
%TO.N,GND*%
X89375000Y-64675000D03*
%TD*%
D11*
%TO.P,SW3,1,1_1*%
%TO.N,GND*%
X153375000Y-93625000D03*
X153375000Y-100125000D03*
%TO.P,SW3,2,2_2*%
%TO.N,Net-(R4-Pad2)*%
X148875000Y-93625000D03*
X148875000Y-100125000D03*
%TD*%
%TO.P,SW1,1,1_1*%
%TO.N,GND*%
X153450000Y-67800000D03*
X153450000Y-74300000D03*
%TO.P,SW1,2,2_2*%
%TO.N,Net-(R2-Pad2)*%
X148950000Y-67800000D03*
X148950000Y-74300000D03*
%TD*%
D16*
%TO.P,J2,1,Pin_1_1*%
%TO.N,15V*%
X36925000Y-52200000D03*
D17*
%TO.P,J2,2,Pin_2_2*%
%TO.N,GND*%
X36925000Y-54740000D03*
%TO.P,J2,3,Pin_3_3*%
%TO.N,7V*%
X36925000Y-57280000D03*
%TD*%
D22*
%TO.P,R4,1*%
%TO.N,Display_ADC*%
X141575000Y-100000000D03*
%TO.P,R4,2*%
%TO.N,Net-(R4-Pad2)*%
X144675000Y-100000000D03*
%TD*%
D23*
%TO.P,C6,1*%
%TO.N,Display_ADC*%
X99950000Y-99137500D03*
%TO.P,C6,2*%
%TO.N,GND*%
X99950000Y-96012500D03*
%TD*%
D24*
%TO.P,R9,1*%
%TO.N,3V3*%
X95975000Y-94875000D03*
%TO.P,R9,2*%
%TO.N,Trigger*%
X92875000Y-94875000D03*
%TD*%
D25*
%TO.P,R11,1*%
%TO.N,Net-(J4-Pin_2)*%
X106240000Y-75500000D03*
%TO.P,R11,2*%
%TO.N,SWWDIO*%
X106240000Y-78600000D03*
%TD*%
D22*
%TO.P,R5,1*%
%TO.N,Display_ADC*%
X141550000Y-114725000D03*
%TO.P,R5,2*%
%TO.N,Net-(R5-Pad2)*%
X144650000Y-114725000D03*
%TD*%
D26*
%TO.P,U4,1,Vcc_1*%
%TO.N,15V*%
X95380000Y-67850000D03*
%TO.P,U4,2,Hin_2*%
%TO.N,PWM_H*%
X94110000Y-67850000D03*
%TO.P,U4,3,Lin_3*%
%TO.N,PWM_L*%
X92840000Y-67850000D03*
%TO.P,U4,4,COM_4*%
%TO.N,GND*%
X91570000Y-67850000D03*
%TO.P,U4,5,LO_5*%
%TO.N,Net-(J1-Pin_2)*%
X91570000Y-62500000D03*
%TO.P,U4,6,VS_6*%
%TO.N,GND*%
X92840000Y-62500000D03*
%TO.P,U4,7,HO_7*%
%TO.N,Net-(J1-Pin_1)*%
X94110000Y-62500000D03*
%TO.P,U4,8,VB_8*%
%TO.N,15V*%
X95380000Y-62500000D03*
%TD*%
D27*
%TO.P,U5,1,IN_1*%
%TO.N,7V*%
X41020000Y-69310000D03*
D28*
%TO.P,U5,2,GND_2*%
%TO.N,GND*%
X43300000Y-75610000D03*
D27*
%TO.P,U5,3,OUT_3*%
%TO.N,5V*%
X45580000Y-69310000D03*
%TD*%
D23*
%TO.P,C9,1*%
%TO.N,Net-(C9-Pad1)*%
X39475000Y-95762500D03*
%TO.P,C9,2*%
%TO.N,TGND*%
X39475000Y-92637500D03*
%TD*%
D22*
%TO.P,R3,1*%
%TO.N,Display_ADC*%
X141600000Y-81150000D03*
%TO.P,R3,2*%
%TO.N,Net-(R3-Pad2)*%
X144700000Y-81150000D03*
%TD*%
D29*
%TO.P,C10,1*%
%TO.N,15V*%
X85212500Y-58050000D03*
%TO.P,C10,2*%
%TO.N,GND*%
X82087500Y-58050000D03*
%TD*%
D30*
%TO.P,U1,1,BOOT0_1*%
%TO.N,GND*%
X98950000Y-88937500D03*
%TO.P,U1,2,PF0_2*%
%TO.N,unconnected-(U1-PF0-Pad2)*%
X98300000Y-88937500D03*
%TO.P,U1,3,PF1_3*%
%TO.N,unconnected-(U1-PF1-Pad3)*%
X97650000Y-88937500D03*
%TO.P,U1,4,NRST_4*%
%TO.N,unconnected-(U1-NRST-Pad4)*%
X97000000Y-88937500D03*
%TO.P,U1,5,VDDA_5*%
%TO.N,3V3*%
X96350000Y-88937500D03*
%TO.P,U1,6,PA0_6*%
%TO.N,unconnected-(U1-PA0-Pad6)*%
X95700000Y-88937500D03*
%TO.P,U1,7,PA1_7*%
%TO.N,Display_ADC*%
X95050000Y-88937500D03*
%TO.P,U1,8,PA2_8*%
%TO.N,Trigger*%
X94400000Y-88937500D03*
%TO.P,U1,9,PA3_9*%
%TO.N,Enable*%
X93750000Y-88937500D03*
%TO.P,U1,10,PA4_10*%
%TO.N,RS*%
X93100000Y-88937500D03*
%TO.P,U1,11,PA5_11*%
%TO.N,D7*%
X93100000Y-83212500D03*
%TO.P,U1,12,PA6_12*%
%TO.N,PWM_L*%
X93750000Y-83212500D03*
%TO.P,U1,13,PA7_13*%
%TO.N,PWM_H*%
X94400000Y-83212500D03*
%TO.P,U1,14,PB1_14*%
%TO.N,D6*%
X95050000Y-83212500D03*
%TO.P,U1,15,VSS_15*%
%TO.N,GND*%
X95700000Y-83212500D03*
%TO.P,U1,16,VDD_16*%
%TO.N,3V3*%
X96350000Y-83212500D03*
%TO.P,U1,17,PA9_17*%
%TO.N,D5*%
X97000000Y-83212500D03*
%TO.P,U1,18,PA10_18*%
%TO.N,D4*%
X97650000Y-83212500D03*
%TO.P,U1,19,PA13_19*%
%TO.N,SWWDIO*%
X98300000Y-83212500D03*
%TO.P,U1,20,PA14_20*%
%TO.N,SWCLK*%
X98950000Y-83212500D03*
%TD*%
D31*
%TO.P,R8,1*%
%TO.N,Net-(R8-Pad1)*%
X35000000Y-99550000D03*
%TO.P,R8,2*%
%TO.N,24V*%
X35000000Y-96450000D03*
%TD*%
D32*
%TO.P,U3,1,GND_1*%
%TO.N,GND*%
X98325000Y-63525000D03*
%TO.P,U3,2,VO_2*%
%TO.N,3V3*%
X100625000Y-63525000D03*
D33*
X100625000Y-69825000D03*
D32*
%TO.P,U3,3,VI_3*%
%TO.N,5V*%
X102925000Y-63525000D03*
%TD*%
D34*
%TO.P,U6,1*%
%TO.N,Net-(C9-Pad1)*%
X42010000Y-95595000D03*
%TO.P,U6,2*%
%TO.N,TGND*%
X42010000Y-93055000D03*
%TO.P,U6,3*%
%TO.N,GND*%
X51540000Y-93055000D03*
%TO.P,U6,4*%
%TO.N,Trigger*%
X51540000Y-95595000D03*
%TD*%
D35*
%TO.P,C4,1*%
%TO.N,3V3*%
X96512500Y-91425000D03*
%TO.P,C4,2*%
%TO.N,GND*%
X99637500Y-91425000D03*
%TD*%
%TO.P,C13,1*%
%TO.N,GND*%
X92062500Y-70225000D03*
%TO.P,C13,2*%
%TO.N,15V*%
X95187500Y-70225000D03*
%TD*%
D24*
%TO.P,R1,1*%
%TO.N,3V3*%
X97550000Y-97600000D03*
%TO.P,R1,2*%
%TO.N,Display_ADC*%
X94450000Y-97600000D03*
%TD*%
D29*
%TO.P,C8,1*%
%TO.N,7V*%
X37357500Y-63375000D03*
%TO.P,C8,2*%
%TO.N,GND*%
X34232500Y-63375000D03*
%TD*%
D25*
%TO.P,R14,1*%
%TO.N,15V*%
X67625000Y-52175000D03*
%TO.P,R14,2*%
%TO.N,Net-(D2-K)*%
X67625000Y-55275000D03*
%TD*%
D29*
%TO.P,C5,1*%
%TO.N,5V*%
X52437500Y-62000000D03*
%TO.P,C5,2*%
%TO.N,GND*%
X49312500Y-62000000D03*
%TD*%
D22*
%TO.P,R2,1*%
%TO.N,Display_ADC*%
X141600000Y-67700000D03*
%TO.P,R2,2*%
%TO.N,Net-(R2-Pad2)*%
X144700000Y-67700000D03*
%TD*%
D25*
%TO.P,R12,1*%
%TO.N,Net-(J4-Pin_3)*%
X109550000Y-75500000D03*
%TO.P,R12,2*%
%TO.N,SWCLK*%
X109550000Y-78600000D03*
%TD*%
D36*
%TO.N,GND*%
X112300000Y-77025000D03*
X115500000Y-97200000D03*
X138900000Y-108425000D03*
X144425000Y-108425000D03*
X115500000Y-102825000D03*
X59000000Y-54975000D03*
X138900000Y-90725000D03*
X89500000Y-83800000D03*
X102100000Y-89050000D03*
X112375000Y-66575000D03*
X40375000Y-54740000D03*
X144250000Y-90725000D03*
X69100000Y-98350000D03*
X138625000Y-76450000D03*
X69200000Y-92700000D03*
X144325000Y-76675000D03*
%TO.N,5V*%
X102875000Y-61225000D03*
%TO.N,D4*%
X98635050Y-80060050D03*
%TO.N,D5*%
X98337198Y-77742701D03*
%TO.N,D6*%
X96000000Y-74250000D03*
%TO.N,D7*%
X89134352Y-71390648D03*
%TD*%
%TO.N,15V*%
D37*
X95380000Y-56730000D02*
X94300000Y-55650000D01*
X95380000Y-67850000D02*
X95380000Y-70032500D01*
X95380000Y-62500000D02*
X95380000Y-56730000D01*
D38*
X39600000Y-52175000D02*
X81717677Y-52175000D01*
D37*
X95380000Y-70032500D02*
X95187500Y-70225000D01*
D38*
X85212500Y-55669823D02*
X85192677Y-55650000D01*
D37*
X94300000Y-55650000D02*
X85192677Y-55650000D01*
X95380000Y-67850000D02*
X95380000Y-62500000D01*
D38*
X36925000Y-52200000D02*
X39575000Y-52200000D01*
X85212500Y-58050000D02*
X85212500Y-55669823D01*
X81717677Y-52175000D02*
X85192677Y-55650000D01*
X39575000Y-52200000D02*
X39600000Y-52175000D01*
%TO.N,GND*%
X63665000Y-59640000D02*
X59000000Y-54975000D01*
X32300000Y-66100000D02*
X32300000Y-58162919D01*
D37*
X92840000Y-64980000D02*
X92840000Y-62500000D01*
D38*
X114175000Y-58689415D02*
X114170000Y-58694415D01*
X153375000Y-114825000D02*
X153400000Y-114800000D01*
X102100000Y-89050000D02*
X101112500Y-90037500D01*
X72655000Y-56107792D02*
X69122792Y-59640000D01*
X90950000Y-81350000D02*
X90950000Y-82737500D01*
X72655000Y-54835000D02*
X79377677Y-54835000D01*
X85750000Y-76150000D02*
X90950000Y-81350000D01*
D37*
X91570000Y-69732500D02*
X92062500Y-70225000D01*
D39*
X94884878Y-84825000D02*
X93037500Y-84825000D01*
D38*
X153450000Y-114650000D02*
X153375000Y-114725000D01*
X80192677Y-56155177D02*
X82087500Y-58050000D01*
X97575000Y-55200000D02*
X97575000Y-62775000D01*
X55945000Y-93055000D02*
X56000000Y-93000000D01*
D39*
X97400000Y-74829899D02*
X97400000Y-74825000D01*
D38*
X80192677Y-55650000D02*
X80192677Y-56155177D01*
D39*
X98950000Y-88937500D02*
X98950000Y-90737500D01*
X97400000Y-74825000D02*
X97800000Y-74425000D01*
D38*
X61435000Y-64675000D02*
X61435000Y-61870000D01*
X101112500Y-90037500D02*
X101025000Y-90037500D01*
D39*
X95700000Y-83212500D02*
X95700000Y-84009878D01*
X97800000Y-74425000D02*
X97800000Y-64050000D01*
D38*
X90500000Y-82800000D02*
X90887500Y-82800000D01*
X69122792Y-59640000D02*
X63665000Y-59640000D01*
X72655000Y-54835000D02*
X72655000Y-65805000D01*
D37*
X91570000Y-67850000D02*
X91570000Y-66250000D01*
D38*
X101025000Y-90037500D02*
X99637500Y-91425000D01*
X99950000Y-93675000D02*
X99950000Y-91737500D01*
X114175000Y-57450000D02*
X114175000Y-58689415D01*
X104900000Y-89050000D02*
X114170000Y-79780000D01*
X36925000Y-54740000D02*
X40375000Y-54740000D01*
X72655000Y-65805000D02*
X83000000Y-76150000D01*
X83000000Y-76150000D02*
X85750000Y-76150000D01*
X40375000Y-54740000D02*
X51390000Y-54740000D01*
X35722919Y-54740000D02*
X36925000Y-54740000D01*
D37*
X91570000Y-67850000D02*
X91570000Y-69732500D01*
D38*
X144350000Y-58700000D02*
X114170000Y-58700000D01*
X102100000Y-89050000D02*
X104900000Y-89050000D01*
X49312500Y-63272500D02*
X50715000Y-64675000D01*
X51390000Y-54740000D02*
X51625000Y-54975000D01*
D37*
X91570000Y-66250000D02*
X92840000Y-64980000D01*
D39*
X95700000Y-84009878D02*
X94884878Y-84825000D01*
D38*
X99950000Y-91737500D02*
X99637500Y-91425000D01*
X49312500Y-62000000D02*
X49312500Y-63272500D01*
X79377677Y-54835000D02*
X80192677Y-55650000D01*
X97575000Y-62775000D02*
X98325000Y-63525000D01*
X61435000Y-61870000D02*
X63665000Y-59640000D01*
X153450000Y-67800000D02*
X153450000Y-114650000D01*
X153450000Y-67800000D02*
X144350000Y-58700000D01*
X90887500Y-82800000D02*
X90950000Y-82737500D01*
D39*
X97800000Y-64050000D02*
X98325000Y-63525000D01*
D38*
X110000000Y-53275000D02*
X114175000Y-57450000D01*
X114170000Y-79780000D02*
X114170000Y-58700000D01*
D39*
X95700000Y-83212500D02*
X95700000Y-76525000D01*
X98950000Y-90737500D02*
X99637500Y-91425000D01*
D38*
X59000000Y-54975000D02*
X51625000Y-54975000D01*
X72655000Y-54835000D02*
X72655000Y-56107792D01*
X114170000Y-58694415D02*
X114170000Y-58700000D01*
X99500000Y-53275000D02*
X110000000Y-53275000D01*
D39*
X96579899Y-75650000D02*
X97400000Y-74829899D01*
X93037500Y-84825000D02*
X90950000Y-82737500D01*
X95700000Y-76525000D02*
X96575000Y-75650000D01*
D38*
X99950000Y-96012500D02*
X99950000Y-93675000D01*
X51540000Y-93055000D02*
X55945000Y-93055000D01*
D39*
X96575000Y-75650000D02*
X96579899Y-75650000D01*
D38*
X32300000Y-58162919D02*
X35722919Y-54740000D01*
X97575000Y-55200000D02*
X99500000Y-53275000D01*
X89500000Y-83800000D02*
X90500000Y-82800000D01*
%TO.N,Net-(C9-Pad1)*%
X39642500Y-95595000D02*
X39475000Y-95762500D01*
X42010000Y-95595000D02*
X39642500Y-95595000D01*
X38000000Y-101750000D02*
X38000000Y-97237500D01*
X38000000Y-97237500D02*
X39475000Y-95762500D01*
%TO.N,Net-(R8-Pad1)*%
X35000000Y-105250000D02*
X38000000Y-108250000D01*
X35000000Y-99550000D02*
X35000000Y-105250000D01*
%TO.N,5V*%
X53815000Y-63377500D02*
X53815000Y-64675000D01*
X51960000Y-59640000D02*
X51625000Y-59975000D01*
X52437500Y-62000000D02*
X53815000Y-63377500D01*
X102925000Y-61275000D02*
X102875000Y-61225000D01*
X48571016Y-59975000D02*
X51625000Y-59975000D01*
X51625000Y-59975000D02*
X51625000Y-61187500D01*
X51625000Y-61187500D02*
X52437500Y-62000000D01*
X102925000Y-63525000D02*
X102925000Y-61275000D01*
X45580000Y-69310000D02*
X45580000Y-62966016D01*
X45580000Y-62966016D02*
X48571016Y-59975000D01*
X58585000Y-59640000D02*
X51960000Y-59640000D01*
%TO.N,Net-(U2-VO)*%
X56890000Y-61340000D02*
X56355000Y-61875000D01*
X59425000Y-61340000D02*
X56890000Y-61340000D01*
X56355000Y-61875000D02*
X56355000Y-64675000D01*
X61125000Y-59640000D02*
X59425000Y-61340000D01*
%TO.N,3V3*%
X95975000Y-91962500D02*
X96512500Y-91425000D01*
X102575000Y-55200000D02*
X100625000Y-57150000D01*
X95975000Y-94875000D02*
X95975000Y-96025000D01*
X95975000Y-96025000D02*
X97550000Y-97600000D01*
D39*
X100625000Y-73250000D02*
X100625000Y-69825000D01*
D38*
X100625000Y-63525000D02*
X100625000Y-69825000D01*
X95975000Y-94875000D02*
X95975000Y-91962500D01*
X106550000Y-58700000D02*
X106075000Y-58700000D01*
X100625000Y-57150000D02*
X100625000Y-63525000D01*
X106075000Y-58700000D02*
X102575000Y-55200000D01*
D39*
X96350000Y-88937500D02*
X96350000Y-91262500D01*
X96350000Y-83212500D02*
X96350000Y-77525000D01*
X96350000Y-83212500D02*
X96350000Y-88937500D01*
X96350000Y-91262500D02*
X96512500Y-91425000D01*
X96350000Y-77525000D02*
X100625000Y-73250000D01*
%TO.N,Net-(J1-Pin_1)*%
D37*
X94110000Y-62500000D02*
X94110000Y-59635000D01*
X94110000Y-59635000D02*
X93350000Y-58875000D01*
%TO.N,Net-(J1-Pin_2)*%
X91570000Y-62500000D02*
X91570000Y-59095000D01*
X91570000Y-59095000D02*
X91350000Y-58875000D01*
%TO.N,24V*%
D38*
X35000000Y-96450000D02*
X35000000Y-92775000D01*
%TO.N,TGND*%
X39892500Y-93055000D02*
X39475000Y-92637500D01*
X35000000Y-90235000D02*
X37072500Y-90235000D01*
X42010000Y-93055000D02*
X39892500Y-93055000D01*
X37072500Y-90235000D02*
X39475000Y-92637500D01*
%TO.N,Net-(R3-Pad2)*%
D40*
X144700000Y-81150000D02*
X148775000Y-81150000D01*
X148775000Y-81150000D02*
X148875000Y-81050000D01*
X148875000Y-81050000D02*
X148875000Y-87550000D01*
%TO.N,Net-(R5-Pad2)*%
X144650000Y-114725000D02*
X148875000Y-114725000D01*
X148875000Y-108225000D02*
X148875000Y-114725000D01*
%TO.N,7V*%
D38*
X40510000Y-69310000D02*
X37300000Y-66100000D01*
X37300000Y-66100000D02*
X37300000Y-57655000D01*
X41020000Y-69310000D02*
X40510000Y-69310000D01*
X37300000Y-57655000D02*
X36925000Y-57280000D01*
%TO.N,Net-(D2-K)*%
X68065000Y-54835000D02*
X67625000Y-55275000D01*
X70115000Y-54835000D02*
X68065000Y-54835000D01*
%TO.N,Net-(J4-Pin_2)*%
X106240000Y-63201673D02*
X106240000Y-75500000D01*
X106250000Y-63191673D02*
X106240000Y-63201673D01*
X109090000Y-58700000D02*
X109090000Y-59285000D01*
X106250000Y-62125000D02*
X106250000Y-63191673D01*
X109090000Y-59285000D02*
X106250000Y-62125000D01*
%TO.N,Net-(J4-Pin_3)*%
X111630000Y-58700000D02*
X111630000Y-59695000D01*
X109550000Y-61775000D02*
X109550000Y-75500000D01*
X111630000Y-59695000D02*
X109550000Y-61775000D01*
%TO.N,RS*%
X58895000Y-64675000D02*
X58895000Y-68995000D01*
X58895000Y-68995000D02*
X80100000Y-90200000D01*
D39*
X93100000Y-90000000D02*
X92900000Y-90200000D01*
X93100000Y-88937500D02*
X93100000Y-90000000D01*
D38*
X80100000Y-90200000D02*
X91200000Y-90200000D01*
D39*
X92900000Y-90200000D02*
X91200000Y-90200000D01*
%TO.N,Enable*%
X92800000Y-86800000D02*
X91300000Y-86800000D01*
X93750000Y-88937500D02*
X93750000Y-87750000D01*
D38*
X86100000Y-86800000D02*
X91300000Y-86800000D01*
D39*
X93750000Y-87750000D02*
X92800000Y-86800000D01*
D38*
X63975000Y-64675000D02*
X86100000Y-86800000D01*
%TO.N,D4*%
D39*
X97650000Y-81045100D02*
X98635050Y-80060050D01*
X97650000Y-83212500D02*
X97650000Y-81045100D01*
%TO.N,D5*%
X97000000Y-79079899D02*
X98337198Y-77742701D01*
X97000000Y-83212500D02*
X97000000Y-79079899D01*
%TO.N,D6*%
X95050000Y-75200000D02*
X95050000Y-83212500D01*
X96000000Y-74250000D02*
X95050000Y-75200000D01*
%TO.N,D7*%
X89134352Y-71390648D02*
X89415648Y-71390648D01*
X91775000Y-78675000D02*
X93100000Y-80000000D01*
X91775000Y-73750000D02*
X91775000Y-78675000D01*
X89415648Y-71390648D02*
X91775000Y-73750000D01*
X93100000Y-80000000D02*
X93100000Y-83212500D01*
%TO.N,Net-(R4-Pad2)*%
D40*
X144675000Y-100000000D02*
X148675000Y-100000000D01*
X148675000Y-100000000D02*
X148875000Y-100200000D01*
X148875000Y-100125000D02*
X148875000Y-93625000D01*
%TO.N,Net-(R2-Pad2)*%
X148950000Y-67800000D02*
X148950000Y-74300000D01*
X144700000Y-67700000D02*
X148850000Y-67700000D01*
X148850000Y-67700000D02*
X148950000Y-67800000D01*
%TO.N,Display_ADC*%
D39*
X94625000Y-90475000D02*
X94625000Y-97425000D01*
D38*
X96275000Y-99425000D02*
X94450000Y-97600000D01*
X99950000Y-99137500D02*
X99662500Y-99425000D01*
D39*
X94625000Y-97425000D02*
X94450000Y-97600000D01*
X95050000Y-90050000D02*
X94625000Y-90475000D01*
D38*
X99950000Y-99137500D02*
X100812500Y-100000000D01*
X100812500Y-100000000D02*
X141575000Y-100000000D01*
X99662500Y-99425000D02*
X96275000Y-99425000D01*
X141600000Y-114675000D02*
X141550000Y-114725000D01*
X141600000Y-67700000D02*
X141600000Y-114675000D01*
D39*
X95050000Y-88937500D02*
X95050000Y-90050000D01*
%TO.N,Trigger*%
X94400000Y-89851472D02*
X93925000Y-90326472D01*
D38*
X92155000Y-95595000D02*
X92875000Y-94875000D01*
D39*
X94400000Y-88937500D02*
X94400000Y-89851472D01*
D38*
X51540000Y-95595000D02*
X92155000Y-95595000D01*
D39*
X93925000Y-90326472D02*
X93925000Y-93825000D01*
X93925000Y-93825000D02*
X92875000Y-94875000D01*
%TO.N,SWWDIO*%
X98300000Y-83212500D02*
X98300000Y-82375000D01*
X102075000Y-78600000D02*
X106240000Y-78600000D01*
X98300000Y-82375000D02*
X102075000Y-78600000D01*
%TO.N,PWM_H*%
X94110000Y-71710000D02*
X94400000Y-72000000D01*
X94110000Y-67850000D02*
X94110000Y-71710000D01*
X94400000Y-72000000D02*
X94400000Y-83212500D01*
%TO.N,PWM_L*%
X93700000Y-77850000D02*
X93225000Y-77375000D01*
X92840000Y-68136974D02*
X92840000Y-67850000D01*
X93225000Y-77375000D02*
X93225000Y-68521974D01*
X93225000Y-68521974D02*
X92840000Y-68136974D01*
X93750000Y-83212500D02*
X93700000Y-83162500D01*
X93700000Y-83162500D02*
X93700000Y-77850000D01*
%TO.N,SWCLK*%
X102550000Y-80600000D02*
X107550000Y-80600000D01*
X107550000Y-80600000D02*
X109550000Y-78600000D01*
X109100000Y-79060000D02*
X109100000Y-79050000D01*
X109100000Y-79050000D02*
X109550000Y-78600000D01*
X99937500Y-83212500D02*
X102550000Y-80600000D01*
X98950000Y-83212500D02*
X99937500Y-83212500D01*
%TD*%
%TA.AperFunction,Conductor*%
%TO.N,GND*%
G36*
X61685000Y-66452854D02*
G01*
X61762834Y-66440526D01*
X61762837Y-66440526D01*
X61972410Y-66372432D01*
X62168760Y-66272386D01*
X62282590Y-66189684D01*
X62348397Y-66166204D01*
X62416451Y-66182029D01*
X62453852Y-66214516D01*
X62543060Y-66330774D01*
X62543066Y-66330781D01*
X62719218Y-66506933D01*
X62719225Y-66506939D01*
X62916873Y-66658599D01*
X63132623Y-66783162D01*
X63132638Y-66783169D01*
X63185498Y-66805064D01*
X63362793Y-66878502D01*
X63603435Y-66942982D01*
X63750529Y-66962347D01*
X63814423Y-66990612D01*
X63822023Y-66997604D01*
X84943333Y-88118915D01*
X84943337Y-88118919D01*
X84978060Y-88145562D01*
X85008286Y-88168755D01*
X85084354Y-88227125D01*
X85125557Y-88283553D01*
X85129711Y-88353299D01*
X85095498Y-88414219D01*
X85077839Y-88423590D01*
X85033781Y-88446971D01*
X85008867Y-88449500D01*
X80876443Y-88449500D01*
X80809404Y-88429815D01*
X80788762Y-88413181D01*
X60681819Y-68306238D01*
X60648334Y-68244915D01*
X60645500Y-68218557D01*
X60645500Y-66446336D01*
X60665185Y-66379297D01*
X60717989Y-66333542D01*
X60787147Y-66323598D01*
X60825795Y-66335851D01*
X60897589Y-66372432D01*
X61107163Y-66440526D01*
X61184999Y-66452854D01*
X61185000Y-66452854D01*
X61185000Y-65223482D01*
X61203409Y-65234111D01*
X61356009Y-65275000D01*
X61513991Y-65275000D01*
X61666591Y-65234111D01*
X61685000Y-65223482D01*
X61685000Y-66452854D01*
G37*
%TD.AperFunction*%
%TA.AperFunction,Conductor*%
G36*
X156492539Y-49870185D02*
G01*
X156538294Y-49922989D01*
X156549500Y-49974500D01*
X156549500Y-124000500D01*
X156529815Y-124067539D01*
X156477011Y-124113294D01*
X156425500Y-124124500D01*
X29124500Y-124124500D01*
X29057461Y-124104815D01*
X29011706Y-124052011D01*
X29000500Y-124000500D01*
X29000500Y-87500000D01*
X31500000Y-87500000D01*
X31500000Y-110500000D01*
X54500000Y-110500000D01*
X54500000Y-97469500D01*
X54519685Y-97402461D01*
X54572489Y-97356706D01*
X54624000Y-97345500D01*
X92269727Y-97345500D01*
X92269734Y-97345500D01*
X92471914Y-97318882D01*
X92497239Y-97315548D01*
X92553521Y-97300467D01*
X92556260Y-97299865D01*
X92588429Y-97302091D01*
X92620651Y-97302859D01*
X92623059Y-97304489D01*
X92625962Y-97304690D01*
X92651810Y-97323948D01*
X92678514Y-97342021D01*
X92679659Y-97344696D01*
X92681992Y-97346434D01*
X92693323Y-97376603D01*
X92706018Y-97406249D01*
X92705993Y-97410339D01*
X92706558Y-97411842D01*
X92705968Y-97414582D01*
X92705834Y-97437155D01*
X92699501Y-97485263D01*
X92699501Y-97714734D01*
X92729450Y-97942228D01*
X92729451Y-97942233D01*
X92729452Y-97942239D01*
X92773164Y-98105374D01*
X92788843Y-98163891D01*
X92790062Y-98166833D01*
X92799500Y-98214281D01*
X92799500Y-98289206D01*
X92799501Y-98289224D01*
X92809904Y-98421413D01*
X92809905Y-98421420D01*
X92864902Y-98639678D01*
X92864903Y-98639681D01*
X92957991Y-98844622D01*
X92957996Y-98844631D01*
X93086174Y-99029645D01*
X93086178Y-99029650D01*
X93086181Y-99029654D01*
X93245346Y-99188819D01*
X93245350Y-99188822D01*
X93245354Y-99188825D01*
X93342161Y-99255893D01*
X93430374Y-99317007D01*
X93532845Y-99363551D01*
X93635314Y-99410095D01*
X93635315Y-99410095D01*
X93635317Y-99410096D01*
X93801592Y-99451993D01*
X93858972Y-99484553D01*
X95118333Y-100743915D01*
X95118338Y-100743919D01*
X95118339Y-100743920D01*
X95192073Y-100800497D01*
X95192074Y-100800499D01*
X95300386Y-100883610D01*
X95300388Y-100883611D01*
X95393968Y-100937639D01*
X95499112Y-100998345D01*
X95604523Y-101042007D01*
X95711113Y-101086158D01*
X95749781Y-101096519D01*
X95755436Y-101098034D01*
X95755438Y-101098035D01*
X95789498Y-101107161D01*
X95932761Y-101145549D01*
X96103389Y-101168012D01*
X96160265Y-101175500D01*
X96160266Y-101175500D01*
X99461058Y-101175500D01*
X99528097Y-101195185D01*
X99548734Y-101211814D01*
X99650721Y-101313801D01*
X99655838Y-101318918D01*
X99837877Y-101458603D01*
X99837880Y-101458605D01*
X99837888Y-101458611D01*
X100016797Y-101561904D01*
X100016796Y-101561904D01*
X100036601Y-101573338D01*
X100036605Y-101573340D01*
X100036612Y-101573344D01*
X100036617Y-101573346D01*
X100036623Y-101573349D01*
X100114929Y-101605784D01*
X100248613Y-101661158D01*
X100470261Y-101720548D01*
X100496723Y-101724031D01*
X100496727Y-101724033D01*
X100496728Y-101724032D01*
X100697766Y-101750500D01*
X139725500Y-101750500D01*
X139792539Y-101770185D01*
X139838294Y-101822989D01*
X139849500Y-101874500D01*
X139849500Y-114291614D01*
X139845275Y-114323707D01*
X139829454Y-114382751D01*
X139829451Y-114382764D01*
X139799501Y-114610265D01*
X139799501Y-114839734D01*
X139829450Y-115067228D01*
X139829451Y-115067233D01*
X139829452Y-115067239D01*
X139875078Y-115237518D01*
X139888843Y-115288891D01*
X139890062Y-115291833D01*
X139899500Y-115339281D01*
X139899500Y-115414206D01*
X139899501Y-115414224D01*
X139909904Y-115546413D01*
X139909905Y-115546420D01*
X139964902Y-115764678D01*
X139964903Y-115764681D01*
X140057991Y-115969622D01*
X140057997Y-115969632D01*
X140186174Y-116154645D01*
X140186176Y-116154647D01*
X140186181Y-116154654D01*
X140345346Y-116313819D01*
X140345350Y-116313822D01*
X140345354Y-116313825D01*
X140458084Y-116391924D01*
X140530374Y-116442007D01*
X140735317Y-116535096D01*
X140735321Y-116535097D01*
X140953579Y-116590094D01*
X140953581Y-116590094D01*
X140953588Y-116590096D01*
X141085783Y-116600500D01*
X142014216Y-116600499D01*
X142146412Y-116590096D01*
X142364683Y-116535096D01*
X142569626Y-116442007D01*
X142754654Y-116313819D01*
X142913819Y-116154654D01*
X142967035Y-116077841D01*
X143021391Y-116033946D01*
X143090853Y-116026406D01*
X143153364Y-116057616D01*
X143156643Y-116060777D01*
X143328140Y-116232274D01*
X143328148Y-116232281D01*
X143536196Y-116391924D01*
X143763299Y-116523041D01*
X143763309Y-116523046D01*
X143950300Y-116600500D01*
X144005581Y-116623398D01*
X144258884Y-116691270D01*
X144518880Y-116725500D01*
X144518887Y-116725500D01*
X149006113Y-116725500D01*
X149006120Y-116725500D01*
X149266116Y-116691270D01*
X149519419Y-116623398D01*
X149761697Y-116523043D01*
X149988803Y-116391924D01*
X150196851Y-116232282D01*
X150196855Y-116232277D01*
X150196860Y-116232274D01*
X150382274Y-116046860D01*
X150382277Y-116046855D01*
X150382282Y-116046851D01*
X150541924Y-115838803D01*
X150541967Y-115838727D01*
X150542162Y-115838392D01*
X150542162Y-115838391D01*
X150673041Y-115611700D01*
X150673046Y-115611690D01*
X150754842Y-115414216D01*
X150773398Y-115369419D01*
X150841270Y-115116116D01*
X150875500Y-114856120D01*
X150875500Y-114606947D01*
X151875000Y-114606947D01*
X151875000Y-114843052D01*
X151911934Y-115076247D01*
X151984897Y-115300802D01*
X152092087Y-115511174D01*
X152152338Y-115594104D01*
X152152340Y-115594105D01*
X152851212Y-114895233D01*
X152862482Y-114937292D01*
X152934890Y-115062708D01*
X153037292Y-115165110D01*
X153162708Y-115237518D01*
X153204765Y-115248787D01*
X152505893Y-115947658D01*
X152588828Y-116007914D01*
X152799197Y-116115102D01*
X153023752Y-116188065D01*
X153023751Y-116188065D01*
X153256948Y-116225000D01*
X153493052Y-116225000D01*
X153726247Y-116188065D01*
X153950802Y-116115102D01*
X154161163Y-116007918D01*
X154161169Y-116007914D01*
X154244104Y-115947658D01*
X154244105Y-115947658D01*
X153545233Y-115248787D01*
X153587292Y-115237518D01*
X153712708Y-115165110D01*
X153815110Y-115062708D01*
X153887518Y-114937292D01*
X153898787Y-114895234D01*
X154597658Y-115594105D01*
X154597658Y-115594104D01*
X154657914Y-115511169D01*
X154657918Y-115511163D01*
X154765102Y-115300802D01*
X154838065Y-115076247D01*
X154875000Y-114843052D01*
X154875000Y-114606947D01*
X154838065Y-114373752D01*
X154765102Y-114149197D01*
X154657914Y-113938828D01*
X154597658Y-113855894D01*
X154597658Y-113855893D01*
X153898787Y-114554765D01*
X153887518Y-114512708D01*
X153815110Y-114387292D01*
X153712708Y-114284890D01*
X153587292Y-114212482D01*
X153545234Y-114201212D01*
X154244105Y-113502340D01*
X154244104Y-113502338D01*
X154161174Y-113442087D01*
X153950802Y-113334897D01*
X153726247Y-113261934D01*
X153726248Y-113261934D01*
X153493052Y-113225000D01*
X153256948Y-113225000D01*
X153023752Y-113261934D01*
X152799197Y-113334897D01*
X152588830Y-113442084D01*
X152505894Y-113502340D01*
X153204766Y-114201212D01*
X153162708Y-114212482D01*
X153037292Y-114284890D01*
X152934890Y-114387292D01*
X152862482Y-114512708D01*
X152851212Y-114554766D01*
X152152340Y-113855894D01*
X152092084Y-113938830D01*
X151984897Y-114149197D01*
X151911934Y-114373752D01*
X151875000Y-114606947D01*
X150875500Y-114606947D01*
X150875500Y-108106947D01*
X151875000Y-108106947D01*
X151875000Y-108343052D01*
X151911934Y-108576247D01*
X151984897Y-108800802D01*
X152092087Y-109011174D01*
X152152338Y-109094104D01*
X152152340Y-109094105D01*
X152851212Y-108395233D01*
X152862482Y-108437292D01*
X152934890Y-108562708D01*
X153037292Y-108665110D01*
X153162708Y-108737518D01*
X153204765Y-108748787D01*
X152505893Y-109447658D01*
X152588828Y-109507914D01*
X152799197Y-109615102D01*
X153023752Y-109688065D01*
X153023751Y-109688065D01*
X153256948Y-109725000D01*
X153493052Y-109725000D01*
X153726247Y-109688065D01*
X153950802Y-109615102D01*
X154161163Y-109507918D01*
X154161169Y-109507914D01*
X154244104Y-109447658D01*
X154244105Y-109447658D01*
X153545233Y-108748787D01*
X153587292Y-108737518D01*
X153712708Y-108665110D01*
X153815110Y-108562708D01*
X153887518Y-108437292D01*
X153898787Y-108395234D01*
X154597658Y-109094105D01*
X154597658Y-109094104D01*
X154657914Y-109011169D01*
X154657918Y-109011163D01*
X154765102Y-108800802D01*
X154838065Y-108576247D01*
X154875000Y-108343052D01*
X154875000Y-108106947D01*
X154838065Y-107873752D01*
X154765102Y-107649197D01*
X154657914Y-107438828D01*
X154597658Y-107355894D01*
X154597658Y-107355893D01*
X153898787Y-108054765D01*
X153887518Y-108012708D01*
X153815110Y-107887292D01*
X153712708Y-107784890D01*
X153587292Y-107712482D01*
X153545234Y-107701212D01*
X154244105Y-107002340D01*
X154244104Y-107002338D01*
X154161174Y-106942087D01*
X153950802Y-106834897D01*
X153726247Y-106761934D01*
X153726248Y-106761934D01*
X153493052Y-106725000D01*
X153256948Y-106725000D01*
X153023752Y-106761934D01*
X152799197Y-106834897D01*
X152588830Y-106942084D01*
X152505894Y-107002340D01*
X153204766Y-107701212D01*
X153162708Y-107712482D01*
X153037292Y-107784890D01*
X152934890Y-107887292D01*
X152862482Y-108012708D01*
X152851212Y-108054766D01*
X152152340Y-107355894D01*
X152092084Y-107438830D01*
X151984897Y-107649197D01*
X151911934Y-107873752D01*
X151875000Y-108106947D01*
X150875500Y-108106947D01*
X150875500Y-108093880D01*
X150841270Y-107833884D01*
X150773398Y-107580581D01*
X150714682Y-107438828D01*
X150673046Y-107338309D01*
X150673041Y-107338299D01*
X150542156Y-107111599D01*
X150542154Y-107111594D01*
X150542150Y-107111589D01*
X150541924Y-107111197D01*
X150382282Y-106903149D01*
X150382281Y-106903148D01*
X150382274Y-106903140D01*
X150196860Y-106717726D01*
X150196851Y-106717718D01*
X149988803Y-106558075D01*
X149761700Y-106426958D01*
X149761690Y-106426953D01*
X149519428Y-106326605D01*
X149519421Y-106326603D01*
X149519419Y-106326602D01*
X149266116Y-106258730D01*
X149208339Y-106251123D01*
X149006127Y-106224500D01*
X149006120Y-106224500D01*
X148743880Y-106224500D01*
X148743872Y-106224500D01*
X148512772Y-106254926D01*
X148483884Y-106258730D01*
X148230581Y-106326602D01*
X148230571Y-106326605D01*
X147988309Y-106426953D01*
X147988299Y-106426958D01*
X147761196Y-106558075D01*
X147553148Y-106717718D01*
X147367718Y-106903148D01*
X147208075Y-107111196D01*
X147076958Y-107338299D01*
X147076953Y-107338309D01*
X146976605Y-107580571D01*
X146976602Y-107580581D01*
X146941260Y-107712482D01*
X146908730Y-107833885D01*
X146874500Y-108093872D01*
X146874500Y-112600500D01*
X146854815Y-112667539D01*
X146802011Y-112713294D01*
X146750500Y-112724500D01*
X144518872Y-112724500D01*
X144287772Y-112754926D01*
X144258884Y-112758730D01*
X144005581Y-112826602D01*
X144005571Y-112826605D01*
X143763309Y-112926953D01*
X143763304Y-112926956D01*
X143536499Y-113057901D01*
X143468599Y-113074373D01*
X143402572Y-113051520D01*
X143359382Y-112996598D01*
X143350500Y-112950513D01*
X143350500Y-101756697D01*
X143370185Y-101689658D01*
X143422989Y-101643903D01*
X143492147Y-101633959D01*
X143549989Y-101658324D01*
X143561194Y-101666922D01*
X143561195Y-101666923D01*
X143788299Y-101798041D01*
X143788309Y-101798046D01*
X143954596Y-101866924D01*
X144030581Y-101898398D01*
X144283884Y-101966270D01*
X144543880Y-102000500D01*
X147969570Y-102000500D01*
X148017022Y-102009938D01*
X148230581Y-102098398D01*
X148483885Y-102166271D01*
X148678882Y-102191942D01*
X148743880Y-102200499D01*
X148743881Y-102200499D01*
X149006121Y-102200499D01*
X149058119Y-102193653D01*
X149266116Y-102166271D01*
X149519419Y-102098398D01*
X149761697Y-101998043D01*
X149988802Y-101866924D01*
X150196851Y-101707283D01*
X150382283Y-101521851D01*
X150541924Y-101313802D01*
X150673043Y-101086697D01*
X150773398Y-100844419D01*
X150841271Y-100591116D01*
X150875499Y-100331120D01*
X150875499Y-100260535D01*
X150875500Y-100260506D01*
X150875500Y-100006947D01*
X151875000Y-100006947D01*
X151875000Y-100243052D01*
X151911934Y-100476247D01*
X151984897Y-100700802D01*
X152092087Y-100911174D01*
X152152338Y-100994104D01*
X152152340Y-100994105D01*
X152851212Y-100295233D01*
X152862482Y-100337292D01*
X152934890Y-100462708D01*
X153037292Y-100565110D01*
X153162708Y-100637518D01*
X153204765Y-100648787D01*
X152505893Y-101347658D01*
X152588828Y-101407914D01*
X152799197Y-101515102D01*
X153023752Y-101588065D01*
X153023751Y-101588065D01*
X153256948Y-101625000D01*
X153493052Y-101625000D01*
X153726247Y-101588065D01*
X153950802Y-101515102D01*
X154161163Y-101407918D01*
X154161169Y-101407914D01*
X154244104Y-101347658D01*
X154244105Y-101347658D01*
X153545233Y-100648787D01*
X153587292Y-100637518D01*
X153712708Y-100565110D01*
X153815110Y-100462708D01*
X153887518Y-100337292D01*
X153898787Y-100295234D01*
X154597658Y-100994105D01*
X154597658Y-100994104D01*
X154657914Y-100911169D01*
X154657918Y-100911163D01*
X154765102Y-100700802D01*
X154838065Y-100476247D01*
X154875000Y-100243052D01*
X154875000Y-100006947D01*
X154838065Y-99773752D01*
X154765102Y-99549197D01*
X154657914Y-99338828D01*
X154597658Y-99255894D01*
X154597658Y-99255893D01*
X153898787Y-99954765D01*
X153887518Y-99912708D01*
X153815110Y-99787292D01*
X153712708Y-99684890D01*
X153587292Y-99612482D01*
X153545234Y-99601212D01*
X154244105Y-98902340D01*
X154244104Y-98902338D01*
X154161174Y-98842087D01*
X153950802Y-98734897D01*
X153726247Y-98661934D01*
X153726248Y-98661934D01*
X153493052Y-98625000D01*
X153256948Y-98625000D01*
X153023752Y-98661934D01*
X152799197Y-98734897D01*
X152588830Y-98842084D01*
X152505894Y-98902340D01*
X153204766Y-99601212D01*
X153162708Y-99612482D01*
X153037292Y-99684890D01*
X152934890Y-99787292D01*
X152862482Y-99912708D01*
X152851212Y-99954766D01*
X152152340Y-99255894D01*
X152092084Y-99338830D01*
X151984897Y-99549197D01*
X151911934Y-99773752D01*
X151875000Y-100006947D01*
X150875500Y-100006947D01*
X150875500Y-93506947D01*
X151875000Y-93506947D01*
X151875000Y-93743052D01*
X151911934Y-93976247D01*
X151984897Y-94200802D01*
X152092087Y-94411174D01*
X152152338Y-94494104D01*
X152152340Y-94494105D01*
X152851212Y-93795233D01*
X152862482Y-93837292D01*
X152934890Y-93962708D01*
X153037292Y-94065110D01*
X153162708Y-94137518D01*
X153204765Y-94148787D01*
X152505893Y-94847658D01*
X152588828Y-94907914D01*
X152799197Y-95015102D01*
X153023752Y-95088065D01*
X153023751Y-95088065D01*
X153256948Y-95125000D01*
X153493052Y-95125000D01*
X153726247Y-95088065D01*
X153950802Y-95015102D01*
X154161163Y-94907918D01*
X154161169Y-94907914D01*
X154244104Y-94847658D01*
X154244105Y-94847658D01*
X153545233Y-94148787D01*
X153587292Y-94137518D01*
X153712708Y-94065110D01*
X153815110Y-93962708D01*
X153887518Y-93837292D01*
X153898787Y-93795234D01*
X154597658Y-94494105D01*
X154597658Y-94494104D01*
X154657914Y-94411169D01*
X154657918Y-94411163D01*
X154765102Y-94200802D01*
X154838065Y-93976247D01*
X154875000Y-93743052D01*
X154875000Y-93506947D01*
X154838065Y-93273752D01*
X154765102Y-93049197D01*
X154657914Y-92838828D01*
X154597658Y-92755894D01*
X154597658Y-92755893D01*
X153898787Y-93454765D01*
X153887518Y-93412708D01*
X153815110Y-93287292D01*
X153712708Y-93184890D01*
X153587292Y-93112482D01*
X153545234Y-93101212D01*
X154244105Y-92402340D01*
X154244104Y-92402338D01*
X154161174Y-92342087D01*
X153950802Y-92234897D01*
X153726247Y-92161934D01*
X153726248Y-92161934D01*
X153493052Y-92125000D01*
X153256948Y-92125000D01*
X153023752Y-92161934D01*
X152799197Y-92234897D01*
X152588830Y-92342084D01*
X152505894Y-92402340D01*
X153204766Y-93101212D01*
X153162708Y-93112482D01*
X153037292Y-93184890D01*
X152934890Y-93287292D01*
X152862482Y-93412708D01*
X152851212Y-93454766D01*
X152152340Y-92755894D01*
X152092084Y-92838830D01*
X151984897Y-93049197D01*
X151911934Y-93273752D01*
X151875000Y-93506947D01*
X150875500Y-93506947D01*
X150875500Y-93493886D01*
X150875499Y-93493872D01*
X150848301Y-93287292D01*
X150841270Y-93233884D01*
X150773398Y-92980581D01*
X150773394Y-92980571D01*
X150673046Y-92738309D01*
X150673041Y-92738299D01*
X150542156Y-92511599D01*
X150542154Y-92511594D01*
X150542150Y-92511589D01*
X150541924Y-92511197D01*
X150382282Y-92303149D01*
X150382281Y-92303148D01*
X150382274Y-92303140D01*
X150196860Y-92117726D01*
X150196851Y-92117718D01*
X149988803Y-91958075D01*
X149761700Y-91826958D01*
X149761690Y-91826953D01*
X149519428Y-91726605D01*
X149519421Y-91726603D01*
X149519419Y-91726602D01*
X149266116Y-91658730D01*
X149208339Y-91651123D01*
X149006127Y-91624500D01*
X149006120Y-91624500D01*
X148743880Y-91624500D01*
X148743872Y-91624500D01*
X148512772Y-91654926D01*
X148483884Y-91658730D01*
X148230581Y-91726602D01*
X148230571Y-91726605D01*
X147988309Y-91826953D01*
X147988299Y-91826958D01*
X147761196Y-91958075D01*
X147553148Y-92117718D01*
X147367718Y-92303148D01*
X147208075Y-92511196D01*
X147076958Y-92738299D01*
X147076953Y-92738309D01*
X146976605Y-92980571D01*
X146976602Y-92980581D01*
X146929066Y-93157991D01*
X146908730Y-93233885D01*
X146874500Y-93493872D01*
X146874500Y-97875500D01*
X146854815Y-97942539D01*
X146802011Y-97988294D01*
X146750500Y-97999500D01*
X144543872Y-97999500D01*
X144312772Y-98029926D01*
X144283884Y-98033730D01*
X144030581Y-98101602D01*
X144030571Y-98101605D01*
X143788309Y-98201953D01*
X143788299Y-98201958D01*
X143561198Y-98333074D01*
X143549985Y-98341679D01*
X143484816Y-98366872D01*
X143416371Y-98352833D01*
X143366382Y-98304018D01*
X143350500Y-98243302D01*
X143350500Y-82887514D01*
X143370185Y-82820475D01*
X143422989Y-82774720D01*
X143492147Y-82764776D01*
X143549987Y-82789139D01*
X143586196Y-82816924D01*
X143813299Y-82948041D01*
X143813309Y-82948046D01*
X144055571Y-83048394D01*
X144055581Y-83048398D01*
X144308884Y-83116270D01*
X144568880Y-83150500D01*
X146750500Y-83150500D01*
X146817539Y-83170185D01*
X146863294Y-83222989D01*
X146874500Y-83274500D01*
X146874500Y-87681127D01*
X146886909Y-87775375D01*
X146908730Y-87941116D01*
X146976602Y-88194418D01*
X146976605Y-88194428D01*
X147076953Y-88436690D01*
X147076958Y-88436700D01*
X147208075Y-88663803D01*
X147367718Y-88871851D01*
X147367726Y-88871860D01*
X147553140Y-89057274D01*
X147553148Y-89057281D01*
X147761196Y-89216924D01*
X147988299Y-89348041D01*
X147988309Y-89348046D01*
X148230571Y-89448394D01*
X148230581Y-89448398D01*
X148483884Y-89516270D01*
X148743880Y-89550500D01*
X148743887Y-89550500D01*
X149006113Y-89550500D01*
X149006120Y-89550500D01*
X149266116Y-89516270D01*
X149519419Y-89448398D01*
X149761697Y-89348043D01*
X149988803Y-89216924D01*
X150196851Y-89057282D01*
X150196855Y-89057277D01*
X150196860Y-89057274D01*
X150382274Y-88871860D01*
X150382277Y-88871855D01*
X150382282Y-88871851D01*
X150541924Y-88663803D01*
X150541967Y-88663727D01*
X150542162Y-88663392D01*
X150542162Y-88663391D01*
X150628760Y-88513397D01*
X150673043Y-88436697D01*
X150773398Y-88194419D01*
X150841270Y-87941116D01*
X150875500Y-87681120D01*
X150875500Y-87431947D01*
X151875000Y-87431947D01*
X151875000Y-87668052D01*
X151911934Y-87901247D01*
X151984897Y-88125802D01*
X152092087Y-88336174D01*
X152152338Y-88419104D01*
X152152340Y-88419105D01*
X152851212Y-87720233D01*
X152862482Y-87762292D01*
X152934890Y-87887708D01*
X153037292Y-87990110D01*
X153162708Y-88062518D01*
X153204765Y-88073787D01*
X152505893Y-88772658D01*
X152588828Y-88832914D01*
X152799197Y-88940102D01*
X153023752Y-89013065D01*
X153023751Y-89013065D01*
X153256948Y-89050000D01*
X153493052Y-89050000D01*
X153726247Y-89013065D01*
X153950802Y-88940102D01*
X154161163Y-88832918D01*
X154161169Y-88832914D01*
X154244104Y-88772658D01*
X154244105Y-88772658D01*
X153545233Y-88073787D01*
X153587292Y-88062518D01*
X153712708Y-87990110D01*
X153815110Y-87887708D01*
X153887518Y-87762292D01*
X153898787Y-87720234D01*
X154597658Y-88419105D01*
X154597658Y-88419104D01*
X154657914Y-88336169D01*
X154657918Y-88336163D01*
X154765102Y-88125802D01*
X154838065Y-87901247D01*
X154875000Y-87668052D01*
X154875000Y-87431947D01*
X154838065Y-87198752D01*
X154765102Y-86974197D01*
X154657914Y-86763828D01*
X154597658Y-86680894D01*
X154597658Y-86680893D01*
X153898787Y-87379765D01*
X153887518Y-87337708D01*
X153815110Y-87212292D01*
X153712708Y-87109890D01*
X153587292Y-87037482D01*
X153545234Y-87026212D01*
X154244105Y-86327340D01*
X154244104Y-86327338D01*
X154161174Y-86267087D01*
X153950802Y-86159897D01*
X153726247Y-86086934D01*
X153726248Y-86086934D01*
X153493052Y-86050000D01*
X153256948Y-86050000D01*
X153023752Y-86086934D01*
X152799197Y-86159897D01*
X152588830Y-86267084D01*
X152505894Y-86327340D01*
X153204766Y-87026212D01*
X153162708Y-87037482D01*
X153037292Y-87109890D01*
X152934890Y-87212292D01*
X152862482Y-87337708D01*
X152851212Y-87379766D01*
X152152340Y-86680894D01*
X152092084Y-86763830D01*
X151984897Y-86974197D01*
X151911934Y-87198752D01*
X151875000Y-87431947D01*
X150875500Y-87431947D01*
X150875500Y-80931947D01*
X151875000Y-80931947D01*
X151875000Y-81168052D01*
X151911934Y-81401247D01*
X151984897Y-81625802D01*
X152092087Y-81836174D01*
X152152338Y-81919104D01*
X152152340Y-81919105D01*
X152851212Y-81220233D01*
X152862482Y-81262292D01*
X152934890Y-81387708D01*
X153037292Y-81490110D01*
X153162708Y-81562518D01*
X153204765Y-81573787D01*
X152505893Y-82272658D01*
X152588828Y-82332914D01*
X152799197Y-82440102D01*
X153023752Y-82513065D01*
X153023751Y-82513065D01*
X153256948Y-82550000D01*
X153493052Y-82550000D01*
X153726247Y-82513065D01*
X153950802Y-82440102D01*
X154161163Y-82332918D01*
X154161169Y-82332914D01*
X154244104Y-82272658D01*
X154244105Y-82272658D01*
X153545233Y-81573787D01*
X153587292Y-81562518D01*
X153712708Y-81490110D01*
X153815110Y-81387708D01*
X153887518Y-81262292D01*
X153898787Y-81220234D01*
X154597658Y-81919105D01*
X154597658Y-81919104D01*
X154657914Y-81836169D01*
X154657918Y-81836163D01*
X154765102Y-81625802D01*
X154838065Y-81401247D01*
X154875000Y-81168052D01*
X154875000Y-80931947D01*
X154838065Y-80698752D01*
X154765102Y-80474197D01*
X154657914Y-80263828D01*
X154597658Y-80180894D01*
X154597658Y-80180893D01*
X153898787Y-80879765D01*
X153887518Y-80837708D01*
X153815110Y-80712292D01*
X153712708Y-80609890D01*
X153587292Y-80537482D01*
X153545234Y-80526212D01*
X154244105Y-79827340D01*
X154244104Y-79827338D01*
X154161174Y-79767087D01*
X153950802Y-79659897D01*
X153726247Y-79586934D01*
X153726248Y-79586934D01*
X153493052Y-79550000D01*
X153256948Y-79550000D01*
X153023752Y-79586934D01*
X152799197Y-79659897D01*
X152588830Y-79767084D01*
X152505894Y-79827340D01*
X153204766Y-80526212D01*
X153162708Y-80537482D01*
X153037292Y-80609890D01*
X152934890Y-80712292D01*
X152862482Y-80837708D01*
X152851212Y-80879766D01*
X152152340Y-80180894D01*
X152092084Y-80263830D01*
X151984897Y-80474197D01*
X151911934Y-80698752D01*
X151875000Y-80931947D01*
X150875500Y-80931947D01*
X150875500Y-80918880D01*
X150844962Y-80686924D01*
X150841271Y-80658885D01*
X150773398Y-80405581D01*
X150704851Y-80240094D01*
X150673048Y-80163314D01*
X150673041Y-80163299D01*
X150653475Y-80129410D01*
X150546049Y-79943342D01*
X150541924Y-79936197D01*
X150427860Y-79787547D01*
X150382283Y-79728149D01*
X150382280Y-79728146D01*
X150382276Y-79728141D01*
X150196856Y-79542721D01*
X150196849Y-79542715D01*
X150085238Y-79457074D01*
X150085237Y-79457073D01*
X149988803Y-79383075D01*
X149761700Y-79251958D01*
X149761685Y-79251951D01*
X149519419Y-79151602D01*
X149511574Y-79149500D01*
X149492843Y-79144481D01*
X149492840Y-79144480D01*
X149266113Y-79083728D01*
X149153232Y-79068868D01*
X149006127Y-79049500D01*
X149006120Y-79049500D01*
X148743880Y-79049500D01*
X148743872Y-79049500D01*
X148613882Y-79066615D01*
X148613881Y-79066615D01*
X148483887Y-79083728D01*
X148257157Y-79144481D01*
X148257156Y-79144480D01*
X148254196Y-79145274D01*
X148222100Y-79149500D01*
X144568872Y-79149500D01*
X144337772Y-79179926D01*
X144308884Y-79183730D01*
X144082620Y-79244357D01*
X144055581Y-79251602D01*
X144055571Y-79251605D01*
X143813309Y-79351953D01*
X143813299Y-79351958D01*
X143586197Y-79483075D01*
X143549986Y-79510861D01*
X143484816Y-79536055D01*
X143416372Y-79522016D01*
X143366382Y-79473202D01*
X143350500Y-79412485D01*
X143350500Y-69437514D01*
X143370185Y-69370475D01*
X143422989Y-69324720D01*
X143492147Y-69314776D01*
X143549987Y-69339139D01*
X143586196Y-69366924D01*
X143813299Y-69498041D01*
X143813309Y-69498046D01*
X144041595Y-69592605D01*
X144055581Y-69598398D01*
X144308884Y-69666270D01*
X144568880Y-69700500D01*
X146825500Y-69700500D01*
X146892539Y-69720185D01*
X146938294Y-69772989D01*
X146949500Y-69824500D01*
X146949500Y-74431127D01*
X146965692Y-74554111D01*
X146983730Y-74691116D01*
X147051602Y-74944418D01*
X147051605Y-74944428D01*
X147151953Y-75186690D01*
X147151958Y-75186700D01*
X147283075Y-75413803D01*
X147442718Y-75621851D01*
X147442726Y-75621860D01*
X147628140Y-75807274D01*
X147628148Y-75807281D01*
X147836196Y-75966924D01*
X148063299Y-76098041D01*
X148063309Y-76098046D01*
X148305571Y-76198394D01*
X148305581Y-76198398D01*
X148558884Y-76266270D01*
X148818880Y-76300500D01*
X148818887Y-76300500D01*
X149081113Y-76300500D01*
X149081120Y-76300500D01*
X149341116Y-76266270D01*
X149594419Y-76198398D01*
X149836697Y-76098043D01*
X150063803Y-75966924D01*
X150271851Y-75807282D01*
X150271855Y-75807277D01*
X150271860Y-75807274D01*
X150457274Y-75621860D01*
X150457277Y-75621855D01*
X150457282Y-75621851D01*
X150616924Y-75413803D01*
X150616967Y-75413727D01*
X150617162Y-75413392D01*
X150617162Y-75413391D01*
X150748041Y-75186700D01*
X150748046Y-75186690D01*
X150810556Y-75035777D01*
X150848398Y-74944419D01*
X150916270Y-74691116D01*
X150950500Y-74431120D01*
X150950500Y-74181947D01*
X151950000Y-74181947D01*
X151950000Y-74418052D01*
X151986934Y-74651247D01*
X152059897Y-74875802D01*
X152167087Y-75086174D01*
X152227338Y-75169104D01*
X152227340Y-75169105D01*
X152926212Y-74470233D01*
X152937482Y-74512292D01*
X153009890Y-74637708D01*
X153112292Y-74740110D01*
X153237708Y-74812518D01*
X153279765Y-74823787D01*
X152580893Y-75522658D01*
X152663828Y-75582914D01*
X152874197Y-75690102D01*
X153098752Y-75763065D01*
X153098751Y-75763065D01*
X153331948Y-75800000D01*
X153568052Y-75800000D01*
X153801247Y-75763065D01*
X154025802Y-75690102D01*
X154236163Y-75582918D01*
X154236169Y-75582914D01*
X154319104Y-75522658D01*
X154319105Y-75522658D01*
X153620233Y-74823787D01*
X153662292Y-74812518D01*
X153787708Y-74740110D01*
X153890110Y-74637708D01*
X153962518Y-74512292D01*
X153973787Y-74470234D01*
X154672658Y-75169105D01*
X154672658Y-75169104D01*
X154732914Y-75086169D01*
X154732918Y-75086163D01*
X154840102Y-74875802D01*
X154913065Y-74651247D01*
X154950000Y-74418052D01*
X154950000Y-74181947D01*
X154913065Y-73948752D01*
X154840102Y-73724197D01*
X154732914Y-73513828D01*
X154672658Y-73430894D01*
X154672658Y-73430893D01*
X153973787Y-74129765D01*
X153962518Y-74087708D01*
X153890110Y-73962292D01*
X153787708Y-73859890D01*
X153662292Y-73787482D01*
X153620234Y-73776212D01*
X154319105Y-73077340D01*
X154319104Y-73077338D01*
X154236174Y-73017087D01*
X154025802Y-72909897D01*
X153801247Y-72836934D01*
X153801248Y-72836934D01*
X153568052Y-72800000D01*
X153331948Y-72800000D01*
X153098752Y-72836934D01*
X152874197Y-72909897D01*
X152663830Y-73017084D01*
X152580894Y-73077340D01*
X153279766Y-73776212D01*
X153237708Y-73787482D01*
X153112292Y-73859890D01*
X153009890Y-73962292D01*
X152937482Y-74087708D01*
X152926212Y-74129766D01*
X152227340Y-73430894D01*
X152167084Y-73513830D01*
X152059897Y-73724197D01*
X151986934Y-73948752D01*
X151950000Y-74181947D01*
X150950500Y-74181947D01*
X150950500Y-67681947D01*
X151950000Y-67681947D01*
X151950000Y-67918052D01*
X151986934Y-68151247D01*
X152059897Y-68375802D01*
X152167087Y-68586174D01*
X152227338Y-68669104D01*
X152227340Y-68669105D01*
X152926212Y-67970233D01*
X152937482Y-68012292D01*
X153009890Y-68137708D01*
X153112292Y-68240110D01*
X153237708Y-68312518D01*
X153279765Y-68323787D01*
X152580893Y-69022658D01*
X152663828Y-69082914D01*
X152874197Y-69190102D01*
X153098752Y-69263065D01*
X153098751Y-69263065D01*
X153331948Y-69300000D01*
X153568052Y-69300000D01*
X153801247Y-69263065D01*
X154025802Y-69190102D01*
X154236163Y-69082918D01*
X154236169Y-69082914D01*
X154319104Y-69022658D01*
X154319105Y-69022658D01*
X153620233Y-68323787D01*
X153662292Y-68312518D01*
X153787708Y-68240110D01*
X153890110Y-68137708D01*
X153962518Y-68012292D01*
X153973787Y-67970234D01*
X154672658Y-68669105D01*
X154672658Y-68669104D01*
X154732914Y-68586169D01*
X154732918Y-68586163D01*
X154840102Y-68375802D01*
X154913065Y-68151247D01*
X154950000Y-67918052D01*
X154950000Y-67681947D01*
X154913065Y-67448752D01*
X154840102Y-67224197D01*
X154732914Y-67013828D01*
X154672658Y-66930894D01*
X154672658Y-66930893D01*
X153973787Y-67629765D01*
X153962518Y-67587708D01*
X153890110Y-67462292D01*
X153787708Y-67359890D01*
X153662292Y-67287482D01*
X153620234Y-67276212D01*
X154319105Y-66577340D01*
X154319104Y-66577338D01*
X154236174Y-66517087D01*
X154025802Y-66409897D01*
X153801247Y-66336934D01*
X153801248Y-66336934D01*
X153568052Y-66300000D01*
X153331948Y-66300000D01*
X153098752Y-66336934D01*
X152874197Y-66409897D01*
X152663830Y-66517084D01*
X152580894Y-66577340D01*
X153279766Y-67276212D01*
X153237708Y-67287482D01*
X153112292Y-67359890D01*
X153009890Y-67462292D01*
X152937482Y-67587708D01*
X152926212Y-67629766D01*
X152227340Y-66930894D01*
X152167084Y-67013830D01*
X152059897Y-67224197D01*
X151986934Y-67448752D01*
X151950000Y-67681947D01*
X150950500Y-67681947D01*
X150950500Y-67668880D01*
X150923792Y-67466015D01*
X150916271Y-67408884D01*
X150848398Y-67155581D01*
X150748043Y-66913303D01*
X150727951Y-66878502D01*
X150616924Y-66686197D01*
X150512032Y-66549500D01*
X150457283Y-66478148D01*
X150457281Y-66478146D01*
X150457278Y-66478142D01*
X150457276Y-66478140D01*
X150171856Y-66192721D01*
X150171849Y-66192715D01*
X150017787Y-66074500D01*
X150017786Y-66074499D01*
X149963813Y-66033083D01*
X149963807Y-66033079D01*
X149963803Y-66033076D01*
X149936892Y-66017539D01*
X149736700Y-65901958D01*
X149736690Y-65901953D01*
X149494428Y-65801605D01*
X149494417Y-65801601D01*
X149486570Y-65799499D01*
X149486569Y-65799498D01*
X149265189Y-65740179D01*
X149241116Y-65733729D01*
X149241115Y-65733728D01*
X149241112Y-65733728D01*
X149111118Y-65716615D01*
X148981127Y-65699500D01*
X148981120Y-65699500D01*
X144568880Y-65699500D01*
X144568872Y-65699500D01*
X144337772Y-65729926D01*
X144308884Y-65733730D01*
X144136500Y-65779920D01*
X144055581Y-65801602D01*
X144055571Y-65801605D01*
X143813309Y-65901953D01*
X143813299Y-65901958D01*
X143586196Y-66033075D01*
X143378148Y-66192718D01*
X143378139Y-66192726D01*
X143206643Y-66364222D01*
X143145320Y-66397707D01*
X143075628Y-66392723D01*
X143019695Y-66350851D01*
X143017056Y-66347189D01*
X142963819Y-66270346D01*
X142804654Y-66111181D01*
X142804650Y-66111178D01*
X142804645Y-66111174D01*
X142619632Y-65982997D01*
X142619630Y-65982995D01*
X142619626Y-65982993D01*
X142537315Y-65945606D01*
X142414681Y-65889903D01*
X142414678Y-65889902D01*
X142196420Y-65834905D01*
X142196413Y-65834904D01*
X142152347Y-65831436D01*
X142064217Y-65824500D01*
X142064215Y-65824500D01*
X141135791Y-65824500D01*
X141135776Y-65824501D01*
X141003586Y-65834904D01*
X141003579Y-65834905D01*
X140785321Y-65889902D01*
X140785318Y-65889903D01*
X140580377Y-65982991D01*
X140580367Y-65982997D01*
X140395354Y-66111174D01*
X140395342Y-66111184D01*
X140236184Y-66270342D01*
X140236174Y-66270354D01*
X140107997Y-66455367D01*
X140107991Y-66455377D01*
X140014903Y-66660318D01*
X140014902Y-66660321D01*
X139959905Y-66878579D01*
X139959904Y-66878586D01*
X139949500Y-67010777D01*
X139949500Y-67085716D01*
X139940062Y-67133166D01*
X139938847Y-67136098D01*
X139938842Y-67136113D01*
X139901654Y-67274904D01*
X139879453Y-67357759D01*
X139879451Y-67357770D01*
X139849500Y-67585258D01*
X139849500Y-98125500D01*
X139829815Y-98192539D01*
X139777011Y-98238294D01*
X139725500Y-98249500D01*
X101837341Y-98249500D01*
X101770302Y-98229815D01*
X101724547Y-98177011D01*
X101724442Y-98176781D01*
X101692008Y-98105376D01*
X101692003Y-98105366D01*
X101563825Y-97920354D01*
X101563822Y-97920350D01*
X101563819Y-97920346D01*
X101404654Y-97761181D01*
X101404650Y-97761178D01*
X101404645Y-97761174D01*
X101219632Y-97632997D01*
X101219630Y-97632995D01*
X101219626Y-97632993D01*
X101014683Y-97539904D01*
X101014681Y-97539903D01*
X101014678Y-97539902D01*
X100796420Y-97484905D01*
X100796413Y-97484904D01*
X100664222Y-97474500D01*
X100664217Y-97474500D01*
X100523337Y-97474500D01*
X100491244Y-97470275D01*
X100488352Y-97469500D01*
X100299035Y-97418773D01*
X100239376Y-97382409D01*
X100208847Y-97319562D01*
X100217142Y-97250187D01*
X100261627Y-97196309D01*
X100328179Y-97175034D01*
X100331130Y-97174999D01*
X100649971Y-97174999D01*
X100649987Y-97174998D01*
X100752697Y-97164505D01*
X100919119Y-97109358D01*
X100919124Y-97109356D01*
X101068345Y-97017315D01*
X101192315Y-96893345D01*
X101284356Y-96744124D01*
X101284358Y-96744119D01*
X101339505Y-96577697D01*
X101339506Y-96577690D01*
X101349999Y-96474986D01*
X101350000Y-96474973D01*
X101350000Y-96262500D01*
X100074000Y-96262500D01*
X100006961Y-96242815D01*
X99961206Y-96190011D01*
X99950000Y-96138500D01*
X99950000Y-96012500D01*
X99824000Y-96012500D01*
X99756961Y-95992815D01*
X99711206Y-95940011D01*
X99700000Y-95888500D01*
X99700000Y-95762500D01*
X100200000Y-95762500D01*
X101349999Y-95762500D01*
X101349999Y-95550028D01*
X101349998Y-95550013D01*
X101339505Y-95447302D01*
X101284358Y-95280880D01*
X101284356Y-95280875D01*
X101192315Y-95131654D01*
X101068345Y-95007684D01*
X100919124Y-94915643D01*
X100919119Y-94915641D01*
X100752697Y-94860494D01*
X100752690Y-94860493D01*
X100649986Y-94850000D01*
X100200000Y-94850000D01*
X100200000Y-95762500D01*
X99700000Y-95762500D01*
X99700000Y-94850000D01*
X99250028Y-94850000D01*
X99250012Y-94850001D01*
X99147302Y-94860494D01*
X98980880Y-94915641D01*
X98980875Y-94915643D01*
X98831654Y-95007684D01*
X98707684Y-95131654D01*
X98615643Y-95280875D01*
X98615641Y-95280880D01*
X98560494Y-95447302D01*
X98560493Y-95447309D01*
X98550000Y-95550013D01*
X98550000Y-95681563D01*
X98530315Y-95748602D01*
X98477511Y-95794357D01*
X98408353Y-95804301D01*
X98393378Y-95801195D01*
X98383777Y-95798577D01*
X98364683Y-95789904D01*
X98197250Y-95747714D01*
X98196084Y-95747396D01*
X98181366Y-95738335D01*
X98141025Y-95715445D01*
X97761819Y-95336238D01*
X97728334Y-95274915D01*
X97725500Y-95248557D01*
X97725500Y-93094335D01*
X97745185Y-93027296D01*
X97761819Y-93006654D01*
X97787902Y-92980571D01*
X97888819Y-92879654D01*
X98017007Y-92694626D01*
X98110096Y-92489683D01*
X98165096Y-92271412D01*
X98175500Y-92139217D01*
X98175499Y-91998338D01*
X98179724Y-91966244D01*
X98184779Y-91947378D01*
X98231227Y-91774035D01*
X98267590Y-91714380D01*
X98330437Y-91683851D01*
X98399813Y-91692146D01*
X98453691Y-91736631D01*
X98474965Y-91803183D01*
X98475000Y-91806134D01*
X98475000Y-92124970D01*
X98475001Y-92124987D01*
X98485494Y-92227697D01*
X98540641Y-92394119D01*
X98540643Y-92394124D01*
X98632684Y-92543345D01*
X98756654Y-92667315D01*
X98905875Y-92759356D01*
X98905880Y-92759358D01*
X99072302Y-92814505D01*
X99072309Y-92814506D01*
X99175019Y-92824999D01*
X99387499Y-92824999D01*
X99887500Y-92824999D01*
X100099972Y-92824999D01*
X100099986Y-92824998D01*
X100202697Y-92814505D01*
X100369119Y-92759358D01*
X100369124Y-92759356D01*
X100518345Y-92667315D01*
X100642315Y-92543345D01*
X100734356Y-92394124D01*
X100734358Y-92394119D01*
X100789505Y-92227697D01*
X100789506Y-92227690D01*
X100799999Y-92124986D01*
X100800000Y-92124973D01*
X100800000Y-91675000D01*
X99887500Y-91675000D01*
X99887500Y-92824999D01*
X99387499Y-92824999D01*
X99387500Y-92824998D01*
X99387500Y-91175000D01*
X99887500Y-91175000D01*
X100799999Y-91175000D01*
X100799999Y-90725028D01*
X100799998Y-90725013D01*
X100789505Y-90622302D01*
X100734358Y-90455880D01*
X100734356Y-90455875D01*
X100642315Y-90306654D01*
X100518345Y-90182684D01*
X100369124Y-90090643D01*
X100369119Y-90090641D01*
X100202697Y-90035494D01*
X100202690Y-90035493D01*
X100099986Y-90025000D01*
X99887500Y-90025000D01*
X99887500Y-91175000D01*
X99387500Y-91175000D01*
X99387500Y-90090030D01*
X99389342Y-90081048D01*
X99388377Y-90075309D01*
X99397511Y-90041220D01*
X99427930Y-89970185D01*
X99472414Y-89916309D01*
X99538966Y-89895035D01*
X99541917Y-89895000D01*
X99560739Y-89895000D01*
X99560739Y-89894999D01*
X99574099Y-89877588D01*
X99574099Y-89877587D01*
X99634554Y-89731634D01*
X99634555Y-89731630D01*
X99649999Y-89614330D01*
X99650000Y-89614316D01*
X99650000Y-89137500D01*
X99624500Y-89137500D01*
X99615814Y-89134949D01*
X99606853Y-89136238D01*
X99582812Y-89125259D01*
X99557461Y-89117815D01*
X99551533Y-89110974D01*
X99543297Y-89107213D01*
X99529007Y-89084978D01*
X99511706Y-89065011D01*
X99509418Y-89054496D01*
X99505523Y-89048435D01*
X99500500Y-89013500D01*
X99500500Y-88861500D01*
X99520185Y-88794461D01*
X99572989Y-88748706D01*
X99624500Y-88737500D01*
X99649999Y-88737500D01*
X99649999Y-88260675D01*
X99634557Y-88143371D01*
X99634555Y-88143366D01*
X99574100Y-87997414D01*
X99477921Y-87872071D01*
X99408314Y-87818659D01*
X99374219Y-87774770D01*
X99373113Y-87775375D01*
X99370284Y-87770195D01*
X99364935Y-87762292D01*
X99252477Y-87596135D01*
X99103865Y-87447523D01*
X98929813Y-87329721D01*
X98929811Y-87329720D01*
X98929808Y-87329718D01*
X98736613Y-87246987D01*
X98736602Y-87246984D01*
X98531250Y-87202312D01*
X98516492Y-87201433D01*
X98484038Y-87199500D01*
X98115962Y-87199500D01*
X98081343Y-87201562D01*
X98068751Y-87202312D01*
X98068750Y-87202312D01*
X98001358Y-87216973D01*
X97948642Y-87216973D01*
X97881249Y-87202312D01*
X97868656Y-87201562D01*
X97834038Y-87199500D01*
X97834027Y-87199500D01*
X97674500Y-87199500D01*
X97607461Y-87179815D01*
X97561706Y-87127011D01*
X97550500Y-87075500D01*
X97550500Y-85074500D01*
X97570185Y-85007461D01*
X97622989Y-84961706D01*
X97674500Y-84950500D01*
X97834027Y-84950500D01*
X97834038Y-84950500D01*
X97881245Y-84947688D01*
X97948642Y-84933026D01*
X98001358Y-84933026D01*
X98068755Y-84947688D01*
X98115962Y-84950500D01*
X98115973Y-84950500D01*
X98484027Y-84950500D01*
X98484038Y-84950500D01*
X98531245Y-84947688D01*
X98598642Y-84933026D01*
X98651358Y-84933026D01*
X98718755Y-84947688D01*
X98765962Y-84950500D01*
X98765973Y-84950500D01*
X99134027Y-84950500D01*
X99134038Y-84950500D01*
X99181245Y-84947688D01*
X99386612Y-84903013D01*
X99579813Y-84820279D01*
X99753865Y-84702477D01*
X99902477Y-84553865D01*
X99963559Y-84463615D01*
X100017437Y-84419130D01*
X100046852Y-84410645D01*
X100086834Y-84404312D01*
X100218618Y-84383440D01*
X100398332Y-84325047D01*
X100566699Y-84239260D01*
X100719574Y-84128190D01*
X103010944Y-81836818D01*
X103072267Y-81803334D01*
X103098625Y-81800500D01*
X107644486Y-81800500D01*
X107831118Y-81770940D01*
X108010832Y-81712547D01*
X108179199Y-81626760D01*
X108332074Y-81515690D01*
X109560945Y-80286817D01*
X109622268Y-80253333D01*
X109648626Y-80250499D01*
X110239208Y-80250499D01*
X110239216Y-80250499D01*
X110371412Y-80240096D01*
X110589683Y-80185096D01*
X110794626Y-80092007D01*
X110979654Y-79963819D01*
X111138819Y-79804654D01*
X111267007Y-79619626D01*
X111360096Y-79414683D01*
X111415096Y-79196412D01*
X111425500Y-79064217D01*
X111425499Y-78135784D01*
X111415096Y-78003588D01*
X111360096Y-77785317D01*
X111267007Y-77580374D01*
X111202631Y-77487453D01*
X111138825Y-77395354D01*
X111138822Y-77395350D01*
X111138819Y-77395346D01*
X110979654Y-77236181D01*
X110858039Y-77151926D01*
X110814146Y-77097570D01*
X110806606Y-77028108D01*
X110837817Y-76965597D01*
X110858035Y-76948076D01*
X110979654Y-76863819D01*
X111138819Y-76704654D01*
X111267007Y-76519626D01*
X111360096Y-76314683D01*
X111415096Y-76096412D01*
X111425500Y-75964217D01*
X111425499Y-75035784D01*
X111415096Y-74903588D01*
X111408094Y-74875802D01*
X111360098Y-74685324D01*
X111360097Y-74685322D01*
X111360096Y-74685317D01*
X111311599Y-74578547D01*
X111300500Y-74527269D01*
X111300500Y-62551442D01*
X111320185Y-62484403D01*
X111336819Y-62463761D01*
X112948914Y-60851666D01*
X112948919Y-60851661D01*
X113006332Y-60776839D01*
X113088611Y-60669612D01*
X113203344Y-60470888D01*
X113291158Y-60258887D01*
X113306803Y-60200500D01*
X113350548Y-60037239D01*
X113350548Y-60037234D01*
X113350550Y-60037229D01*
X113354032Y-60010777D01*
X113354032Y-60010769D01*
X113357210Y-59986626D01*
X113385476Y-59922731D01*
X113443800Y-59884259D01*
X113513664Y-59883427D01*
X113536444Y-59892327D01*
X113651782Y-59951095D01*
X113853870Y-60016757D01*
X114063754Y-60050000D01*
X114276246Y-60050000D01*
X114486127Y-60016757D01*
X114486130Y-60016757D01*
X114688217Y-59951095D01*
X114877554Y-59854622D01*
X114931716Y-59815270D01*
X114931717Y-59815270D01*
X114299409Y-59182962D01*
X114362993Y-59165925D01*
X114477007Y-59100099D01*
X114570099Y-59007007D01*
X114635925Y-58892993D01*
X114652962Y-58829409D01*
X115285270Y-59461717D01*
X115285270Y-59461716D01*
X115324622Y-59407554D01*
X115421095Y-59218217D01*
X115486757Y-59016130D01*
X115486757Y-59016127D01*
X115520000Y-58806246D01*
X115520000Y-58593753D01*
X115486757Y-58383872D01*
X115486757Y-58383869D01*
X115421095Y-58181782D01*
X115324624Y-57992449D01*
X115285270Y-57938282D01*
X115285269Y-57938282D01*
X114652962Y-58570590D01*
X114635925Y-58507007D01*
X114570099Y-58392993D01*
X114477007Y-58299901D01*
X114362993Y-58234075D01*
X114299407Y-58217036D01*
X114931716Y-57584728D01*
X114877550Y-57545375D01*
X114688217Y-57448904D01*
X114486129Y-57383242D01*
X114276246Y-57350000D01*
X114063754Y-57350000D01*
X113853872Y-57383242D01*
X113853869Y-57383242D01*
X113651782Y-57448904D01*
X113462446Y-57545376D01*
X113312391Y-57654397D01*
X113246584Y-57677876D01*
X113178530Y-57662050D01*
X113141130Y-57629564D01*
X113024266Y-57477263D01*
X113024260Y-57477256D01*
X112852743Y-57305739D01*
X112852736Y-57305733D01*
X112660293Y-57158067D01*
X112660292Y-57158066D01*
X112660289Y-57158064D01*
X112476917Y-57052194D01*
X112450214Y-57036777D01*
X112450205Y-57036773D01*
X112226104Y-56943947D01*
X111991785Y-56881161D01*
X111751289Y-56849500D01*
X111751288Y-56849500D01*
X111508712Y-56849500D01*
X111508711Y-56849500D01*
X111268214Y-56881161D01*
X111033895Y-56943947D01*
X110809794Y-57036773D01*
X110809785Y-57036777D01*
X110643570Y-57132742D01*
X110603801Y-57155703D01*
X110599706Y-57158067D01*
X110435486Y-57284077D01*
X110370317Y-57309271D01*
X110301872Y-57295232D01*
X110284514Y-57284077D01*
X110120293Y-57158067D01*
X110120292Y-57158066D01*
X110120289Y-57158064D01*
X109936917Y-57052194D01*
X109910214Y-57036777D01*
X109910205Y-57036773D01*
X109686104Y-56943947D01*
X109451785Y-56881161D01*
X109211289Y-56849500D01*
X109211288Y-56849500D01*
X108968712Y-56849500D01*
X108968711Y-56849500D01*
X108728214Y-56881161D01*
X108493895Y-56943947D01*
X108269794Y-57036773D01*
X108269789Y-57036775D01*
X108177640Y-57089977D01*
X108109740Y-57106449D01*
X108043713Y-57083596D01*
X108037281Y-57078691D01*
X107953412Y-57010305D01*
X107953408Y-57010303D01*
X107953407Y-57010302D01*
X107773049Y-56916091D01*
X107773048Y-56916090D01*
X107773045Y-56916089D01*
X107655829Y-56882550D01*
X107577418Y-56860114D01*
X107577415Y-56860113D01*
X107577413Y-56860113D01*
X107504631Y-56853642D01*
X107458037Y-56849500D01*
X107458033Y-56849500D01*
X106751443Y-56849500D01*
X106684404Y-56829815D01*
X106663762Y-56813181D01*
X104123893Y-54273312D01*
X104104186Y-54247630D01*
X104075272Y-54197548D01*
X103931593Y-54010302D01*
X103931587Y-54010295D01*
X103764704Y-53843412D01*
X103764697Y-53843406D01*
X103577454Y-53699730D01*
X103577453Y-53699729D01*
X103577450Y-53699727D01*
X103456359Y-53629815D01*
X103373056Y-53581719D01*
X103373045Y-53581714D01*
X103154993Y-53491394D01*
X102927010Y-53430306D01*
X102693020Y-53399501D01*
X102693017Y-53399500D01*
X102693011Y-53399500D01*
X102456989Y-53399500D01*
X102456983Y-53399500D01*
X102456979Y-53399501D01*
X102222989Y-53430306D01*
X101995006Y-53491394D01*
X101776954Y-53581714D01*
X101776943Y-53581719D01*
X101572545Y-53699730D01*
X101385302Y-53843406D01*
X101385295Y-53843412D01*
X101218412Y-54010295D01*
X101218406Y-54010302D01*
X101074733Y-54197541D01*
X101074727Y-54197550D01*
X101045810Y-54247634D01*
X101026105Y-54273312D01*
X99306087Y-55993330D01*
X99257031Y-56057262D01*
X99166385Y-56175392D01*
X99076194Y-56331611D01*
X99076193Y-56331612D01*
X99051661Y-56374100D01*
X99051654Y-56374115D01*
X98963845Y-56586103D01*
X98963842Y-56586113D01*
X98915373Y-56767008D01*
X98911792Y-56780372D01*
X98911791Y-56780375D01*
X98904452Y-56807760D01*
X98874500Y-57035258D01*
X98874500Y-61901000D01*
X98854815Y-61968039D01*
X98802011Y-62013794D01*
X98750500Y-62025000D01*
X98575000Y-62025000D01*
X98575000Y-65025000D01*
X98750500Y-65025000D01*
X98817539Y-65044685D01*
X98863294Y-65097489D01*
X98874500Y-65149000D01*
X98874500Y-67766359D01*
X98854815Y-67833398D01*
X98802011Y-67879153D01*
X98795575Y-67881876D01*
X98563730Y-67972342D01*
X98350097Y-68099639D01*
X98160350Y-68260348D01*
X98160348Y-68260350D01*
X97999639Y-68450097D01*
X97872342Y-68663730D01*
X97781953Y-68895374D01*
X97781950Y-68895384D01*
X97730919Y-69138761D01*
X97730918Y-69138764D01*
X97724500Y-69242149D01*
X97724500Y-70407850D01*
X97730918Y-70511235D01*
X97730919Y-70511238D01*
X97781950Y-70754615D01*
X97781953Y-70754625D01*
X97863908Y-70964654D01*
X97872344Y-70986273D01*
X97954307Y-71123825D01*
X97999639Y-71199902D01*
X98160348Y-71389649D01*
X98160350Y-71389651D01*
X98350097Y-71550360D01*
X98350103Y-71550363D01*
X98350106Y-71550366D01*
X98563727Y-71677656D01*
X98568855Y-71679657D01*
X98795374Y-71768046D01*
X98795381Y-71768048D01*
X98795386Y-71768050D01*
X99038763Y-71819081D01*
X99142158Y-71825500D01*
X99300500Y-71825500D01*
X99367539Y-71845185D01*
X99413294Y-71897989D01*
X99424500Y-71949500D01*
X99424500Y-72701374D01*
X99404815Y-72768413D01*
X99388181Y-72789055D01*
X98185029Y-73992206D01*
X98123706Y-74025691D01*
X98054014Y-74020707D01*
X97998081Y-73978835D01*
X97974409Y-73920711D01*
X97966270Y-73858884D01*
X97898398Y-73605581D01*
X97898394Y-73605571D01*
X97798046Y-73363309D01*
X97798041Y-73363299D01*
X97666924Y-73136196D01*
X97507281Y-72928148D01*
X97507274Y-72928140D01*
X97321860Y-72742726D01*
X97321851Y-72742718D01*
X97113803Y-72583075D01*
X96886700Y-72451958D01*
X96886690Y-72451953D01*
X96644428Y-72351605D01*
X96644421Y-72351603D01*
X96644419Y-72351602D01*
X96391116Y-72283730D01*
X96329100Y-72275565D01*
X96147312Y-72251631D01*
X96083415Y-72223364D01*
X96044945Y-72165039D01*
X96044114Y-72095175D01*
X96081187Y-72035951D01*
X96112209Y-72015797D01*
X96219626Y-71967007D01*
X96404654Y-71838819D01*
X96563819Y-71679654D01*
X96692007Y-71494626D01*
X96785096Y-71289683D01*
X96840096Y-71071412D01*
X96850500Y-70939217D01*
X96850499Y-69510784D01*
X96840096Y-69378588D01*
X96826522Y-69324720D01*
X96785097Y-69160321D01*
X96785096Y-69160318D01*
X96777630Y-69143882D01*
X96704357Y-68982564D01*
X96691601Y-68954480D01*
X96680500Y-68903199D01*
X96680500Y-64226096D01*
X97075000Y-64226096D01*
X97077897Y-64268824D01*
X97123831Y-64453523D01*
X97208390Y-64624022D01*
X97208392Y-64624025D01*
X97327632Y-64772366D01*
X97327633Y-64772367D01*
X97475974Y-64891607D01*
X97475977Y-64891609D01*
X97646476Y-64976168D01*
X97831175Y-65022102D01*
X97873903Y-65025000D01*
X98075000Y-65025000D01*
X98075000Y-63775000D01*
X97075000Y-63775000D01*
X97075000Y-64226096D01*
X96680500Y-64226096D01*
X96680500Y-62823903D01*
X97075000Y-62823903D01*
X97075000Y-63275000D01*
X98075000Y-63275000D01*
X98075000Y-62025000D01*
X97873903Y-62025000D01*
X97831175Y-62027897D01*
X97646476Y-62073831D01*
X97475977Y-62158390D01*
X97475974Y-62158392D01*
X97327633Y-62277632D01*
X97327632Y-62277633D01*
X97208392Y-62425974D01*
X97208390Y-62425977D01*
X97123831Y-62596476D01*
X97077897Y-62781175D01*
X97075000Y-62823903D01*
X96680500Y-62823903D01*
X96680500Y-56627648D01*
X96648477Y-56425465D01*
X96642326Y-56406536D01*
X96640329Y-56336695D01*
X96676408Y-56276861D01*
X96739108Y-56246032D01*
X96808523Y-56253995D01*
X96833142Y-56267897D01*
X96893650Y-56311859D01*
X97075968Y-56404755D01*
X97270582Y-56467990D01*
X97472683Y-56500000D01*
X97677317Y-56500000D01*
X97879417Y-56467990D01*
X98074031Y-56404755D01*
X98256349Y-56311859D01*
X98300921Y-56279474D01*
X97621446Y-55600000D01*
X97627661Y-55600000D01*
X97729394Y-55572741D01*
X97820606Y-55520080D01*
X97895080Y-55445606D01*
X97947741Y-55354394D01*
X97975000Y-55252661D01*
X97975000Y-55246447D01*
X98654474Y-55925921D01*
X98686859Y-55881349D01*
X98779755Y-55699031D01*
X98842990Y-55504417D01*
X98875000Y-55302317D01*
X98875000Y-55097682D01*
X98842990Y-54895582D01*
X98779755Y-54700968D01*
X98686859Y-54518650D01*
X98654474Y-54474077D01*
X98654474Y-54474076D01*
X97975000Y-55153551D01*
X97975000Y-55147339D01*
X97947741Y-55045606D01*
X97895080Y-54954394D01*
X97820606Y-54879920D01*
X97729394Y-54827259D01*
X97627661Y-54800000D01*
X97621446Y-54800000D01*
X98300922Y-54120524D01*
X98300921Y-54120523D01*
X98256359Y-54088147D01*
X98256350Y-54088141D01*
X98074031Y-53995244D01*
X97879417Y-53932009D01*
X97677317Y-53900000D01*
X97472683Y-53900000D01*
X97270582Y-53932009D01*
X97075968Y-53995244D01*
X96893644Y-54088143D01*
X96849077Y-54120523D01*
X96849077Y-54120524D01*
X97528554Y-54800000D01*
X97522339Y-54800000D01*
X97420606Y-54827259D01*
X97329394Y-54879920D01*
X97254920Y-54954394D01*
X97202259Y-55045606D01*
X97175000Y-55147339D01*
X97175000Y-55153553D01*
X96495524Y-54474077D01*
X96495523Y-54474077D01*
X96463143Y-54518644D01*
X96370244Y-54700968D01*
X96307009Y-54895582D01*
X96275000Y-55097682D01*
X96275000Y-55302317D01*
X96306290Y-55499873D01*
X96297335Y-55569166D01*
X96252339Y-55622618D01*
X96185588Y-55643258D01*
X96118274Y-55624533D01*
X96096136Y-55606952D01*
X95684274Y-55195090D01*
X95147219Y-54658034D01*
X94981611Y-54537713D01*
X94840822Y-54465978D01*
X94799219Y-54444780D01*
X94667405Y-54401951D01*
X94664871Y-54401127D01*
X94664856Y-54401122D01*
X94604532Y-54381522D01*
X94449220Y-54356923D01*
X94402352Y-54349500D01*
X94402351Y-54349500D01*
X87145951Y-54349500D01*
X87078912Y-54329815D01*
X87042728Y-54294210D01*
X87037188Y-54285888D01*
X87034684Y-54280374D01*
X86977297Y-54197541D01*
X86906502Y-54095354D01*
X86906499Y-54095350D01*
X86906496Y-54095346D01*
X86747331Y-53936181D01*
X86747327Y-53936178D01*
X86747322Y-53936174D01*
X86562309Y-53807997D01*
X86562307Y-53807995D01*
X86562303Y-53807993D01*
X86357360Y-53714904D01*
X86357358Y-53714903D01*
X86357355Y-53714902D01*
X86139097Y-53659905D01*
X86139090Y-53659904D01*
X86006899Y-53649500D01*
X86006894Y-53649500D01*
X85719120Y-53649500D01*
X85652081Y-53629815D01*
X85631439Y-53613181D01*
X82874343Y-50856084D01*
X82874336Y-50856078D01*
X82724869Y-50741389D01*
X82724866Y-50741387D01*
X82692292Y-50716390D01*
X82493568Y-50601657D01*
X82493558Y-50601652D01*
X82281573Y-50513845D01*
X82281566Y-50513843D01*
X82281564Y-50513842D01*
X82268352Y-50510302D01*
X82268350Y-50510301D01*
X82164134Y-50482377D01*
X82059916Y-50454452D01*
X82059910Y-50454451D01*
X82059905Y-50454450D01*
X82022301Y-50449500D01*
X81832418Y-50424500D01*
X81832411Y-50424500D01*
X39485266Y-50424500D01*
X39485258Y-50424500D01*
X39303435Y-50448439D01*
X39287249Y-50449500D01*
X38242443Y-50449500D01*
X38185032Y-50435409D01*
X38148047Y-50416090D01*
X38064370Y-50392147D01*
X37952418Y-50360114D01*
X37952415Y-50360113D01*
X37952413Y-50360113D01*
X37886102Y-50354217D01*
X37833037Y-50349500D01*
X37833032Y-50349500D01*
X36016971Y-50349500D01*
X36016965Y-50349500D01*
X36016964Y-50349501D01*
X36005316Y-50350536D01*
X35897584Y-50360113D01*
X35701954Y-50416089D01*
X35611772Y-50463196D01*
X35521593Y-50510302D01*
X35521591Y-50510303D01*
X35521590Y-50510304D01*
X35363890Y-50638890D01*
X35235304Y-50796590D01*
X35141089Y-50976954D01*
X35085114Y-51172583D01*
X35085113Y-51172586D01*
X35074500Y-51291966D01*
X35074500Y-53108028D01*
X35074501Y-53108034D01*
X35085113Y-53227415D01*
X35141089Y-53423045D01*
X35141090Y-53423048D01*
X35141091Y-53423049D01*
X35235302Y-53603407D01*
X35235304Y-53603409D01*
X35363890Y-53761109D01*
X35492479Y-53865958D01*
X35521593Y-53889698D01*
X35666726Y-53965509D01*
X35717032Y-54013994D01*
X35733139Y-54081981D01*
X35719798Y-54131711D01*
X35673904Y-54221782D01*
X35608242Y-54423869D01*
X35608242Y-54423872D01*
X35575000Y-54633753D01*
X35575000Y-54846246D01*
X35608242Y-55056127D01*
X35608242Y-55056130D01*
X35673904Y-55258217D01*
X35770379Y-55447557D01*
X35879396Y-55597608D01*
X35902876Y-55663414D01*
X35887050Y-55731468D01*
X35854564Y-55768869D01*
X35702263Y-55885733D01*
X35702256Y-55885739D01*
X35530739Y-56057256D01*
X35530733Y-56057263D01*
X35383067Y-56249706D01*
X35261777Y-56459785D01*
X35261773Y-56459794D01*
X35168947Y-56683895D01*
X35106161Y-56918214D01*
X35074500Y-57158711D01*
X35074500Y-57401288D01*
X35106161Y-57641785D01*
X35168947Y-57876104D01*
X35247876Y-58066655D01*
X35261776Y-58100212D01*
X35383064Y-58310289D01*
X35383066Y-58310292D01*
X35383067Y-58310293D01*
X35390207Y-58319598D01*
X35515850Y-58483340D01*
X35523876Y-58493799D01*
X35549070Y-58558968D01*
X35549500Y-58569285D01*
X35549500Y-62325546D01*
X35529815Y-62392585D01*
X35477011Y-62438340D01*
X35407853Y-62448284D01*
X35344297Y-62419259D01*
X35319962Y-62390643D01*
X35237319Y-62256659D01*
X35237316Y-62256655D01*
X35113345Y-62132684D01*
X34964124Y-62040643D01*
X34964119Y-62040641D01*
X34797697Y-61985494D01*
X34797690Y-61985493D01*
X34694986Y-61975000D01*
X34482500Y-61975000D01*
X34482500Y-64774999D01*
X34694972Y-64774999D01*
X34694986Y-64774998D01*
X34797697Y-64764505D01*
X34964119Y-64709358D01*
X34964124Y-64709356D01*
X35113345Y-64617315D01*
X35237315Y-64493345D01*
X35319961Y-64359356D01*
X35371909Y-64312632D01*
X35440872Y-64301409D01*
X35504954Y-64329253D01*
X35543810Y-64387322D01*
X35549500Y-64424453D01*
X35549500Y-65660031D01*
X35545275Y-65692123D01*
X35530309Y-65747978D01*
X35530305Y-65747996D01*
X35499501Y-65981979D01*
X35499500Y-65981995D01*
X35499500Y-66218004D01*
X35499501Y-66218020D01*
X35528794Y-66440526D01*
X35530307Y-66452014D01*
X35540300Y-66489309D01*
X35591394Y-66679993D01*
X35681714Y-66898045D01*
X35681719Y-66898056D01*
X35746803Y-67010783D01*
X35799727Y-67102450D01*
X35799729Y-67102453D01*
X35799730Y-67102454D01*
X35943406Y-67289697D01*
X35943412Y-67289704D01*
X36110295Y-67456587D01*
X36110302Y-67456593D01*
X36297548Y-67600272D01*
X36309688Y-67607281D01*
X36347632Y-67629187D01*
X36373312Y-67648893D01*
X39353331Y-70628913D01*
X39353333Y-70628915D01*
X39353337Y-70628918D01*
X39353339Y-70628920D01*
X39388837Y-70656158D01*
X39535388Y-70768611D01*
X39575235Y-70791616D01*
X39580503Y-70795446D01*
X39588367Y-70805650D01*
X39609516Y-70825127D01*
X39706174Y-70964645D01*
X39706178Y-70964650D01*
X39706181Y-70964654D01*
X39865346Y-71123819D01*
X39865350Y-71123822D01*
X39865354Y-71123825D01*
X39975165Y-71199902D01*
X40050374Y-71252007D01*
X40255317Y-71345096D01*
X40255321Y-71345097D01*
X40473579Y-71400094D01*
X40473581Y-71400094D01*
X40473588Y-71400096D01*
X40605783Y-71410500D01*
X41434216Y-71410499D01*
X41566412Y-71400096D01*
X41784683Y-71345096D01*
X41989626Y-71252007D01*
X42174654Y-71123819D01*
X42333819Y-70964654D01*
X42462007Y-70779626D01*
X42555096Y-70574683D01*
X42610096Y-70356412D01*
X42620500Y-70224217D01*
X42620499Y-70044993D01*
X42629938Y-69997541D01*
X42677228Y-69883374D01*
X42681158Y-69873887D01*
X42740548Y-69652238D01*
X42770500Y-69424734D01*
X42770500Y-69195266D01*
X42740548Y-68967762D01*
X42681158Y-68746113D01*
X42647034Y-68663730D01*
X42629938Y-68622456D01*
X42620499Y-68575004D01*
X42620499Y-68395791D01*
X42620498Y-68395776D01*
X42610096Y-68263588D01*
X42555096Y-68045317D01*
X42462007Y-67840374D01*
X42354100Y-67684620D01*
X42333825Y-67655354D01*
X42333822Y-67655350D01*
X42333819Y-67655346D01*
X42174654Y-67496181D01*
X42174650Y-67496178D01*
X42174645Y-67496174D01*
X41989632Y-67367997D01*
X41989630Y-67367995D01*
X41989626Y-67367993D01*
X41989619Y-67367990D01*
X41784681Y-67274903D01*
X41784678Y-67274902D01*
X41566420Y-67219905D01*
X41566413Y-67219904D01*
X41434222Y-67209500D01*
X41434217Y-67209500D01*
X40936443Y-67209500D01*
X40869404Y-67189815D01*
X40848762Y-67173181D01*
X39086819Y-65411238D01*
X39053334Y-65349915D01*
X39050500Y-65323557D01*
X39050500Y-57540272D01*
X39050499Y-57540258D01*
X39042204Y-57477256D01*
X39020548Y-57312762D01*
X38961158Y-57091113D01*
X38896973Y-56936157D01*
X38873349Y-56879123D01*
X38873342Y-56879108D01*
X38758611Y-56680388D01*
X38671768Y-56567212D01*
X38671757Y-56567198D01*
X38670849Y-56566015D01*
X38618920Y-56498339D01*
X38605612Y-56485031D01*
X38601431Y-56479837D01*
X38598962Y-56473868D01*
X38591062Y-56462836D01*
X38590254Y-56463304D01*
X38568408Y-56425466D01*
X38466936Y-56249711D01*
X38319266Y-56057263D01*
X38319264Y-56057260D01*
X38147743Y-55885739D01*
X37995434Y-55768868D01*
X37954232Y-55712440D01*
X37950077Y-55642694D01*
X37970603Y-55597606D01*
X38079622Y-55447554D01*
X38176095Y-55258217D01*
X38241757Y-55056130D01*
X38241757Y-55056127D01*
X38274656Y-54848418D01*
X38275000Y-54846246D01*
X38275000Y-54633753D01*
X38241757Y-54423872D01*
X38241757Y-54423869D01*
X38176095Y-54221782D01*
X38130202Y-54131712D01*
X38128646Y-54123427D01*
X38123722Y-54116589D01*
X38122294Y-54089603D01*
X38117306Y-54063043D01*
X38120475Y-54055233D01*
X38120030Y-54046817D01*
X38133418Y-54023343D01*
X38143582Y-53998302D01*
X38151371Y-53991866D01*
X38154647Y-53986125D01*
X38183288Y-53965502D01*
X38185044Y-53964585D01*
X38242443Y-53950500D01*
X39689727Y-53950500D01*
X39689734Y-53950500D01*
X39871565Y-53926560D01*
X39887751Y-53925500D01*
X50877691Y-53925500D01*
X50944730Y-53945185D01*
X50965372Y-53961819D01*
X51578554Y-54575000D01*
X51572339Y-54575000D01*
X51470606Y-54602259D01*
X51379394Y-54654920D01*
X51304920Y-54729394D01*
X51252259Y-54820606D01*
X51225000Y-54922339D01*
X51225000Y-54928553D01*
X50545524Y-54249077D01*
X50545523Y-54249077D01*
X50513143Y-54293644D01*
X50420244Y-54475968D01*
X50357009Y-54670582D01*
X50325000Y-54872682D01*
X50325000Y-55077317D01*
X50357009Y-55279417D01*
X50420244Y-55474031D01*
X50513141Y-55656350D01*
X50513147Y-55656359D01*
X50545523Y-55700921D01*
X50545524Y-55700922D01*
X51225000Y-55021446D01*
X51225000Y-55027661D01*
X51252259Y-55129394D01*
X51304920Y-55220606D01*
X51379394Y-55295080D01*
X51470606Y-55347741D01*
X51572339Y-55375000D01*
X51578553Y-55375000D01*
X50899076Y-56054474D01*
X50943650Y-56086859D01*
X51125968Y-56179755D01*
X51320582Y-56242990D01*
X51522683Y-56275000D01*
X51727317Y-56275000D01*
X51929417Y-56242990D01*
X52124031Y-56179755D01*
X52306349Y-56086859D01*
X52350921Y-56054474D01*
X51671447Y-55375000D01*
X51677661Y-55375000D01*
X51779394Y-55347741D01*
X51870606Y-55295080D01*
X51945080Y-55220606D01*
X51997741Y-55129394D01*
X52025000Y-55027661D01*
X52025000Y-55021447D01*
X52704474Y-55700921D01*
X52736859Y-55656349D01*
X52829755Y-55474031D01*
X52892990Y-55279417D01*
X52925000Y-55077317D01*
X52925000Y-54872682D01*
X52892990Y-54670582D01*
X52829755Y-54475968D01*
X52736859Y-54293650D01*
X52704474Y-54249077D01*
X52704474Y-54249076D01*
X52025000Y-54928551D01*
X52025000Y-54922339D01*
X51997741Y-54820606D01*
X51945080Y-54729394D01*
X51870606Y-54654920D01*
X51779394Y-54602259D01*
X51677661Y-54575000D01*
X51671446Y-54575000D01*
X52284628Y-53961819D01*
X52345951Y-53928334D01*
X52372309Y-53925500D01*
X65899772Y-53925500D01*
X65966811Y-53945185D01*
X66012566Y-53997989D01*
X66022510Y-54067147D01*
X66001700Y-54120116D01*
X65907997Y-54255367D01*
X65907991Y-54255377D01*
X65814903Y-54460318D01*
X65814902Y-54460321D01*
X65759905Y-54678579D01*
X65759904Y-54678586D01*
X65749500Y-54810777D01*
X65749500Y-55739208D01*
X65749501Y-55739223D01*
X65759904Y-55871413D01*
X65759905Y-55871420D01*
X65814902Y-56089678D01*
X65814903Y-56089681D01*
X65907991Y-56294622D01*
X65907997Y-56294632D01*
X66036174Y-56479645D01*
X66036178Y-56479650D01*
X66036181Y-56479654D01*
X66195346Y-56638819D01*
X66195350Y-56638822D01*
X66195354Y-56638825D01*
X66311572Y-56719341D01*
X66380374Y-56767007D01*
X66585317Y-56860096D01*
X66585321Y-56860097D01*
X66803579Y-56915094D01*
X66803581Y-56915094D01*
X66803588Y-56915096D01*
X66935783Y-56925500D01*
X67010713Y-56925499D01*
X67058170Y-56934939D01*
X67061113Y-56936158D01*
X67282761Y-56995548D01*
X67443435Y-57016700D01*
X67510265Y-57025499D01*
X67510266Y-57025499D01*
X67739735Y-57025499D01*
X67792199Y-57018592D01*
X67967239Y-56995548D01*
X68188887Y-56936158D01*
X68191830Y-56934938D01*
X68239285Y-56925499D01*
X68314208Y-56925499D01*
X68314216Y-56925499D01*
X68446412Y-56915096D01*
X68664683Y-56860096D01*
X68869626Y-56767007D01*
X68913474Y-56736628D01*
X68979789Y-56714631D01*
X69018203Y-56719341D01*
X69037581Y-56724885D01*
X69037581Y-56724886D01*
X69044928Y-56725539D01*
X69156963Y-56735500D01*
X71073036Y-56735499D01*
X71192418Y-56724886D01*
X71388049Y-56668909D01*
X71568407Y-56574698D01*
X71726109Y-56446109D01*
X71854698Y-56288407D01*
X71917476Y-56168223D01*
X71965959Y-56117920D01*
X72033947Y-56101812D01*
X72083677Y-56115153D01*
X72117584Y-56132429D01*
X72327164Y-56200526D01*
X72544819Y-56235000D01*
X72765181Y-56235000D01*
X72982835Y-56200526D01*
X73192410Y-56132432D01*
X73388760Y-56032386D01*
X73452513Y-55986066D01*
X73452514Y-55986066D01*
X72743585Y-55277137D01*
X72828694Y-55254333D01*
X72931306Y-55195090D01*
X73015090Y-55111306D01*
X73074333Y-55008694D01*
X73097137Y-54923585D01*
X73806066Y-55632514D01*
X73806066Y-55632513D01*
X73852386Y-55568760D01*
X73902310Y-55470780D01*
X73952432Y-55372410D01*
X74020526Y-55162835D01*
X74055000Y-54945181D01*
X74055000Y-54724818D01*
X74020526Y-54507164D01*
X73952432Y-54297589D01*
X73854708Y-54105795D01*
X73841812Y-54037126D01*
X73868088Y-53972385D01*
X73925195Y-53932128D01*
X73965193Y-53925500D01*
X79916494Y-53925500D01*
X79983533Y-53945185D01*
X80029288Y-53997989D01*
X80039232Y-54067147D01*
X80010207Y-54130703D01*
X79951429Y-54168477D01*
X79935892Y-54171973D01*
X79841429Y-54186934D01*
X79616874Y-54259897D01*
X79406507Y-54367084D01*
X79323571Y-54427340D01*
X80063268Y-55167037D01*
X79999684Y-55184075D01*
X79885670Y-55249901D01*
X79792578Y-55342993D01*
X79726752Y-55457007D01*
X79709714Y-55520591D01*
X78970017Y-54780894D01*
X78909761Y-54863830D01*
X78802574Y-55074197D01*
X78729611Y-55298752D01*
X78692677Y-55531947D01*
X78692677Y-55768052D01*
X78729611Y-56001247D01*
X78802574Y-56225802D01*
X78909764Y-56436174D01*
X78970015Y-56519104D01*
X78970017Y-56519105D01*
X79709714Y-55779408D01*
X79726752Y-55842993D01*
X79792578Y-55957007D01*
X79885670Y-56050099D01*
X79999684Y-56115925D01*
X80063267Y-56132962D01*
X79323570Y-56872658D01*
X79406505Y-56932914D01*
X79616874Y-57040102D01*
X79841429Y-57113065D01*
X79841428Y-57113065D01*
X80074625Y-57150000D01*
X80310729Y-57150000D01*
X80543924Y-57113065D01*
X80768478Y-57040103D01*
X80783080Y-57032663D01*
X80851749Y-57019766D01*
X80916490Y-57046041D01*
X80956748Y-57103146D01*
X80959742Y-57172952D01*
X80957083Y-57182150D01*
X80935495Y-57247298D01*
X80935493Y-57247309D01*
X80925000Y-57350013D01*
X80925000Y-57800000D01*
X81837500Y-57800000D01*
X81837500Y-56650000D01*
X81625029Y-56650000D01*
X81625010Y-56650001D01*
X81571782Y-56655439D01*
X81503089Y-56642669D01*
X81452205Y-56594788D01*
X81435285Y-56526998D01*
X81457702Y-56460821D01*
X81458865Y-56459193D01*
X81475590Y-56436173D01*
X81582779Y-56225802D01*
X81655742Y-56001247D01*
X81692677Y-55768052D01*
X81692677Y-55531947D01*
X81655742Y-55298752D01*
X81582779Y-55074197D01*
X81475591Y-54863828D01*
X81415335Y-54780894D01*
X81415335Y-54780893D01*
X80675639Y-55520590D01*
X80658602Y-55457007D01*
X80592776Y-55342993D01*
X80499684Y-55249901D01*
X80385670Y-55184075D01*
X80322086Y-55167037D01*
X81061782Y-54427340D01*
X81061781Y-54427338D01*
X80978851Y-54367087D01*
X80768479Y-54259897D01*
X80543924Y-54186934D01*
X80543925Y-54186934D01*
X80449462Y-54171973D01*
X80386327Y-54142044D01*
X80349396Y-54082732D01*
X80350394Y-54012870D01*
X80389004Y-53954637D01*
X80452967Y-53926523D01*
X80468860Y-53925500D01*
X80941234Y-53925500D01*
X81008273Y-53945185D01*
X81028915Y-53961819D01*
X83155858Y-56088762D01*
X83189343Y-56150085D01*
X83192177Y-56176443D01*
X83192177Y-56464208D01*
X83192178Y-56464223D01*
X83200189Y-56566015D01*
X83202581Y-56596412D01*
X83237913Y-56736629D01*
X83242872Y-56756309D01*
X83240164Y-56826126D01*
X83200140Y-56883396D01*
X83135508Y-56909937D01*
X83066786Y-56897321D01*
X83034949Y-56874288D01*
X82968345Y-56807684D01*
X82819124Y-56715643D01*
X82819119Y-56715641D01*
X82652697Y-56660494D01*
X82652690Y-56660493D01*
X82549986Y-56650000D01*
X82337500Y-56650000D01*
X82337500Y-59449999D01*
X82549972Y-59449999D01*
X82549986Y-59449998D01*
X82652697Y-59439505D01*
X82819119Y-59384358D01*
X82819124Y-59384356D01*
X82968345Y-59292315D01*
X83092315Y-59168345D01*
X83184356Y-59019124D01*
X83184358Y-59019119D01*
X83239505Y-58852697D01*
X83239506Y-58852690D01*
X83249999Y-58749986D01*
X83249999Y-58431135D01*
X83255428Y-58412644D01*
X83255887Y-58393379D01*
X83265067Y-58379813D01*
X83269683Y-58364096D01*
X83284247Y-58351476D01*
X83295049Y-58335516D01*
X83310108Y-58329067D01*
X83322487Y-58318341D01*
X83341561Y-58315598D01*
X83359278Y-58308012D01*
X83375431Y-58310728D01*
X83391646Y-58308397D01*
X83409174Y-58316402D01*
X83428180Y-58319598D01*
X83440301Y-58330617D01*
X83455201Y-58337422D01*
X83465619Y-58353633D01*
X83479880Y-58366597D01*
X83491720Y-58394245D01*
X83492976Y-58396200D01*
X83493774Y-58399042D01*
X83545275Y-58591247D01*
X83549500Y-58623339D01*
X83549500Y-58764207D01*
X83549501Y-58764223D01*
X83559904Y-58896413D01*
X83559905Y-58896420D01*
X83614902Y-59114678D01*
X83614903Y-59114681D01*
X83707991Y-59319622D01*
X83707997Y-59319632D01*
X83836174Y-59504645D01*
X83836178Y-59504650D01*
X83836181Y-59504654D01*
X83995346Y-59663819D01*
X83995350Y-59663822D01*
X83995354Y-59663825D01*
X84126574Y-59754734D01*
X84180374Y-59792007D01*
X84385317Y-59885096D01*
X84385321Y-59885097D01*
X84603579Y-59940094D01*
X84603581Y-59940094D01*
X84603588Y-59940096D01*
X84735783Y-59950500D01*
X85689216Y-59950499D01*
X85821412Y-59940096D01*
X86039683Y-59885096D01*
X86244626Y-59792007D01*
X86429654Y-59663819D01*
X86588819Y-59504654D01*
X86717007Y-59319626D01*
X86810096Y-59114683D01*
X86865096Y-58896412D01*
X86875500Y-58764217D01*
X86875499Y-58623337D01*
X86879724Y-58591243D01*
X86897840Y-58523634D01*
X86933048Y-58392238D01*
X86963000Y-58164734D01*
X86963000Y-57161852D01*
X86968406Y-57143441D01*
X86968837Y-57124254D01*
X86981753Y-57097986D01*
X86982685Y-57094813D01*
X86984216Y-57092487D01*
X86984613Y-57091897D01*
X87034684Y-57019626D01*
X87037352Y-57013750D01*
X87043167Y-57005135D01*
X87062395Y-56989215D01*
X87078706Y-56970317D01*
X87088843Y-56967318D01*
X87096986Y-56960577D01*
X87121768Y-56957580D01*
X87145706Y-56950500D01*
X89997173Y-56950500D01*
X90064212Y-56970185D01*
X90109967Y-57022989D01*
X90119911Y-57092147D01*
X90090886Y-57155703D01*
X90044626Y-57189061D01*
X89989794Y-57211772D01*
X89989785Y-57211777D01*
X89779706Y-57333067D01*
X89587263Y-57480733D01*
X89587256Y-57480739D01*
X89415739Y-57652256D01*
X89415733Y-57652263D01*
X89268067Y-57844706D01*
X89146777Y-58054785D01*
X89146773Y-58054794D01*
X89053947Y-58278895D01*
X88991161Y-58513214D01*
X88959500Y-58753711D01*
X88959500Y-58996288D01*
X88986318Y-59200000D01*
X88991162Y-59236789D01*
X89007500Y-59297761D01*
X89053947Y-59471104D01*
X89133775Y-59663825D01*
X89146776Y-59695212D01*
X89268064Y-59905289D01*
X89268066Y-59905292D01*
X89268067Y-59905293D01*
X89415733Y-60097736D01*
X89415739Y-60097743D01*
X89587256Y-60269260D01*
X89587262Y-60269265D01*
X89779711Y-60416936D01*
X89989788Y-60538224D01*
X89989793Y-60538226D01*
X89989799Y-60538229D01*
X90192952Y-60622377D01*
X90247356Y-60666218D01*
X90269421Y-60732512D01*
X90269500Y-60736938D01*
X90269500Y-62957164D01*
X90249815Y-63024203D01*
X90197011Y-63069958D01*
X90127853Y-63079902D01*
X90089205Y-63067649D01*
X89912410Y-62977567D01*
X89702836Y-62909473D01*
X89625000Y-62897144D01*
X89625000Y-64126517D01*
X89606591Y-64115889D01*
X89453991Y-64075000D01*
X89296009Y-64075000D01*
X89143409Y-64115889D01*
X89125000Y-64126517D01*
X89125000Y-62897144D01*
X89047164Y-62909473D01*
X89047161Y-62909473D01*
X88837589Y-62977567D01*
X88641240Y-63077612D01*
X88527408Y-63160316D01*
X88461601Y-63183795D01*
X88393547Y-63167969D01*
X88356147Y-63135483D01*
X88266939Y-63019225D01*
X88266933Y-63019218D01*
X88090781Y-62843066D01*
X88090774Y-62843060D01*
X87893126Y-62691400D01*
X87677376Y-62566837D01*
X87677361Y-62566830D01*
X87447207Y-62471498D01*
X87277321Y-62425977D01*
X87206565Y-62407018D01*
X87206564Y-62407017D01*
X87206561Y-62407017D01*
X86959575Y-62374501D01*
X86959570Y-62374500D01*
X86959565Y-62374500D01*
X86710435Y-62374500D01*
X86710429Y-62374500D01*
X86710424Y-62374501D01*
X86463438Y-62407017D01*
X86222792Y-62471498D01*
X85992638Y-62566830D01*
X85992623Y-62566837D01*
X85776873Y-62691400D01*
X85640486Y-62796053D01*
X85575317Y-62821247D01*
X85506872Y-62807208D01*
X85489514Y-62796053D01*
X85353126Y-62691400D01*
X85137376Y-62566837D01*
X85137361Y-62566830D01*
X84907207Y-62471498D01*
X84737321Y-62425977D01*
X84666565Y-62407018D01*
X84666564Y-62407017D01*
X84666561Y-62407017D01*
X84419575Y-62374501D01*
X84419570Y-62374500D01*
X84419565Y-62374500D01*
X84170435Y-62374500D01*
X84170429Y-62374500D01*
X84170424Y-62374501D01*
X83923438Y-62407017D01*
X83682792Y-62471498D01*
X83452638Y-62566830D01*
X83452623Y-62566837D01*
X83236873Y-62691400D01*
X83100486Y-62796053D01*
X83035317Y-62821247D01*
X82966872Y-62807208D01*
X82949514Y-62796053D01*
X82813126Y-62691400D01*
X82597376Y-62566837D01*
X82597361Y-62566830D01*
X82367207Y-62471498D01*
X82197321Y-62425977D01*
X82126565Y-62407018D01*
X82126564Y-62407017D01*
X82126561Y-62407017D01*
X81879575Y-62374501D01*
X81879570Y-62374500D01*
X81879565Y-62374500D01*
X81630435Y-62374500D01*
X81630429Y-62374500D01*
X81630424Y-62374501D01*
X81383438Y-62407017D01*
X81142792Y-62471498D01*
X80912638Y-62566830D01*
X80912623Y-62566837D01*
X80696873Y-62691400D01*
X80560486Y-62796053D01*
X80495317Y-62821247D01*
X80426872Y-62807208D01*
X80409514Y-62796053D01*
X80273126Y-62691400D01*
X80057376Y-62566837D01*
X80057361Y-62566830D01*
X79827207Y-62471498D01*
X79657321Y-62425977D01*
X79586565Y-62407018D01*
X79586564Y-62407017D01*
X79586561Y-62407017D01*
X79339575Y-62374501D01*
X79339570Y-62374500D01*
X79339565Y-62374500D01*
X79090435Y-62374500D01*
X79090429Y-62374500D01*
X79090424Y-62374501D01*
X78843438Y-62407017D01*
X78602792Y-62471498D01*
X78372638Y-62566830D01*
X78372623Y-62566837D01*
X78156873Y-62691400D01*
X78020486Y-62796053D01*
X77955317Y-62821247D01*
X77886872Y-62807208D01*
X77869514Y-62796053D01*
X77733126Y-62691400D01*
X77517376Y-62566837D01*
X77517361Y-62566830D01*
X77287207Y-62471498D01*
X77117321Y-62425977D01*
X77046565Y-62407018D01*
X77046564Y-62407017D01*
X77046561Y-62407017D01*
X76799575Y-62374501D01*
X76799570Y-62374500D01*
X76799565Y-62374500D01*
X76550435Y-62374500D01*
X76550429Y-62374500D01*
X76550424Y-62374501D01*
X76303438Y-62407017D01*
X76062792Y-62471498D01*
X75832638Y-62566830D01*
X75832623Y-62566837D01*
X75616873Y-62691400D01*
X75419225Y-62843060D01*
X75419218Y-62843066D01*
X75243066Y-63019218D01*
X75243060Y-63019225D01*
X75091400Y-63216873D01*
X74966837Y-63432623D01*
X74966830Y-63432638D01*
X74871498Y-63662792D01*
X74807017Y-63903438D01*
X74774501Y-64150424D01*
X74774500Y-64150441D01*
X74774500Y-65199558D01*
X74774501Y-65199575D01*
X74807017Y-65446561D01*
X74871498Y-65687207D01*
X74966830Y-65917361D01*
X74966837Y-65917376D01*
X75091400Y-66133126D01*
X75243060Y-66330774D01*
X75243066Y-66330781D01*
X75419218Y-66506933D01*
X75419225Y-66506939D01*
X75616873Y-66658599D01*
X75832623Y-66783162D01*
X75832638Y-66783169D01*
X75885498Y-66805064D01*
X76062793Y-66878502D01*
X76303435Y-66942982D01*
X76550435Y-66975500D01*
X76550442Y-66975500D01*
X76799558Y-66975500D01*
X76799565Y-66975500D01*
X77046565Y-66942982D01*
X77287207Y-66878502D01*
X77517373Y-66783164D01*
X77733127Y-66658599D01*
X77869514Y-66553946D01*
X77934683Y-66528752D01*
X78003128Y-66542790D01*
X78020486Y-66553946D01*
X78156873Y-66658599D01*
X78372623Y-66783162D01*
X78372638Y-66783169D01*
X78425498Y-66805064D01*
X78602793Y-66878502D01*
X78843435Y-66942982D01*
X79090435Y-66975500D01*
X79090442Y-66975500D01*
X79339558Y-66975500D01*
X79339565Y-66975500D01*
X79586565Y-66942982D01*
X79827207Y-66878502D01*
X80057373Y-66783164D01*
X80273127Y-66658599D01*
X80409514Y-66553946D01*
X80474683Y-66528752D01*
X80543128Y-66542790D01*
X80560486Y-66553946D01*
X80696873Y-66658599D01*
X80912623Y-66783162D01*
X80912638Y-66783169D01*
X80965498Y-66805064D01*
X81142793Y-66878502D01*
X81383435Y-66942982D01*
X81630435Y-66975500D01*
X81630442Y-66975500D01*
X81879558Y-66975500D01*
X81879565Y-66975500D01*
X82126565Y-66942982D01*
X82367207Y-66878502D01*
X82597373Y-66783164D01*
X82813127Y-66658599D01*
X82949514Y-66553946D01*
X83014683Y-66528752D01*
X83083128Y-66542790D01*
X83100486Y-66553946D01*
X83236873Y-66658599D01*
X83452623Y-66783162D01*
X83452638Y-66783169D01*
X83505498Y-66805064D01*
X83682793Y-66878502D01*
X83923435Y-66942982D01*
X84170435Y-66975500D01*
X84170442Y-66975500D01*
X84419558Y-66975500D01*
X84419565Y-66975500D01*
X84666565Y-66942982D01*
X84907207Y-66878502D01*
X85137373Y-66783164D01*
X85353127Y-66658599D01*
X85489514Y-66553946D01*
X85554683Y-66528752D01*
X85623128Y-66542790D01*
X85640486Y-66553946D01*
X85776873Y-66658599D01*
X85992623Y-66783162D01*
X85992638Y-66783169D01*
X86045498Y-66805064D01*
X86222793Y-66878502D01*
X86463435Y-66942982D01*
X86710435Y-66975500D01*
X86710442Y-66975500D01*
X86959558Y-66975500D01*
X86959565Y-66975500D01*
X87206565Y-66942982D01*
X87447207Y-66878502D01*
X87677373Y-66783164D01*
X87893127Y-66658599D01*
X88090776Y-66506938D01*
X88266938Y-66330776D01*
X88356147Y-66214515D01*
X88412574Y-66173313D01*
X88482320Y-66169158D01*
X88527408Y-66189684D01*
X88641236Y-66272384D01*
X88837589Y-66372432D01*
X89047163Y-66440526D01*
X89124999Y-66452854D01*
X89125000Y-66452854D01*
X89125000Y-65223482D01*
X89143409Y-65234111D01*
X89296009Y-65275000D01*
X89453991Y-65275000D01*
X89606591Y-65234111D01*
X89625000Y-65223482D01*
X89625000Y-66452854D01*
X89702834Y-66440526D01*
X89702837Y-66440526D01*
X89912410Y-66372432D01*
X90108760Y-66272386D01*
X90287041Y-66142857D01*
X90442857Y-65987041D01*
X90572386Y-65808760D01*
X90672432Y-65612410D01*
X90740526Y-65402835D01*
X90775000Y-65185181D01*
X90775000Y-64925000D01*
X89923482Y-64925000D01*
X89934111Y-64906591D01*
X89975000Y-64753991D01*
X89975000Y-64596009D01*
X89934111Y-64443409D01*
X89923482Y-64425000D01*
X90775000Y-64425000D01*
X90775000Y-64288166D01*
X90794685Y-64221127D01*
X90847489Y-64175372D01*
X90916647Y-64165428D01*
X90949081Y-64174729D01*
X91052815Y-64220532D01*
X91052821Y-64220533D01*
X91052823Y-64220534D01*
X91260359Y-64269347D01*
X91260364Y-64269347D01*
X91260370Y-64269349D01*
X91309602Y-64272766D01*
X91348984Y-64275500D01*
X91348988Y-64275500D01*
X91791016Y-64275500D01*
X91826459Y-64273039D01*
X91879630Y-64269349D01*
X91879636Y-64269347D01*
X91879640Y-64269347D01*
X92035468Y-64232695D01*
X92087185Y-64220532D01*
X92282237Y-64134409D01*
X92458142Y-64013911D01*
X92608911Y-63863142D01*
X92729409Y-63687237D01*
X92729412Y-63687230D01*
X92731669Y-63683180D01*
X92781486Y-63634189D01*
X92849881Y-63619909D01*
X92915138Y-63644873D01*
X92948331Y-63683180D01*
X92950588Y-63687232D01*
X92950590Y-63687235D01*
X92950591Y-63687237D01*
X93010710Y-63775000D01*
X93071088Y-63863141D01*
X93071093Y-63863147D01*
X93221852Y-64013906D01*
X93221858Y-64013911D01*
X93397763Y-64134409D01*
X93592815Y-64220532D01*
X93592821Y-64220533D01*
X93592823Y-64220534D01*
X93800359Y-64269347D01*
X93800364Y-64269347D01*
X93800370Y-64269349D01*
X93849602Y-64272766D01*
X93888984Y-64275500D01*
X93888988Y-64275500D01*
X93955500Y-64275500D01*
X94022539Y-64295185D01*
X94068294Y-64347989D01*
X94079500Y-64399500D01*
X94079500Y-65950500D01*
X94059815Y-66017539D01*
X94007011Y-66063294D01*
X93955500Y-66074500D01*
X93888984Y-66074500D01*
X93800375Y-66080650D01*
X93800360Y-66080652D01*
X93592824Y-66129465D01*
X93592813Y-66129468D01*
X93525085Y-66159373D01*
X93455806Y-66168444D01*
X93424915Y-66159373D01*
X93357186Y-66129468D01*
X93357175Y-66129465D01*
X93149639Y-66080652D01*
X93149624Y-66080650D01*
X93061016Y-66074500D01*
X93061012Y-66074500D01*
X92618988Y-66074500D01*
X92618984Y-66074500D01*
X92530375Y-66080650D01*
X92530359Y-66080652D01*
X92322823Y-66129465D01*
X92322817Y-66129467D01*
X92322815Y-66129468D01*
X92203775Y-66182029D01*
X92127761Y-66215592D01*
X91951858Y-66336088D01*
X91951852Y-66336093D01*
X91801093Y-66486852D01*
X91801088Y-66486858D01*
X91680592Y-66662761D01*
X91594467Y-66857817D01*
X91594465Y-66857823D01*
X91564706Y-66984350D01*
X91530196Y-67045102D01*
X91468318Y-67077552D01*
X91398720Y-67071397D01*
X91343498Y-67028592D01*
X91320185Y-66962726D01*
X91320000Y-66955960D01*
X91320000Y-66577703D01*
X91317503Y-66577900D01*
X91159806Y-66623716D01*
X91159803Y-66623717D01*
X91018447Y-66707314D01*
X91018438Y-66707321D01*
X90902321Y-66823438D01*
X90902314Y-66823447D01*
X90818717Y-66964803D01*
X90818716Y-66964806D01*
X90772900Y-67122504D01*
X90772899Y-67122510D01*
X90770000Y-67159350D01*
X90770000Y-67600000D01*
X91320000Y-67600000D01*
X91327819Y-67592181D01*
X91389142Y-67558696D01*
X91458834Y-67563680D01*
X91514767Y-67605552D01*
X91539184Y-67671016D01*
X91539500Y-67679862D01*
X91539500Y-67976000D01*
X91519815Y-68043039D01*
X91467011Y-68088794D01*
X91415500Y-68100000D01*
X90770000Y-68100000D01*
X90770000Y-68540649D01*
X90772899Y-68577489D01*
X90772900Y-68577495D01*
X90818716Y-68735193D01*
X90818717Y-68735196D01*
X90902314Y-68876552D01*
X90902321Y-68876561D01*
X91016864Y-68991104D01*
X91050349Y-69052427D01*
X91045365Y-69122119D01*
X91034722Y-69143882D01*
X90965643Y-69255875D01*
X90965641Y-69255880D01*
X90910494Y-69422302D01*
X90910493Y-69422309D01*
X90900000Y-69525013D01*
X90900000Y-70040214D01*
X90880315Y-70107253D01*
X90827511Y-70153008D01*
X90758353Y-70162952D01*
X90694797Y-70133927D01*
X90677625Y-70115701D01*
X90641633Y-70068796D01*
X90641626Y-70068788D01*
X90456212Y-69883374D01*
X90456203Y-69883366D01*
X90248155Y-69723723D01*
X90021052Y-69592606D01*
X90021042Y-69592601D01*
X89778780Y-69492253D01*
X89778773Y-69492251D01*
X89778771Y-69492250D01*
X89525468Y-69424378D01*
X89467691Y-69416771D01*
X89265479Y-69390148D01*
X89265472Y-69390148D01*
X89003232Y-69390148D01*
X89003224Y-69390148D01*
X88772124Y-69420574D01*
X88743236Y-69424378D01*
X88489933Y-69492250D01*
X88489923Y-69492253D01*
X88247661Y-69592601D01*
X88247651Y-69592606D01*
X88020548Y-69723723D01*
X87812500Y-69883366D01*
X87627070Y-70068796D01*
X87467427Y-70276844D01*
X87336310Y-70503947D01*
X87336305Y-70503957D01*
X87235957Y-70746219D01*
X87235954Y-70746229D01*
X87177428Y-70964654D01*
X87168082Y-70999533D01*
X87133852Y-71259520D01*
X87133852Y-71521775D01*
X87158063Y-71705665D01*
X87168082Y-71781764D01*
X87235954Y-72035066D01*
X87235957Y-72035076D01*
X87336305Y-72277338D01*
X87336310Y-72277348D01*
X87467427Y-72504451D01*
X87627070Y-72712499D01*
X87627078Y-72712508D01*
X87812492Y-72897922D01*
X87812500Y-72897929D01*
X88020548Y-73057572D01*
X88247651Y-73188689D01*
X88247661Y-73188694D01*
X88489923Y-73289042D01*
X88489933Y-73289046D01*
X88743236Y-73356918D01*
X89003232Y-73391148D01*
X89003239Y-73391148D01*
X89265465Y-73391148D01*
X89265472Y-73391148D01*
X89525468Y-73356918D01*
X89581469Y-73341912D01*
X89651318Y-73343575D01*
X89701243Y-73374006D01*
X90538181Y-74210944D01*
X90571666Y-74272267D01*
X90574500Y-74298625D01*
X90574500Y-78769486D01*
X90604059Y-78956118D01*
X90662454Y-79135836D01*
X90721442Y-79251605D01*
X90748240Y-79304199D01*
X90859310Y-79457074D01*
X90859312Y-79457076D01*
X91863181Y-80460945D01*
X91896666Y-80522268D01*
X91899500Y-80548626D01*
X91899500Y-82490962D01*
X91899500Y-83934038D01*
X91901484Y-83967360D01*
X91902312Y-83981250D01*
X91946984Y-84186602D01*
X91946987Y-84186613D01*
X92029718Y-84379808D01*
X92029720Y-84379811D01*
X92029721Y-84379813D01*
X92147523Y-84553865D01*
X92296135Y-84702477D01*
X92470187Y-84820279D01*
X92470189Y-84820280D01*
X92470191Y-84820281D01*
X92598987Y-84875435D01*
X92663388Y-84903013D01*
X92663396Y-84903014D01*
X92663397Y-84903015D01*
X92868749Y-84947687D01*
X92868750Y-84947687D01*
X92868755Y-84947688D01*
X92915962Y-84950500D01*
X92915973Y-84950500D01*
X93284027Y-84950500D01*
X93284038Y-84950500D01*
X93331245Y-84947688D01*
X93398642Y-84933026D01*
X93451358Y-84933026D01*
X93518755Y-84947688D01*
X93565962Y-84950500D01*
X93565973Y-84950500D01*
X93934027Y-84950500D01*
X93934038Y-84950500D01*
X93981245Y-84947688D01*
X94048642Y-84933026D01*
X94101358Y-84933026D01*
X94168755Y-84947688D01*
X94215962Y-84950500D01*
X94215973Y-84950500D01*
X94584027Y-84950500D01*
X94584038Y-84950500D01*
X94631245Y-84947688D01*
X94698642Y-84933026D01*
X94751358Y-84933026D01*
X94818755Y-84947688D01*
X94865962Y-84950500D01*
X95025500Y-84950500D01*
X95092539Y-84970185D01*
X95138294Y-85022989D01*
X95149500Y-85074500D01*
X95149500Y-87075500D01*
X95146949Y-87084185D01*
X95148238Y-87093147D01*
X95137259Y-87117187D01*
X95129815Y-87142539D01*
X95122974Y-87148466D01*
X95119213Y-87156703D01*
X95096978Y-87170992D01*
X95077011Y-87188294D01*
X95066496Y-87190581D01*
X95060435Y-87194477D01*
X95025500Y-87199500D01*
X94892847Y-87199500D01*
X94825808Y-87179815D01*
X94782363Y-87131797D01*
X94779924Y-87127011D01*
X94776760Y-87120801D01*
X94665690Y-86967927D01*
X94532073Y-86834310D01*
X93582074Y-85884310D01*
X93429199Y-85773240D01*
X93260836Y-85687454D01*
X93081118Y-85629059D01*
X92894486Y-85599500D01*
X92894481Y-85599500D01*
X92626442Y-85599500D01*
X92559403Y-85579815D01*
X92538765Y-85563185D01*
X92456661Y-85481081D01*
X92274617Y-85341392D01*
X92075890Y-85226657D01*
X92075876Y-85226650D01*
X91863887Y-85138842D01*
X91642238Y-85079452D01*
X91604215Y-85074446D01*
X91414741Y-85049500D01*
X91414734Y-85049500D01*
X86876443Y-85049500D01*
X86809404Y-85029815D01*
X86788762Y-85013181D01*
X65897604Y-64122023D01*
X65864119Y-64060700D01*
X65862349Y-64050545D01*
X65842982Y-63903435D01*
X65778502Y-63662793D01*
X65683164Y-63432627D01*
X65675691Y-63419684D01*
X65558599Y-63216873D01*
X65406939Y-63019225D01*
X65406933Y-63019218D01*
X65230781Y-62843066D01*
X65230774Y-62843060D01*
X65033126Y-62691400D01*
X64817376Y-62566837D01*
X64817361Y-62566830D01*
X64587207Y-62471498D01*
X64417321Y-62425977D01*
X64346565Y-62407018D01*
X64346564Y-62407017D01*
X64346561Y-62407017D01*
X64099575Y-62374501D01*
X64099570Y-62374500D01*
X64099565Y-62374500D01*
X63850435Y-62374500D01*
X63850429Y-62374500D01*
X63850424Y-62374501D01*
X63603438Y-62407017D01*
X63362792Y-62471498D01*
X63132638Y-62566830D01*
X63132623Y-62566837D01*
X62916873Y-62691400D01*
X62719225Y-62843060D01*
X62719218Y-62843066D01*
X62543066Y-63019218D01*
X62543060Y-63019225D01*
X62453852Y-63135484D01*
X62397424Y-63176687D01*
X62327678Y-63180842D01*
X62282590Y-63160316D01*
X62168760Y-63077613D01*
X61972410Y-62977567D01*
X61762836Y-62909473D01*
X61685000Y-62897144D01*
X61685000Y-64126517D01*
X61666591Y-64115889D01*
X61513991Y-64075000D01*
X61356009Y-64075000D01*
X61203409Y-64115889D01*
X61185000Y-64126517D01*
X61185000Y-62897144D01*
X61107164Y-62909473D01*
X61107161Y-62909473D01*
X60897589Y-62977567D01*
X60701240Y-63077612D01*
X60587408Y-63160316D01*
X60580741Y-63162694D01*
X60575826Y-63167783D01*
X60548271Y-63174279D01*
X60521601Y-63183795D01*
X60514708Y-63182192D01*
X60507821Y-63183816D01*
X60481122Y-63174381D01*
X60453547Y-63167969D01*
X60447020Y-63162331D01*
X60441943Y-63160537D01*
X60417804Y-63137092D01*
X60416558Y-63136016D01*
X60416325Y-63135716D01*
X60326938Y-63019224D01*
X60322436Y-63014722D01*
X60317660Y-63008567D01*
X60307618Y-62983006D01*
X60294459Y-62958906D01*
X60295027Y-62950954D01*
X60292113Y-62943535D01*
X60297483Y-62916607D01*
X60299443Y-62889214D01*
X60304220Y-62882831D01*
X60305780Y-62875015D01*
X60324857Y-62855264D01*
X60341315Y-62833281D01*
X60353623Y-62825162D01*
X60399612Y-62798611D01*
X60509597Y-62714216D01*
X60581661Y-62658920D01*
X62443920Y-60796661D01*
X62583610Y-60614612D01*
X62698344Y-60415888D01*
X62786158Y-60203887D01*
X62791687Y-60183250D01*
X62823780Y-60127664D01*
X63265000Y-59686445D01*
X63265000Y-59692661D01*
X63292259Y-59794394D01*
X63344920Y-59885606D01*
X63419394Y-59960080D01*
X63510606Y-60012741D01*
X63612339Y-60040000D01*
X63618554Y-60040000D01*
X62996351Y-60662200D01*
X62996352Y-60662201D01*
X63025577Y-60683434D01*
X63196678Y-60770616D01*
X63379315Y-60829959D01*
X63568985Y-60860000D01*
X63761015Y-60860000D01*
X63950684Y-60829959D01*
X64133321Y-60770616D01*
X64304419Y-60683436D01*
X64333646Y-60662201D01*
X64333646Y-60662200D01*
X63711447Y-60040000D01*
X63717661Y-60040000D01*
X63819394Y-60012741D01*
X63910606Y-59960080D01*
X63985080Y-59885606D01*
X64037741Y-59794394D01*
X64065000Y-59692661D01*
X64065000Y-59686446D01*
X64687200Y-60308646D01*
X64687201Y-60308646D01*
X64708436Y-60279419D01*
X64795616Y-60108321D01*
X64854959Y-59925684D01*
X64885000Y-59736015D01*
X64885000Y-59543984D01*
X64854959Y-59354315D01*
X64795616Y-59171678D01*
X64708434Y-59000577D01*
X64687201Y-58971352D01*
X64687200Y-58971351D01*
X64065000Y-59593552D01*
X64065000Y-59587339D01*
X64037741Y-59485606D01*
X63985080Y-59394394D01*
X63910606Y-59319920D01*
X63819394Y-59267259D01*
X63717661Y-59240000D01*
X63711447Y-59240000D01*
X64201459Y-58749986D01*
X80925001Y-58749986D01*
X80935494Y-58852697D01*
X80990641Y-59019119D01*
X80990643Y-59019124D01*
X81082684Y-59168345D01*
X81206654Y-59292315D01*
X81355875Y-59384356D01*
X81355880Y-59384358D01*
X81522302Y-59439505D01*
X81522309Y-59439506D01*
X81625019Y-59449999D01*
X81837499Y-59449999D01*
X81837500Y-59449998D01*
X81837500Y-58300000D01*
X80925001Y-58300000D01*
X80925001Y-58749986D01*
X64201459Y-58749986D01*
X64333646Y-58617798D01*
X64304415Y-58596561D01*
X64133321Y-58509383D01*
X63950684Y-58450040D01*
X63761015Y-58420000D01*
X63568985Y-58420000D01*
X63379315Y-58450040D01*
X63196678Y-58509383D01*
X63025578Y-58596564D01*
X62996352Y-58617798D01*
X62996351Y-58617798D01*
X63618554Y-59240000D01*
X63612339Y-59240000D01*
X63510606Y-59267259D01*
X63419394Y-59319920D01*
X63344920Y-59394394D01*
X63292259Y-59485606D01*
X63265000Y-59587339D01*
X63265000Y-59593554D01*
X62823780Y-59152334D01*
X62791687Y-59096747D01*
X62786158Y-59076113D01*
X62739908Y-58964457D01*
X62698348Y-58864120D01*
X62698340Y-58864104D01*
X62619216Y-58727059D01*
X62619215Y-58727058D01*
X62583610Y-58665388D01*
X62583605Y-58665382D01*
X62583603Y-58665378D01*
X62443921Y-58483340D01*
X62443915Y-58483333D01*
X62281666Y-58321084D01*
X62281659Y-58321078D01*
X62099621Y-58181396D01*
X62099615Y-58181392D01*
X62099612Y-58181390D01*
X61900888Y-58066656D01*
X61900886Y-58066655D01*
X61900879Y-58066651D01*
X61688887Y-57978842D01*
X61644557Y-57966964D01*
X61467239Y-57919452D01*
X61467233Y-57919451D01*
X61467228Y-57919450D01*
X61239735Y-57889501D01*
X61239734Y-57889501D01*
X61010266Y-57889501D01*
X61010265Y-57889501D01*
X60782771Y-57919450D01*
X60782764Y-57919451D01*
X60782761Y-57919452D01*
X60712486Y-57938282D01*
X60561112Y-57978842D01*
X60349120Y-58066651D01*
X60349111Y-58066656D01*
X60150388Y-58181390D01*
X60150378Y-58181396D01*
X59968344Y-58321075D01*
X59968336Y-58321082D01*
X59942677Y-58346740D01*
X59881353Y-58380223D01*
X59811661Y-58375236D01*
X59767318Y-58346737D01*
X59741670Y-58321089D01*
X59741661Y-58321081D01*
X59559617Y-58181392D01*
X59530764Y-58164734D01*
X59360888Y-58066656D01*
X59360886Y-58066655D01*
X59360876Y-58066650D01*
X59148887Y-57978842D01*
X59104553Y-57966963D01*
X58927238Y-57919452D01*
X58889215Y-57914446D01*
X58699741Y-57889500D01*
X58699734Y-57889500D01*
X51845266Y-57889500D01*
X51845265Y-57889500D01*
X51821557Y-57892620D01*
X51821557Y-57892621D01*
X51788280Y-57897002D01*
X51617764Y-57919450D01*
X51440443Y-57966963D01*
X51440443Y-57966964D01*
X51396113Y-57978842D01*
X51396110Y-57978843D01*
X51396107Y-57978844D01*
X51396103Y-57978845D01*
X51329742Y-58006333D01*
X51329724Y-58006341D01*
X51327383Y-58007311D01*
X51184113Y-58066655D01*
X51125991Y-58100212D01*
X51121184Y-58102987D01*
X51121176Y-58102991D01*
X50985383Y-58181392D01*
X50962598Y-58198876D01*
X50897429Y-58224070D01*
X50887112Y-58224500D01*
X48456282Y-58224500D01*
X48456276Y-58224500D01*
X48456271Y-58224501D01*
X48255244Y-58250966D01*
X48255244Y-58250967D01*
X48251231Y-58251495D01*
X48228779Y-58254451D01*
X48062491Y-58299007D01*
X48062491Y-58299008D01*
X48007129Y-58313842D01*
X48007127Y-58313842D01*
X48007126Y-58313843D01*
X48007119Y-58313845D01*
X47795134Y-58401652D01*
X47795124Y-58401657D01*
X47596404Y-58516388D01*
X47586962Y-58523634D01*
X47414355Y-58656079D01*
X47414348Y-58656085D01*
X44261084Y-61809349D01*
X44261078Y-61809356D01*
X44202832Y-61885265D01*
X44121388Y-61991404D01*
X44033358Y-62143879D01*
X44033357Y-62143880D01*
X44006661Y-62190116D01*
X44006654Y-62190131D01*
X43918845Y-62402119D01*
X43918842Y-62402129D01*
X43875500Y-62563886D01*
X43859452Y-62623778D01*
X43829500Y-62851274D01*
X43829500Y-69424741D01*
X43852364Y-69598398D01*
X43859452Y-69652238D01*
X43918842Y-69873886D01*
X43918845Y-69873896D01*
X43970061Y-69997541D01*
X43979500Y-70044993D01*
X43979500Y-70224207D01*
X43979501Y-70224223D01*
X43989904Y-70356413D01*
X43989905Y-70356420D01*
X44044902Y-70574678D01*
X44044903Y-70574681D01*
X44137991Y-70779622D01*
X44137997Y-70779632D01*
X44266174Y-70964645D01*
X44266178Y-70964650D01*
X44266181Y-70964654D01*
X44425346Y-71123819D01*
X44425350Y-71123822D01*
X44425354Y-71123825D01*
X44535165Y-71199902D01*
X44610374Y-71252007D01*
X44815317Y-71345096D01*
X44815321Y-71345097D01*
X45033579Y-71400094D01*
X45033581Y-71400094D01*
X45033588Y-71400096D01*
X45165783Y-71410500D01*
X45994216Y-71410499D01*
X46126412Y-71400096D01*
X46344683Y-71345096D01*
X46549626Y-71252007D01*
X46734654Y-71123819D01*
X46893819Y-70964654D01*
X47022007Y-70779626D01*
X47115096Y-70574683D01*
X47170096Y-70356412D01*
X47180500Y-70224217D01*
X47180499Y-70044993D01*
X47189938Y-69997541D01*
X47237228Y-69883374D01*
X47241158Y-69873887D01*
X47300548Y-69652238D01*
X47330500Y-69424734D01*
X47330500Y-63742458D01*
X47350185Y-63675419D01*
X47366814Y-63654782D01*
X48042506Y-62979090D01*
X48103825Y-62945608D01*
X48173516Y-62950592D01*
X48229450Y-62992463D01*
X48235721Y-63001677D01*
X48307680Y-63118340D01*
X48307683Y-63118344D01*
X48431654Y-63242315D01*
X48580875Y-63334356D01*
X48580880Y-63334358D01*
X48747302Y-63389505D01*
X48747309Y-63389506D01*
X48850019Y-63399999D01*
X49062499Y-63399999D01*
X49062500Y-63399998D01*
X49062500Y-62124000D01*
X49082185Y-62056961D01*
X49134989Y-62011206D01*
X49186500Y-62000000D01*
X49438500Y-62000000D01*
X49505539Y-62019685D01*
X49551294Y-62072489D01*
X49562500Y-62124000D01*
X49562500Y-63399999D01*
X49751000Y-63399999D01*
X49818039Y-63419684D01*
X49863794Y-63472488D01*
X49875000Y-63523999D01*
X49875000Y-64425000D01*
X50726518Y-64425000D01*
X50715889Y-64443409D01*
X50675000Y-64596009D01*
X50675000Y-64753991D01*
X50715889Y-64906591D01*
X50726518Y-64925000D01*
X49875000Y-64925000D01*
X49875000Y-66022844D01*
X49881401Y-66082372D01*
X49881403Y-66082379D01*
X49931645Y-66217086D01*
X49931649Y-66217093D01*
X50017809Y-66332187D01*
X50017812Y-66332190D01*
X50132906Y-66418350D01*
X50132913Y-66418354D01*
X50267620Y-66468596D01*
X50267627Y-66468598D01*
X50327155Y-66474999D01*
X50327172Y-66475000D01*
X51025000Y-66475000D01*
X51025000Y-65223482D01*
X51043409Y-65234111D01*
X51196009Y-65275000D01*
X51353991Y-65275000D01*
X51506591Y-65234111D01*
X51525000Y-65223482D01*
X51525000Y-66475000D01*
X52222828Y-66475000D01*
X52222844Y-66474999D01*
X52282372Y-66468598D01*
X52282376Y-66468597D01*
X52381425Y-66431654D01*
X52451117Y-66426670D01*
X52512440Y-66460154D01*
X52512440Y-66460155D01*
X52559218Y-66506933D01*
X52559225Y-66506939D01*
X52756873Y-66658599D01*
X52972623Y-66783162D01*
X52972638Y-66783169D01*
X53025498Y-66805064D01*
X53202793Y-66878502D01*
X53443435Y-66942982D01*
X53690435Y-66975500D01*
X53690442Y-66975500D01*
X53939558Y-66975500D01*
X53939565Y-66975500D01*
X54186565Y-66942982D01*
X54427207Y-66878502D01*
X54657373Y-66783164D01*
X54873127Y-66658599D01*
X55009514Y-66553946D01*
X55074683Y-66528752D01*
X55143128Y-66542790D01*
X55160486Y-66553946D01*
X55296873Y-66658599D01*
X55512623Y-66783162D01*
X55512638Y-66783169D01*
X55565498Y-66805064D01*
X55742793Y-66878502D01*
X55983435Y-66942982D01*
X56230435Y-66975500D01*
X56230442Y-66975500D01*
X56479558Y-66975500D01*
X56479565Y-66975500D01*
X56726565Y-66942982D01*
X56967207Y-66878502D01*
X56973042Y-66876084D01*
X57042509Y-66868612D01*
X57104990Y-66899883D01*
X57140646Y-66959970D01*
X57144500Y-66990643D01*
X57144500Y-69109727D01*
X57144501Y-69109743D01*
X57155761Y-69195266D01*
X57170082Y-69304047D01*
X57174452Y-69337239D01*
X57197801Y-69424378D01*
X57209201Y-69466924D01*
X57233843Y-69558889D01*
X57233845Y-69558896D01*
X57321652Y-69770881D01*
X57321657Y-69770891D01*
X57436390Y-69969614D01*
X57444473Y-69980147D01*
X57444476Y-69980151D01*
X57576078Y-70151659D01*
X57576084Y-70151666D01*
X78943333Y-91518915D01*
X78943340Y-91518921D01*
X79032775Y-91587546D01*
X79032776Y-91587548D01*
X79125383Y-91658607D01*
X79125388Y-91658611D01*
X79258564Y-91735500D01*
X79324113Y-91773345D01*
X79408609Y-91808344D01*
X79412053Y-91809770D01*
X79412054Y-91809771D01*
X79453544Y-91826957D01*
X79536113Y-91861158D01*
X79557775Y-91866962D01*
X79557777Y-91866963D01*
X79557778Y-91866963D01*
X79757761Y-91920549D01*
X79961553Y-91947377D01*
X79961555Y-91947378D01*
X79961556Y-91947378D01*
X79968151Y-91948246D01*
X79985266Y-91950500D01*
X79985267Y-91950500D01*
X79985270Y-91950500D01*
X91314727Y-91950500D01*
X91314734Y-91950500D01*
X91542238Y-91920548D01*
X91763887Y-91861158D01*
X91975888Y-91773344D01*
X92174612Y-91658611D01*
X92356661Y-91518919D01*
X92438762Y-91436817D01*
X92465693Y-91422111D01*
X92491507Y-91405523D01*
X92497706Y-91404631D01*
X92500083Y-91403334D01*
X92526442Y-91400500D01*
X92600500Y-91400500D01*
X92667539Y-91420185D01*
X92713294Y-91472989D01*
X92724500Y-91524500D01*
X92724500Y-92875500D01*
X92704815Y-92942539D01*
X92652011Y-92988294D01*
X92600501Y-92999500D01*
X92410792Y-92999500D01*
X92410776Y-92999501D01*
X92278586Y-93009904D01*
X92278579Y-93009905D01*
X92060321Y-93064902D01*
X92060318Y-93064903D01*
X91855377Y-93157991D01*
X91855367Y-93157997D01*
X91670354Y-93286174D01*
X91670342Y-93286184D01*
X91511184Y-93445342D01*
X91511174Y-93445354D01*
X91382997Y-93630367D01*
X91382991Y-93630377D01*
X91318763Y-93771781D01*
X91273116Y-93824678D01*
X91206117Y-93844500D01*
X54624000Y-93844500D01*
X54556961Y-93824815D01*
X54511206Y-93772011D01*
X54500000Y-93720500D01*
X54500000Y-87500000D01*
X31500000Y-87500000D01*
X29000500Y-87500000D01*
X29000500Y-78609988D01*
X39900001Y-78609988D01*
X39910494Y-78712699D01*
X39965640Y-78879120D01*
X39965642Y-78879125D01*
X40057683Y-79028346D01*
X40181653Y-79152316D01*
X40330874Y-79244357D01*
X40330879Y-79244359D01*
X40497301Y-79299505D01*
X40600017Y-79309999D01*
X43049999Y-79309999D01*
X43550000Y-79309999D01*
X45999974Y-79309999D01*
X45999988Y-79309998D01*
X46102699Y-79299505D01*
X46269120Y-79244359D01*
X46269125Y-79244357D01*
X46418346Y-79152316D01*
X46542316Y-79028346D01*
X46634357Y-78879125D01*
X46634359Y-78879120D01*
X46689505Y-78712698D01*
X46699999Y-78609988D01*
X46700000Y-78609975D01*
X46700000Y-75860000D01*
X43550000Y-75860000D01*
X43550000Y-79309999D01*
X43049999Y-79309999D01*
X43050000Y-79309998D01*
X43050000Y-75860000D01*
X39900001Y-75860000D01*
X39900001Y-78609988D01*
X29000500Y-78609988D01*
X29000500Y-72610011D01*
X39900000Y-72610011D01*
X39900000Y-75360000D01*
X43050000Y-75360000D01*
X43550000Y-75360000D01*
X46699999Y-75360000D01*
X46699999Y-72610026D01*
X46699998Y-72610011D01*
X46689505Y-72507300D01*
X46634359Y-72340879D01*
X46634357Y-72340874D01*
X46542316Y-72191653D01*
X46418346Y-72067683D01*
X46269125Y-71975642D01*
X46269120Y-71975640D01*
X46102698Y-71920494D01*
X45999988Y-71910000D01*
X43550000Y-71910000D01*
X43550000Y-75360000D01*
X43050000Y-75360000D01*
X43050000Y-71910000D01*
X40600026Y-71910000D01*
X40600010Y-71910001D01*
X40497300Y-71920494D01*
X40330879Y-71975640D01*
X40330874Y-71975642D01*
X40181653Y-72067683D01*
X40057683Y-72191653D01*
X39965642Y-72340874D01*
X39965640Y-72340879D01*
X39910494Y-72507301D01*
X39900000Y-72610011D01*
X29000500Y-72610011D01*
X29000500Y-65997682D01*
X31000000Y-65997682D01*
X31000000Y-66202317D01*
X31032009Y-66404417D01*
X31095244Y-66599031D01*
X31188141Y-66781350D01*
X31188147Y-66781359D01*
X31220523Y-66825921D01*
X31220524Y-66825922D01*
X31900000Y-66146446D01*
X31900000Y-66152661D01*
X31927259Y-66254394D01*
X31979920Y-66345606D01*
X32054394Y-66420080D01*
X32145606Y-66472741D01*
X32247339Y-66500000D01*
X32253553Y-66500000D01*
X31574076Y-67179474D01*
X31618650Y-67211859D01*
X31800968Y-67304755D01*
X31995582Y-67367990D01*
X32197683Y-67400000D01*
X32402317Y-67400000D01*
X32604417Y-67367990D01*
X32799031Y-67304755D01*
X32981349Y-67211859D01*
X33025921Y-67179474D01*
X32346447Y-66500000D01*
X32352661Y-66500000D01*
X32454394Y-66472741D01*
X32545606Y-66420080D01*
X32620080Y-66345606D01*
X32672741Y-66254394D01*
X32700000Y-66152661D01*
X32700000Y-66146447D01*
X33379474Y-66825921D01*
X33411859Y-66781349D01*
X33504755Y-66599031D01*
X33567990Y-66404417D01*
X33600000Y-66202317D01*
X33600000Y-65997682D01*
X33567990Y-65795582D01*
X33504755Y-65600968D01*
X33411859Y-65418650D01*
X33379474Y-65374077D01*
X33379474Y-65374076D01*
X32700000Y-66053551D01*
X32700000Y-66047339D01*
X32672741Y-65945606D01*
X32620080Y-65854394D01*
X32545606Y-65779920D01*
X32454394Y-65727259D01*
X32352661Y-65700000D01*
X32346446Y-65700000D01*
X33025922Y-65020524D01*
X33025921Y-65020523D01*
X32981359Y-64988147D01*
X32981350Y-64988141D01*
X32799031Y-64895244D01*
X32604417Y-64832009D01*
X32402317Y-64800000D01*
X32197683Y-64800000D01*
X31995582Y-64832009D01*
X31800968Y-64895244D01*
X31618644Y-64988143D01*
X31574077Y-65020523D01*
X31574077Y-65020524D01*
X32253554Y-65700000D01*
X32247339Y-65700000D01*
X32145606Y-65727259D01*
X32054394Y-65779920D01*
X31979920Y-65854394D01*
X31927259Y-65945606D01*
X31900000Y-66047339D01*
X31900000Y-66053553D01*
X31220524Y-65374077D01*
X31220523Y-65374077D01*
X31188143Y-65418644D01*
X31095244Y-65600968D01*
X31032009Y-65795582D01*
X31000000Y-65997682D01*
X29000500Y-65997682D01*
X29000500Y-64074986D01*
X33070001Y-64074986D01*
X33080494Y-64177697D01*
X33135641Y-64344119D01*
X33135643Y-64344124D01*
X33227684Y-64493345D01*
X33351654Y-64617315D01*
X33500875Y-64709356D01*
X33500880Y-64709358D01*
X33667302Y-64764505D01*
X33667309Y-64764506D01*
X33770019Y-64774999D01*
X33982499Y-64774999D01*
X33982500Y-64774998D01*
X33982500Y-63625000D01*
X33070001Y-63625000D01*
X33070001Y-64074986D01*
X29000500Y-64074986D01*
X29000500Y-62675013D01*
X33070000Y-62675013D01*
X33070000Y-63125000D01*
X33982500Y-63125000D01*
X33982500Y-61975000D01*
X33770029Y-61975000D01*
X33770012Y-61975001D01*
X33667302Y-61985494D01*
X33500880Y-62040641D01*
X33500875Y-62040643D01*
X33351654Y-62132684D01*
X33227684Y-62256654D01*
X33135643Y-62405875D01*
X33135641Y-62405880D01*
X33080494Y-62572302D01*
X33080493Y-62572309D01*
X33070000Y-62675013D01*
X29000500Y-62675013D01*
X29000500Y-49974500D01*
X29020185Y-49907461D01*
X29072989Y-49861706D01*
X29124500Y-49850500D01*
X156425500Y-49850500D01*
X156492539Y-49870185D01*
G37*
%TD.AperFunction*%
%TD*%
M02*
