%TF.GenerationSoftware,KiCad,Pcbnew,10.0.1*%
%TF.CreationDate,2026-09-21T16:13:06-03:00*%
%TF.ProjectId,Inv_Spot_Disp,496e765f-5370-46f7-945f-446973702e6b,rev?*%
%TF.SameCoordinates,Original*%
%TF.FileFunction,Copper,L1,Top*%
%TF.FilePolarity,Positive*%
%FSLAX46Y46*%
G04 Gerber Fmt 4.6, Leading zero omitted, Abs format (unit mm)*
G04 Created by KiCad (PCBNEW 10.0.1) date 2026-09-21 16:13:06*
%MOMM*%
%LPD*%
G01*
G04 APERTURE LIST*
G04 Aperture macros list*
%AMRoundRect*
0 Rectangle with rounded corners*
0 $1 Rounding radius*
0 $2 $3 $4 $5 $6 $7 $8 $9 X,Y pos of 4 corners*
0 Add a 4 corners polygon primitive as box body*
4,1,4,$2,$3,$4,$5,$6,$7,$8,$9,$2,$3,0*
0 Add four circle primitives for the rounded corners*
1,1,$1+$1,$2,$3*
1,1,$1+$1,$4,$5*
1,1,$1+$1,$6,$7*
1,1,$1+$1,$8,$9*
0 Add four rect primitives between the rounded corners*
20,1,$1+$1,$2,$3,$4,$5,0*
20,1,$1+$1,$4,$5,$6,$7,0*
20,1,$1+$1,$6,$7,$8,$9,0*
20,1,$1+$1,$8,$9,$2,$3,0*%
G04 Aperture macros list end*
%TA.AperFunction,ComponentPad*%
%ADD10RoundRect,0.250000X0.750000X0.750000X-0.750000X0.750000X-0.750000X-0.750000X0.750000X-0.750000X0*%
%TD*%
%TA.AperFunction,ComponentPad*%
%ADD11C,2.000000*%
%TD*%
%TA.AperFunction,ComponentPad*%
%ADD12R,2.250000X2.250000*%
%TD*%
%TA.AperFunction,ComponentPad*%
%ADD13C,2.250000*%
%TD*%
%TA.AperFunction,ComponentPad*%
%ADD14C,1.440000*%
%TD*%
%TA.AperFunction,ComponentPad*%
%ADD15C,1.600000*%
%TD*%
%TA.AperFunction,ComponentPad*%
%ADD16R,1.700000X1.700000*%
%TD*%
%TA.AperFunction,ComponentPad*%
%ADD17C,1.700000*%
%TD*%
%TA.AperFunction,ComponentPad*%
%ADD18R,1.800000X1.800000*%
%TD*%
%TA.AperFunction,ComponentPad*%
%ADD19C,1.800000*%
%TD*%
%TA.AperFunction,ComponentPad*%
%ADD20R,1.800000X2.600000*%
%TD*%
%TA.AperFunction,ComponentPad*%
%ADD21O,1.800000X2.600000*%
%TD*%
%TA.AperFunction,ViaPad*%
%ADD22C,2.000000*%
%TD*%
%TA.AperFunction,Conductor*%
%ADD23C,1.500000*%
%TD*%
G04 APERTURE END LIST*
D10*
%TO.P,C1,1*%
%TO.N,15V*%
X85192677Y-55650000D03*
D11*
%TO.P,C1,2*%
%TO.N,GND*%
X80192677Y-55650000D03*
%TD*%
D12*
%TO.P,SW5,1,1_1*%
%TO.N,Net-(C9-Pad1)*%
X38000000Y-101750000D03*
D13*
%TO.P,SW5,2,2_2*%
%TO.N,Net-(R8-Pad1)*%
X38000000Y-108250000D03*
%TD*%
D14*
%TO.P,RV1,1,1_1*%
%TO.N,5V*%
X58585000Y-59640000D03*
%TO.P,RV1,2,2_2*%
%TO.N,Net-(U2-VO)*%
X61125000Y-59640000D03*
%TO.P,RV1,3,3_3*%
%TO.N,GND*%
X63665000Y-59640000D03*
%TD*%
D15*
%TO.P,C2,1*%
%TO.N,3V3*%
X102575000Y-55200000D03*
%TO.P,C2,2*%
%TO.N,GND*%
X97575000Y-55200000D03*
%TD*%
D16*
%TO.P,J1,1,Pin_1_1*%
%TO.N,Net-(J1-Pin_1)*%
X93350000Y-58875000D03*
D17*
%TO.P,J1,2,Pin_2_2*%
%TO.N,Net-(J1-Pin_2)*%
X90810000Y-58875000D03*
%TD*%
D16*
%TO.P,J3,1,Pin_1_1*%
%TO.N,24V*%
X35000000Y-92775000D03*
D17*
%TO.P,J3,2,Pin_2_2*%
%TO.N,TGND*%
X35000000Y-90235000D03*
%TD*%
D11*
%TO.P,SW2,1,1_1*%
%TO.N,GND*%
X153375000Y-81050000D03*
X153375000Y-87550000D03*
%TO.P,SW2,2,2_2*%
%TO.N,Net-(R3-Pad2)*%
X148875000Y-81050000D03*
X148875000Y-87550000D03*
%TD*%
D15*
%TO.P,C3,1*%
%TO.N,5V*%
X51625000Y-59975000D03*
%TO.P,C3,2*%
%TO.N,GND*%
X51625000Y-54975000D03*
%TD*%
D11*
%TO.P,SW4,1,1_1*%
%TO.N,GND*%
X153375000Y-108225000D03*
X153375000Y-114725000D03*
%TO.P,SW4,2,2_2*%
%TO.N,Net-(R5-Pad2)*%
X148875000Y-108225000D03*
X148875000Y-114725000D03*
%TD*%
D15*
%TO.P,C7,1*%
%TO.N,7V*%
X37300000Y-66100000D03*
%TO.P,C7,2*%
%TO.N,GND*%
X32300000Y-66100000D03*
%TD*%
D18*
%TO.P,D2,1,K_1*%
%TO.N,Net-(D2-K)*%
X70115000Y-54835000D03*
D19*
%TO.P,D2,2,A_2*%
%TO.N,GND*%
X72655000Y-54835000D03*
%TD*%
D16*
%TO.P,J4,1,Pin_1_1*%
%TO.N,3V3*%
X106550000Y-58700000D03*
D17*
%TO.P,J4,2,Pin_2_2*%
%TO.N,Net-(J4-Pin_2)*%
X109090000Y-58700000D03*
%TO.P,J4,3,Pin_3_3*%
%TO.N,Net-(J4-Pin_3)*%
X111630000Y-58700000D03*
%TO.P,J4,4,Pin_4_4*%
%TO.N,GND*%
X114170000Y-58700000D03*
%TD*%
D20*
%TO.P,U2,1,VSS_1*%
%TO.N,GND*%
X51275000Y-64675000D03*
D21*
%TO.P,U2,2,VDD_2*%
%TO.N,5V*%
X53815000Y-64675000D03*
%TO.P,U2,3,VO_3*%
%TO.N,Net-(U2-VO)*%
X56355000Y-64675000D03*
%TO.P,U2,4,RS_4*%
%TO.N,RS*%
X58895000Y-64675000D03*
%TO.P,U2,5,R/W_5*%
%TO.N,GND*%
X61435000Y-64675000D03*
%TO.P,U2,6,E_6*%
%TO.N,Enable*%
X63975000Y-64675000D03*
%TO.P,U2,11,DB4_11*%
%TO.N,D4*%
X76675000Y-64675000D03*
%TO.P,U2,12,DB5_12*%
%TO.N,D5*%
X79215000Y-64675000D03*
%TO.P,U2,13,DB6_13*%
%TO.N,D6*%
X81755000Y-64675000D03*
%TO.P,U2,14,DB7_14*%
%TO.N,D7*%
X84295000Y-64675000D03*
%TO.P,U2,15,A_15*%
%TO.N,5V*%
X86835000Y-64675000D03*
%TO.P,U2,16,K_16*%
%TO.N,GND*%
X89375000Y-64675000D03*
%TD*%
D11*
%TO.P,SW3,1,1_1*%
%TO.N,GND*%
X153375000Y-93625000D03*
X153375000Y-100125000D03*
%TO.P,SW3,2,2_2*%
%TO.N,Net-(R4-Pad2)*%
X148875000Y-93625000D03*
X148875000Y-100125000D03*
%TD*%
%TO.P,SW1,1,1_1*%
%TO.N,GND*%
X153450000Y-67800000D03*
X153450000Y-74300000D03*
%TO.P,SW1,2,2_2*%
%TO.N,Net-(R2-Pad2)*%
X148950000Y-67800000D03*
X148950000Y-74300000D03*
%TD*%
D16*
%TO.P,J2,1,Pin_1_1*%
%TO.N,15V*%
X36925000Y-52200000D03*
D17*
%TO.P,J2,2,Pin_2_2*%
%TO.N,GND*%
X36925000Y-54740000D03*
%TO.P,J2,3,Pin_3_3*%
%TO.N,7V*%
X36925000Y-57280000D03*
%TD*%
D22*
%TO.N,GND*%
X112300000Y-77025000D03*
X115500000Y-97200000D03*
X138900000Y-108425000D03*
X144425000Y-108425000D03*
X115500000Y-102825000D03*
X59000000Y-54975000D03*
X138900000Y-90725000D03*
X89500000Y-83800000D03*
X102100000Y-89050000D03*
X112375000Y-66575000D03*
X40375000Y-54740000D03*
X144250000Y-90725000D03*
X69100000Y-98350000D03*
X138625000Y-76450000D03*
X69200000Y-92700000D03*
X144325000Y-76675000D03*
%TO.N,5V*%
X102875000Y-61225000D03*
%TO.N,D4*%
X98635050Y-80060050D03*
%TO.N,D5*%
X98337198Y-77742701D03*
%TO.N,D6*%
X96000000Y-74250000D03*
%TO.N,D7*%
X89134352Y-71390648D03*
%TD*%
%TO.N,GND*%
D23*
X101025000Y-89050000D02*
X97775000Y-85800000D01*
X102100000Y-89050000D02*
X101025000Y-89050000D01*
X91500000Y-85800000D02*
X89500000Y-83800000D01*
X97775000Y-85800000D02*
X91500000Y-85800000D01*
%TO.N,5V*%
X87000000Y-61310000D02*
X84500000Y-61310000D01*
X86835000Y-63645000D02*
X84500000Y-61310000D01*
X84500000Y-61310000D02*
X60255000Y-61310000D01*
X102790000Y-61310000D02*
X102875000Y-61225000D01*
X86835000Y-64675000D02*
X86835000Y-63645000D01*
X60255000Y-61310000D02*
X58585000Y-59640000D01*
X87000000Y-61310000D02*
X102790000Y-61310000D01*
%TO.N,D4*%
X86910050Y-80060050D02*
X98635050Y-80060050D01*
X76675000Y-64675000D02*
X76675000Y-69825000D01*
X76675000Y-69825000D02*
X86910050Y-80060050D01*
%TO.N,D5*%
X87542701Y-77742701D02*
X98337198Y-77742701D01*
X79215000Y-64675000D02*
X79215000Y-69415000D01*
X79215000Y-69415000D02*
X87542701Y-77742701D01*
%TO.N,D6*%
X81755000Y-64675000D02*
X81755000Y-68255000D01*
X81755000Y-68255000D02*
X87750000Y-74250000D01*
X87750000Y-74250000D02*
X96000000Y-74250000D01*
%TO.N,D7*%
X84295000Y-66551296D02*
X89134352Y-71390648D01*
X84295000Y-64675000D02*
X84295000Y-66551296D01*
%TD*%
%TA.AperFunction,Conductor*%
%TO.N,GND*%
G36*
X156492539Y-49870185D02*
G01*
X156538294Y-49922989D01*
X156549500Y-49974500D01*
X156549500Y-124000500D01*
X156529815Y-124067539D01*
X156477011Y-124113294D01*
X156425500Y-124124500D01*
X29124500Y-124124500D01*
X29057461Y-124104815D01*
X29011706Y-124052011D01*
X29000500Y-124000500D01*
X29000500Y-114593872D01*
X146874500Y-114593872D01*
X146874500Y-114856127D01*
X146901123Y-115058339D01*
X146908730Y-115116116D01*
X146976602Y-115369418D01*
X146976605Y-115369428D01*
X147076953Y-115611690D01*
X147076958Y-115611700D01*
X147208075Y-115838803D01*
X147367718Y-116046851D01*
X147367726Y-116046860D01*
X147553140Y-116232274D01*
X147553148Y-116232281D01*
X147761196Y-116391924D01*
X147988299Y-116523041D01*
X147988309Y-116523046D01*
X148230571Y-116623394D01*
X148230581Y-116623398D01*
X148483884Y-116691270D01*
X148743880Y-116725500D01*
X148743887Y-116725500D01*
X149006113Y-116725500D01*
X149006120Y-116725500D01*
X149266116Y-116691270D01*
X149519419Y-116623398D01*
X149761697Y-116523043D01*
X149988803Y-116391924D01*
X150196851Y-116232282D01*
X150196855Y-116232277D01*
X150196860Y-116232274D01*
X150382274Y-116046860D01*
X150382277Y-116046855D01*
X150382282Y-116046851D01*
X150541924Y-115838803D01*
X150541967Y-115838727D01*
X150542162Y-115838392D01*
X150542162Y-115838391D01*
X150673041Y-115611700D01*
X150673046Y-115611690D01*
X150773394Y-115369428D01*
X150773398Y-115369419D01*
X150841270Y-115116116D01*
X150875500Y-114856120D01*
X150875500Y-114606947D01*
X151875000Y-114606947D01*
X151875000Y-114843052D01*
X151911934Y-115076247D01*
X151984897Y-115300802D01*
X152092087Y-115511174D01*
X152152338Y-115594104D01*
X152152340Y-115594105D01*
X152851212Y-114895233D01*
X152862482Y-114937292D01*
X152934890Y-115062708D01*
X153037292Y-115165110D01*
X153162708Y-115237518D01*
X153204765Y-115248787D01*
X152505893Y-115947658D01*
X152588828Y-116007914D01*
X152799197Y-116115102D01*
X153023752Y-116188065D01*
X153023751Y-116188065D01*
X153256948Y-116225000D01*
X153493052Y-116225000D01*
X153726247Y-116188065D01*
X153950802Y-116115102D01*
X154161163Y-116007918D01*
X154161169Y-116007914D01*
X154244104Y-115947658D01*
X154244105Y-115947658D01*
X153545233Y-115248787D01*
X153587292Y-115237518D01*
X153712708Y-115165110D01*
X153815110Y-115062708D01*
X153887518Y-114937292D01*
X153898787Y-114895234D01*
X154597658Y-115594105D01*
X154597658Y-115594104D01*
X154657914Y-115511169D01*
X154657918Y-115511163D01*
X154765102Y-115300802D01*
X154838065Y-115076247D01*
X154875000Y-114843052D01*
X154875000Y-114606947D01*
X154838065Y-114373752D01*
X154765102Y-114149197D01*
X154657914Y-113938828D01*
X154597658Y-113855894D01*
X154597658Y-113855893D01*
X153898787Y-114554765D01*
X153887518Y-114512708D01*
X153815110Y-114387292D01*
X153712708Y-114284890D01*
X153587292Y-114212482D01*
X153545234Y-114201212D01*
X154244105Y-113502340D01*
X154244104Y-113502338D01*
X154161174Y-113442087D01*
X153950802Y-113334897D01*
X153726247Y-113261934D01*
X153726248Y-113261934D01*
X153493052Y-113225000D01*
X153256948Y-113225000D01*
X153023752Y-113261934D01*
X152799197Y-113334897D01*
X152588830Y-113442084D01*
X152505894Y-113502340D01*
X153204766Y-114201212D01*
X153162708Y-114212482D01*
X153037292Y-114284890D01*
X152934890Y-114387292D01*
X152862482Y-114512708D01*
X152851212Y-114554766D01*
X152152340Y-113855894D01*
X152092084Y-113938830D01*
X151984897Y-114149197D01*
X151911934Y-114373752D01*
X151875000Y-114606947D01*
X150875500Y-114606947D01*
X150875500Y-114593880D01*
X150841270Y-114333884D01*
X150773398Y-114080581D01*
X150714682Y-113938828D01*
X150673046Y-113838309D01*
X150673041Y-113838299D01*
X150542156Y-113611599D01*
X150542154Y-113611594D01*
X150542150Y-113611589D01*
X150541924Y-113611197D01*
X150382282Y-113403149D01*
X150382281Y-113403148D01*
X150382274Y-113403140D01*
X150196860Y-113217726D01*
X150196851Y-113217718D01*
X149988803Y-113058075D01*
X149761700Y-112926958D01*
X149761690Y-112926953D01*
X149519428Y-112826605D01*
X149519421Y-112826603D01*
X149519419Y-112826602D01*
X149266116Y-112758730D01*
X149208339Y-112751123D01*
X149006127Y-112724500D01*
X149006120Y-112724500D01*
X148743880Y-112724500D01*
X148743872Y-112724500D01*
X148512772Y-112754926D01*
X148483884Y-112758730D01*
X148230581Y-112826602D01*
X148230571Y-112826605D01*
X147988309Y-112926953D01*
X147988299Y-112926958D01*
X147761196Y-113058075D01*
X147553148Y-113217718D01*
X147367718Y-113403148D01*
X147208075Y-113611196D01*
X147076958Y-113838299D01*
X147076953Y-113838309D01*
X146976605Y-114080571D01*
X146976602Y-114080581D01*
X146941260Y-114212482D01*
X146908730Y-114333885D01*
X146874500Y-114593872D01*
X29000500Y-114593872D01*
X29000500Y-110500000D01*
X31500000Y-110500000D01*
X54500000Y-110500000D01*
X54500000Y-108093872D01*
X146874500Y-108093872D01*
X146874500Y-108356127D01*
X146901123Y-108558339D01*
X146908730Y-108616116D01*
X146976602Y-108869418D01*
X146976605Y-108869428D01*
X147076953Y-109111690D01*
X147076958Y-109111700D01*
X147208075Y-109338803D01*
X147367718Y-109546851D01*
X147367726Y-109546860D01*
X147553140Y-109732274D01*
X147553148Y-109732281D01*
X147761196Y-109891924D01*
X147988299Y-110023041D01*
X147988309Y-110023046D01*
X148230571Y-110123394D01*
X148230581Y-110123398D01*
X148483884Y-110191270D01*
X148743880Y-110225500D01*
X148743887Y-110225500D01*
X149006113Y-110225500D01*
X149006120Y-110225500D01*
X149266116Y-110191270D01*
X149519419Y-110123398D01*
X149761697Y-110023043D01*
X149988803Y-109891924D01*
X150196851Y-109732282D01*
X150196855Y-109732277D01*
X150196860Y-109732274D01*
X150382274Y-109546860D01*
X150382277Y-109546855D01*
X150382282Y-109546851D01*
X150541924Y-109338803D01*
X150541967Y-109338727D01*
X150542162Y-109338392D01*
X150542162Y-109338391D01*
X150673041Y-109111700D01*
X150673046Y-109111690D01*
X150773394Y-108869428D01*
X150773398Y-108869419D01*
X150841270Y-108616116D01*
X150875500Y-108356120D01*
X150875500Y-108106947D01*
X151875000Y-108106947D01*
X151875000Y-108343052D01*
X151911934Y-108576247D01*
X151984897Y-108800802D01*
X152092087Y-109011174D01*
X152152338Y-109094104D01*
X152152340Y-109094105D01*
X152851212Y-108395233D01*
X152862482Y-108437292D01*
X152934890Y-108562708D01*
X153037292Y-108665110D01*
X153162708Y-108737518D01*
X153204765Y-108748787D01*
X152505893Y-109447658D01*
X152588828Y-109507914D01*
X152799197Y-109615102D01*
X153023752Y-109688065D01*
X153023751Y-109688065D01*
X153256948Y-109725000D01*
X153493052Y-109725000D01*
X153726247Y-109688065D01*
X153950802Y-109615102D01*
X154161163Y-109507918D01*
X154161169Y-109507914D01*
X154244104Y-109447658D01*
X154244105Y-109447658D01*
X153545233Y-108748787D01*
X153587292Y-108737518D01*
X153712708Y-108665110D01*
X153815110Y-108562708D01*
X153887518Y-108437292D01*
X153898787Y-108395234D01*
X154597658Y-109094105D01*
X154597658Y-109094104D01*
X154657914Y-109011169D01*
X154657918Y-109011163D01*
X154765102Y-108800802D01*
X154838065Y-108576247D01*
X154875000Y-108343052D01*
X154875000Y-108106947D01*
X154838065Y-107873752D01*
X154765102Y-107649197D01*
X154657914Y-107438828D01*
X154597658Y-107355894D01*
X154597658Y-107355893D01*
X153898787Y-108054765D01*
X153887518Y-108012708D01*
X153815110Y-107887292D01*
X153712708Y-107784890D01*
X153587292Y-107712482D01*
X153545234Y-107701212D01*
X154244105Y-107002340D01*
X154244104Y-107002338D01*
X154161174Y-106942087D01*
X153950802Y-106834897D01*
X153726247Y-106761934D01*
X153726248Y-106761934D01*
X153493052Y-106725000D01*
X153256948Y-106725000D01*
X153023752Y-106761934D01*
X152799197Y-106834897D01*
X152588830Y-106942084D01*
X152505894Y-107002340D01*
X153204766Y-107701212D01*
X153162708Y-107712482D01*
X153037292Y-107784890D01*
X152934890Y-107887292D01*
X152862482Y-108012708D01*
X152851212Y-108054766D01*
X152152340Y-107355894D01*
X152092084Y-107438830D01*
X151984897Y-107649197D01*
X151911934Y-107873752D01*
X151875000Y-108106947D01*
X150875500Y-108106947D01*
X150875500Y-108093880D01*
X150841270Y-107833884D01*
X150773398Y-107580581D01*
X150714682Y-107438828D01*
X150673046Y-107338309D01*
X150673041Y-107338299D01*
X150542156Y-107111599D01*
X150542154Y-107111594D01*
X150542150Y-107111589D01*
X150541924Y-107111197D01*
X150382282Y-106903149D01*
X150382281Y-106903148D01*
X150382274Y-106903140D01*
X150196860Y-106717726D01*
X150196851Y-106717718D01*
X149988803Y-106558075D01*
X149761700Y-106426958D01*
X149761690Y-106426953D01*
X149519428Y-106326605D01*
X149519421Y-106326603D01*
X149519419Y-106326602D01*
X149266116Y-106258730D01*
X149208339Y-106251123D01*
X149006127Y-106224500D01*
X149006120Y-106224500D01*
X148743880Y-106224500D01*
X148743872Y-106224500D01*
X148512772Y-106254926D01*
X148483884Y-106258730D01*
X148230581Y-106326602D01*
X148230571Y-106326605D01*
X147988309Y-106426953D01*
X147988299Y-106426958D01*
X147761196Y-106558075D01*
X147553148Y-106717718D01*
X147367718Y-106903148D01*
X147208075Y-107111196D01*
X147076958Y-107338299D01*
X147076953Y-107338309D01*
X146976605Y-107580571D01*
X146976602Y-107580581D01*
X146941260Y-107712482D01*
X146908730Y-107833885D01*
X146874500Y-108093872D01*
X54500000Y-108093872D01*
X54500000Y-99993872D01*
X146874500Y-99993872D01*
X146874500Y-100256127D01*
X146901123Y-100458339D01*
X146908730Y-100516116D01*
X146976602Y-100769418D01*
X146976605Y-100769428D01*
X147076953Y-101011690D01*
X147076958Y-101011700D01*
X147208075Y-101238803D01*
X147367718Y-101446851D01*
X147367726Y-101446860D01*
X147553140Y-101632274D01*
X147553148Y-101632281D01*
X147761196Y-101791924D01*
X147988299Y-101923041D01*
X147988309Y-101923046D01*
X148230571Y-102023394D01*
X148230581Y-102023398D01*
X148483884Y-102091270D01*
X148743880Y-102125500D01*
X148743887Y-102125500D01*
X149006113Y-102125500D01*
X149006120Y-102125500D01*
X149266116Y-102091270D01*
X149519419Y-102023398D01*
X149761697Y-101923043D01*
X149988803Y-101791924D01*
X150196851Y-101632282D01*
X150196855Y-101632277D01*
X150196860Y-101632274D01*
X150382274Y-101446860D01*
X150382277Y-101446855D01*
X150382282Y-101446851D01*
X150541924Y-101238803D01*
X150541967Y-101238727D01*
X150542162Y-101238392D01*
X150542162Y-101238391D01*
X150673041Y-101011700D01*
X150673046Y-101011690D01*
X150773394Y-100769428D01*
X150773398Y-100769419D01*
X150841270Y-100516116D01*
X150875500Y-100256120D01*
X150875500Y-100006947D01*
X151875000Y-100006947D01*
X151875000Y-100243052D01*
X151911934Y-100476247D01*
X151984897Y-100700802D01*
X152092087Y-100911174D01*
X152152338Y-100994104D01*
X152152340Y-100994105D01*
X152851212Y-100295233D01*
X152862482Y-100337292D01*
X152934890Y-100462708D01*
X153037292Y-100565110D01*
X153162708Y-100637518D01*
X153204765Y-100648787D01*
X152505893Y-101347658D01*
X152588828Y-101407914D01*
X152799197Y-101515102D01*
X153023752Y-101588065D01*
X153023751Y-101588065D01*
X153256948Y-101625000D01*
X153493052Y-101625000D01*
X153726247Y-101588065D01*
X153950802Y-101515102D01*
X154161163Y-101407918D01*
X154161169Y-101407914D01*
X154244104Y-101347658D01*
X154244105Y-101347658D01*
X153545233Y-100648787D01*
X153587292Y-100637518D01*
X153712708Y-100565110D01*
X153815110Y-100462708D01*
X153887518Y-100337292D01*
X153898787Y-100295234D01*
X154597658Y-100994105D01*
X154597658Y-100994104D01*
X154657914Y-100911169D01*
X154657918Y-100911163D01*
X154765102Y-100700802D01*
X154838065Y-100476247D01*
X154875000Y-100243052D01*
X154875000Y-100006947D01*
X154838065Y-99773752D01*
X154765102Y-99549197D01*
X154657914Y-99338828D01*
X154597658Y-99255894D01*
X154597658Y-99255893D01*
X153898787Y-99954765D01*
X153887518Y-99912708D01*
X153815110Y-99787292D01*
X153712708Y-99684890D01*
X153587292Y-99612482D01*
X153545234Y-99601212D01*
X154244105Y-98902340D01*
X154244104Y-98902338D01*
X154161174Y-98842087D01*
X153950802Y-98734897D01*
X153726247Y-98661934D01*
X153726248Y-98661934D01*
X153493052Y-98625000D01*
X153256948Y-98625000D01*
X153023752Y-98661934D01*
X152799197Y-98734897D01*
X152588830Y-98842084D01*
X152505894Y-98902340D01*
X153204766Y-99601212D01*
X153162708Y-99612482D01*
X153037292Y-99684890D01*
X152934890Y-99787292D01*
X152862482Y-99912708D01*
X152851212Y-99954766D01*
X152152340Y-99255894D01*
X152092084Y-99338830D01*
X151984897Y-99549197D01*
X151911934Y-99773752D01*
X151875000Y-100006947D01*
X150875500Y-100006947D01*
X150875500Y-99993880D01*
X150841270Y-99733884D01*
X150773398Y-99480581D01*
X150714682Y-99338828D01*
X150673046Y-99238309D01*
X150673041Y-99238299D01*
X150542156Y-99011599D01*
X150542154Y-99011594D01*
X150542150Y-99011589D01*
X150541924Y-99011197D01*
X150382282Y-98803149D01*
X150382281Y-98803148D01*
X150382274Y-98803140D01*
X150196860Y-98617726D01*
X150196851Y-98617718D01*
X149988803Y-98458075D01*
X149761700Y-98326958D01*
X149761690Y-98326953D01*
X149519428Y-98226605D01*
X149519421Y-98226603D01*
X149519419Y-98226602D01*
X149266116Y-98158730D01*
X149208339Y-98151123D01*
X149006127Y-98124500D01*
X149006120Y-98124500D01*
X148743880Y-98124500D01*
X148743872Y-98124500D01*
X148512772Y-98154926D01*
X148483884Y-98158730D01*
X148230581Y-98226602D01*
X148230571Y-98226605D01*
X147988309Y-98326953D01*
X147988299Y-98326958D01*
X147761196Y-98458075D01*
X147553148Y-98617718D01*
X147367718Y-98803148D01*
X147208075Y-99011196D01*
X147076958Y-99238299D01*
X147076953Y-99238309D01*
X146976605Y-99480571D01*
X146976602Y-99480581D01*
X146941260Y-99612482D01*
X146908730Y-99733885D01*
X146874500Y-99993872D01*
X54500000Y-99993872D01*
X54500000Y-93493872D01*
X146874500Y-93493872D01*
X146874500Y-93756127D01*
X146901123Y-93958339D01*
X146908730Y-94016116D01*
X146976602Y-94269418D01*
X146976605Y-94269428D01*
X147076953Y-94511690D01*
X147076958Y-94511700D01*
X147208075Y-94738803D01*
X147367718Y-94946851D01*
X147367726Y-94946860D01*
X147553140Y-95132274D01*
X147553148Y-95132281D01*
X147761196Y-95291924D01*
X147988299Y-95423041D01*
X147988309Y-95423046D01*
X148230571Y-95523394D01*
X148230581Y-95523398D01*
X148483884Y-95591270D01*
X148743880Y-95625500D01*
X148743887Y-95625500D01*
X149006113Y-95625500D01*
X149006120Y-95625500D01*
X149266116Y-95591270D01*
X149519419Y-95523398D01*
X149761697Y-95423043D01*
X149988803Y-95291924D01*
X150196851Y-95132282D01*
X150196855Y-95132277D01*
X150196860Y-95132274D01*
X150382274Y-94946860D01*
X150382277Y-94946855D01*
X150382282Y-94946851D01*
X150541924Y-94738803D01*
X150541967Y-94738727D01*
X150542162Y-94738392D01*
X150542162Y-94738391D01*
X150673041Y-94511700D01*
X150673046Y-94511690D01*
X150773394Y-94269428D01*
X150773398Y-94269419D01*
X150841270Y-94016116D01*
X150875500Y-93756120D01*
X150875500Y-93506947D01*
X151875000Y-93506947D01*
X151875000Y-93743052D01*
X151911934Y-93976247D01*
X151984897Y-94200802D01*
X152092087Y-94411174D01*
X152152338Y-94494104D01*
X152152340Y-94494105D01*
X152851212Y-93795233D01*
X152862482Y-93837292D01*
X152934890Y-93962708D01*
X153037292Y-94065110D01*
X153162708Y-94137518D01*
X153204765Y-94148787D01*
X152505893Y-94847658D01*
X152588828Y-94907914D01*
X152799197Y-95015102D01*
X153023752Y-95088065D01*
X153023751Y-95088065D01*
X153256948Y-95125000D01*
X153493052Y-95125000D01*
X153726247Y-95088065D01*
X153950802Y-95015102D01*
X154161163Y-94907918D01*
X154161169Y-94907914D01*
X154244104Y-94847658D01*
X154244105Y-94847658D01*
X153545233Y-94148787D01*
X153587292Y-94137518D01*
X153712708Y-94065110D01*
X153815110Y-93962708D01*
X153887518Y-93837292D01*
X153898787Y-93795234D01*
X154597658Y-94494105D01*
X154597658Y-94494104D01*
X154657914Y-94411169D01*
X154657918Y-94411163D01*
X154765102Y-94200802D01*
X154838065Y-93976247D01*
X154875000Y-93743052D01*
X154875000Y-93506947D01*
X154838065Y-93273752D01*
X154765102Y-93049197D01*
X154657914Y-92838828D01*
X154597658Y-92755894D01*
X154597658Y-92755893D01*
X153898787Y-93454765D01*
X153887518Y-93412708D01*
X153815110Y-93287292D01*
X153712708Y-93184890D01*
X153587292Y-93112482D01*
X153545234Y-93101212D01*
X154244105Y-92402340D01*
X154244104Y-92402338D01*
X154161174Y-92342087D01*
X153950802Y-92234897D01*
X153726247Y-92161934D01*
X153726248Y-92161934D01*
X153493052Y-92125000D01*
X153256948Y-92125000D01*
X153023752Y-92161934D01*
X152799197Y-92234897D01*
X152588830Y-92342084D01*
X152505894Y-92402340D01*
X153204766Y-93101212D01*
X153162708Y-93112482D01*
X153037292Y-93184890D01*
X152934890Y-93287292D01*
X152862482Y-93412708D01*
X152851212Y-93454766D01*
X152152340Y-92755894D01*
X152092084Y-92838830D01*
X151984897Y-93049197D01*
X151911934Y-93273752D01*
X151875000Y-93506947D01*
X150875500Y-93506947D01*
X150875500Y-93493880D01*
X150841270Y-93233884D01*
X150773398Y-92980581D01*
X150714682Y-92838828D01*
X150673046Y-92738309D01*
X150673041Y-92738299D01*
X150542156Y-92511599D01*
X150542154Y-92511594D01*
X150542150Y-92511589D01*
X150541924Y-92511197D01*
X150382282Y-92303149D01*
X150382281Y-92303148D01*
X150382274Y-92303140D01*
X150196860Y-92117726D01*
X150196851Y-92117718D01*
X149988803Y-91958075D01*
X149761700Y-91826958D01*
X149761690Y-91826953D01*
X149519428Y-91726605D01*
X149519421Y-91726603D01*
X149519419Y-91726602D01*
X149266116Y-91658730D01*
X149208339Y-91651123D01*
X149006127Y-91624500D01*
X149006120Y-91624500D01*
X148743880Y-91624500D01*
X148743872Y-91624500D01*
X148512772Y-91654926D01*
X148483884Y-91658730D01*
X148230581Y-91726602D01*
X148230571Y-91726605D01*
X147988309Y-91826953D01*
X147988299Y-91826958D01*
X147761196Y-91958075D01*
X147553148Y-92117718D01*
X147367718Y-92303148D01*
X147208075Y-92511196D01*
X147076958Y-92738299D01*
X147076953Y-92738309D01*
X146976605Y-92980571D01*
X146976602Y-92980581D01*
X146941260Y-93112482D01*
X146908730Y-93233885D01*
X146874500Y-93493872D01*
X54500000Y-93493872D01*
X54500000Y-87500000D01*
X31500000Y-87500000D01*
X31500000Y-110500000D01*
X29000500Y-110500000D01*
X29000500Y-87418872D01*
X146874500Y-87418872D01*
X146874500Y-87681127D01*
X146901123Y-87883339D01*
X146908730Y-87941116D01*
X146976602Y-88194418D01*
X146976605Y-88194428D01*
X147076953Y-88436690D01*
X147076958Y-88436700D01*
X147208075Y-88663803D01*
X147367718Y-88871851D01*
X147367726Y-88871860D01*
X147553140Y-89057274D01*
X147553148Y-89057281D01*
X147761196Y-89216924D01*
X147988299Y-89348041D01*
X147988309Y-89348046D01*
X148230571Y-89448394D01*
X148230581Y-89448398D01*
X148483884Y-89516270D01*
X148743880Y-89550500D01*
X148743887Y-89550500D01*
X149006113Y-89550500D01*
X149006120Y-89550500D01*
X149266116Y-89516270D01*
X149519419Y-89448398D01*
X149761697Y-89348043D01*
X149988803Y-89216924D01*
X150196851Y-89057282D01*
X150196855Y-89057277D01*
X150196860Y-89057274D01*
X150382274Y-88871860D01*
X150382277Y-88871855D01*
X150382282Y-88871851D01*
X150541924Y-88663803D01*
X150541967Y-88663727D01*
X150542162Y-88663392D01*
X150542162Y-88663391D01*
X150673041Y-88436700D01*
X150673046Y-88436690D01*
X150773394Y-88194428D01*
X150773398Y-88194419D01*
X150841270Y-87941116D01*
X150875500Y-87681120D01*
X150875500Y-87431947D01*
X151875000Y-87431947D01*
X151875000Y-87668052D01*
X151911934Y-87901247D01*
X151984897Y-88125802D01*
X152092087Y-88336174D01*
X152152338Y-88419104D01*
X152152340Y-88419105D01*
X152851212Y-87720233D01*
X152862482Y-87762292D01*
X152934890Y-87887708D01*
X153037292Y-87990110D01*
X153162708Y-88062518D01*
X153204765Y-88073787D01*
X152505893Y-88772658D01*
X152588828Y-88832914D01*
X152799197Y-88940102D01*
X153023752Y-89013065D01*
X153023751Y-89013065D01*
X153256948Y-89050000D01*
X153493052Y-89050000D01*
X153726247Y-89013065D01*
X153950802Y-88940102D01*
X154161163Y-88832918D01*
X154161169Y-88832914D01*
X154244104Y-88772658D01*
X154244105Y-88772658D01*
X153545233Y-88073787D01*
X153587292Y-88062518D01*
X153712708Y-87990110D01*
X153815110Y-87887708D01*
X153887518Y-87762292D01*
X153898787Y-87720234D01*
X154597658Y-88419105D01*
X154597658Y-88419104D01*
X154657914Y-88336169D01*
X154657918Y-88336163D01*
X154765102Y-88125802D01*
X154838065Y-87901247D01*
X154875000Y-87668052D01*
X154875000Y-87431947D01*
X154838065Y-87198752D01*
X154765102Y-86974197D01*
X154657914Y-86763828D01*
X154597658Y-86680894D01*
X154597658Y-86680893D01*
X153898787Y-87379765D01*
X153887518Y-87337708D01*
X153815110Y-87212292D01*
X153712708Y-87109890D01*
X153587292Y-87037482D01*
X153545234Y-87026212D01*
X154244105Y-86327340D01*
X154244104Y-86327338D01*
X154161174Y-86267087D01*
X153950802Y-86159897D01*
X153726247Y-86086934D01*
X153726248Y-86086934D01*
X153493052Y-86050000D01*
X153256948Y-86050000D01*
X153023752Y-86086934D01*
X152799197Y-86159897D01*
X152588830Y-86267084D01*
X152505894Y-86327340D01*
X153204766Y-87026212D01*
X153162708Y-87037482D01*
X153037292Y-87109890D01*
X152934890Y-87212292D01*
X152862482Y-87337708D01*
X152851212Y-87379766D01*
X152152340Y-86680894D01*
X152092084Y-86763830D01*
X151984897Y-86974197D01*
X151911934Y-87198752D01*
X151875000Y-87431947D01*
X150875500Y-87431947D01*
X150875500Y-87418880D01*
X150841270Y-87158884D01*
X150773398Y-86905581D01*
X150714682Y-86763828D01*
X150673046Y-86663309D01*
X150673041Y-86663299D01*
X150542156Y-86436599D01*
X150542154Y-86436594D01*
X150542150Y-86436589D01*
X150541924Y-86436197D01*
X150382282Y-86228149D01*
X150382281Y-86228148D01*
X150382274Y-86228140D01*
X150196860Y-86042726D01*
X150196851Y-86042718D01*
X149988803Y-85883075D01*
X149761700Y-85751958D01*
X149761690Y-85751953D01*
X149519428Y-85651605D01*
X149519421Y-85651603D01*
X149519419Y-85651602D01*
X149266116Y-85583730D01*
X149208339Y-85576123D01*
X149006127Y-85549500D01*
X149006120Y-85549500D01*
X148743880Y-85549500D01*
X148743872Y-85549500D01*
X148512772Y-85579926D01*
X148483884Y-85583730D01*
X148230581Y-85651602D01*
X148230571Y-85651605D01*
X147988309Y-85751953D01*
X147988299Y-85751958D01*
X147761196Y-85883075D01*
X147553148Y-86042718D01*
X147367718Y-86228148D01*
X147208075Y-86436196D01*
X147076958Y-86663299D01*
X147076953Y-86663309D01*
X146976605Y-86905571D01*
X146976602Y-86905581D01*
X146941260Y-87037482D01*
X146908730Y-87158885D01*
X146874500Y-87418872D01*
X29000500Y-87418872D01*
X29000500Y-65997682D01*
X31000000Y-65997682D01*
X31000000Y-66202317D01*
X31032009Y-66404417D01*
X31095244Y-66599031D01*
X31188141Y-66781350D01*
X31188147Y-66781359D01*
X31220523Y-66825921D01*
X31220524Y-66825922D01*
X31900000Y-66146446D01*
X31900000Y-66152661D01*
X31927259Y-66254394D01*
X31979920Y-66345606D01*
X32054394Y-66420080D01*
X32145606Y-66472741D01*
X32247339Y-66500000D01*
X32253553Y-66500000D01*
X31574076Y-67179474D01*
X31618650Y-67211859D01*
X31800968Y-67304755D01*
X31995582Y-67367990D01*
X32197683Y-67400000D01*
X32402317Y-67400000D01*
X32604417Y-67367990D01*
X32799031Y-67304755D01*
X32981349Y-67211859D01*
X33025921Y-67179474D01*
X32346447Y-66500000D01*
X32352661Y-66500000D01*
X32454394Y-66472741D01*
X32545606Y-66420080D01*
X32620080Y-66345606D01*
X32672741Y-66254394D01*
X32700000Y-66152661D01*
X32700000Y-66146447D01*
X33379474Y-66825921D01*
X33411859Y-66781349D01*
X33504755Y-66599031D01*
X33567990Y-66404417D01*
X33600000Y-66202317D01*
X33600000Y-65997683D01*
X33599943Y-65997324D01*
X33599943Y-65997322D01*
X33597515Y-65981995D01*
X35499500Y-65981995D01*
X35499500Y-66218004D01*
X35499501Y-66218020D01*
X35528794Y-66440526D01*
X35530307Y-66452014D01*
X35537310Y-66478148D01*
X35591394Y-66679993D01*
X35681714Y-66898045D01*
X35681719Y-66898056D01*
X35710633Y-66948135D01*
X35799727Y-67102450D01*
X35799729Y-67102453D01*
X35799730Y-67102454D01*
X35943406Y-67289697D01*
X35943412Y-67289704D01*
X36110295Y-67456587D01*
X36110301Y-67456592D01*
X36297550Y-67600273D01*
X36416367Y-67668872D01*
X36501943Y-67718280D01*
X36501948Y-67718282D01*
X36501951Y-67718284D01*
X36720007Y-67808606D01*
X36947986Y-67869693D01*
X37181989Y-67900500D01*
X37181996Y-67900500D01*
X37418004Y-67900500D01*
X37418011Y-67900500D01*
X37652014Y-67869693D01*
X37879993Y-67808606D01*
X38098049Y-67718284D01*
X38302450Y-67600273D01*
X38489699Y-67456592D01*
X38656592Y-67289699D01*
X38800273Y-67102450D01*
X38918284Y-66898049D01*
X39008606Y-66679993D01*
X39069693Y-66452014D01*
X39100500Y-66218011D01*
X39100500Y-65981989D01*
X39069693Y-65747986D01*
X39008606Y-65520007D01*
X38918284Y-65301951D01*
X38918282Y-65301948D01*
X38918280Y-65301943D01*
X38859167Y-65199558D01*
X38800273Y-65097550D01*
X38656592Y-64910301D01*
X38656587Y-64910295D01*
X38489704Y-64743412D01*
X38489697Y-64743406D01*
X38302454Y-64599730D01*
X38302453Y-64599729D01*
X38302450Y-64599727D01*
X38214588Y-64549000D01*
X38098056Y-64481719D01*
X38098045Y-64481714D01*
X37879993Y-64391394D01*
X37652010Y-64330306D01*
X37418020Y-64299501D01*
X37418017Y-64299500D01*
X37418011Y-64299500D01*
X37181989Y-64299500D01*
X37181983Y-64299500D01*
X37181979Y-64299501D01*
X36947989Y-64330306D01*
X36720006Y-64391394D01*
X36501954Y-64481714D01*
X36501943Y-64481719D01*
X36297545Y-64599730D01*
X36110302Y-64743406D01*
X36110295Y-64743412D01*
X35943412Y-64910295D01*
X35943406Y-64910302D01*
X35799730Y-65097545D01*
X35681719Y-65301943D01*
X35681714Y-65301954D01*
X35591394Y-65520006D01*
X35530306Y-65747989D01*
X35499501Y-65981979D01*
X35499500Y-65981995D01*
X33597515Y-65981995D01*
X33567990Y-65795582D01*
X33504755Y-65600968D01*
X33411859Y-65418650D01*
X33379474Y-65374077D01*
X33379474Y-65374076D01*
X32700000Y-66053551D01*
X32700000Y-66047339D01*
X32672741Y-65945606D01*
X32620080Y-65854394D01*
X32545606Y-65779920D01*
X32454394Y-65727259D01*
X32352661Y-65700000D01*
X32346446Y-65700000D01*
X33025922Y-65020524D01*
X33025921Y-65020523D01*
X32981359Y-64988147D01*
X32981350Y-64988141D01*
X32799031Y-64895244D01*
X32604417Y-64832009D01*
X32402317Y-64800000D01*
X32197683Y-64800000D01*
X31995582Y-64832009D01*
X31800968Y-64895244D01*
X31618644Y-64988143D01*
X31574077Y-65020523D01*
X31574077Y-65020524D01*
X32253554Y-65700000D01*
X32247339Y-65700000D01*
X32145606Y-65727259D01*
X32054394Y-65779920D01*
X31979920Y-65854394D01*
X31927259Y-65945606D01*
X31900000Y-66047339D01*
X31900000Y-66053553D01*
X31220524Y-65374077D01*
X31220523Y-65374077D01*
X31188143Y-65418644D01*
X31095244Y-65600968D01*
X31032009Y-65795582D01*
X31000000Y-65997682D01*
X29000500Y-65997682D01*
X29000500Y-63327155D01*
X49875000Y-63327155D01*
X49875000Y-64425000D01*
X50726518Y-64425000D01*
X50715889Y-64443409D01*
X50675000Y-64596009D01*
X50675000Y-64753991D01*
X50715889Y-64906591D01*
X50726518Y-64925000D01*
X49875000Y-64925000D01*
X49875000Y-66022844D01*
X49881401Y-66082372D01*
X49881403Y-66082379D01*
X49931645Y-66217086D01*
X49931649Y-66217093D01*
X50017809Y-66332187D01*
X50017812Y-66332190D01*
X50132906Y-66418350D01*
X50132913Y-66418354D01*
X50267620Y-66468596D01*
X50267627Y-66468598D01*
X50327155Y-66474999D01*
X50327172Y-66475000D01*
X51025000Y-66475000D01*
X51025000Y-65223482D01*
X51043409Y-65234111D01*
X51196009Y-65275000D01*
X51353991Y-65275000D01*
X51506591Y-65234111D01*
X51525000Y-65223482D01*
X51525000Y-66475000D01*
X52222828Y-66475000D01*
X52222844Y-66474999D01*
X52282372Y-66468598D01*
X52282376Y-66468597D01*
X52381425Y-66431654D01*
X52451117Y-66426670D01*
X52512440Y-66460154D01*
X52512440Y-66460155D01*
X52559218Y-66506933D01*
X52559225Y-66506939D01*
X52756873Y-66658599D01*
X52972623Y-66783162D01*
X52972638Y-66783169D01*
X53071825Y-66824253D01*
X53202793Y-66878502D01*
X53443435Y-66942982D01*
X53690435Y-66975500D01*
X53690442Y-66975500D01*
X53939558Y-66975500D01*
X53939565Y-66975500D01*
X54186565Y-66942982D01*
X54427207Y-66878502D01*
X54657373Y-66783164D01*
X54873127Y-66658599D01*
X55009514Y-66553946D01*
X55074683Y-66528752D01*
X55143128Y-66542790D01*
X55160486Y-66553946D01*
X55296873Y-66658599D01*
X55512623Y-66783162D01*
X55512638Y-66783169D01*
X55611825Y-66824253D01*
X55742793Y-66878502D01*
X55983435Y-66942982D01*
X56230435Y-66975500D01*
X56230442Y-66975500D01*
X56479558Y-66975500D01*
X56479565Y-66975500D01*
X56726565Y-66942982D01*
X56967207Y-66878502D01*
X57197373Y-66783164D01*
X57413127Y-66658599D01*
X57549514Y-66553946D01*
X57614683Y-66528752D01*
X57683128Y-66542790D01*
X57700486Y-66553946D01*
X57836873Y-66658599D01*
X58052623Y-66783162D01*
X58052638Y-66783169D01*
X58151825Y-66824253D01*
X58282793Y-66878502D01*
X58523435Y-66942982D01*
X58770435Y-66975500D01*
X58770442Y-66975500D01*
X59019558Y-66975500D01*
X59019565Y-66975500D01*
X59266565Y-66942982D01*
X59507207Y-66878502D01*
X59737373Y-66783164D01*
X59953127Y-66658599D01*
X60150776Y-66506938D01*
X60326938Y-66330776D01*
X60416147Y-66214515D01*
X60472574Y-66173313D01*
X60542320Y-66169158D01*
X60587408Y-66189684D01*
X60701236Y-66272384D01*
X60897589Y-66372432D01*
X61107163Y-66440526D01*
X61184999Y-66452854D01*
X61185000Y-66452854D01*
X61185000Y-65223482D01*
X61203409Y-65234111D01*
X61356009Y-65275000D01*
X61513991Y-65275000D01*
X61666591Y-65234111D01*
X61685000Y-65223482D01*
X61685000Y-66452854D01*
X61762834Y-66440526D01*
X61762837Y-66440526D01*
X61972410Y-66372432D01*
X62168760Y-66272386D01*
X62282590Y-66189684D01*
X62348397Y-66166204D01*
X62416451Y-66182029D01*
X62453852Y-66214516D01*
X62543060Y-66330774D01*
X62543066Y-66330781D01*
X62719218Y-66506933D01*
X62719225Y-66506939D01*
X62916873Y-66658599D01*
X63132623Y-66783162D01*
X63132638Y-66783169D01*
X63231825Y-66824253D01*
X63362793Y-66878502D01*
X63603435Y-66942982D01*
X63850435Y-66975500D01*
X63850442Y-66975500D01*
X64099558Y-66975500D01*
X64099565Y-66975500D01*
X64346565Y-66942982D01*
X64587207Y-66878502D01*
X64817373Y-66783164D01*
X65033127Y-66658599D01*
X65230776Y-66506938D01*
X65406938Y-66330776D01*
X65558599Y-66133127D01*
X65683164Y-65917373D01*
X65778502Y-65687207D01*
X65842982Y-65446565D01*
X65875500Y-65199565D01*
X65875500Y-64150435D01*
X65842982Y-63903435D01*
X65778502Y-63662793D01*
X65683164Y-63432627D01*
X65575703Y-63246499D01*
X65559231Y-63178600D01*
X65582084Y-63112573D01*
X65637005Y-63069382D01*
X65683091Y-63060500D01*
X74966909Y-63060500D01*
X75033948Y-63080185D01*
X75079703Y-63132989D01*
X75089647Y-63202147D01*
X75074296Y-63246500D01*
X74966837Y-63432623D01*
X74966830Y-63432638D01*
X74871498Y-63662792D01*
X74807017Y-63903438D01*
X74774501Y-64150424D01*
X74774500Y-64150441D01*
X74774500Y-65199558D01*
X74774501Y-65199575D01*
X74807017Y-65446561D01*
X74871498Y-65687207D01*
X74915061Y-65792376D01*
X74924500Y-65839829D01*
X74924500Y-69939741D01*
X74949446Y-70129215D01*
X74954452Y-70167238D01*
X74954453Y-70167240D01*
X75013842Y-70388887D01*
X75101650Y-70600876D01*
X75101657Y-70600891D01*
X75216390Y-70799614D01*
X75229073Y-70816142D01*
X75254443Y-70849204D01*
X75356078Y-70981659D01*
X75356084Y-70981666D01*
X85753381Y-81378963D01*
X85753386Y-81378967D01*
X85753389Y-81378970D01*
X85827476Y-81435818D01*
X85827477Y-81435820D01*
X85935436Y-81518660D01*
X85935438Y-81518661D01*
X86075124Y-81599308D01*
X86134163Y-81633395D01*
X86258350Y-81684834D01*
X86346163Y-81721208D01*
X86384831Y-81731569D01*
X86567811Y-81780599D01*
X86771603Y-81807427D01*
X86771605Y-81807428D01*
X86771606Y-81807428D01*
X86778201Y-81808296D01*
X86795316Y-81810550D01*
X86795317Y-81810550D01*
X87024784Y-81810550D01*
X97632781Y-81810550D01*
X97694780Y-81827162D01*
X97748353Y-81858093D01*
X97748355Y-81858093D01*
X97748359Y-81858096D01*
X97990621Y-81958444D01*
X97990631Y-81958448D01*
X98243934Y-82026320D01*
X98503930Y-82060550D01*
X98503937Y-82060550D01*
X98766163Y-82060550D01*
X98766170Y-82060550D01*
X99026166Y-82026320D01*
X99279469Y-81958448D01*
X99521747Y-81858093D01*
X99748853Y-81726974D01*
X99956901Y-81567332D01*
X99956905Y-81567327D01*
X99956910Y-81567324D01*
X100142324Y-81381910D01*
X100142327Y-81381905D01*
X100142332Y-81381901D01*
X100301974Y-81173853D01*
X100433093Y-80946747D01*
X100444639Y-80918872D01*
X146874500Y-80918872D01*
X146874500Y-81181127D01*
X146900547Y-81378963D01*
X146908730Y-81441116D01*
X146960251Y-81633395D01*
X146976602Y-81694418D01*
X146976605Y-81694428D01*
X147076953Y-81936690D01*
X147076958Y-81936700D01*
X147208075Y-82163803D01*
X147367718Y-82371851D01*
X147367726Y-82371860D01*
X147553140Y-82557274D01*
X147553148Y-82557281D01*
X147761196Y-82716924D01*
X147988299Y-82848041D01*
X147988309Y-82848046D01*
X148230571Y-82948394D01*
X148230581Y-82948398D01*
X148483884Y-83016270D01*
X148743880Y-83050500D01*
X148743887Y-83050500D01*
X149006113Y-83050500D01*
X149006120Y-83050500D01*
X149266116Y-83016270D01*
X149519419Y-82948398D01*
X149761697Y-82848043D01*
X149988803Y-82716924D01*
X150196851Y-82557282D01*
X150196855Y-82557277D01*
X150196860Y-82557274D01*
X150382274Y-82371860D01*
X150382277Y-82371855D01*
X150382282Y-82371851D01*
X150541924Y-82163803D01*
X150541967Y-82163727D01*
X150542162Y-82163392D01*
X150542162Y-82163391D01*
X150660485Y-81958448D01*
X150673043Y-81936697D01*
X150773398Y-81694419D01*
X150841270Y-81441116D01*
X150875500Y-81181120D01*
X150875500Y-80931947D01*
X151875000Y-80931947D01*
X151875000Y-81168052D01*
X151911934Y-81401247D01*
X151984897Y-81625802D01*
X152092087Y-81836174D01*
X152152338Y-81919104D01*
X152152340Y-81919105D01*
X152851212Y-81220233D01*
X152862482Y-81262292D01*
X152934890Y-81387708D01*
X153037292Y-81490110D01*
X153162708Y-81562518D01*
X153204765Y-81573787D01*
X152505893Y-82272658D01*
X152588828Y-82332914D01*
X152799197Y-82440102D01*
X153023752Y-82513065D01*
X153023751Y-82513065D01*
X153256948Y-82550000D01*
X153493052Y-82550000D01*
X153726247Y-82513065D01*
X153950802Y-82440102D01*
X154161163Y-82332918D01*
X154161169Y-82332914D01*
X154244104Y-82272658D01*
X154244105Y-82272658D01*
X153545233Y-81573787D01*
X153587292Y-81562518D01*
X153712708Y-81490110D01*
X153815110Y-81387708D01*
X153887518Y-81262292D01*
X153898787Y-81220234D01*
X154597658Y-81919105D01*
X154597658Y-81919104D01*
X154657914Y-81836169D01*
X154657918Y-81836163D01*
X154765102Y-81625802D01*
X154838065Y-81401247D01*
X154875000Y-81168052D01*
X154875000Y-80931947D01*
X154838065Y-80698752D01*
X154765102Y-80474197D01*
X154657914Y-80263828D01*
X154597658Y-80180894D01*
X154597658Y-80180893D01*
X153898787Y-80879765D01*
X153887518Y-80837708D01*
X153815110Y-80712292D01*
X153712708Y-80609890D01*
X153587292Y-80537482D01*
X153545234Y-80526212D01*
X154244105Y-79827340D01*
X154244104Y-79827338D01*
X154161174Y-79767087D01*
X153950802Y-79659897D01*
X153726247Y-79586934D01*
X153726248Y-79586934D01*
X153493052Y-79550000D01*
X153256948Y-79550000D01*
X153023752Y-79586934D01*
X152799197Y-79659897D01*
X152588830Y-79767084D01*
X152505894Y-79827340D01*
X153204766Y-80526212D01*
X153162708Y-80537482D01*
X153037292Y-80609890D01*
X152934890Y-80712292D01*
X152862482Y-80837708D01*
X152851212Y-80879766D01*
X152152340Y-80180894D01*
X152092084Y-80263830D01*
X151984897Y-80474197D01*
X151911934Y-80698752D01*
X151875000Y-80931947D01*
X150875500Y-80931947D01*
X150875500Y-80918880D01*
X150841270Y-80658884D01*
X150773398Y-80405581D01*
X150684583Y-80191163D01*
X150673046Y-80163309D01*
X150673041Y-80163299D01*
X150542156Y-79936599D01*
X150542154Y-79936594D01*
X150542150Y-79936589D01*
X150541924Y-79936197D01*
X150382282Y-79728149D01*
X150382281Y-79728148D01*
X150382274Y-79728140D01*
X150196860Y-79542726D01*
X150196851Y-79542718D01*
X149988803Y-79383075D01*
X149761700Y-79251958D01*
X149761690Y-79251953D01*
X149519428Y-79151605D01*
X149519421Y-79151603D01*
X149519419Y-79151602D01*
X149266116Y-79083730D01*
X149208339Y-79076123D01*
X149006127Y-79049500D01*
X149006120Y-79049500D01*
X148743880Y-79049500D01*
X148743872Y-79049500D01*
X148512772Y-79079926D01*
X148483884Y-79083730D01*
X148230581Y-79151602D01*
X148230571Y-79151605D01*
X147988309Y-79251953D01*
X147988299Y-79251958D01*
X147761196Y-79383075D01*
X147553148Y-79542718D01*
X147367718Y-79728148D01*
X147208075Y-79936196D01*
X147076958Y-80163299D01*
X147076953Y-80163309D01*
X146976605Y-80405571D01*
X146976602Y-80405581D01*
X146941260Y-80537482D01*
X146908730Y-80658885D01*
X146874500Y-80918872D01*
X100444639Y-80918872D01*
X100533448Y-80704469D01*
X100601320Y-80451166D01*
X100635550Y-80191170D01*
X100635550Y-79928930D01*
X100601320Y-79668934D01*
X100533448Y-79415631D01*
X100519963Y-79383075D01*
X100433096Y-79173359D01*
X100433091Y-79173349D01*
X100301974Y-78946246D01*
X100152041Y-78750852D01*
X100126846Y-78685683D01*
X100135853Y-78627918D01*
X100235596Y-78387120D01*
X100303468Y-78133817D01*
X100337698Y-77873821D01*
X100337698Y-77611581D01*
X100303468Y-77351585D01*
X100235596Y-77098282D01*
X100235592Y-77098272D01*
X100135244Y-76856010D01*
X100135239Y-76856000D01*
X100004122Y-76628897D01*
X99844479Y-76420849D01*
X99844472Y-76420841D01*
X99659058Y-76235427D01*
X99659049Y-76235419D01*
X99451001Y-76075776D01*
X99223898Y-75944659D01*
X99223888Y-75944654D01*
X98981626Y-75844306D01*
X98981619Y-75844304D01*
X98981617Y-75844303D01*
X98728314Y-75776431D01*
X98670537Y-75768824D01*
X98468325Y-75742201D01*
X98468318Y-75742201D01*
X98206078Y-75742201D01*
X98206070Y-75742201D01*
X97974970Y-75772627D01*
X97946082Y-75776431D01*
X97830974Y-75807274D01*
X97692779Y-75844303D01*
X97692769Y-75844306D01*
X97486949Y-75929560D01*
X97417479Y-75937029D01*
X97355000Y-75905754D01*
X97319348Y-75845665D01*
X97321842Y-75775840D01*
X97351813Y-75727319D01*
X97507282Y-75571851D01*
X97666924Y-75363803D01*
X97798043Y-75136697D01*
X97898398Y-74894419D01*
X97966270Y-74641116D01*
X98000500Y-74381120D01*
X98000500Y-74168872D01*
X146949500Y-74168872D01*
X146949500Y-74431127D01*
X146976123Y-74633339D01*
X146983730Y-74691116D01*
X147038205Y-74894419D01*
X147051602Y-74944418D01*
X147051605Y-74944428D01*
X147151953Y-75186690D01*
X147151958Y-75186700D01*
X147283075Y-75413803D01*
X147442718Y-75621851D01*
X147442726Y-75621860D01*
X147628140Y-75807274D01*
X147628148Y-75807281D01*
X147836196Y-75966924D01*
X148063299Y-76098041D01*
X148063309Y-76098046D01*
X148305571Y-76198394D01*
X148305581Y-76198398D01*
X148558884Y-76266270D01*
X148818880Y-76300500D01*
X148818887Y-76300500D01*
X149081113Y-76300500D01*
X149081120Y-76300500D01*
X149341116Y-76266270D01*
X149594419Y-76198398D01*
X149836697Y-76098043D01*
X150063803Y-75966924D01*
X150271851Y-75807282D01*
X150271855Y-75807277D01*
X150271860Y-75807274D01*
X150457274Y-75621860D01*
X150457277Y-75621855D01*
X150457282Y-75621851D01*
X150616924Y-75413803D01*
X150616967Y-75413727D01*
X150617162Y-75413392D01*
X150617162Y-75413391D01*
X150748041Y-75186700D01*
X150748046Y-75186690D01*
X150848394Y-74944428D01*
X150848398Y-74944419D01*
X150916270Y-74691116D01*
X150950500Y-74431120D01*
X150950500Y-74181947D01*
X151950000Y-74181947D01*
X151950000Y-74418052D01*
X151986934Y-74651247D01*
X152059897Y-74875802D01*
X152167087Y-75086174D01*
X152227338Y-75169104D01*
X152227340Y-75169105D01*
X152926212Y-74470233D01*
X152937482Y-74512292D01*
X153009890Y-74637708D01*
X153112292Y-74740110D01*
X153237708Y-74812518D01*
X153279765Y-74823787D01*
X152580893Y-75522658D01*
X152663828Y-75582914D01*
X152874197Y-75690102D01*
X153098752Y-75763065D01*
X153098751Y-75763065D01*
X153331948Y-75800000D01*
X153568052Y-75800000D01*
X153801247Y-75763065D01*
X154025802Y-75690102D01*
X154236163Y-75582918D01*
X154236169Y-75582914D01*
X154319104Y-75522658D01*
X154319105Y-75522658D01*
X153620233Y-74823787D01*
X153662292Y-74812518D01*
X153787708Y-74740110D01*
X153890110Y-74637708D01*
X153962518Y-74512292D01*
X153973787Y-74470234D01*
X154672658Y-75169105D01*
X154672658Y-75169104D01*
X154732914Y-75086169D01*
X154732918Y-75086163D01*
X154840102Y-74875802D01*
X154913065Y-74651247D01*
X154950000Y-74418052D01*
X154950000Y-74181947D01*
X154913065Y-73948752D01*
X154840102Y-73724197D01*
X154732914Y-73513828D01*
X154672658Y-73430894D01*
X154672658Y-73430893D01*
X153973787Y-74129765D01*
X153962518Y-74087708D01*
X153890110Y-73962292D01*
X153787708Y-73859890D01*
X153662292Y-73787482D01*
X153620234Y-73776212D01*
X154319105Y-73077340D01*
X154319104Y-73077338D01*
X154236174Y-73017087D01*
X154025802Y-72909897D01*
X153801247Y-72836934D01*
X153801248Y-72836934D01*
X153568052Y-72800000D01*
X153331948Y-72800000D01*
X153098752Y-72836934D01*
X152874197Y-72909897D01*
X152663830Y-73017084D01*
X152580894Y-73077340D01*
X153279766Y-73776212D01*
X153237708Y-73787482D01*
X153112292Y-73859890D01*
X153009890Y-73962292D01*
X152937482Y-74087708D01*
X152926212Y-74129766D01*
X152227340Y-73430894D01*
X152167084Y-73513830D01*
X152059897Y-73724197D01*
X151986934Y-73948752D01*
X151950000Y-74181947D01*
X150950500Y-74181947D01*
X150950500Y-74168880D01*
X150916270Y-73908884D01*
X150848398Y-73655581D01*
X150848394Y-73655571D01*
X150748046Y-73413309D01*
X150748041Y-73413299D01*
X150617156Y-73186599D01*
X150617154Y-73186594D01*
X150617150Y-73186589D01*
X150616924Y-73186197D01*
X150457282Y-72978149D01*
X150457281Y-72978148D01*
X150457274Y-72978140D01*
X150271860Y-72792726D01*
X150271851Y-72792718D01*
X150063803Y-72633075D01*
X149836700Y-72501958D01*
X149836690Y-72501953D01*
X149594428Y-72401605D01*
X149594421Y-72401603D01*
X149594419Y-72401602D01*
X149341116Y-72333730D01*
X149283339Y-72326123D01*
X149081127Y-72299500D01*
X149081120Y-72299500D01*
X148818880Y-72299500D01*
X148818872Y-72299500D01*
X148587772Y-72329926D01*
X148558884Y-72333730D01*
X148305581Y-72401602D01*
X148305571Y-72401605D01*
X148063309Y-72501953D01*
X148063299Y-72501958D01*
X147836196Y-72633075D01*
X147628148Y-72792718D01*
X147442718Y-72978148D01*
X147283075Y-73186196D01*
X147151958Y-73413299D01*
X147151953Y-73413309D01*
X147051605Y-73655571D01*
X147051602Y-73655581D01*
X146997128Y-73858884D01*
X146983730Y-73908885D01*
X146949500Y-74168872D01*
X98000500Y-74168872D01*
X98000500Y-74118880D01*
X97966270Y-73858884D01*
X97898398Y-73605581D01*
X97898394Y-73605571D01*
X97798046Y-73363309D01*
X97798041Y-73363299D01*
X97666924Y-73136196D01*
X97507281Y-72928148D01*
X97507274Y-72928140D01*
X97321860Y-72742726D01*
X97321851Y-72742718D01*
X97113803Y-72583075D01*
X96886700Y-72451958D01*
X96886690Y-72451953D01*
X96644428Y-72351605D01*
X96644421Y-72351603D01*
X96644419Y-72351602D01*
X96391116Y-72283730D01*
X96333339Y-72276123D01*
X96131127Y-72249500D01*
X96131120Y-72249500D01*
X95868880Y-72249500D01*
X95868872Y-72249500D01*
X95637772Y-72279926D01*
X95608884Y-72283730D01*
X95422281Y-72333730D01*
X95355581Y-72351602D01*
X95355571Y-72351605D01*
X95113309Y-72451953D01*
X95113300Y-72451958D01*
X95072627Y-72475441D01*
X95065052Y-72479815D01*
X95059731Y-72482887D01*
X94997731Y-72499500D01*
X91018908Y-72499500D01*
X90951869Y-72479815D01*
X90906114Y-72427011D01*
X90896170Y-72357853D01*
X90911521Y-72313500D01*
X90919604Y-72299500D01*
X90932395Y-72277345D01*
X91032750Y-72035067D01*
X91100622Y-71781764D01*
X91134852Y-71521768D01*
X91134852Y-71259528D01*
X91100622Y-70999532D01*
X91032750Y-70746229D01*
X90972543Y-70600876D01*
X90932398Y-70503957D01*
X90932393Y-70503947D01*
X90801276Y-70276844D01*
X90641633Y-70068796D01*
X90641626Y-70068788D01*
X90456212Y-69883374D01*
X90456203Y-69883366D01*
X90248155Y-69723723D01*
X90021052Y-69592606D01*
X90021042Y-69592602D01*
X89778767Y-69492248D01*
X89778765Y-69492247D01*
X89719014Y-69476237D01*
X89663428Y-69444144D01*
X87971787Y-67752502D01*
X87888157Y-67668872D01*
X146949500Y-67668872D01*
X146949500Y-67931127D01*
X146976123Y-68133339D01*
X146983730Y-68191116D01*
X147051602Y-68444418D01*
X147051605Y-68444428D01*
X147151953Y-68686690D01*
X147151958Y-68686700D01*
X147283075Y-68913803D01*
X147442718Y-69121851D01*
X147442726Y-69121860D01*
X147628140Y-69307274D01*
X147628148Y-69307281D01*
X147836196Y-69466924D01*
X148063299Y-69598041D01*
X148063309Y-69598046D01*
X148305571Y-69698394D01*
X148305581Y-69698398D01*
X148558884Y-69766270D01*
X148818880Y-69800500D01*
X148818887Y-69800500D01*
X149081113Y-69800500D01*
X149081120Y-69800500D01*
X149341116Y-69766270D01*
X149594419Y-69698398D01*
X149836697Y-69598043D01*
X150063803Y-69466924D01*
X150271851Y-69307282D01*
X150271855Y-69307277D01*
X150271860Y-69307274D01*
X150457274Y-69121860D01*
X150457277Y-69121855D01*
X150457282Y-69121851D01*
X150616924Y-68913803D01*
X150616967Y-68913727D01*
X150617162Y-68913392D01*
X150617162Y-68913391D01*
X150748041Y-68686700D01*
X150748046Y-68686690D01*
X150848394Y-68444428D01*
X150848398Y-68444419D01*
X150916270Y-68191116D01*
X150950500Y-67931120D01*
X150950500Y-67681947D01*
X151950000Y-67681947D01*
X151950000Y-67918052D01*
X151986934Y-68151247D01*
X152059897Y-68375802D01*
X152167087Y-68586174D01*
X152227338Y-68669104D01*
X152227340Y-68669105D01*
X152926212Y-67970233D01*
X152937482Y-68012292D01*
X153009890Y-68137708D01*
X153112292Y-68240110D01*
X153237708Y-68312518D01*
X153279765Y-68323787D01*
X152580893Y-69022658D01*
X152663828Y-69082914D01*
X152874197Y-69190102D01*
X153098752Y-69263065D01*
X153098751Y-69263065D01*
X153331948Y-69300000D01*
X153568052Y-69300000D01*
X153801247Y-69263065D01*
X154025802Y-69190102D01*
X154236163Y-69082918D01*
X154236169Y-69082914D01*
X154319104Y-69022658D01*
X154319105Y-69022658D01*
X153620233Y-68323787D01*
X153662292Y-68312518D01*
X153787708Y-68240110D01*
X153890110Y-68137708D01*
X153962518Y-68012292D01*
X153973787Y-67970234D01*
X154672658Y-68669105D01*
X154672658Y-68669104D01*
X154732914Y-68586169D01*
X154732918Y-68586163D01*
X154840102Y-68375802D01*
X154913065Y-68151247D01*
X154950000Y-67918052D01*
X154950000Y-67681947D01*
X154913065Y-67448752D01*
X154840102Y-67224197D01*
X154732914Y-67013828D01*
X154672658Y-66930894D01*
X154672658Y-66930893D01*
X153973787Y-67629765D01*
X153962518Y-67587708D01*
X153890110Y-67462292D01*
X153787708Y-67359890D01*
X153662292Y-67287482D01*
X153620234Y-67276212D01*
X154319105Y-66577340D01*
X154319104Y-66577338D01*
X154236174Y-66517087D01*
X154025802Y-66409897D01*
X153801247Y-66336934D01*
X153801248Y-66336934D01*
X153568052Y-66300000D01*
X153331948Y-66300000D01*
X153098752Y-66336934D01*
X152874197Y-66409897D01*
X152663830Y-66517084D01*
X152580894Y-66577340D01*
X153279766Y-67276212D01*
X153237708Y-67287482D01*
X153112292Y-67359890D01*
X153009890Y-67462292D01*
X152937482Y-67587708D01*
X152926212Y-67629766D01*
X152227340Y-66930894D01*
X152167084Y-67013830D01*
X152059897Y-67224197D01*
X151986934Y-67448752D01*
X151950000Y-67681947D01*
X150950500Y-67681947D01*
X150950500Y-67668880D01*
X150916270Y-67408884D01*
X150848398Y-67155581D01*
X150826392Y-67102454D01*
X150748046Y-66913309D01*
X150748041Y-66913299D01*
X150617156Y-66686599D01*
X150617154Y-66686594D01*
X150617150Y-66686589D01*
X150616924Y-66686197D01*
X150612163Y-66679993D01*
X150533393Y-66577338D01*
X150457282Y-66478149D01*
X150457281Y-66478148D01*
X150457274Y-66478140D01*
X150271860Y-66292726D01*
X150271851Y-66292718D01*
X150063803Y-66133075D01*
X149836700Y-66001958D01*
X149836690Y-66001953D01*
X149594428Y-65901605D01*
X149594421Y-65901603D01*
X149594419Y-65901602D01*
X149341116Y-65833730D01*
X149283339Y-65826123D01*
X149081127Y-65799500D01*
X149081120Y-65799500D01*
X148818880Y-65799500D01*
X148818872Y-65799500D01*
X148587772Y-65829926D01*
X148558884Y-65833730D01*
X148481765Y-65854394D01*
X148305581Y-65901602D01*
X148305571Y-65901605D01*
X148063309Y-66001953D01*
X148063299Y-66001958D01*
X147836196Y-66133075D01*
X147628148Y-66292718D01*
X147442718Y-66478148D01*
X147283075Y-66686196D01*
X147151958Y-66913299D01*
X147151953Y-66913309D01*
X147051605Y-67155571D01*
X147051602Y-67155581D01*
X146986111Y-67400000D01*
X146983730Y-67408885D01*
X146949500Y-67668872D01*
X87888157Y-67668872D01*
X87323496Y-67104211D01*
X87290011Y-67042888D01*
X87294995Y-66973196D01*
X87336867Y-66917263D01*
X87379081Y-66896756D01*
X87447207Y-66878502D01*
X87677373Y-66783164D01*
X87893127Y-66658599D01*
X88090776Y-66506938D01*
X88266938Y-66330776D01*
X88356147Y-66214515D01*
X88412574Y-66173313D01*
X88482320Y-66169158D01*
X88527408Y-66189684D01*
X88641236Y-66272384D01*
X88837589Y-66372432D01*
X89047163Y-66440526D01*
X89124999Y-66452854D01*
X89125000Y-66452854D01*
X89125000Y-65223482D01*
X89143409Y-65234111D01*
X89296009Y-65275000D01*
X89453991Y-65275000D01*
X89606591Y-65234111D01*
X89625000Y-65223482D01*
X89625000Y-66452854D01*
X89702834Y-66440526D01*
X89702837Y-66440526D01*
X89912410Y-66372432D01*
X90108760Y-66272386D01*
X90287041Y-66142857D01*
X90442857Y-65987041D01*
X90572386Y-65808760D01*
X90672432Y-65612410D01*
X90740526Y-65402835D01*
X90775000Y-65185181D01*
X90775000Y-64925000D01*
X89923482Y-64925000D01*
X89934111Y-64906591D01*
X89975000Y-64753991D01*
X89975000Y-64596009D01*
X89934111Y-64443409D01*
X89923482Y-64425000D01*
X90775000Y-64425000D01*
X90775000Y-64164818D01*
X90740526Y-63947164D01*
X90672432Y-63737589D01*
X90572386Y-63541239D01*
X90442857Y-63362958D01*
X90352080Y-63272181D01*
X90318595Y-63210858D01*
X90323579Y-63141166D01*
X90365451Y-63085233D01*
X90430915Y-63060816D01*
X90439761Y-63060500D01*
X102054067Y-63060500D01*
X102101519Y-63069938D01*
X102230581Y-63123398D01*
X102483884Y-63191270D01*
X102743880Y-63225500D01*
X102743887Y-63225500D01*
X103006113Y-63225500D01*
X103006120Y-63225500D01*
X103266116Y-63191270D01*
X103519419Y-63123398D01*
X103761697Y-63023043D01*
X103988803Y-62891924D01*
X104196851Y-62732282D01*
X104196855Y-62732277D01*
X104196860Y-62732274D01*
X104382274Y-62546860D01*
X104382277Y-62546855D01*
X104382282Y-62546851D01*
X104541924Y-62338803D01*
X104673043Y-62111697D01*
X104773398Y-61869419D01*
X104841270Y-61616116D01*
X104875500Y-61356120D01*
X104875500Y-61093880D01*
X104841270Y-60833884D01*
X104773398Y-60580581D01*
X104747823Y-60518838D01*
X104673046Y-60338309D01*
X104673041Y-60338299D01*
X104541924Y-60111196D01*
X104382281Y-59903148D01*
X104382274Y-59903140D01*
X104196860Y-59717726D01*
X104196851Y-59717718D01*
X103988803Y-59558075D01*
X103761700Y-59426958D01*
X103761690Y-59426953D01*
X103519428Y-59326605D01*
X103519421Y-59326603D01*
X103519419Y-59326602D01*
X103266116Y-59258730D01*
X103208339Y-59251123D01*
X103006127Y-59224500D01*
X103006120Y-59224500D01*
X102743880Y-59224500D01*
X102743872Y-59224500D01*
X102512772Y-59254926D01*
X102483884Y-59258730D01*
X102255519Y-59319920D01*
X102230581Y-59326602D01*
X102230571Y-59326605D01*
X101988309Y-59426953D01*
X101988300Y-59426958D01*
X101908110Y-59473256D01*
X101787504Y-59542887D01*
X101725506Y-59559500D01*
X95324500Y-59559500D01*
X95257461Y-59539815D01*
X95211706Y-59487011D01*
X95200500Y-59435500D01*
X95200499Y-57966971D01*
X95200499Y-57966964D01*
X95189886Y-57847582D01*
X95173972Y-57791966D01*
X104699500Y-57791966D01*
X104699500Y-59608028D01*
X104699501Y-59608034D01*
X104710113Y-59727415D01*
X104766089Y-59923045D01*
X104766090Y-59923048D01*
X104766091Y-59923049D01*
X104860302Y-60103407D01*
X104860304Y-60103409D01*
X104988890Y-60261109D01*
X105048879Y-60310023D01*
X105146593Y-60389698D01*
X105326951Y-60483909D01*
X105522582Y-60539886D01*
X105641963Y-60550500D01*
X107458036Y-60550499D01*
X107577418Y-60539886D01*
X107773049Y-60483909D01*
X107953407Y-60389698D01*
X108037279Y-60321308D01*
X108101674Y-60294199D01*
X108170504Y-60306208D01*
X108177639Y-60310023D01*
X108269777Y-60363218D01*
X108269780Y-60363219D01*
X108269788Y-60363224D01*
X108493900Y-60456054D01*
X108728211Y-60518838D01*
X108908586Y-60542584D01*
X108968711Y-60550500D01*
X108968712Y-60550500D01*
X109211289Y-60550500D01*
X109259388Y-60544167D01*
X109451789Y-60518838D01*
X109686100Y-60456054D01*
X109910212Y-60363224D01*
X110120289Y-60241936D01*
X110284514Y-60115922D01*
X110349683Y-60090728D01*
X110418128Y-60104766D01*
X110435486Y-60115922D01*
X110599711Y-60241936D01*
X110809788Y-60363224D01*
X111033900Y-60456054D01*
X111268211Y-60518838D01*
X111448586Y-60542584D01*
X111508711Y-60550500D01*
X111508712Y-60550500D01*
X111751289Y-60550500D01*
X111799388Y-60544167D01*
X111991789Y-60518838D01*
X112226100Y-60456054D01*
X112450212Y-60363224D01*
X112660289Y-60241936D01*
X112852738Y-60094265D01*
X113024265Y-59922738D01*
X113141132Y-59770433D01*
X113197557Y-59729232D01*
X113267303Y-59725077D01*
X113312391Y-59745603D01*
X113462442Y-59854620D01*
X113651782Y-59951095D01*
X113853870Y-60016757D01*
X114063754Y-60050000D01*
X114276246Y-60050000D01*
X114486127Y-60016757D01*
X114486130Y-60016757D01*
X114688217Y-59951095D01*
X114877554Y-59854622D01*
X114931716Y-59815270D01*
X114931717Y-59815270D01*
X114299409Y-59182962D01*
X114362993Y-59165925D01*
X114477007Y-59100099D01*
X114570099Y-59007007D01*
X114635925Y-58892993D01*
X114652962Y-58829409D01*
X115285270Y-59461717D01*
X115285270Y-59461716D01*
X115324622Y-59407554D01*
X115421095Y-59218217D01*
X115486757Y-59016130D01*
X115486757Y-59016127D01*
X115520000Y-58806246D01*
X115520000Y-58593753D01*
X115486757Y-58383872D01*
X115486757Y-58383869D01*
X115421095Y-58181782D01*
X115324624Y-57992449D01*
X115285270Y-57938282D01*
X115285269Y-57938282D01*
X114652962Y-58570590D01*
X114635925Y-58507007D01*
X114570099Y-58392993D01*
X114477007Y-58299901D01*
X114362993Y-58234075D01*
X114299407Y-58217036D01*
X114931716Y-57584728D01*
X114877550Y-57545375D01*
X114688217Y-57448904D01*
X114486129Y-57383242D01*
X114276246Y-57350000D01*
X114063754Y-57350000D01*
X113853872Y-57383242D01*
X113853869Y-57383242D01*
X113651782Y-57448904D01*
X113462446Y-57545376D01*
X113312391Y-57654397D01*
X113246584Y-57677876D01*
X113178530Y-57662050D01*
X113141130Y-57629564D01*
X113107009Y-57585097D01*
X113035579Y-57492007D01*
X113024266Y-57477263D01*
X113024260Y-57477256D01*
X112852743Y-57305739D01*
X112852736Y-57305733D01*
X112660293Y-57158067D01*
X112660292Y-57158066D01*
X112660289Y-57158064D01*
X112450212Y-57036776D01*
X112446197Y-57035113D01*
X112226104Y-56943947D01*
X111991785Y-56881161D01*
X111751289Y-56849500D01*
X111751288Y-56849500D01*
X111508712Y-56849500D01*
X111508711Y-56849500D01*
X111268214Y-56881161D01*
X111033895Y-56943947D01*
X110809794Y-57036773D01*
X110809785Y-57036777D01*
X110599706Y-57158067D01*
X110435486Y-57284077D01*
X110370317Y-57309271D01*
X110301872Y-57295232D01*
X110284514Y-57284077D01*
X110120293Y-57158067D01*
X110120292Y-57158066D01*
X110120289Y-57158064D01*
X109910212Y-57036776D01*
X109906197Y-57035113D01*
X109686104Y-56943947D01*
X109451785Y-56881161D01*
X109211289Y-56849500D01*
X109211288Y-56849500D01*
X108968712Y-56849500D01*
X108968711Y-56849500D01*
X108728214Y-56881161D01*
X108493895Y-56943947D01*
X108269794Y-57036773D01*
X108269789Y-57036775D01*
X108177640Y-57089977D01*
X108109740Y-57106449D01*
X108043713Y-57083596D01*
X108037281Y-57078691D01*
X107953412Y-57010305D01*
X107953408Y-57010303D01*
X107953407Y-57010302D01*
X107773049Y-56916091D01*
X107773048Y-56916090D01*
X107773045Y-56916089D01*
X107655829Y-56882550D01*
X107577418Y-56860114D01*
X107577415Y-56860113D01*
X107577413Y-56860113D01*
X107511102Y-56854217D01*
X107458037Y-56849500D01*
X107458032Y-56849500D01*
X105641971Y-56849500D01*
X105641965Y-56849500D01*
X105641964Y-56849501D01*
X105630316Y-56850536D01*
X105522584Y-56860113D01*
X105326954Y-56916089D01*
X105294737Y-56932918D01*
X105146593Y-57010302D01*
X105146591Y-57010303D01*
X105146590Y-57010304D01*
X104988890Y-57138890D01*
X104860304Y-57296590D01*
X104860302Y-57296593D01*
X104841251Y-57333064D01*
X104766089Y-57476954D01*
X104722423Y-57629564D01*
X104710936Y-57669711D01*
X104710114Y-57672583D01*
X104710113Y-57672586D01*
X104699500Y-57791966D01*
X95173972Y-57791966D01*
X95133909Y-57651951D01*
X95039698Y-57471593D01*
X94942996Y-57352997D01*
X94911109Y-57313890D01*
X94753409Y-57185304D01*
X94753410Y-57185304D01*
X94753407Y-57185302D01*
X94573049Y-57091091D01*
X94573048Y-57091090D01*
X94573045Y-57091089D01*
X94455829Y-57057550D01*
X94377418Y-57035114D01*
X94377415Y-57035113D01*
X94377413Y-57035113D01*
X94311102Y-57029217D01*
X94258037Y-57024500D01*
X94258032Y-57024500D01*
X92441971Y-57024500D01*
X92441965Y-57024500D01*
X92441964Y-57024501D01*
X92430316Y-57025536D01*
X92322584Y-57035113D01*
X92126954Y-57091089D01*
X91946591Y-57185303D01*
X91862718Y-57253692D01*
X91798321Y-57280800D01*
X91729492Y-57268790D01*
X91722358Y-57264976D01*
X91630215Y-57211777D01*
X91630205Y-57211773D01*
X91406104Y-57118947D01*
X91171785Y-57056161D01*
X90931289Y-57024500D01*
X90931288Y-57024500D01*
X90688712Y-57024500D01*
X90688711Y-57024500D01*
X90448214Y-57056161D01*
X90213895Y-57118947D01*
X89989794Y-57211773D01*
X89989785Y-57211777D01*
X89779706Y-57333067D01*
X89587263Y-57480733D01*
X89587256Y-57480739D01*
X89415739Y-57652256D01*
X89415733Y-57652263D01*
X89268067Y-57844706D01*
X89268064Y-57844710D01*
X89268064Y-57844711D01*
X89266405Y-57847584D01*
X89146777Y-58054785D01*
X89146773Y-58054794D01*
X89053947Y-58278895D01*
X88991161Y-58513214D01*
X88959500Y-58753711D01*
X88959500Y-58996288D01*
X88986318Y-59200000D01*
X88991162Y-59236789D01*
X89035807Y-59403408D01*
X89034145Y-59473256D01*
X88994983Y-59531119D01*
X88930754Y-59558623D01*
X88916033Y-59559500D01*
X64993363Y-59559500D01*
X64926324Y-59539815D01*
X64880569Y-59487011D01*
X64870890Y-59454898D01*
X64854959Y-59354315D01*
X64795616Y-59171678D01*
X64708434Y-59000577D01*
X64687201Y-58971352D01*
X64687200Y-58971351D01*
X64135373Y-59523181D01*
X64074050Y-59556666D01*
X64057264Y-59558470D01*
X64037741Y-59485606D01*
X63985080Y-59394394D01*
X63910606Y-59319920D01*
X63819394Y-59267259D01*
X63717661Y-59240000D01*
X63711447Y-59240000D01*
X64333646Y-58617798D01*
X64304415Y-58596561D01*
X64133321Y-58509383D01*
X63950684Y-58450040D01*
X63761015Y-58420000D01*
X63568985Y-58420000D01*
X63379315Y-58450040D01*
X63196678Y-58509383D01*
X63025578Y-58596564D01*
X62996352Y-58617798D01*
X62996351Y-58617798D01*
X63618554Y-59240000D01*
X63612339Y-59240000D01*
X63510606Y-59267259D01*
X63419394Y-59319920D01*
X63344920Y-59394394D01*
X63292259Y-59485606D01*
X63273177Y-59556819D01*
X63215269Y-59539815D01*
X63194627Y-59523181D01*
X62775460Y-59104014D01*
X62748580Y-59063785D01*
X62671385Y-58877417D01*
X62671377Y-58877401D01*
X62584576Y-58727059D01*
X62584575Y-58727058D01*
X62558613Y-58682090D01*
X62429028Y-58513211D01*
X62421317Y-58503162D01*
X62421311Y-58503155D01*
X62261844Y-58343688D01*
X62261837Y-58343682D01*
X62082918Y-58206393D01*
X62082916Y-58206391D01*
X62082910Y-58206387D01*
X62082905Y-58206384D01*
X62082902Y-58206382D01*
X61887598Y-58093622D01*
X61887582Y-58093614D01*
X61679230Y-58007313D01*
X61623757Y-57992449D01*
X61461373Y-57948938D01*
X61461372Y-57948937D01*
X61461369Y-57948937D01*
X61237778Y-57919501D01*
X61237773Y-57919500D01*
X61237768Y-57919500D01*
X61012232Y-57919500D01*
X61012226Y-57919500D01*
X61012221Y-57919501D01*
X60788630Y-57948937D01*
X60570769Y-58007313D01*
X60362417Y-58093614D01*
X60362401Y-58093622D01*
X60167097Y-58206382D01*
X60167081Y-58206393D01*
X59988162Y-58343681D01*
X59963892Y-58367952D01*
X59902568Y-58401436D01*
X59832876Y-58396450D01*
X59788530Y-58367949D01*
X59741665Y-58321083D01*
X59741659Y-58321078D01*
X59559621Y-58181396D01*
X59559615Y-58181392D01*
X59559612Y-58181390D01*
X59360888Y-58066656D01*
X59360879Y-58066651D01*
X59148887Y-57978842D01*
X58927239Y-57919452D01*
X58927233Y-57919451D01*
X58927228Y-57919450D01*
X58699735Y-57889501D01*
X58699734Y-57889501D01*
X58470266Y-57889501D01*
X58470265Y-57889501D01*
X58242771Y-57919450D01*
X58242764Y-57919451D01*
X58242761Y-57919452D01*
X58172486Y-57938282D01*
X58021112Y-57978842D01*
X57809120Y-58066651D01*
X57809111Y-58066656D01*
X57610388Y-58181390D01*
X57610378Y-58181396D01*
X57428340Y-58321078D01*
X57428333Y-58321084D01*
X57266084Y-58483333D01*
X57266078Y-58483340D01*
X57126396Y-58665378D01*
X57126390Y-58665388D01*
X57011656Y-58864111D01*
X57011651Y-58864120D01*
X56923842Y-59076112D01*
X56864453Y-59297758D01*
X56864450Y-59297771D01*
X56834501Y-59525265D01*
X56834501Y-59754734D01*
X56864450Y-59982228D01*
X56864451Y-59982233D01*
X56864452Y-59982239D01*
X56896919Y-60103407D01*
X56923842Y-60203887D01*
X57011651Y-60415879D01*
X57011656Y-60415888D01*
X57126390Y-60614612D01*
X57126392Y-60614615D01*
X57126396Y-60614621D01*
X57266078Y-60796659D01*
X57266084Y-60796666D01*
X58657570Y-62188151D01*
X58691055Y-62249474D01*
X58686071Y-62319166D01*
X58644199Y-62375099D01*
X58586075Y-62398771D01*
X58523438Y-62407017D01*
X58282792Y-62471498D01*
X58052638Y-62566830D01*
X58052623Y-62566837D01*
X57836873Y-62691400D01*
X57700486Y-62796053D01*
X57635317Y-62821247D01*
X57566872Y-62807208D01*
X57549514Y-62796053D01*
X57413126Y-62691400D01*
X57197376Y-62566837D01*
X57197361Y-62566830D01*
X56967207Y-62471498D01*
X56726561Y-62407017D01*
X56479575Y-62374501D01*
X56479570Y-62374500D01*
X56479565Y-62374500D01*
X56230435Y-62374500D01*
X56230429Y-62374500D01*
X56230424Y-62374501D01*
X55983438Y-62407017D01*
X55742792Y-62471498D01*
X55512638Y-62566830D01*
X55512623Y-62566837D01*
X55296873Y-62691400D01*
X55160486Y-62796053D01*
X55095317Y-62821247D01*
X55026872Y-62807208D01*
X55009514Y-62796053D01*
X54873126Y-62691400D01*
X54657376Y-62566837D01*
X54657361Y-62566830D01*
X54427207Y-62471498D01*
X54186561Y-62407017D01*
X53939575Y-62374501D01*
X53939570Y-62374500D01*
X53939565Y-62374500D01*
X53690435Y-62374500D01*
X53690429Y-62374500D01*
X53690424Y-62374501D01*
X53443438Y-62407017D01*
X53202792Y-62471498D01*
X52972638Y-62566830D01*
X52972623Y-62566837D01*
X52756873Y-62691400D01*
X52559225Y-62843060D01*
X52559218Y-62843066D01*
X52512439Y-62889845D01*
X52451116Y-62923329D01*
X52381426Y-62918345D01*
X52282379Y-62881403D01*
X52282372Y-62881401D01*
X52222844Y-62875000D01*
X51525000Y-62875000D01*
X51525000Y-64126517D01*
X51506591Y-64115889D01*
X51353991Y-64075000D01*
X51196009Y-64075000D01*
X51043409Y-64115889D01*
X51025000Y-64126517D01*
X51025000Y-62875000D01*
X50327155Y-62875000D01*
X50267627Y-62881401D01*
X50267620Y-62881403D01*
X50132913Y-62931645D01*
X50132906Y-62931649D01*
X50017812Y-63017809D01*
X50017809Y-63017812D01*
X49931649Y-63132906D01*
X49931645Y-63132913D01*
X49881403Y-63267620D01*
X49881401Y-63267627D01*
X49875000Y-63327155D01*
X29000500Y-63327155D01*
X29000500Y-59856995D01*
X49824500Y-59856995D01*
X49824500Y-60093004D01*
X49824501Y-60093020D01*
X49854555Y-60321309D01*
X49855307Y-60327014D01*
X49865010Y-60363226D01*
X49916394Y-60554993D01*
X50006714Y-60773045D01*
X50006719Y-60773056D01*
X50077677Y-60895957D01*
X50124727Y-60977450D01*
X50124729Y-60977453D01*
X50124730Y-60977454D01*
X50268406Y-61164697D01*
X50268412Y-61164704D01*
X50435295Y-61331587D01*
X50435302Y-61331593D01*
X50545306Y-61416001D01*
X50622550Y-61475273D01*
X50753918Y-61551118D01*
X50826943Y-61593280D01*
X50826948Y-61593282D01*
X50826951Y-61593284D01*
X51045007Y-61683606D01*
X51272986Y-61744693D01*
X51506989Y-61775500D01*
X51506996Y-61775500D01*
X51743004Y-61775500D01*
X51743011Y-61775500D01*
X51977014Y-61744693D01*
X52204993Y-61683606D01*
X52423049Y-61593284D01*
X52627450Y-61475273D01*
X52814699Y-61331592D01*
X52981592Y-61164699D01*
X53125273Y-60977450D01*
X53243284Y-60773049D01*
X53333606Y-60554993D01*
X53394693Y-60327014D01*
X53425500Y-60093011D01*
X53425500Y-59856989D01*
X53394693Y-59622986D01*
X53333606Y-59395007D01*
X53243284Y-59176951D01*
X53243282Y-59176948D01*
X53243280Y-59176943D01*
X53185065Y-59076113D01*
X53125273Y-58972550D01*
X52997664Y-58806246D01*
X52981593Y-58785302D01*
X52981587Y-58785295D01*
X52814704Y-58618412D01*
X52814697Y-58618406D01*
X52627454Y-58474730D01*
X52627453Y-58474729D01*
X52627450Y-58474727D01*
X52532660Y-58420000D01*
X52423056Y-58356719D01*
X52423045Y-58356714D01*
X52204993Y-58266394D01*
X51981067Y-58206393D01*
X51977014Y-58205307D01*
X51977013Y-58205306D01*
X51977010Y-58205306D01*
X51743020Y-58174501D01*
X51743017Y-58174500D01*
X51743011Y-58174500D01*
X51506989Y-58174500D01*
X51506983Y-58174500D01*
X51506979Y-58174501D01*
X51272989Y-58205306D01*
X51045006Y-58266394D01*
X50826954Y-58356714D01*
X50826943Y-58356719D01*
X50622545Y-58474730D01*
X50435302Y-58618406D01*
X50435295Y-58618412D01*
X50268412Y-58785295D01*
X50268406Y-58785302D01*
X50124730Y-58972545D01*
X50006719Y-59176943D01*
X50006714Y-59176954D01*
X49916394Y-59395006D01*
X49855306Y-59622989D01*
X49824501Y-59856979D01*
X49824500Y-59856995D01*
X29000500Y-59856995D01*
X29000500Y-51291966D01*
X35074500Y-51291966D01*
X35074500Y-53108028D01*
X35074501Y-53108034D01*
X35085113Y-53227415D01*
X35141089Y-53423045D01*
X35141090Y-53423048D01*
X35141091Y-53423049D01*
X35235302Y-53603407D01*
X35235304Y-53603409D01*
X35363890Y-53761109D01*
X35468837Y-53846681D01*
X35521593Y-53889698D01*
X35666726Y-53965509D01*
X35717032Y-54013994D01*
X35733139Y-54081981D01*
X35719798Y-54131711D01*
X35673904Y-54221782D01*
X35608242Y-54423869D01*
X35608242Y-54423872D01*
X35575000Y-54633753D01*
X35575000Y-54846246D01*
X35608242Y-55056127D01*
X35608242Y-55056130D01*
X35673904Y-55258217D01*
X35770379Y-55447557D01*
X35879396Y-55597608D01*
X35902876Y-55663414D01*
X35887050Y-55731468D01*
X35854564Y-55768869D01*
X35702263Y-55885733D01*
X35702256Y-55885739D01*
X35530739Y-56057256D01*
X35530733Y-56057263D01*
X35383067Y-56249706D01*
X35261777Y-56459785D01*
X35261773Y-56459794D01*
X35168947Y-56683895D01*
X35106161Y-56918214D01*
X35074500Y-57158711D01*
X35074500Y-57401288D01*
X35105938Y-57640094D01*
X35106162Y-57641789D01*
X35108967Y-57652256D01*
X35168947Y-57876104D01*
X35247877Y-58066656D01*
X35261776Y-58100212D01*
X35383064Y-58310289D01*
X35383066Y-58310292D01*
X35383067Y-58310293D01*
X35530733Y-58502736D01*
X35530739Y-58502743D01*
X35702256Y-58674260D01*
X35702263Y-58674266D01*
X35735799Y-58699999D01*
X35894711Y-58821936D01*
X36104788Y-58943224D01*
X36328900Y-59036054D01*
X36563211Y-59098838D01*
X36743586Y-59122584D01*
X36803711Y-59130500D01*
X36803712Y-59130500D01*
X37046289Y-59130500D01*
X37094388Y-59124167D01*
X37286789Y-59098838D01*
X37521100Y-59036054D01*
X37745212Y-58943224D01*
X37955289Y-58821936D01*
X38147738Y-58674265D01*
X38319265Y-58502738D01*
X38466936Y-58310289D01*
X38588224Y-58100212D01*
X38681054Y-57876100D01*
X38743838Y-57641789D01*
X38775500Y-57401288D01*
X38775500Y-57158712D01*
X38772890Y-57138890D01*
X38754671Y-57000498D01*
X38743838Y-56918211D01*
X38681054Y-56683900D01*
X38588224Y-56459788D01*
X38466936Y-56249711D01*
X38319266Y-56057263D01*
X38319264Y-56057260D01*
X38147743Y-55885739D01*
X37995434Y-55768868D01*
X37954232Y-55712440D01*
X37950077Y-55642694D01*
X37970603Y-55597606D01*
X38079622Y-55447554D01*
X38176095Y-55258217D01*
X38241757Y-55056130D01*
X38241757Y-55056127D01*
X38270813Y-54872682D01*
X50325000Y-54872682D01*
X50325000Y-55077317D01*
X50357009Y-55279417D01*
X50420244Y-55474031D01*
X50513141Y-55656350D01*
X50513147Y-55656359D01*
X50545523Y-55700921D01*
X50545524Y-55700922D01*
X51225000Y-55021446D01*
X51225000Y-55027661D01*
X51252259Y-55129394D01*
X51304920Y-55220606D01*
X51379394Y-55295080D01*
X51470606Y-55347741D01*
X51572339Y-55375000D01*
X51578553Y-55375000D01*
X50899076Y-56054474D01*
X50943650Y-56086859D01*
X51125968Y-56179755D01*
X51320582Y-56242990D01*
X51522683Y-56275000D01*
X51727317Y-56275000D01*
X51929417Y-56242990D01*
X52124031Y-56179755D01*
X52306349Y-56086859D01*
X52350921Y-56054474D01*
X51671447Y-55375000D01*
X51677661Y-55375000D01*
X51779394Y-55347741D01*
X51870606Y-55295080D01*
X51945080Y-55220606D01*
X51997741Y-55129394D01*
X52025000Y-55027661D01*
X52025000Y-55021447D01*
X52704474Y-55700921D01*
X52736859Y-55656349D01*
X52829755Y-55474031D01*
X52892990Y-55279417D01*
X52925000Y-55077317D01*
X52925000Y-54872682D01*
X52892990Y-54670582D01*
X52829755Y-54475968D01*
X52736859Y-54293650D01*
X52704474Y-54249077D01*
X52704474Y-54249076D01*
X52025000Y-54928551D01*
X52025000Y-54922339D01*
X51997741Y-54820606D01*
X51945080Y-54729394D01*
X51870606Y-54654920D01*
X51779394Y-54602259D01*
X51677661Y-54575000D01*
X51671446Y-54575000D01*
X52350922Y-53895524D01*
X52350922Y-53895523D01*
X52325380Y-53876966D01*
X68214500Y-53876966D01*
X68214500Y-55793028D01*
X68214501Y-55793034D01*
X68225113Y-55912415D01*
X68281089Y-56108045D01*
X68281090Y-56108048D01*
X68281091Y-56108049D01*
X68375302Y-56288407D01*
X68375304Y-56288409D01*
X68503890Y-56446109D01*
X68569983Y-56500000D01*
X68661593Y-56574698D01*
X68841951Y-56668909D01*
X69037582Y-56724886D01*
X69156963Y-56735500D01*
X71073036Y-56735499D01*
X71192418Y-56724886D01*
X71388049Y-56668909D01*
X71568407Y-56574698D01*
X71726109Y-56446109D01*
X71854698Y-56288407D01*
X71917476Y-56168223D01*
X71965959Y-56117920D01*
X72033947Y-56101812D01*
X72083677Y-56115153D01*
X72117584Y-56132429D01*
X72327164Y-56200526D01*
X72544819Y-56235000D01*
X72765181Y-56235000D01*
X72982835Y-56200526D01*
X73192410Y-56132432D01*
X73388760Y-56032386D01*
X73452513Y-55986066D01*
X73452514Y-55986066D01*
X72743585Y-55277137D01*
X72828694Y-55254333D01*
X72931306Y-55195090D01*
X73015090Y-55111306D01*
X73074333Y-55008694D01*
X73097137Y-54923585D01*
X73806066Y-55632514D01*
X73806066Y-55632513D01*
X73852386Y-55568760D01*
X73871143Y-55531947D01*
X78692677Y-55531947D01*
X78692677Y-55768052D01*
X78729611Y-56001247D01*
X78802574Y-56225802D01*
X78909764Y-56436174D01*
X78970015Y-56519104D01*
X78970017Y-56519105D01*
X79709714Y-55779408D01*
X79726752Y-55842993D01*
X79792578Y-55957007D01*
X79885670Y-56050099D01*
X79999684Y-56115925D01*
X80063267Y-56132962D01*
X79323570Y-56872658D01*
X79406505Y-56932914D01*
X79616874Y-57040102D01*
X79841429Y-57113065D01*
X79841428Y-57113065D01*
X80074625Y-57150000D01*
X80310729Y-57150000D01*
X80543924Y-57113065D01*
X80768479Y-57040102D01*
X80978840Y-56932918D01*
X80978846Y-56932914D01*
X81061781Y-56872658D01*
X81061782Y-56872658D01*
X80322085Y-56132962D01*
X80385670Y-56115925D01*
X80499684Y-56050099D01*
X80592776Y-55957007D01*
X80658602Y-55842993D01*
X80675639Y-55779409D01*
X81415335Y-56519105D01*
X81415335Y-56519104D01*
X81475591Y-56436169D01*
X81475595Y-56436163D01*
X81582779Y-56225802D01*
X81655742Y-56001247D01*
X81692677Y-55768052D01*
X81692677Y-55531947D01*
X81655742Y-55298752D01*
X81582779Y-55074197D01*
X81488745Y-54889643D01*
X81488744Y-54889641D01*
X81475593Y-54863830D01*
X81455211Y-54835777D01*
X83192177Y-54835777D01*
X83192177Y-56464208D01*
X83192178Y-56464223D01*
X83202581Y-56596413D01*
X83202582Y-56596420D01*
X83257579Y-56814678D01*
X83257580Y-56814681D01*
X83350668Y-57019622D01*
X83350674Y-57019632D01*
X83478851Y-57204645D01*
X83478855Y-57204650D01*
X83478858Y-57204654D01*
X83638023Y-57363819D01*
X83638027Y-57363822D01*
X83638031Y-57363825D01*
X83666058Y-57383242D01*
X83823051Y-57492007D01*
X84027994Y-57585096D01*
X84027998Y-57585097D01*
X84246256Y-57640094D01*
X84246258Y-57640094D01*
X84246265Y-57640096D01*
X84378460Y-57650500D01*
X86006893Y-57650499D01*
X86139089Y-57640096D01*
X86357360Y-57585096D01*
X86562303Y-57492007D01*
X86747331Y-57363819D01*
X86906496Y-57204654D01*
X87034684Y-57019626D01*
X87127773Y-56814683D01*
X87182773Y-56596412D01*
X87193177Y-56464217D01*
X87193176Y-55097682D01*
X96275000Y-55097682D01*
X96275000Y-55302317D01*
X96307009Y-55504417D01*
X96370244Y-55699031D01*
X96463141Y-55881350D01*
X96463147Y-55881359D01*
X96495523Y-55925921D01*
X96495524Y-55925922D01*
X97175000Y-55246446D01*
X97175000Y-55252661D01*
X97202259Y-55354394D01*
X97254920Y-55445606D01*
X97329394Y-55520080D01*
X97420606Y-55572741D01*
X97522339Y-55600000D01*
X97528553Y-55600000D01*
X96849076Y-56279474D01*
X96893650Y-56311859D01*
X97075968Y-56404755D01*
X97270582Y-56467990D01*
X97472683Y-56500000D01*
X97677317Y-56500000D01*
X97879417Y-56467990D01*
X98074031Y-56404755D01*
X98256349Y-56311859D01*
X98300921Y-56279474D01*
X97621447Y-55600000D01*
X97627661Y-55600000D01*
X97729394Y-55572741D01*
X97820606Y-55520080D01*
X97895080Y-55445606D01*
X97947741Y-55354394D01*
X97975000Y-55252661D01*
X97975000Y-55246447D01*
X98654474Y-55925921D01*
X98686859Y-55881349D01*
X98779755Y-55699031D01*
X98842990Y-55504417D01*
X98875000Y-55302317D01*
X98875000Y-55097683D01*
X98874943Y-55097324D01*
X98874943Y-55097322D01*
X98872515Y-55081995D01*
X100774500Y-55081995D01*
X100774500Y-55318004D01*
X100774501Y-55318020D01*
X100805306Y-55552010D01*
X100866394Y-55779993D01*
X100956714Y-55998045D01*
X100956719Y-55998056D01*
X101024326Y-56115153D01*
X101074727Y-56202450D01*
X101074729Y-56202453D01*
X101074730Y-56202454D01*
X101218406Y-56389697D01*
X101218412Y-56389704D01*
X101385295Y-56556587D01*
X101385302Y-56556593D01*
X101437197Y-56596413D01*
X101572550Y-56700273D01*
X101703918Y-56776118D01*
X101776943Y-56818280D01*
X101776948Y-56818282D01*
X101776951Y-56818284D01*
X101995007Y-56908606D01*
X102222986Y-56969693D01*
X102456989Y-57000500D01*
X102456996Y-57000500D01*
X102693004Y-57000500D01*
X102693011Y-57000500D01*
X102927014Y-56969693D01*
X103154993Y-56908606D01*
X103373049Y-56818284D01*
X103577450Y-56700273D01*
X103764699Y-56556592D01*
X103931592Y-56389699D01*
X104075273Y-56202450D01*
X104193284Y-55998049D01*
X104283606Y-55779993D01*
X104344693Y-55552014D01*
X104375500Y-55318011D01*
X104375500Y-55081989D01*
X104344693Y-54847986D01*
X104283606Y-54620007D01*
X104193284Y-54401951D01*
X104193282Y-54401948D01*
X104193280Y-54401943D01*
X104151118Y-54328918D01*
X104075273Y-54197550D01*
X103962437Y-54050499D01*
X103931593Y-54010302D01*
X103931587Y-54010295D01*
X103764704Y-53843412D01*
X103764697Y-53843406D01*
X103577454Y-53699730D01*
X103577453Y-53699729D01*
X103577450Y-53699727D01*
X103469862Y-53637611D01*
X103373056Y-53581719D01*
X103373045Y-53581714D01*
X103154993Y-53491394D01*
X102927010Y-53430306D01*
X102693020Y-53399501D01*
X102693017Y-53399500D01*
X102693011Y-53399500D01*
X102456989Y-53399500D01*
X102456983Y-53399500D01*
X102456979Y-53399501D01*
X102222989Y-53430306D01*
X101995006Y-53491394D01*
X101776954Y-53581714D01*
X101776943Y-53581719D01*
X101572545Y-53699730D01*
X101385302Y-53843406D01*
X101385295Y-53843412D01*
X101218412Y-54010295D01*
X101218406Y-54010302D01*
X101074730Y-54197545D01*
X100956719Y-54401943D01*
X100956714Y-54401954D01*
X100866394Y-54620006D01*
X100805306Y-54847989D01*
X100774501Y-55081979D01*
X100774500Y-55081995D01*
X98872515Y-55081995D01*
X98842990Y-54895582D01*
X98779755Y-54700968D01*
X98686859Y-54518650D01*
X98654474Y-54474077D01*
X98654474Y-54474076D01*
X97975000Y-55153551D01*
X97975000Y-55147339D01*
X97947741Y-55045606D01*
X97895080Y-54954394D01*
X97820606Y-54879920D01*
X97729394Y-54827259D01*
X97627661Y-54800000D01*
X97621446Y-54800000D01*
X98300922Y-54120524D01*
X98300921Y-54120523D01*
X98256359Y-54088147D01*
X98256350Y-54088141D01*
X98074031Y-53995244D01*
X97879417Y-53932009D01*
X97677317Y-53900000D01*
X97472683Y-53900000D01*
X97270582Y-53932009D01*
X97075968Y-53995244D01*
X96893644Y-54088143D01*
X96849077Y-54120523D01*
X96849077Y-54120524D01*
X97528554Y-54800000D01*
X97522339Y-54800000D01*
X97420606Y-54827259D01*
X97329394Y-54879920D01*
X97254920Y-54954394D01*
X97202259Y-55045606D01*
X97175000Y-55147339D01*
X97175000Y-55153553D01*
X96495524Y-54474077D01*
X96495523Y-54474077D01*
X96463143Y-54518644D01*
X96370244Y-54700968D01*
X96307009Y-54895582D01*
X96275000Y-55097682D01*
X87193176Y-55097682D01*
X87193176Y-54835784D01*
X87182773Y-54703588D01*
X87127773Y-54485317D01*
X87034684Y-54280374D01*
X87026965Y-54269233D01*
X87005604Y-54238399D01*
X86906502Y-54095354D01*
X86906499Y-54095350D01*
X86906496Y-54095346D01*
X86747331Y-53936181D01*
X86747327Y-53936178D01*
X86747322Y-53936174D01*
X86562309Y-53807997D01*
X86562307Y-53807995D01*
X86562303Y-53807993D01*
X86451321Y-53757583D01*
X86357358Y-53714903D01*
X86357355Y-53714902D01*
X86139097Y-53659905D01*
X86139090Y-53659904D01*
X86095024Y-53656436D01*
X86006894Y-53649500D01*
X86006892Y-53649500D01*
X84378468Y-53649500D01*
X84378453Y-53649501D01*
X84246263Y-53659904D01*
X84246256Y-53659905D01*
X84027998Y-53714902D01*
X84027995Y-53714903D01*
X83823054Y-53807991D01*
X83823044Y-53807997D01*
X83638031Y-53936174D01*
X83638019Y-53936184D01*
X83478861Y-54095342D01*
X83478851Y-54095354D01*
X83350674Y-54280367D01*
X83350668Y-54280377D01*
X83257580Y-54485318D01*
X83257579Y-54485321D01*
X83202582Y-54703579D01*
X83202581Y-54703586D01*
X83192177Y-54835777D01*
X81455211Y-54835777D01*
X81415335Y-54780894D01*
X81415335Y-54780893D01*
X80675639Y-55520590D01*
X80658602Y-55457007D01*
X80592776Y-55342993D01*
X80499684Y-55249901D01*
X80385670Y-55184075D01*
X80322086Y-55167037D01*
X81061782Y-54427340D01*
X81061781Y-54427338D01*
X80978851Y-54367087D01*
X80768479Y-54259897D01*
X80543924Y-54186934D01*
X80543925Y-54186934D01*
X80310729Y-54150000D01*
X80074625Y-54150000D01*
X79841429Y-54186934D01*
X79616874Y-54259897D01*
X79406507Y-54367084D01*
X79323571Y-54427340D01*
X80063268Y-55167037D01*
X79999684Y-55184075D01*
X79885670Y-55249901D01*
X79792578Y-55342993D01*
X79726752Y-55457007D01*
X79709714Y-55520591D01*
X78970017Y-54780894D01*
X78909761Y-54863830D01*
X78802574Y-55074197D01*
X78729611Y-55298752D01*
X78692677Y-55531947D01*
X73871143Y-55531947D01*
X73902310Y-55470780D01*
X73952432Y-55372410D01*
X74020526Y-55162835D01*
X74055000Y-54945181D01*
X74055000Y-54724818D01*
X74020527Y-54507169D01*
X74020525Y-54507160D01*
X73952432Y-54297589D01*
X73852388Y-54101243D01*
X73806066Y-54037485D01*
X73806065Y-54037485D01*
X73097137Y-54746413D01*
X73074333Y-54661306D01*
X73015090Y-54558694D01*
X72931306Y-54474910D01*
X72828694Y-54415667D01*
X72743584Y-54392861D01*
X73452513Y-53683932D01*
X73388756Y-53637611D01*
X73192410Y-53537567D01*
X72982835Y-53469473D01*
X72765181Y-53435000D01*
X72544819Y-53435000D01*
X72327164Y-53469473D01*
X72117589Y-53537567D01*
X72117585Y-53537569D01*
X72083675Y-53554847D01*
X72015005Y-53567742D01*
X71950265Y-53541464D01*
X71917476Y-53501775D01*
X71854698Y-53381593D01*
X71830958Y-53352479D01*
X71726109Y-53223890D01*
X71584024Y-53108036D01*
X71568407Y-53095302D01*
X71388049Y-53001091D01*
X71388048Y-53001090D01*
X71388045Y-53001089D01*
X71270829Y-52967550D01*
X71192418Y-52945114D01*
X71192415Y-52945113D01*
X71192413Y-52945113D01*
X71126102Y-52939217D01*
X71073037Y-52934500D01*
X71073032Y-52934500D01*
X69156971Y-52934500D01*
X69156965Y-52934500D01*
X69156964Y-52934501D01*
X69145316Y-52935536D01*
X69037584Y-52945113D01*
X68841954Y-53001089D01*
X68751772Y-53048196D01*
X68661593Y-53095302D01*
X68661591Y-53095303D01*
X68661590Y-53095304D01*
X68503890Y-53223890D01*
X68375304Y-53381590D01*
X68375302Y-53381593D01*
X68349856Y-53430307D01*
X68281089Y-53561954D01*
X68225114Y-53757583D01*
X68225113Y-53757586D01*
X68217607Y-53842016D01*
X68215729Y-53863147D01*
X68214500Y-53876966D01*
X52325380Y-53876966D01*
X52306359Y-53863147D01*
X52306350Y-53863141D01*
X52124031Y-53770244D01*
X51929417Y-53707009D01*
X51727317Y-53675000D01*
X51522683Y-53675000D01*
X51320582Y-53707009D01*
X51125968Y-53770244D01*
X50943644Y-53863143D01*
X50899077Y-53895523D01*
X50899077Y-53895524D01*
X51578554Y-54575000D01*
X51572339Y-54575000D01*
X51470606Y-54602259D01*
X51379394Y-54654920D01*
X51304920Y-54729394D01*
X51252259Y-54820606D01*
X51225000Y-54922339D01*
X51225000Y-54928553D01*
X50545524Y-54249077D01*
X50545523Y-54249077D01*
X50513143Y-54293644D01*
X50420244Y-54475968D01*
X50357009Y-54670582D01*
X50325000Y-54872682D01*
X38270813Y-54872682D01*
X38274656Y-54848418D01*
X38275000Y-54846246D01*
X38275000Y-54633753D01*
X38241757Y-54423872D01*
X38241757Y-54423869D01*
X38176094Y-54221779D01*
X38176092Y-54221775D01*
X38130202Y-54131711D01*
X38117305Y-54063042D01*
X38143581Y-53998302D01*
X38183270Y-53965511D01*
X38328407Y-53889698D01*
X38486109Y-53761109D01*
X38614698Y-53603407D01*
X38708909Y-53423049D01*
X38764886Y-53227418D01*
X38775500Y-53108037D01*
X38775499Y-51291964D01*
X38764886Y-51172582D01*
X38708909Y-50976951D01*
X38614698Y-50796593D01*
X38562684Y-50732803D01*
X38486109Y-50638890D01*
X38328409Y-50510304D01*
X38328410Y-50510304D01*
X38328407Y-50510302D01*
X38148049Y-50416091D01*
X38148048Y-50416090D01*
X38148045Y-50416089D01*
X38030829Y-50382550D01*
X37952418Y-50360114D01*
X37952415Y-50360113D01*
X37952413Y-50360113D01*
X37886102Y-50354217D01*
X37833037Y-50349500D01*
X37833032Y-50349500D01*
X36016971Y-50349500D01*
X36016965Y-50349500D01*
X36016964Y-50349501D01*
X36005316Y-50350536D01*
X35897584Y-50360113D01*
X35701954Y-50416089D01*
X35611772Y-50463196D01*
X35521593Y-50510302D01*
X35521591Y-50510303D01*
X35521590Y-50510304D01*
X35363890Y-50638890D01*
X35235304Y-50796590D01*
X35141089Y-50976954D01*
X35085114Y-51172583D01*
X35085113Y-51172586D01*
X35074500Y-51291966D01*
X29000500Y-51291966D01*
X29000500Y-49974500D01*
X29020185Y-49907461D01*
X29072989Y-49861706D01*
X29124500Y-49850500D01*
X156425500Y-49850500D01*
X156492539Y-49870185D01*
G37*
%TD.AperFunction*%
%TD*%
M02*
