M48
; DRILL file KiCad 10.0.1 date 2026-09-21T16:12:56
; FORMAT={-:-/ absolute / metric / decimal}
; #@! TF.CreationDate,2026-09-21T16:12:56-03:00
; #@! TF.GenerationSoftware,Kicad,Pcbnew,10.0.1
; #@! TF.FileFunction,Plated,1,2,PTH
FMAT,2
METRIC
; #@! TA.AperFunction,Plated,PTH,ComponentDrill
T1C0.800
; #@! TA.AperFunction,Plated,PTH,ViaDrill
T2C0.820
; #@! TA.AperFunction,Plated,PTH,ComponentDrill
T3C0.900
; #@! TA.AperFunction,Plated,PTH,ComponentDrill
T4C1.000
; #@! TA.AperFunction,Plated,PTH,ComponentDrill
T5C1.100
; #@! TA.AperFunction,Plated,PTH,ComponentDrill
T6C1.200
; #@! TA.AperFunction,Plated,PTH,ComponentDrill
T7C1.300
%
G90
G05
T1
X32.3Y-66.1
X37.3Y-66.1
X51.625Y-54.975
X51.625Y-59.975
X58.585Y-59.64
X61.125Y-59.64
X63.665Y-59.64
X97.575Y-55.2
X102.575Y-55.2
T2
X40.375Y-54.74
X59.0Y-54.975
X69.1Y-98.35
X69.2Y-92.7
X89.134Y-71.391
X89.5Y-83.8
X96.0Y-74.25
X98.337Y-77.743
X98.635Y-80.06
X102.1Y-89.05
X102.875Y-61.225
X112.3Y-77.025
X112.375Y-66.575
X115.5Y-97.2
X115.5Y-102.825
X138.625Y-76.45
X138.9Y-90.725
X138.9Y-108.425
X144.25Y-90.725
X144.325Y-76.675
X144.425Y-108.425
T3
X70.115Y-54.835
X72.655Y-54.835
T4
X35.0Y-90.235
X35.0Y-92.775
X36.925Y-52.2
X36.925Y-54.74
X36.925Y-57.28
X80.193Y-55.65
X85.193Y-55.65
X90.81Y-58.875
X93.35Y-58.875
X106.55Y-58.7
X109.09Y-58.7
X111.63Y-58.7
X114.17Y-58.7
T5
X148.875Y-81.05
X148.875Y-87.55
X148.875Y-93.625
X148.875Y-100.125
X148.875Y-108.225
X148.875Y-114.725
X148.95Y-67.8
X148.95Y-74.3
X153.375Y-81.05
X153.375Y-87.55
X153.375Y-93.625
X153.375Y-100.125
X153.375Y-108.225
X153.375Y-114.725
X153.45Y-67.8
X153.45Y-74.3
T6
X51.275Y-64.675
X53.815Y-64.675
X56.355Y-64.675
X58.895Y-64.675
X61.435Y-64.675
X63.975Y-64.675
X76.675Y-64.675
X79.215Y-64.675
X81.755Y-64.675
X84.295Y-64.675
X86.835Y-64.675
X89.375Y-64.675
T7
X38.0Y-101.75
X38.0Y-108.25
M30
