%TF.GenerationSoftware,KiCad,Pcbnew,10.0.1*%
%TF.CreationDate,2026-09-21T16:13:07-03:00*%
%TF.ProjectId,Inv_Spot_Disp,496e765f-5370-46f7-945f-446973702e6b,rev?*%
%TF.SameCoordinates,Original*%
%TF.FileFunction,Soldermask,Top*%
%TF.FilePolarity,Negative*%
%FSLAX46Y46*%
G04 Gerber Fmt 4.6, Leading zero omitted, Abs format (unit mm)*
G04 Created by KiCad (PCBNEW 10.0.1) date 2026-09-21 16:13:07*
%MOMM*%
%LPD*%
G01*
G04 APERTURE LIST*
G04 Aperture macros list*
%AMRoundRect*
0 Rectangle with rounded corners*
0 $1 Rounding radius*
0 $2 $3 $4 $5 $6 $7 $8 $9 X,Y pos of 4 corners*
0 Add a 4 corners polygon primitive as box body*
4,1,4,$2,$3,$4,$5,$6,$7,$8,$9,$2,$3,0*
0 Add four circle primitives for the rounded corners*
1,1,$1+$1,$2,$3*
1,1,$1+$1,$4,$5*
1,1,$1+$1,$6,$7*
1,1,$1+$1,$8,$9*
0 Add four rect primitives between the rounded corners*
20,1,$1+$1,$2,$3,$4,$5,0*
20,1,$1+$1,$4,$5,$6,$7,0*
20,1,$1+$1,$6,$7,$8,$9,0*
20,1,$1+$1,$8,$9,$2,$3,0*%
G04 Aperture macros list end*
%ADD10RoundRect,0.250000X0.750000X0.750000X-0.750000X0.750000X-0.750000X-0.750000X0.750000X-0.750000X0*%
%ADD11C,2.000000*%
%ADD12R,2.250000X2.250000*%
%ADD13C,2.250000*%
%ADD14C,1.440000*%
%ADD15C,1.600000*%
%ADD16R,1.700000X1.700000*%
%ADD17C,1.700000*%
%ADD18R,1.800000X1.800000*%
%ADD19C,1.800000*%
%ADD20R,1.800000X2.600000*%
%ADD21O,1.800000X2.600000*%
G04 APERTURE END LIST*
D10*
%TO.C,C1*%
X85192677Y-55650000D03*
D11*
X80192677Y-55650000D03*
%TD*%
D12*
%TO.C,SW5*%
X38000000Y-101750000D03*
D13*
X38000000Y-108250000D03*
%TD*%
D14*
%TO.C,RV1*%
X58585000Y-59640000D03*
X61125000Y-59640000D03*
X63665000Y-59640000D03*
%TD*%
D15*
%TO.C,C2*%
X102575000Y-55200000D03*
X97575000Y-55200000D03*
%TD*%
D16*
%TO.C,J1*%
X93350000Y-58875000D03*
D17*
X90810000Y-58875000D03*
%TD*%
D16*
%TO.C,J3*%
X35000000Y-92775000D03*
D17*
X35000000Y-90235000D03*
%TD*%
D11*
%TO.C,SW2*%
X153375000Y-81050000D03*
X153375000Y-87550000D03*
X148875000Y-81050000D03*
X148875000Y-87550000D03*
%TD*%
D15*
%TO.C,C3*%
X51625000Y-59975000D03*
X51625000Y-54975000D03*
%TD*%
D11*
%TO.C,SW4*%
X153375000Y-108225000D03*
X153375000Y-114725000D03*
X148875000Y-108225000D03*
X148875000Y-114725000D03*
%TD*%
D15*
%TO.C,C7*%
X37300000Y-66100000D03*
X32300000Y-66100000D03*
%TD*%
D18*
%TO.C,D2*%
X70115000Y-54835000D03*
D19*
X72655000Y-54835000D03*
%TD*%
D16*
%TO.C,J4*%
X106550000Y-58700000D03*
D17*
X109090000Y-58700000D03*
X111630000Y-58700000D03*
X114170000Y-58700000D03*
%TD*%
D20*
%TO.C,U2*%
X51275000Y-64675000D03*
D21*
X53815000Y-64675000D03*
X56355000Y-64675000D03*
X58895000Y-64675000D03*
X61435000Y-64675000D03*
X63975000Y-64675000D03*
X76675000Y-64675000D03*
X79215000Y-64675000D03*
X81755000Y-64675000D03*
X84295000Y-64675000D03*
X86835000Y-64675000D03*
X89375000Y-64675000D03*
%TD*%
D11*
%TO.C,SW3*%
X153375000Y-93625000D03*
X153375000Y-100125000D03*
X148875000Y-93625000D03*
X148875000Y-100125000D03*
%TD*%
%TO.C,SW1*%
X153450000Y-67800000D03*
X153450000Y-74300000D03*
X148950000Y-67800000D03*
X148950000Y-74300000D03*
%TD*%
D16*
%TO.C,J2*%
X36925000Y-52200000D03*
D17*
X36925000Y-54740000D03*
X36925000Y-57280000D03*
%TD*%
M02*
